<svg id="Icons" xmlns="http://www.w3.org/2000/svg" viewBox="0 0 32 32"><defs><style>.cls-1{fill:#5514b4;}</style></defs><path class="cls-1" d="M8.506,5.01752a.5.5,0,0,0,.5-.5c0-.27613-.22387-1.50464-.5-1.50464-.26342,0-.5,1.22851-.5,1.50464A.5.5,0,0,0,8.506,5.01752Z"/><path class="cls-1" d="M27,12H24.006V6.5a.5.5,0,0,0-1,0V12H19.02579V6.5a.5.5,0,0,0-1,0V12H14.006V6.5a.5.5,0,1,0-1,0V12h-4V6.5a.5.5,0,0,0-1,0V12H5a1.003,1.003,0,0,0-1,1V26a1.003,1.003,0,0,0,1,1H27a1.003,1.003,0,0,0,1-1V13A1.003,1.003,0,0,0,27,12Zm0,14H5V19.79517a1.7275,1.7275,0,0,0,.78528.19488,1.77986,1.77986,0,0,0,1.77051-1.76977l.02148-.40308a.772.772,0,0,1,1.544-.003l-.002.37683a1.77111,1.77111,0,1,0,3.542.0293l.02148-.40308a.772.772,0,0,1,1.544-.003l-.002.37683a1.77111,1.77111,0,1,0,3.542.0293l.02148-.40308a.772.772,0,0,1,1.54395.00153l.001.37225a1.77159,1.77159,0,1,0,3.543.0293l.02149-.40308a.7715.7715,0,0,1,1.543.004l.00293.36975a1.78766,1.78766,0,0,0,1.77149,1.79907,1.72785,1.72785,0,0,0,.785-.1947Zm0-7.87854a.50034.50034,0,0,0-.01355.06952.7715.7715,0,0,1-1.543-.00409l-.00293-.36969a1.77111,1.77111,0,1,0-3.542-.0293l-.02148.40308a.772.772,0,0,1-1.54395-.00153l-.001-.37225a1.77159,1.77159,0,1,0-3.543-.0293l-.02149.40308a.77153.77153,0,0,1-1.543.003l.002-.37677a1.77159,1.77159,0,1,0-3.543-.0293l-.02149.40308a.77153.77153,0,0,1-1.543.003l.002-.37677a1.77159,1.77159,0,1,0-3.543-.0293l-.02148.40308a.77152.77152,0,0,1-1.543,0A.49825.49825,0,0,0,5,18.12018V13H27Z"/><path class="cls-1" d="M13.506,5.01752a.5.5,0,0,0,.5-.5c0-.27613-.22387-1.50464-.5-1.50464-.26342,0-.5,1.22851-.5,1.50464A.5.5,0,0,0,13.506,5.01752Z"/><path class="cls-1" d="M18.506,5.01752a.5.5,0,0,0,.5-.5c0-.27613-.22387-1.50464-.5-1.50464-.26342,0-.5,1.22851-.5,1.50464A.5.5,0,0,0,18.506,5.01752Z"/><path class="cls-1" d="M23.506,5.01752a.5.5,0,0,0,.5-.5c0-.27613-.22387-1.50464-.5-1.50464-.26342,0-.5,1.22851-.5,1.50464A.5.5,0,0,0,23.506,5.01752Z"/></svg>