<svg id="Icons" xmlns="http://www.w3.org/2000/svg" viewBox="0 0 32 32"><defs><style>.cls-1{fill:#5514b4;}</style></defs><path class="cls-1" d="M29.39172,11.91809A14,14,0,0,0,11.91809,2.60828c-.28479.08685-.55566.19677-.83069.2998l-.00732-.00427-.0044.00848a13.992,13.992,0,1,0,18.316,9.0058ZM13.78589,22.47046c-.00391-.01441-.00415-.02881-.00855-.04315a1.49992,1.49992,0,0,0-1.87207-.9975c-.01452.00439-.02673.01233-.041.01715a18.20271,18.20271,0,0,1-1.60352-3.69745,17.906,17.906,0,0,1-.71948-3.96588c.0105-.00293.021-.003.03143-.00623a1.5,1.5,0,0,0,.9975-1.87219c-.00317-.01043-.009-.01922-.01233-.02954a17.34861,17.34861,0,0,1,7.65845-2.33453c.00293.0105.00317.021.00635.03155a1.49992,1.49992,0,0,0,1.87207.9975c.01477-.00446.0271-.01251.04162-.01739a17.85294,17.85294,0,0,1,2.33533,7.661c-.01465.004-.02954.00427-.04443.00879a1.5,1.5,0,0,0-.99744,1.87219c.00452.01471.01257.02722.01746.04168A18.19692,18.19692,0,0,1,17.75,21.73926,18.22412,18.22412,0,0,1,13.78589,22.47046ZM3.72223,20.22638c-.05042-.14661-.11182-.28656-.15741-.436-.04492-.14727-.07147-.29547-.1109-.44311a18.01612,18.01612,0,0,1,4.7345-5.84143,1.49941,1.49941,0,0,0,.35064.20587A18.89372,18.89372,0,0,0,9.30371,18.041a19.19419,19.19419,0,0,0,1.77222,4.032,1.4956,1.4956,0,0,0-.17249.37549A17.9138,17.9138,0,0,1,3.72223,20.22638Zm20.10516-1.71661a1.50215,1.50215,0,0,0-.36755-.22193,18.1649,18.1649,0,0,0-2.54456-8.34753,1.50364,1.50364,0,0,0,.17725-.369,18.00791,18.00791,0,0,1,7.187,2.20709c.04981.14508.1106.28339.15564.43128.04541.14892.07239.29882.11218.44812A17.91125,17.91125,0,0,1,23.82739,18.50977Zm3.8689-8.14911a19.04453,19.04453,0,0,0-6.65845-1.79242,1.49,1.49,0,0,0-1.68-.895,19.04261,19.04261,0,0,0-5.20154-4.52643A13.0088,13.0088,0,0,1,27.69629,10.36066ZM12.65674,3.45294A17.914,17.914,0,0,1,18.5094,8.173a1.50212,1.50212,0,0,0-.22131.36664,18.20371,18.20371,0,0,0-8.34858,2.5445,1.50286,1.50286,0,0,0-.3659-.17615A18.01567,18.01567,0,0,1,11.7832,3.71881c.14356-.04925.28028-.10943.42652-.154C12.35828,3.51953,12.50781,3.49268,12.65674,3.45294Zm-2.301.85327a19.03762,19.03762,0,0,0-1.78662,6.65552,1.48993,1.48993,0,0,0-.89581,1.68054A19.03277,19.03277,0,0,0,3.14642,17.8407,13.00851,13.00851,0,0,1,10.35571,4.30621ZM4.3161,21.66492a18.82178,18.82178,0,0,0,6.66168,1.80426,1.4902,1.4902,0,0,0,1.64014.86236,18.80628,18.80628,0,0,0,5.22388,4.52185A13.00846,13.00846,0,0,1,4.3161,21.66492Zm15.47418,6.77026c-.14953.04559-.3.07269-.44995.11261a17.9172,17.9172,0,0,1-5.85-4.72052,1.501,1.501,0,0,0,.20971-.33832,19.21913,19.21913,0,0,0,4.34095-.79266,18.86788,18.86788,0,0,0,4.01855-1.78113,1.49983,1.49983,0,0,0,.3894.18146,17.90675,17.90675,0,0,1-2.22522,7.18207C20.078,28.3288,19.939,28.38989,19.79028,28.43518Zm1.84815-.73859a19.03637,19.03637,0,0,0,1.79345-6.65869,1.49,1.49,0,0,0,.89478-1.68005A19.04421,19.04421,0,0,0,28.853,14.15491,13.00849,13.00849,0,0,1,21.63843,27.69659Z"/></svg>