<svg id="Icons" xmlns="http://www.w3.org/2000/svg" viewBox="0 0 32 32"><defs><style>.cls-1{fill:#5514b4;}</style></defs><path class="cls-1" d="M27.5,27H5V4.5a.5.5,0,0,0-1,0V28H27.5a.5.5,0,0,0,0-1Z"/><rect class="cls-1" x="7" y="9.99591" width="5" height="15"/><rect class="cls-1" x="14" y="16.99591" width="5" height="8"/><rect class="cls-1" x="21" y="14.99591" width="5" height="10"/><path class="cls-1" d="M9.5,8a1.48248,1.48248,0,0,0,.64642-.15234c.00568.00573.00775.01349.01374.019l4.74316,4.39648a.482.482,0,0,0,.11346.07087A1.4758,1.4758,0,0,0,15,12.5a1.49744,1.49744,0,0,0,2.95215.35773l4.21411-1.68567a1.49677,1.49677,0,1,0-.11841-1.02979l-4.21411,1.68567a1.48814,1.48814,0,0,0-2.36951-.40826L10.84979,7.14252A1.4828,1.4828,0,0,0,11,6.5,1.5,1.5,0,1,0,9.5,8Zm14,2a.5.5,0,1,1-.5.5A.50034.50034,0,0,1,23.5,10Zm-7,2a.5.5,0,1,1-.5.5A.50034.50034,0,0,1,16.5,12Zm-7-6a.5.5,0,1,1-.5.5A.50034.50034,0,0,1,9.5,6Z"/></svg>