<svg id="Icons" xmlns="http://www.w3.org/2000/svg" viewBox="0 0 32 32"><defs><style>.cls-1{fill:#5514b4;}</style></defs><path class="cls-1" d="M24.42407,14.56848a1.92989,1.92989,0,0,0-1.36786-.56555h-.68707V11.37549a6.36621,6.36621,0,0,0-12.73242,0v2.62744H8.94379v-.002A1.934,1.934,0,0,0,7.00934,15.9353h0v.00006h.0022v9.13831H7.0108a1.93446,1.93446,0,0,0,1.93445,1.93445l.02814-.00153H23.05621a1.93446,1.93446,0,0,0,1.93445-1.93445V15.9353A1.92515,1.92515,0,0,0,24.42407,14.56848Zm-13.78735-3.193a5.36621,5.36621,0,0,1,10.73242,0v2.62744H10.63672Z"/></svg>