<svg id="Icons" xmlns="http://www.w3.org/2000/svg" viewBox="0 0 32 32"><defs><style>.cls-1{fill:#5514b4;}</style></defs><rect class="cls-1" x="12.86227" y="14.84961" width="6" height="4" rx="0.5"/><path class="cls-1" d="M15.97213,4.59827,6.98092,6.72181v7.87841c0,8.04883,8.147,12.5,9,12.5s9-4.45117,9-12.49951l.00537-7.89062Zm3.89014,13.75134a1.50164,1.50164,0,0,1-1.5,1.5h-5a1.50164,1.50164,0,0,1-1.5-1.5v-3a1.49757,1.49757,0,0,1,1-1.40789v-1.057a3,3,0,1,1,6,0v1.057a1.49757,1.49757,0,0,1,1,1.40789Z"/><path class="cls-1" d="M17.86227,13.84961v-.96484a2,2,0,1,0-4,0v.96484Z"/></svg>