<svg id="Icons" xmlns="http://www.w3.org/2000/svg" viewBox="0 0 32 32"><defs><style>.cls-1{fill:#5514b4;}</style></defs><path class="cls-1" d="M27,7H25V4.5a.5.5,0,0,0-1,0V7H8V4.5a.5.5,0,0,0-1,0V7H5A1.003,1.003,0,0,0,4,8V27a1.003,1.003,0,0,0,1,1H27a1.003,1.003,0,0,0,1-1V8A1.003,1.003,0,0,0,27,7Zm0,20H5V13H27Zm0-15H5V8H7v.5a.5.5,0,0,0,1,0V8H24v.5a.5.5,0,0,0,1,0V8h2Z"/><path class="cls-1" d="M13.19305,20.48474a.50659.50659,0,0,0,.50586.50586h.44623a2.20933,2.20933,0,0,1-.267.41113,3.01327,3.01327,0,0,0-.68457,2.05371v.50586h5.13721a.50586.50586,0,1,0,0-1.01172h-4.0874a1.929,1.929,0,0,1,.44629-.94189,2.47987,2.47987,0,0,0,.51165-1.01709h2.40192a.50586.50586,0,0,0,0-1.01172h-2.3985a2.45669,2.45669,0,0,0-.51507-1.02685,2.0084,2.0084,0,0,1-.48487-1.4458c0-1.41163,1.50391-1.4834,1.80518-1.4834.90332,0,1.81494.45605,1.81494,1.47461a.50586.50586,0,0,0,1.01172,0A2.55636,2.55636,0,0,0,16.01,15.01062a2.55428,2.55428,0,0,0-2.8169,2.49561,3.02162,3.02162,0,0,0,.69043,2.05761,2.19552,2.19552,0,0,1,.26673.415h-.4513A.50659.50659,0,0,0,13.19305,20.48474Z"/></svg>