<svg id="Icons" xmlns="http://www.w3.org/2000/svg" viewBox="0 0 32 32"><defs><style>.cls-1{fill:#5514b4;}</style></defs><path class="cls-1" d="M27.999,6H4.001A2.00687,2.00687,0,0,0,2,8.001V22.999A2.00687,2.00687,0,0,0,4.001,25H6.293L4.64648,26.64648a.5.5,0,1,0,.707.707L7.707,25H24.293l2.35351,2.35352a.5.5,0,0,0,.707-.707L25.707,25h2.292A2.00687,2.00687,0,0,0,30,22.999V8.001A2.00687,2.00687,0,0,0,27.999,6ZM29,22.999A1.00212,1.00212,0,0,1,27.999,24H4.001A1.00212,1.00212,0,0,1,3,22.999V8.001A1.00212,1.00212,0,0,1,4.001,7H27.999A1.00212,1.00212,0,0,1,29,8.001Z"/><circle class="cls-1" cx="12.55414" cy="13.48938" r="1.48364"/><path class="cls-1" d="M19.59406,14.973a1.48364,1.48364,0,1,0-1.48371-1.48364A1.48536,1.48536,0,0,0,19.59406,14.973Z"/><path class="cls-1" d="M16.05145,17.99847v-.11035a2.82072,2.82072,0,0,0-1.92126-2.49395,2.435,2.435,0,0,1-3.15228-.00013,2.82142,2.82142,0,0,0-1.92157,2.49408v.11035h6.99511Z"/><path class="cls-1" d="M17.05145,17.99847h6.04v-.11035a2.82117,2.82117,0,0,0-1.92132-2.49395,2.43514,2.43514,0,0,1-3.15113.00091,3.6165,3.6165,0,0,0-1.00177.60339,2.90591,2.90591,0,0,0-.3432.36121,3.31815,3.31815,0,0,1,.37738,1.52844Z"/><path class="cls-1" d="M4,23H28V8H4Zm4.05634-5.11188a3.70758,3.70758,0,0,1,2.28277-3.29675,2.45726,2.45726,0,0,1-.26861-1.102,2.48364,2.48364,0,1,1,4.96728,0,2.4569,2.4569,0,0,1-.26868,1.10211,4.37461,4.37461,0,0,1,1.31488.94507,3.90764,3.90764,0,0,1,.279-.29395,4.51856,4.51856,0,0,1,1.019-.64563,2.45727,2.45727,0,0,1-.27167-1.1076,2.48368,2.48368,0,0,1,4.96735,0,2.45728,2.45728,0,0,1-.26868,1.10217,3.70778,3.70778,0,0,1,2.28247,3.29657v.28662a.82625.82625,0,0,1-.82617.82373H8.88251a.82625.82625,0,0,1-.82617-.82373Z"/></svg>