<svg id="Icons" xmlns="http://www.w3.org/2000/svg" viewBox="0 0 32 32"><defs><style>.cls-1{fill:#5514b4;}</style></defs><path class="cls-1" d="M23.56348,11.78613,16.82861,3.749a1.08542,1.08542,0,0,0-.84619-.40234,1.11193,1.11193,0,0,0-.84326.39893L8.42822,11.794A1.93459,1.93459,0,0,0,8,13.00439V27.5a.49971.49971,0,0,0,.5.5h15a.49971.49971,0,0,0,.5-.5V13.00635A1.93206,1.93206,0,0,0,23.56348,11.78613ZM23,27H9V13.00439a.92543.92543,0,0,1,.20117-.57617l6.70557-8.042.023-.00049c.042-.00049.12549.00049.12793,0l6.73486,8.0376a.925.925,0,0,1,.20752.583Z"/><circle class="cls-1" cx="16" cy="8" r="1.00073"/><path class="cls-1" d="M15.98877,15.03271c.90332,0,1.81494.45606,1.81494,1.47461a.50586.50586,0,0,0,1.01172,0,2.55636,2.55636,0,0,0-2.82666-2.48681,2.55427,2.55427,0,0,0-2.81689,2.4956,3.02163,3.02163,0,0,0,.69042,2.05762,2.19552,2.19552,0,0,1,.26673.415h-.4513a.50586.50586,0,0,0,0,1.01172H14.124a2.20933,2.20933,0,0,1-.267.41113,3.01327,3.01327,0,0,0-.68457,2.05371v.50586h5.13721a.50586.50586,0,0,0,0-1.01172h-4.0874a1.929,1.929,0,0,1,.44629-.94189,2.47987,2.47987,0,0,0,.51165-1.01709H17.582a.50586.50586,0,1,0,0-1.01172h-2.3985a2.4568,2.4568,0,0,0-.51507-1.02686,2.00839,2.00839,0,0,1-.48487-1.4458C14.18359,15.10449,15.6875,15.03271,15.98877,15.03271Z"/></svg>