<svg id="Icons" xmlns="http://www.w3.org/2000/svg" viewBox="0 0 32 32"><defs><style>.cls-1{fill:#5514b4;}</style></defs><path class="cls-1" d="M26.97656,18.7959a.49995.49995,0,1,0-.707.707,2.49968,2.49968,0,0,1,0,3.53564,2.571,2.571,0,0,1-3.14258.31409l.36328-.3634a1.93679,1.93679,0,0,0,0-2.73682l-8.54834-8.54925a4.9841,4.9841,0,1,0-4.93212,4.311,5.01845,5.01845,0,0,0,.68994-.06738l8.54834,8.54785a1.938,1.938,0,0,0,2.7373,0l.42993-.43012a3.49316,3.49316,0,0,0,4.56128-5.26861ZM7.18164,13.84277a4.0009,4.0009,0,1,1,2.82813,1.17139A3.97294,3.97294,0,0,1,7.18164,13.84277Z"/></svg>