<svg id="Icons" xmlns="http://www.w3.org/2000/svg" viewBox="0 0 32 32"><defs><style>.cls-1{fill:#5514b4;}</style></defs><path class="cls-1" d="M16,2A14,14,0,1,0,30,16,14,14,0,0,0,16,2Zm0,27A13,13,0,1,1,29,16,13.01474,13.01474,0,0,1,16,29Z"/><path class="cls-1" d="M16.00684,9c-2.35743,0-4.00391,1.43555-4.00391,3.49121a.5.5,0,1,0,1,0c0-1.7207,1.50879-2.49121,3.00391-2.49121,1.37988,0,2.99023.65576,2.99023,2.50391,0,1.09228-.69531,1.71142-1.5,2.42822a4.56281,4.56281,0,0,0-1.99219,3.57764.5.5,0,1,0,1,0c0-1.354.76856-2.03809,1.65821-2.83106a4.16288,4.16288,0,0,0,1.834-3.1748C19.99707,10.44092,18.35645,9,16.00684,9Z"/><circle class="cls-1" cx="16" cy="21.99335" r="1"/></svg>