<svg id="Icons" xmlns="http://www.w3.org/2000/svg" viewBox="0 0 32 32"><defs><style>.cls-1{fill:#5514b4;}</style></defs><path class="cls-1" d="M14.01172,16.38086a3.52081,3.52081,0,0,0,3.98535,0L30,8.08093V7.00012a.99737.99737,0,0,0-.99713-1c-4.35272.001-21.66419.00482-26.00757.0058a.98813.98813,0,0,0-.99292.99262c-.00006.289-.00018.663-.00024,1.072Z"/><polygon class="cls-1" points="30 22.72 30 9.296 20.3 16.004 30 22.72"/><path class="cls-1" d="M19.42108,16.61145l-.85565.59167a4.52292,4.52292,0,0,1-5.12207,0l-.85974-.5949-10.58344,7.327c-.00006.40283-.00006.77509-.00012,1.07092a.99468.99468,0,0,0,1,.99378H29a1,1,0,0,0,1-1V23.93579Z"/><path class="cls-1" d="M11.70538,16.00049,2.00189,9.28589c-.00061,3.67163-.00122,9.70349-.00158,13.43347Z"/></svg>