<svg id="Icons" xmlns="http://www.w3.org/2000/svg" viewBox="0 0 32 32"><defs><style>.cls-1{fill:#5514b4;}</style></defs><circle class="cls-1" cx="16" cy="27" r="1"/><path class="cls-1" d="M23.999,2H8.001A2.00687,2.00687,0,0,0,6,4.001V27.999A2.00687,2.00687,0,0,0,8.001,30H23.999A2.00687,2.00687,0,0,0,26,27.999V4.001A2.00687,2.00687,0,0,0,23.999,2ZM25,27.999A1.00212,1.00212,0,0,1,23.999,29H8.001A1.00212,1.00212,0,0,1,7,27.999V4.001A1.00212,1.00212,0,0,1,8.001,3H23.999A1.00212,1.00212,0,0,1,25,4.001Z"/></svg>