<svg id="Icons" xmlns="http://www.w3.org/2000/svg" viewBox="0 0 32 32"><defs><style>.cls-1{fill:#5514b4;}</style></defs><path class="cls-1" d="M27.25928,7.9917H13.00049v-.061A1.95384,1.95384,0,0,0,11.04883,5.979H8.999V3.5a.5.5,0,0,0-1,0V5.979H7.95215A1.95384,1.95384,0,0,0,6.00049,7.93066v.061H4.74854A1.74629,1.74629,0,0,0,3.00439,9.73633V24.23a1.74629,1.74629,0,0,0,1.74415,1.74463H27.25928A1.74671,1.74671,0,0,0,29.00391,24.23V9.73633A1.74671,1.74671,0,0,0,27.25928,7.9917ZM28.00391,24.23a.74541.74541,0,0,1-.74463.74463H4.74854A.74531.74531,0,0,1,4.00439,24.23V9.73633a.7453.7453,0,0,1,.74415-.74463H6.00049V21.02734A1.95384,1.95384,0,0,0,7.95215,22.979h3.09668a1.95384,1.95384,0,0,0,1.95166-1.95166V8.9917H27.25928a.7454.7454,0,0,1,.74463.74463Z"/><path class="cls-1" d="M20.002,11.00781h.9917A1.00537,1.00537,0,0,1,21.999,12.01318v.98633a1.00488,1.00488,0,0,1-1.00488,1.00488h-.99268a1.00488,1.00488,0,0,1-1.00488-1.00488v-.98633A1.00537,1.00537,0,0,1,20.002,11.00781Z"/><rect class="cls-1" x="15" y="11.00488" width="3.00244" height="2.99658" rx="1.00537"/><path class="cls-1" d="M24.00244,11.00781h.9917a1.00537,1.00537,0,0,1,1.00537,1.00537v.98633a1.00488,1.00488,0,0,1-1.00488,1.00488H24.002a1.00488,1.00488,0,0,1-1.00488-1.00488v-.98633A1.00537,1.00537,0,0,1,24.00244,11.00781Z"/><path class="cls-1" d="M20.002,15.00293h.9917A1.00537,1.00537,0,0,1,21.999,16.0083v.98633a1.00488,1.00488,0,0,1-1.00488,1.00488H20.002a1.00537,1.00537,0,0,1-1.00537-1.00537V16.0083A1.00537,1.00537,0,0,1,20.002,15.00293Z"/><path class="cls-1" d="M16.00244,15.00293h.9917a1.00537,1.00537,0,0,1,1.00537,1.00537v.98633a1.00488,1.00488,0,0,1-1.00488,1.00488h-.99219a1.00537,1.00537,0,0,1-1.00537-1.00537V16.0083A1.00537,1.00537,0,0,1,16.00244,15.00293Z"/><path class="cls-1" d="M24.00244,15.00293h.9917a1.00537,1.00537,0,0,1,1.00537,1.00537v.98633a1.00488,1.00488,0,0,1-1.00488,1.00488h-.99219a1.00537,1.00537,0,0,1-1.00537-1.00537V16.0083A1.00537,1.00537,0,0,1,24.00244,15.00293Z"/><path class="cls-1" d="M20.002,19.00293h.9917A1.00537,1.00537,0,0,1,21.999,20.0083v.98633a1.00488,1.00488,0,0,1-1.00488,1.00488H20.002a1.00537,1.00537,0,0,1-1.00537-1.00537V20.0083A1.00537,1.00537,0,0,1,20.002,19.00293Z"/><path class="cls-1" d="M16.00244,19.00293h.9917a1.00537,1.00537,0,0,1,1.00537,1.00537v.98633a1.00488,1.00488,0,0,1-1.00488,1.00488h-.99219a1.00537,1.00537,0,0,1-1.00537-1.00537V20.0083A1.00537,1.00537,0,0,1,16.00244,19.00293Z"/><path class="cls-1" d="M24.00244,19.00293h.9917a1.00537,1.00537,0,0,1,1.00537,1.00537v.98633a1.00488,1.00488,0,0,1-1.00488,1.00488h-.99219a1.00537,1.00537,0,0,1-1.00537-1.00537V20.0083A1.00537,1.00537,0,0,1,24.00244,19.00293Z"/></svg>