<svg id="Icons" xmlns="http://www.w3.org/2000/svg" viewBox="0 0 32 32"><defs><style>.cls-1{fill:#5514b4;}</style></defs><path class="cls-1" d="M25.97949,18.99854H23.50977v-2.4292a1.57583,1.57583,0,0,0-1.57422-1.57422H16.49512V13.93927a5,5,0,1,0-1-.00116v1.057h-5.4336A1.57583,1.57583,0,0,0,8.4873,16.56934v2.4292H6.02441A1.01943,1.01943,0,0,0,5.00586,20.0166v5.96387a1.01944,1.01944,0,0,0,1.01855,1.01807h5.96387a1.01861,1.01861,0,0,0,1.01758-1.01807V20.0166a1.0186,1.0186,0,0,0-1.01758-1.01806H9.4873v-2.4292a.57515.57515,0,0,1,.57422-.57422h11.874a.57515.57515,0,0,1,.57422.57422v2.4292H20.01562a1.01859,1.01859,0,0,0-1.01757,1.01806v5.96387a1.0186,1.0186,0,0,0,1.01757,1.01807h5.96387a1.01944,1.01944,0,0,0,1.01856-1.01807V20.0166A1.01943,1.01943,0,0,0,25.97949,18.99854ZM12.00586,20.0166v5.96387a.01762.01762,0,0,1-.01758.01807l-5.98242-.01807.01855-5.98193ZM12.001,8.98926a4,4,0,1,1,4,4A4.00426,4.00426,0,0,1,12.001,8.98926ZM25.99805,25.98047a.01879.01879,0,0,1-.01856.01807l-5.98144-.01807.01757-5.98193,5.98243.01806Z"/><path class="cls-1" d="M16.77722,10.8186A1.336,1.336,0,0,0,17.49573,9.613a1.25853,1.25853,0,0,0-.1521-.62238,1.14143,1.14143,0,0,0-.41431-.43054,1.11767,1.11767,0,0,0-.58838-.15784,1.19046,1.19046,0,0,0-.62.17169,1.1117,1.1117,0,0,0-.445.57172,2.50509,2.50509,0,0,1,.09857-.72381,1.217,1.217,0,0,1,.2392-.44489.83732.83732,0,0,1,.3186-.22534.9389.9389,0,0,1,.32917-.06458,1.12469,1.12469,0,0,1,.36639.06171,1.08516,1.08516,0,0,1,.355.21429l.42291-.56878a1.67183,1.67183,0,0,0-.49084-.29615,1.80032,1.80032,0,0,0-.63623-.09851,1.60054,1.60054,0,0,0-.91468.27076,1.853,1.853,0,0,0-.63726.75445,2.56212,2.56212,0,0,0-.2334,1.12659,2.30626,2.30626,0,0,0,.19134.96875,1.54,1.54,0,0,0,.532.6477,1.3886,1.3886,0,0,0,.797.23108A1.58486,1.58486,0,0,0,16.77722,10.8186ZM15.40613,9.692a.59368.59368,0,0,1,.61334-.63629.6452.6452,0,0,1,.45062.16888.59889.59889,0,0,1,.18659.46741.57767.57767,0,0,1-.18659.45062.643.643,0,0,1-.45062.16888.6087.6087,0,0,1-.43634-.16888A.59112.59112,0,0,1,15.40613,9.692Z"/></svg>