<svg id="Icons" xmlns="http://www.w3.org/2000/svg" viewBox="0 0 32 32"><defs><style>.cls-1{fill:#5514b4;}</style></defs><path class="cls-1" d="M27.96051,6.99347H4.03949A1.02013,1.02013,0,0,0,3.01935,8.01361V23.98633a1.02013,1.02013,0,0,0,1.02014,1.02014h23.921a1.02018,1.02018,0,0,0,1.0202-1.02014V8.01361A1.02018,1.02018,0,0,0,27.96051,6.99347Zm0,17.013L4.01935,23.98633,4.03949,7.99347h23.921l.0202.02014Z"/><path class="cls-1" d="M25.5,13.5H19.50391a.5.5,0,0,0,0,1H25.5a.5.5,0,0,0,0-1Z"/><path class="cls-1" d="M25.5,15.5083H19.50391a.5.5,0,1,0,0,1H25.5a.5.5,0,1,0,0-1Z"/><path class="cls-1" d="M25.5,17.51367H19.50391a.5.5,0,0,0,0,1H25.5a.5.5,0,0,0,0-1Z"/><path class="cls-1" d="M14.71277,15.58575a2.457,2.457,0,0,0,.26868-1.10211,2.48365,2.48365,0,0,0-4.96729,0,2.45726,2.45726,0,0,0,.26862,1.102A3.70759,3.70759,0,0,0,8,18.88239V19.169a.82626.82626,0,0,0,.82617.82373H16.169a.82626.82626,0,0,0,.82617-.82373v-.28662A3.70743,3.70743,0,0,0,14.71277,15.58575ZM12.4978,13a1.48365,1.48365,0,1,1-1.48364,1.48364A1.48529,1.48529,0,0,1,12.4978,13Zm3.49732,5.99274H9v-.11035a2.82142,2.82142,0,0,1,1.92157-2.49408,2.435,2.435,0,0,0,3.15228.00012,2.82074,2.82074,0,0,1,1.92127,2.494Z"/></svg>