<svg id="Icons" xmlns="http://www.w3.org/2000/svg" viewBox="0 0 32 32"><defs><style>.cls-1{fill:#5514b4;}</style></defs><path class="cls-1" d="M19.911,12.60662H18.17468v6.81787H19.911a3.82228,3.82228,0,0,0,2.75781-.917,3.28829,3.28829,0,0,0,.95215-2.48486,3.3166,3.3166,0,0,0-.95215-2.48487A3.787,3.787,0,0,0,19.911,12.60662Z"/><path class="cls-1" d="M16,2A14,14,0,1,0,30,16,14,14,0,0,0,16,2Zm-.82141,18.92255h-1.708v-4.2002H8.36121v4.2002H6.6532V11.12273h1.708v4.11573h5.10937V11.12273h1.708Zm9.55469-2.35205a4.46225,4.46225,0,0,1-1.876,1.729,6.431,6.431,0,0,1-2.94629.62305H16.46667V11.12273H19.911a6.431,6.431,0,0,1,2.94629.623,4.46423,4.46423,0,0,1,1.876,1.72852,4.92534,4.92534,0,0,1,.65136,2.54834A4.92234,4.92234,0,0,1,24.73328,18.57049Z"/></svg>