<svg id="Icons" xmlns="http://www.w3.org/2000/svg" viewBox="0 0 32 32"><defs><style>.cls-1{fill:#5514b4;}</style></defs><path class="cls-1" d="M12.86224,12.84747v1.057a1.49758,1.49758,0,0,0-1,1.4079v3a1.50164,1.50164,0,0,0,1.5,1.5h5a1.50164,1.50164,0,0,0,1.5-1.5v-3a1.49758,1.49758,0,0,0-1-1.4079v-1.057a3,3,0,0,0-6,0Zm6,5.46485a.50065.50065,0,0,1-.5.5h-5a.50065.50065,0,0,1-.5-.5v-3a.50065.50065,0,0,1,.5-.5h5a.50065.50065,0,0,1,.5.5Zm-1-5.46485v.96485h-4v-.96485a2,2,0,0,1,4,0Z"/><path class="cls-1" d="M15.97217,4.56067,6.981,6.6842v7.87891c0,8.04883,8.147,12.5,9,12.5s9-4.45117,9-12.49951l.00537-7.89111ZM23.981,14.56311c0,7.03467-6.999,11.11719-8,11.48486-1.001-.36767-8-4.45019-8-11.48486V7.47522L15.97314,5.588l8.01221,1.87744Z"/></svg>