<svg id="Icons" xmlns="http://www.w3.org/2000/svg" viewBox="0 0 32 32"><defs><style>.cls-1{fill:#5514b4;}</style></defs><path class="cls-1" d="M16,2.0155A13.98438,13.98438,0,1,0,29.98434,15.99988,14.00031,14.00031,0,0,0,16,2.0155ZM5.5018,16.48718H2.94028a.5.5,0,1,1,0-1H5.5018a.5.5,0,1,1,0,1ZM15.48715,2.94031a.5.5,0,0,1,1,0v2.562a.5.5,0,1,1-1,0ZM8.92661,23.75476,7.11508,25.56629a.49995.49995,0,0,1-.707-.707l1.81152-1.81152a.49995.49995,0,0,1,.707.707Zm0-14.82812a.49984.49984,0,0,1-.707,0L6.40805,7.11511a.49995.49995,0,0,1,.707-.707L8.92661,8.21961A.49982.49982,0,0,1,8.92661,8.92664ZM21.677,11.07318,16.96585,15.7843a.9836.9836,0,0,1-.25128.92115,1,1,0,1,1-1.41419-1.41419.98842.98842,0,0,1,.98346-.23913l4.686-4.6861a.5.5,0,0,1,.70709.70715Zm3.88928,14.49311a.49983.49983,0,0,1-.707,0L23.0477,23.75476a.49995.49995,0,0,1,.707-.707l1.81152,1.81152A.49981.49981,0,0,1,25.56625,25.56629Zm0-18.45118L23.75473,8.92664a.49995.49995,0,0,1-.707-.707l1.81152-1.81153a.49995.49995,0,1,1,.707.707ZM29.034,16.48718H26.4725a.5.5,0,0,1,0-1H29.034a.5.5,0,0,1,0,1Z"/></svg>