<svg id="Icons" xmlns="http://www.w3.org/2000/svg" viewBox="0 0 32 32"><defs><style>.cls-1{fill:#5514b4;}</style></defs><path class="cls-1" d="M15.08149,12a4.061,4.061,0,0,0,3.92877,3.05357,3.94953,3.94953,0,0,0,1.14333-.17072l1.536,2.66033a4.0166,4.0166,0,0,0,0,5.91364L20.1536,26.11715a3.94965,3.94965,0,0,0-1.14334-.17072A4.061,4.061,0,0,0,15.08149,29h-2.9996a4.061,4.061,0,0,0-3.92878-3.05357,3.9497,3.9497,0,0,0-1.14334.17072L5.476,23.46067a4.017,4.017,0,0,0,0-5.92134l1.53374-2.65648a3.94958,3.94958,0,0,0,1.14333.17072A4.061,4.061,0,0,0,12.08189,12h2.9996m.8752-1h-4.75a3.03685,3.03685,0,0,1-4.61684,2.61021L4.1593,17.82a3.02781,3.02781,0,0,1,0,5.36L6.58985,27.3898A3.03684,3.03684,0,0,1,11.20669,30h4.75a3.03683,3.03683,0,0,1,4.61683-2.6102l2.432-4.21237a3.02769,3.02769,0,0,1,0-5.35486l-2.432-4.21236A3.03684,3.03684,0,0,1,15.95669,11Z"/><path class="cls-1" d="M13.58169,16.75a3.75,3.75,0,1,1-3.75,3.75,3.75425,3.75425,0,0,1,3.75-3.75m0-1a4.75,4.75,0,1,0,4.75,4.75,4.75534,4.75534,0,0,0-4.75-4.75Z"/><path class="cls-1" d="M22.92181,3.24942l1.15606.67441A2.86943,2.86943,0,0,0,25.9582,7.2136l-.006,1.33969a2.80715,2.80715,0,0,0-.47973.21687,2.90183,2.90183,0,0,0-1.41979,2.99592l-1.13534.64867a2.8935,2.8935,0,0,0-3.301-.29865,2.80756,2.80756,0,0,0-.43047.30309l-1.1533-.6728a2.86975,2.86975,0,0,0-1.88307-3.29448l.006-1.33659a2.80589,2.80589,0,0,0,.47972-.21686A2.90188,2.90188,0,0,0,18.055,3.90253l1.13532-.64867a2.89348,2.89348,0,0,0,3.301.29866,2.80762,2.80762,0,0,0,.43047-.3031m-.22-1.28607a1.87923,1.87923,0,0,1-.70657.72091,1.896,1.896,0,0,1-2.58809-.706L16.84508,3.4421a1.89692,1.89692,0,0,1-.706,2.58809,1.87268,1.87268,0,0,1-.9355.2431l-.04434-.00048-.01362,3.01973.05123-.00068a1.88051,1.88051,0,0,1,1.6006,2.89176l2.60836,1.52165a1.88986,1.88986,0,0,1,3.29464-.01491l2.56208-1.46384a1.89692,1.89692,0,0,1,.706-2.58809,1.87272,1.87272,0,0,1,.93549-.2431l.04435.00048L26.962,6.37423l-.04782.00059a1.88044,1.88044,0,0,1-1.60243-2.88889l-2.61-1.52258Z"/><path class="cls-1" d="M21.049,5.88409h0a1.95023,1.95023,0,1,1-1.689,2.918,1.9499,1.9499,0,0,1,1.689-2.918m-.00018-1a2.95037,2.95037,0,1,0,2.567,1.48638,2.93316,2.93316,0,0,0-2.567-1.48638Z"/></svg>