<svg id="Icons" xmlns="http://www.w3.org/2000/svg" viewBox="0 0 32 32"><defs><style>.cls-1{fill:#5514b4;}</style></defs><path class="cls-1" d="M16,10.967a2,2,0,1,0,2,2A2.00229,2.00229,0,0,0,16,10.967Zm0,3a1,1,0,1,1,1-1A1.001,1.001,0,0,1,16,13.967Z"/><path class="cls-1" d="M21.77728,20.38573a20.69059,20.69059,0,0,0,.212-2.9187c0-5.46533-2.083-10.42232-5.19922-12.08346L16.002,4.99881l-.77148.39258C12.12988,7.04471,10.04688,12.0017,10.04688,17.467a20.69041,20.69041,0,0,0,.211,2.91077A3.98958,3.98958,0,0,0,9.42969,27.032l.52636.44239.25879-.6377a3.01017,3.01017,0,0,1,1.47486-1.55157c.06622.13836.12805.28186.198.41583l.14062.26855,7.98047-.001.14062-.26856c.06861-.13147.12915-.27234.19422-.408a3.01067,3.01067,0,0,1,1.4591,1.54474l.25879.6377.52637-.44239a3.99012,3.99012,0,0,0-.81061-6.64624ZM9.62793,25.80346a2.99028,2.99028,0,0,1,.8064-4.38691A17.09664,17.09664,0,0,0,11.28717,24.36,3.9648,3.9648,0,0,0,9.62793,25.80346Zm3.00977-.834A17.32944,17.32944,0,0,1,11.04688,17.467c0-5.02685,1.91406-9.73189,4.6455-11.18844l.31934-.16259.32324.1582c2.74024,1.46094,4.6543,6.166,4.6543,11.19283a17.32991,17.32991,0,0,1-1.59082,7.50147Zm9.75195.834a3.96527,3.96527,0,0,0-1.64295-1.43683,17.07661,17.07661,0,0,0,.85315-2.93921,2.98952,2.98952,0,0,1,.7898,4.376Z"/></svg>