<svg id="Icons" xmlns="http://www.w3.org/2000/svg" viewBox="0 0 32 32"><defs><style>.cls-1{fill:#5514b4;}</style></defs><path class="cls-1" d="M23.01367,4.01416a3,3,0,1,0,3,3A3.00328,3.00328,0,0,0,23.01367,4.01416Z"/><path class="cls-1" d="M21.53418,16.98633h-4.7356c-.01416-.02039-.03015-.03925-.04443-.05945a.47269.47269,0,0,0,.07886-.05237l3.52734-3.52783a2.16077,2.16077,0,0,0,0-3.05762L16.085,6.01416a2.03148,2.03148,0,0,0-2.80566,0L10.39648,8.89648a1.56061,1.56061,0,0,0,2.207,2.207l2.08105-2.08106.86914.86914L11.4873,13.97314l-.00036.00055c-.15418-.01013-.30774-.02349-.46448-.02349a7.086,7.086,0,1,0,6.94959,6.05029h2.03479v5.55029a1.50314,1.50314,0,0,0,3.00586,0V18.46436A1.47986,1.47986,0,0,0,21.53418,16.98633ZM11.02246,27.00049a6.02515,6.02515,0,1,1,6.02539-6.0249A6.03115,6.03115,0,0,1,11.02246,27.00049Z"/></svg>