<svg id="Icons" xmlns="http://www.w3.org/2000/svg" viewBox="0 0 32 32"><defs><style>.cls-1{fill:#5514b4;}</style></defs><path class="cls-1" d="M27.5,7H25V4.5a.5.5,0,0,0-1,0V7H21.5a.5.5,0,0,0,0,1H24v2.5a.5.5,0,0,0,1,0V8h2.5a.5.5,0,0,0,0-1Z"/><path class="cls-1" d="M18.89465,17.095a6.01173,6.01173,0,1,0-8.7893,0A9.67489,9.67489,0,0,0,4,25.832V27a1.00067,1.00067,0,0,0,1,1H24a1.00067,1.00067,0,0,0,1-1V25.832A9.67489,9.67489,0,0,0,18.89465,17.095ZM14.5,18.01392a5.01172,5.01172,0,1,1,5.01172-5.01172A5.01737,5.01737,0,0,1,14.5,18.01392Z"/></svg>