<svg id="Icons" xmlns="http://www.w3.org/2000/svg" viewBox="0 0 32 32"><defs><style>.cls-1{fill:#5514b4;}</style></defs><path class="cls-1" d="M16.50323,8.03119V3.51605a.5.5,0,1,0-1,0V8.0329a6.01748,6.01748,0,0,0-5.501,5.99359v6.94965a5.99895,5.99895,0,1,0,11.99786.02264V14.04913A6.00637,6.00637,0,0,0,16.50323,8.03119Zm4.49689,12.96759a4.97062,4.97062,0,0,1-4.978,4.99719,5.02552,5.02552,0,0,1-5.01983-5.01983V14.02649a4.999,4.999,0,1,1,9.99786.02264Z"/><path class="cls-1" d="M16.00323,11.02533a.49972.49972,0,0,0-.5.5v2.00781a.5.5,0,0,0,1,0V11.52533A.49971.49971,0,0,0,16.00323,11.02533Z"/></svg>