<svg id="Icons" xmlns="http://www.w3.org/2000/svg" viewBox="0 0 32 32"><defs><style>.cls-1{fill:#5514b4;}</style></defs><path class="cls-1" d="M13.41077,21.99951a.5005.5005,0,0,0-.35743.8501l2.04609,2.08716A8.98732,8.98732,0,0,1,13.15332,7.46631a.50028.50028,0,1,0-.31641-.94922A9.98437,9.98437,0,0,0,15.127,25.93823l.00159.02881c.0011.01.02008.00128.03015.002L13.026,28.16846a.50036.50036,0,0,0,.71875.69629l3.28418-3.38819-3.26074-3.32715A.50106.50106,0,0,0,13.41077,21.99951Z"/><path class="cls-1" d="M16.79028,6.04633,16.79,6.04077c-.0011-.01-.02008-.00128-.03015-.00195l2.13275-2.19946a.50036.50036,0,0,0-.71875-.69629L14.88965,6.53125,18.15039,9.8584a.50106.50106,0,0,0,.35742.1499.5005.5005,0,0,0,.35742-.8501L16.7951,7.04657a8.98484,8.98484,0,0,1,2.05646,17.47589.49982.49982,0,1,0,.31641.94824A9.98244,9.98244,0,0,0,16.79028,6.04633Z"/></svg>