<svg id="Icons" xmlns="http://www.w3.org/2000/svg" viewBox="0 0 32 32"><defs><style>.cls-1{fill:#5514b4;}</style></defs><path class="cls-1" d="M9.50635,12.05115v2.18274l1.998-.87787A2.99742,2.99742,0,0,0,9.50635,12.05115Z"/><path class="cls-1" d="M2,4V23.06787A1.93425,1.93425,0,0,0,3.93213,25H28.06787A1.93425,1.93425,0,0,0,30,23.06787V4ZM9,19a4,4,0,1,1,4-4A4,4,0,0,1,9,19Zm11.49512,0H16.5a.5.5,0,0,1,0-1h3.99512a.5.5,0,0,1,0,1ZM24.5,17h-8a.5.5,0,0,1,0-1h8a.5.5,0,0,1,0,1Zm0-2h-8a.5.5,0,0,1,0-1h8a.5.5,0,0,1,0,1Zm0-2h-8a.5.5,0,0,1,0-1h8a.5.5,0,0,1,0,1ZM29,7H3V5H29Z"/><path class="cls-1" d="M9.00635,15.5a.50032.50032,0,0,1-.5-.5V12.04987A2.99589,2.99589,0,1,0,12,15a2.967,2.967,0,0,0-.09912-.72632L9.20752,15.45752A.49946.49946,0,0,1,9.00635,15.5Z"/></svg>