<svg id="Icons" xmlns="http://www.w3.org/2000/svg" viewBox="0 0 32 32"><defs><style>.cls-1{fill:#5514b4;}</style></defs><path class="cls-1" d="M23.985,4H6.0022A1.00219,1.00219,0,0,0,5,5.00214V26.93707A1.06293,1.06293,0,0,0,6.06293,28H24.01025A2.98975,2.98975,0,0,0,27,25.01025V7.015A3.015,3.015,0,0,0,23.985,4ZM6.06293,27A.063.063,0,0,1,6,26.93707L6.0022,5H7.99707V27ZM26,25.01025A1.992,1.992,0,0,1,24.01025,27H8.99707V5H23.985A2.01729,2.01729,0,0,1,26,7.015Z"/><path class="cls-1" d="M13.82617,17H21.169a.82626.82626,0,0,0,.82617-.82373v-.28662A3.70735,3.70735,0,0,0,19.71277,12.593a2.45736,2.45736,0,0,0,.26868-1.10218,2.48365,2.48365,0,0,0-4.96729,0,2.45759,2.45759,0,0,0,.26862,1.10206A3.70767,3.70767,0,0,0,13,15.88965v.28662A.82626.82626,0,0,0,13.82617,17Zm3.67163-6.9928a1.48365,1.48365,0,1,1-1.48364,1.48364A1.48532,1.48532,0,0,1,17.4978,10.0072ZM14,15.88965a2.82143,2.82143,0,0,1,1.92157-2.49408,2.43521,2.43521,0,0,0,3.15228.00012,2.82074,2.82074,0,0,1,1.92127,2.494V16H14Z"/><path class="cls-1" d="M22.48828,19.00488H11.99316a.5.5,0,0,0,0,1H22.48828a.5.5,0,1,0,0-1Z"/><path class="cls-1" d="M20.23828,21.01318H14.24219a.5.5,0,0,0,0,1h5.99609a.5.5,0,0,0,0-1Z"/></svg>