<svg id="Icons" xmlns="http://www.w3.org/2000/svg" viewBox="0 0 32 32"><defs><style>.cls-1{fill:#5514b4;}</style></defs><path class="cls-1" d="M27.999,6H4.001A2.00684,2.00684,0,0,0,2,8.001V22.999A2.00684,2.00684,0,0,0,4.001,25H6.293L4.64648,26.64648a.5.5,0,1,0,.707.707L7.707,25H8v1.12256A1.87966,1.87966,0,0,0,9.87744,28h5.24512a1.86772,1.86772,0,0,0,.51745-.08063,1.96712,1.96712,0,0,0,.50116.07111h7.72455a2.14,2.14,0,0,0,1.97449-1.44324l.80627.80628a.5.5,0,0,0,.707-.707l-1.36036-1.36035V25H27.999A2.00687,2.00687,0,0,0,30,22.999V8.001A2.00687,2.00687,0,0,0,27.999,6ZM9,26.12256V13.87744A.87835.87835,0,0,1,9.87744,13h5.24512A.87835.87835,0,0,1,16,13.87744v6.132a2.21734,2.21734,0,0,0-1.98627,2.2605v3.44476A2.36763,2.36763,0,0,0,14.39008,27H9.87744A.87835.87835,0,0,1,9,26.12256Zm15.99316-.4079a1.22486,1.22486,0,0,1-1.12744,1.27582H16.14117a1.22486,1.22486,0,0,1-1.12744-1.27582V22.2699a1.22486,1.22486,0,0,1,1.12744-1.27582h7.72455a1.22486,1.22486,0,0,1,1.12744,1.27582ZM29,22.999A1.00212,1.00212,0,0,1,27.999,24H25.99316V22.2699a2.2119,2.2119,0,0,0-2.12744-2.27582H17V13.87744A1.87966,1.87966,0,0,0,15.12256,12H9.87744A1.87966,1.87966,0,0,0,8,13.87744V24H4.001A1.00212,1.00212,0,0,1,3,22.999V8.001A1.00212,1.00212,0,0,1,4.001,7H27.999A1.00212,1.00212,0,0,1,29,8.001Z"/><path class="cls-1" d="M20.00342,21.995a2.0022,2.0022,0,1,0,2.0022,2.00219A2.0022,2.0022,0,0,0,20.00342,21.995Zm0,3.00439a1.0022,1.0022,0,1,1,1.0022-1.0022A1.00334,1.00334,0,0,1,20.00342,24.99939Z"/><path class="cls-1" d="M13.5,14h-2a.5.5,0,0,0,0,1h2a.5.5,0,0,0,0-1Z"/><circle class="cls-1" cx="12.5" cy="25.5" r="0.5"/></svg>