<svg id="Icons" xmlns="http://www.w3.org/2000/svg" viewBox="0 0 32 32"><defs><style>.cls-1{fill:#5514b4;}</style></defs><path class="cls-1" d="M29.5,20.01069a3.2443,3.2443,0,0,0-1.5.33642V14.01069H25v-.80561l2.93164-1.26959a.8619.8619,0,0,0,.001-1.58154L24,8.65131v5.35938H20.89069l-.70221-2.80957A1.69646,1.69646,0,0,0,18.7168,9.92963l-8.416-.84131a1.70032,1.70032,0,0,0-1.61719.812L6.21722,14.01069H3v.5A8.01823,8.01823,0,0,0,7.85736,21.8498a2.28626,2.28626,0,0,1-.85931.16089,2.55686,2.55686,0,0,1-1.917-.87354A3.52387,3.52387,0,0,0,2.5,20.01069a.5.5,0,0,0,0,1,2.55683,2.55683,0,0,1,1.917.87353,3.51907,3.51907,0,0,0,5.16113,0,2.53809,2.53809,0,0,1,3.832,0,3.52182,3.52182,0,0,0,5.16308.00049,2.54465,2.54465,0,0,1,3.83887,0,3.528,3.528,0,0,0,5.168,0,2.562,2.562,0,0,1,1.91992-.874.5.5,0,0,0,0-1Zm-4.5-7.895v-1.9419l2.24219.9707ZM9.541,10.41449a.68475.68475,0,0,1,.66015-.33105l8.416.84131a.69141.69141,0,0,1,.60058.519l.64161,2.5669H7.38281Z"/></svg>