<svg id="Icons" xmlns="http://www.w3.org/2000/svg" viewBox="0 0 32 32"><defs><style>.cls-1{fill:#5514b4;}</style></defs><path class="cls-1" d="M20.87579,16.014a6.99843,6.99843,0,1,0-9.75378.00091C6.725,17.77887,4,21.452,4,25.66113V27a1.001,1.001,0,0,0,1,1H27a1.001,1.001,0,0,0,1-1V25.66113C28,21.45129,25.27423,17.77765,20.87579,16.014ZM10,11a5.998,5.998,0,1,1,6,6A6.0068,6.0068,0,0,1,10,11ZM27,27H5V25.66113c0-4.61181,3.46484-7.57324,6.707-8.80761l.29492-.11206a6.97581,6.97581,0,0,0,7.99457-.00062l.29645.11268C23.53516,18.08789,27,21.04932,27,25.66113Z"/></svg>