<svg id="Icons" xmlns="http://www.w3.org/2000/svg" viewBox="0 0 32 32"><defs><style>.cls-1{fill:#5514b4;}</style></defs><path class="cls-1" d="M26.84155,15.37024a5.98522,5.98522,0,0,0-7.88678-7.01257A6.98277,6.98277,0,0,0,6.12762,13.30524,5.99675,5.99675,0,0,0,8,25H25a4.98884,4.98884,0,0,0,1.84155-9.62976ZM25,24H8a4.99677,4.99677,0,0,1-1.55786-9.74554l.83179-.27552L7.11,13.11816A5.97675,5.97675,0,0,1,12.9906,6a5.95107,5.95107,0,0,1,5.11066,2.87872l.42676.699.7694-.28064a4.98274,4.98274,0,0,1,6.57087,5.8435l-.1977.838.79926.32A3.98886,3.98886,0,0,1,25,24Z"/><path class="cls-1" d="M20.66669,17.27722l-2.32257-1.06647a.41312.41312,0,0,0-.45612.16889l-.66046.9917a4.35955,4.35955,0,0,1-2.70215-2.61926l.99078-.66053a.41351.41351,0,0,0,.16877-.45581l-1.06525-2.32293a.41361.41361,0,0,0-.39233-.28278H11.44562a.415.415,0,0,0-.41559.40991c-.01141,5.78339,3.706,9.50971,9.47967,9.50971l.02649-.00007a.41515.41515,0,0,0,.41-.4151l.00305-2.86456A.41341.41341,0,0,0,20.66669,17.27722Zm-.71991,2.65936A8.305,8.305,0,0,1,14.311,17.65991,8.3145,8.3145,0,0,1,12.043,12.03h1.80542l.69244,1.50989L13.9707,13.92l-.62707.41809.22912.718a5.32221,5.32221,0,0,0,3.35175,3.26825l.71783.22827.41755-.627.38-.57056,1.509.69287Z"/></svg>