<svg id="Icons" xmlns="http://www.w3.org/2000/svg" viewBox="0 0 32 32"><defs><style>.cls-1{fill:#5514b4;}</style></defs><path class="cls-1" d="M10.01355,15.00964H5.95886a1.97457,1.97457,0,0,0-1.97265,1.97217v4.05567a1.97457,1.97457,0,0,0,1.97265,1.97216h4.05469a1.97457,1.97457,0,0,0,1.97266-1.97216V16.98181A1.97458,1.97458,0,0,0,10.01355,15.00964Zm.97266,6.02784a.97359.97359,0,0,1-.97266.97216H5.95886a.97358.97358,0,0,1-.97265-.97216V16.98181a.97359.97359,0,0,1,.97265-.97217h4.05469a.9736.9736,0,0,1,.97266.97217Z"/><path class="cls-1" d="M26.00964,9.00964H15.96277a1.97884,1.97884,0,0,0-1.97656,1.97657V21.03308a1.97884,1.97884,0,0,0,1.97656,1.97656H26.00964a1.97885,1.97885,0,0,0,1.97657-1.97656V10.98621A1.97885,1.97885,0,0,0,26.00964,9.00964Zm.97657,12.02344a.97786.97786,0,0,1-.97657.97656H15.96277a.97785.97785,0,0,1-.97656-.97656V10.98621a.97786.97786,0,0,1,.97656-.97657H26.00964a.97787.97787,0,0,1,.97657.97657Z"/></svg>