<svg id="Icons" xmlns="http://www.w3.org/2000/svg" viewBox="0 0 32 32"><defs><style>.cls-1{fill:#5514b4;}</style></defs><path class="cls-1" d="M19.54163,15.95239a1.48364,1.48364,0,1,0-1.48371-1.48364A1.48532,1.48532,0,0,0,19.54163,15.95239Z"/><path class="cls-1" d="M14.0777,16.384a2.43526,2.43526,0,0,1-3.1521-.00018,2.82149,2.82149,0,0,0-1.92169,2.49414v.10986h6.56152v-.01025H15.999v-.09961A2.82063,2.82063,0,0,0,14.0777,16.384Z"/><circle class="cls-1" cx="12.50171" cy="14.479" r="1.48364"/><path class="cls-1" d="M21.11761,16.37366a2.43517,2.43517,0,0,1-3.15087.00091,3.6163,3.6163,0,0,0-1.0019.60346,2.90693,2.90693,0,0,0-.34643.36419,3.31855,3.31855,0,0,1,.38061,1.53571v.09961h6.04v-.10986A2.82137,2.82137,0,0,0,21.11761,16.37366Z"/><path class="cls-1" d="M26.84155,15.37024a5.98522,5.98522,0,0,0-7.88678-7.01257A6.98277,6.98277,0,0,0,6.12762,13.30524,5.99675,5.99675,0,0,0,8,25H25a4.98884,4.98884,0,0,0,1.84155-9.62976ZM24.03906,19.1543a.82584.82584,0,0,1-.82617.82324h-6.9892c-.01776.00116-.03283.01025-.05084.01025H8.83008a.82584.82584,0,0,1-.82617-.82324v-.28662a3.70833,3.70833,0,0,1,2.28283-3.29675,2.45735,2.45735,0,0,1-.26867-1.10218,2.48364,2.48364,0,0,1,4.96728,0,2.45758,2.45758,0,0,1-.26874,1.1023,4.3762,4.3762,0,0,1,1.31037.93988,3.78756,3.78756,0,0,1,.28357-.299,4.51846,4.51846,0,0,1,1.0191-.64569,2.45712,2.45712,0,0,1-.27173-1.10773,2.48368,2.48368,0,0,1,4.96735,0,2.4569,2.4569,0,0,1-.2688,1.10229,3.7075,3.7075,0,0,1,2.28259,3.29664Z"/></svg>