<svg id="Icons" xmlns="http://www.w3.org/2000/svg" viewBox="0 0 32 32"><defs><style>.cls-1{fill:#5514b4;}</style></defs><path class="cls-1" d="M27.31592,20.77228,21.7,18.1936a1,1,0,0,0-1.103.40839L19,21a10.97457,10.97457,0,0,1-4.74133-2.54041L27.86621,4.85352a.49995.49995,0,1,0-.707-.707L13.5509,17.75336A10.97485,10.97485,0,0,1,11,13l2.39569-1.59711a1,1,0,0,0,.40814-1.10217L11.228,4.68378A1.00009,1.00009,0,0,0,10.27924,4H5.0191a1.00371,1.00371,0,0,0-1.00488.99127c-.01337,6.79993,2.11994,12.4093,5.90527,16.39307l-5.7359,5.73529a.49995.49995,0,1,0,.707.707l5.73645-5.73584c3.98193,3.779,9.58441,5.90833,16.37335,5.895a1.00356,1.00356,0,0,0,.99121-1.00366l.00751-5.26014A.99992.99992,0,0,0,27.31592,20.77228Z"/></svg>