<svg id="Icons" xmlns="http://www.w3.org/2000/svg" viewBox="0 0 32 32"><defs><style>.cls-1{fill:#5514b4;}</style></defs><path class="cls-1" d="M10.00873,7a2.39312,2.39312,0,0,1,1.6922.70094l1.57068,1.57065A2.48687,2.48687,0,0,0,15.03015,10h11.0539A.916.916,0,0,1,27,10.916V24.084a.916.916,0,0,1-.91595.916H5.91595A.916.916,0,0,1,5,24.084V7.916A.916.916,0,0,1,5.91595,7h4.09278m0-1H5.91595A1.91813,1.91813,0,0,0,4,7.916V24.084A1.91813,1.91813,0,0,0,5.91595,26h20.1681A1.91813,1.91813,0,0,0,28,24.084V10.916A1.91813,1.91813,0,0,0,26.08405,9H15.03015a1.477,1.477,0,0,1-1.05139-.4355L12.408,6.99384A3.37078,3.37078,0,0,0,10.00873,6Z"/></svg>