<svg id="Icons" xmlns="http://www.w3.org/2000/svg" viewBox="0 0 32 32"><defs><style>.cls-1{fill:#5514b4;}</style></defs><path class="cls-1" d="M19.13086,10.2309,17.353,9.94476l-.75928-1.5957a.64026.64026,0,0,0-1.10205-.00049l-.77,1.60156-1.76953.28028a.60881.60881,0,0,0-.49512.438.61533.61533,0,0,0,.15772.60009l1.227,1.21729-.292,1.80078a.61059.61059,0,0,0,.8877.63965l1.6084-.84766,1.59375.853.1626.07129h.124l.22217-.02051.12988-.09131a.60618.60618,0,0,0,.252-.59082l-.273-1.80469,1.21534-1.23535a.61151.61151,0,0,0-.3418-1.02929Zm-1.937,1.91992.23193,1.53222-1.376-.73632-1.38818.73144.24951-1.54-1.04785-1.03955,1.53223-.24316.645-1.34131.63525,1.335,1.55322.24951Z"/><path class="cls-1" d="M23.50391,11.50238A7.5,7.5,0,1,0,12,17.83325v8.674a.49993.49993,0,0,0,.74707.43457l3.27-1.85888L19.251,26.94086a.50012.50012,0,0,0,.749-.4336V17.838A7.49413,7.49413,0,0,0,23.50391,11.50238Zm-7.5,6.5a6.5,6.5,0,1,1,6.5-6.5A6.50753,6.50753,0,0,1,16.00391,18.00238Z"/></svg>