<svg id="Icons" xmlns="http://www.w3.org/2000/svg" viewBox="0 0 32 32"><defs><style>.cls-1{fill:#5514b4;}</style></defs><path class="cls-1" d="M23,10.002a4.9961,4.9961,0,0,0-3.98926,1.98633L7.18359,11.98779a1.70031,1.70031,0,0,0-1.20117.502L4.36328,14.127a1.22438,1.22438,0,0,0,0,1.71582l1.88379,1.90186a.90592.90592,0,0,0,1.2793,0L9.31248,15.959a.10613.10613,0,0,1,.14943,0l1.78418,1.78565a.92621.92621,0,0,0,1.2793,0L14.31152,15.959a.10553.10553,0,0,1,.15039.00147l1.79981,1.78418a.89762.89762,0,0,0,.61523.25683c.08594.001,1.52637,0,2.125-.001A4.99834,4.99834,0,1,0,23,10.002Zm0,8.9961a3.99892,3.99892,0,0,1-3.3252-1.77637l-.14843-.22217L19.25879,17c0,.00049-2.0293.00391-2.32617.002L15.167,15.251a1.10811,1.10811,0,0,0-1.5625.001l-1.71875,1.71826L10.168,15.251a1.10811,1.10811,0,0,0-1.5625.001L6.88672,16.96973l-1.8125-1.83057a.22106.22106,0,0,1,0-.30908l1.61914-1.63721a.694.694,0,0,1,.49023-.20508l12.34961.00049.14844-.22021A3.9985,3.9985,0,1,1,23,18.99805Z"/><path class="cls-1" d="M23,13.5A1.5,1.5,0,1,0,24.5,15,1.50164,1.50164,0,0,0,23,13.5Zm0,2a.5.5,0,1,1,.5-.5A.50065.50065,0,0,1,23,15.5Z"/></svg>