<svg id="Icons" xmlns="http://www.w3.org/2000/svg" viewBox="0 0 32 32"><defs><style>.cls-1{fill:#5514b4;}</style></defs><path class="cls-1" d="M8.99121,9.00872l4.77783.00146a2.97976,2.97976,0,1,1,4.48535,0l4.73584-.00146L23,15.01555H21.76807l-.14991-.20654a1.96773,1.96773,0,0,0-1.62109-.7959,2,2,0,1,0,1.59131,3.19824l.15039-.19775H23l-.00977,5.99512H8.99121Zm13.00684,9.23046a2.96209,2.96209,0,0,1-2.001.77393,3.00018,3.00018,0,1,1,2.001-5.26416l-.00586-3.74023-5.00342.00195V8.77874l.20654-.14942a1.96616,1.96616,0,0,0,.7959-1.6206A2,2,0,1,0,14.79346,8.6l.19775.15039v1.26026l-5-.00195v12h12.001Z"/></svg>