<svg id="Icons" xmlns="http://www.w3.org/2000/svg" viewBox="0 0 32 32"><defs><style>.cls-1{fill:#5514b4;}</style></defs><path class="cls-1" d="M27.00781,19.9917H23.99512v1h3.01269a.98276.98276,0,0,1,.98145.98144v1.03711a.98276.98276,0,0,1-.98145.98145H21.9234a6.449,6.449,0,0,0,1.11371-3.62012,6.54008,6.54008,0,0,0-4.56537-6.22632,6.52479,6.52479,0,1,0-7.83453,3.387,6.4972,6.4972,0,0,0,.12939,5.95209c.09516.17523.207.34118.31812.50732H4.97754a.98276.98276,0,0,1-.98145-.98145V21.97314a.98276.98276,0,0,1,.98145-.98144H7.99219v-1H4.97754a1.98344,1.98344,0,0,0-1.98145,1.98144v1.03711A1.98344,1.98344,0,0,0,4.97754,24.9917h15.603l.523.00146.0014-.00146h5.90289a1.98343,1.98343,0,0,0,1.98145-1.98145V21.97314A1.98343,1.98343,0,0,0,27.00781,19.9917ZM7.74023,13.94336a5.53752,5.53752,0,1,1,9.72113-.02344,6.43141,6.43141,0,0,0-6.30371,2.71991A5.57644,5.57644,0,0,1,7.74023,13.94336Zm4.56739,10.0249a5.52947,5.52947,0,1,1,9.72949-3.59668,5.46867,5.46867,0,0,1-1.3678,3.62012h-.171Z"/><path class="cls-1" d="M16.30725,21.05225a.78714.78714,0,0,0,.1106-.39569c0-.04145-.00263-.08289-.00605-.12439h1.16455v-.56543h-1.34L16.22,19.92743a1.88958,1.88958,0,0,1-.10449-.32788,1.20359,1.20359,0,0,1-.02594-.23194.46652.46652,0,0,1,.15808-.37323.57211.57211,0,0,1,.38446-.13562.93223.93223,0,0,1,.44147.10193,1.10494,1.10494,0,0,1,.31616.24274l.48035-.50836a1.67611,1.67611,0,0,0-.51142-.39313,1.53275,1.53275,0,0,0-.72052-.16675,1.57687,1.57687,0,0,0-.69806.14691,1.12718,1.12718,0,0,0-.47253.41553,1.17255,1.17255,0,0,0-.16937.63587,1.36268,1.36268,0,0,0,.03979.33087,2.73622,2.73622,0,0,0,.0907.30237h-.40173v.56543h.64447a.55639.55639,0,0,1,.01123.11315.84792.84792,0,0,1-.0708.33606.80073.80073,0,0,1-.18665.27735.371.371,0,0,1-.26263.11017h-.17536v.72351h3.04187V21.3689H16.01611A.95183.95183,0,0,0,16.30725,21.05225Z"/><path class="cls-1" d="M14.12311,12.30505H12.11017a.95154.95154,0,0,0,.29114-.31659.78736.78736,0,0,0,.11059-.39569c0-.0415-.00262-.08294-.0061-.12439h1.16461V10.903h-1.34l-.01641-.0393a1.89151,1.89151,0,0,1-.10456-.32788,1.20376,1.20376,0,0,1-.02588-.232.46643.46643,0,0,1,.15808-.37317.57218.57218,0,0,1,.38447-.13568.93148.93148,0,0,1,.44146.102,1.10374,1.10374,0,0,1,.31616.24274l.48035-.50842a1.67667,1.67667,0,0,0-.51141-.39307,1.53278,1.53278,0,0,0-.72052-.16675,1.57766,1.57766,0,0,0-.69806.14685,1.12768,1.12768,0,0,0-.47254.41559,1.17241,1.17241,0,0,0-.16937.6358,1.3647,1.3647,0,0,0,.03974.33087,2.732,2.732,0,0,0,.09076.30243H11.121v.56543h.64447a.56.56,0,0,1,.01123.11316.84725.84725,0,0,1-.07086.33606.80033.80033,0,0,1-.18658.27735.371.371,0,0,1-.26264.1101h-.17535v.72358h3.04187Z"/></svg>