<svg id="Icons" xmlns="http://www.w3.org/2000/svg" viewBox="0 0 32 32"><defs><style>.cls-1{fill:#5514b4;}</style></defs><path class="cls-1" d="M18,15.03516a2,2,0,1,0-4,0V16h4Z"/><rect class="cls-1" x="13" y="17" width="6" height="4" rx="0.5"/><path class="cls-1" d="M26.84155,16.37024a5.98522,5.98522,0,0,0-7.88678-7.01257A6.98277,6.98277,0,0,0,6.12762,14.30524,5.99675,5.99675,0,0,0,8,26H25a4.98884,4.98884,0,0,0,1.84155-9.62976ZM20,20.5A1.50164,1.50164,0,0,1,18.5,22h-5A1.50164,1.50164,0,0,1,12,20.5v-3a1.49758,1.49758,0,0,1,1-1.4079V15.03516a3,3,0,1,1,6,0V16.0921A1.49758,1.49758,0,0,1,20,17.5Z"/></svg>