<svg id="Icons" xmlns="http://www.w3.org/2000/svg" viewBox="0 0 32 32"><defs><style>.cls-1{fill:#5514b4;}</style></defs><path class="cls-1" d="M27.47754,17.0127h-.76117A5.84883,5.84883,0,0,0,23.35425,13.613a3.4976,3.4976,0,1,0-5.59888-.06311A6.55412,6.55412,0,0,0,15.3783,15.161a7.04782,7.04782,0,0,0-1.09913-.57843A3.5,3.5,0,1,0,8.682,14.58246,6.19057,6.19057,0,0,0,5.72552,17.0127h-1.228a1.506,1.506,0,0,0-1.5044,1.50439v1.99658a.5.5,0,0,0,1,0V18.51709a.50472.50472,0,0,1,.5044-.50439h.74213A4.79253,4.79253,0,0,0,4.98047,19.564v.43946a.99933.99933,0,0,0,1,.99658h11a.99933.99933,0,0,0,1-.99658V19.564a4.7928,4.7928,0,0,0-.25922-1.55126h9.75629a.50513.50513,0,0,1,.50488.50439v1.99658a.5.5,0,0,0,1,0V18.51709A1.50611,1.50611,0,0,0,27.47754,17.0127ZM20.58087,9a2.5,2.5,0,1,1-2.5,2.5A2.50282,2.50282,0,0,1,20.58087,9Zm-9.10022,1a2.5,2.5,0,1,1-2.5,2.5A2.50282,2.50282,0,0,1,11.48065,10Z"/></svg>