<svg id="Icons" xmlns="http://www.w3.org/2000/svg" viewBox="0 0 32 32"><defs><style>.cls-1{fill:#5514b4;}</style></defs><polygon class="cls-1" points="13.686 12 11.42 16 13.686 20 18.309 20 20.575 16 18.309 12 13.686 12"/><path class="cls-1" d="M15.99965,2.019a13.981,13.981,0,1,0,13.98144,13.981A13.99655,13.99655,0,0,0,15.99965,2.019ZM26.34785,16.5h-4.907l-2.26263,3.99415,2.36755,4.00744h4.24066a13.08338,13.08338,0,0,1-.9715,1H21.80409l-1.57544,2.75794a12.83033,12.83033,0,0,1-1.37756.39569l1.95977-3.43085-2.49572-4.22485H13.68043L11.16652,25.2544c-.00928.01568-.02643.02191-.03711.03619-.00727.01337-.01239.02857-.02057.0409l1.87463,3.28119a12.85086,12.85086,0,0,1-1.39062-.41846l-1.53839-2.69263H7.18519a13.08515,13.08515,0,0,1-.97149-1h4.23565l2.368-4.00744L10.55433,16.5H5.32173L3.54652,19.63367a12.86945,12.86945,0,0,1-.32861-1.44873L4.45558,16,3.21791,13.81507a12.8745,12.8745,0,0,1,.32861-1.44885L5.32173,15.5h5.2326l2.26551-3.99853-2.28711-4.003H6.21357a13.08671,13.08671,0,0,1,.97144-1h3.39526l.00245-.007L12.3152,3.55945a12.85071,12.85071,0,0,1,1.3501-.31884L11.444,7.00019c-.00714.01208-.02057.0166-.0285.02783l2.26959,3.97247h4.62531l2.34179-4.09961L18.50544,3.26679a12.88807,12.88807,0,0,1,1.36359.34167l1.66675,2.82123a.47322.47322,0,0,1,.0238.06873h3.2555a13.06281,13.06281,0,0,1,.97149,1H21.46248l-2.28669,4.003L21.44087,15.5h4.90692l1.99085-3.51373a12.83565,12.83565,0,0,1,.37115,1.37341L27.21394,16l1.49585,2.64026a12.83413,12.83413,0,0,1-.37115,1.37336Z"/></svg>