<svg id="Icons" xmlns="http://www.w3.org/2000/svg" viewBox="0 0 32 32"><defs><style>.cls-1{fill:#5514b4;}</style></defs><path class="cls-1" d="M19.8678,20.13281a5.00013,5.00013,0,1,0-7.7356,0A7.0123,7.0123,0,0,0,8,26.29932v.874A.82751.82751,0,0,0,8.82617,28H23.17383A.82751.82751,0,0,0,24,27.17334v-.874A7.0123,7.0123,0,0,0,19.8678,20.13281ZM16,13a4,4,0,1,1-4,4A4.0045,4.0045,0,0,1,16,13Zm7,14H9v-.70068a6.03008,6.03008,0,0,1,3.88263-5.41877,4.90025,4.90025,0,0,0,6.23474,0A6.03008,6.03008,0,0,1,23,26.29932Z"/><path class="cls-1" d="M16,4A13.001,13.001,0,0,0,5.47852,24.63672a.49986.49986,0,1,0,.80859-.58789A12.00046,12.00046,0,1,1,28,17a11.90669,11.90669,0,0,1-2.28809,7.0498.49987.49987,0,1,0,.8086.5879A13.00077,13.00077,0,0,0,16,4Z"/><path class="cls-1" d="M16,8A9.00446,9.00446,0,0,0,7.78418,20.67969a.49984.49984,0,0,0,.91211-.40918,8.0003,8.0003,0,1,1,14.59033.03662.5.5,0,1,0,.91016.41406A9.00381,9.00381,0,0,0,16,8Z"/></svg>