<svg id="Icons" xmlns="http://www.w3.org/2000/svg" viewBox="0 0 32 32"><defs><style>.cls-1{fill:#5514b4;}</style></defs><path class="cls-1" d="M15.981,9.00293a3.00025,3.00025,0,1,0,3,3A3.00328,3.00328,0,0,0,15.981,9.00293Zm0,5.00049a2.00025,2.00025,0,1,1,2-2.00049A2.00239,2.00239,0,0,1,15.981,14.00342Z"/><path class="cls-1" d="M16.105,4.99756A7.15477,7.15477,0,0,0,8.9585,12.144a6.784,6.784,0,0,0,.41015,2.3916c.34294.91332,5.99512,12.00586,5.99512,12.00586a.82219.82219,0,0,0,.73584.46094.8136.8136,0,0,0,.73291-.45654l5.6709-11.21485.11377-.23779A7.15042,7.15042,0,0,0,16.105,4.99756Zm5.60547,9.67334L16.1001,25.78125,10.61182,14.90576l-.169-.36523q-.0703-.16553-.13135-.33838a6.14687,6.14687,0,1,1,11.39893.46875Z"/></svg>