<svg id="Icons" xmlns="http://www.w3.org/2000/svg" viewBox="0 0 32 32"><defs><style>.cls-1{fill:#5514b4;}</style></defs><path class="cls-1" d="M24.41644,8.42218l-5.85309-5.8479A2.00221,2.00221,0,0,0,17.15967,2H8.9873A1.929,1.929,0,0,0,7,4.00482V27.9259A2.09706,2.09706,0,0,0,9.11932,30H22.895A2.08471,2.08471,0,0,0,25,27.9259V9.8479A1.98581,1.98581,0,0,0,24.41644,8.42218ZM12,24.55151v-11.103A.51078.51078,0,0,1,12.545,13H18v3.293l-5,5V25h-.455A.51078.51078,0,0,1,12,24.55151ZM20,16.75v7.80151A.51074.51074,0,0,1,19.455,25H14V21.707l5-5V13h.455a.51074.51074,0,0,1,.545.44849Z"/></svg>