<svg id="Icons" xmlns="http://www.w3.org/2000/svg" viewBox="0 0 32 32"><defs><style>.cls-1{fill:#5514b4;}</style></defs><path class="cls-1" d="M12.51147,15.97467a1.48364,1.48364,0,1,0-1.4837-1.48364A1.48536,1.48536,0,0,0,12.51147,15.97467Z"/><circle class="cls-1" cx="19.55133" cy="14.48077" r="1.48364"/><path class="cls-1" d="M15.5752,18.98987h.43359v-.1001a2.82074,2.82074,0,0,0-1.92127-2.494,2.435,2.435,0,0,1-3.15228-.00012,2.8215,2.8215,0,0,0-1.92157,2.49408v.11035H15.5752Z"/><path class="cls-1" d="M21.12744,16.3855a2.43492,2.43492,0,0,1-3.15106.001,3.61614,3.61614,0,0,0-1.00177.6034,2.908,2.908,0,0,0-.34631.36444,3.31921,3.31921,0,0,1,.38049,1.53546v.1001h6.04v-.11035A2.82134,2.82134,0,0,0,21.12744,16.3855Z"/><path class="cls-1" d="M27.96051,6.99347H4.03949A1.02013,1.02013,0,0,0,3.01935,8.01361V23.98633a1.02013,1.02013,0,0,0,1.02014,1.02014h23.921a1.02018,1.02018,0,0,0,1.0202-1.02014V8.01361A1.02018,1.02018,0,0,0,27.96051,6.99347ZM24.04883,19.16614a.82626.82626,0,0,1-.82617.82373H16.23334c-.0177.00116-.03272.01025-.05072.01025H8.83984a.82626.82626,0,0,1-.82617-.82373v-.28662a3.70761,3.70761,0,0,1,2.28272-3.29669,2.45755,2.45755,0,0,1-.26862-1.10205,2.48368,2.48368,0,0,1,4.96735,0,2.45706,2.45706,0,0,1-.26868,1.10211,4.37679,4.37679,0,0,1,1.31018.93976,3.89625,3.89625,0,0,1,.28369-.29889,4.51937,4.51937,0,0,1,1.019-.64563,2.45729,2.45729,0,0,1-.2716-1.10761,2.48364,2.48364,0,0,1,4.96728,0,2.4571,2.4571,0,0,1-.26867,1.10212,3.70777,3.70777,0,0,1,2.28253,3.29663Z"/></svg>