<svg id="Icons" xmlns="http://www.w3.org/2000/svg" viewBox="0 0 32 32"><defs><style>.cls-1{fill:#5514b4;}</style></defs><path class="cls-1" d="M10,11H2V7h8Z"/><path class="cls-1" d="M16,16H6V12H16Z"/><path class="cls-1" d="M23,21H13V17H23Z"/><path class="cls-1" d="M30,26H10V22H30Z"/><path class="cls-1" d="M13.5,10.50049a1.5,1.5,0,1,1,1.5-1.5A1.50164,1.50164,0,0,1,13.5,10.50049Zm0-2a.5.5,0,1,0,.5.5A.50034.50034,0,0,0,13.5,8.50049Z"/><path class="cls-1" d="M26.5,20.50537a1.5,1.5,0,1,1,1.5-1.5A1.50164,1.50164,0,0,1,26.5,20.50537Zm0-2a.5.5,0,1,0,.5.5A.50034.50034,0,0,0,26.5,18.50537Z"/><polygon class="cls-1" points="27 17.667 26 17.667 26 9.479 14.516 9.479 14.516 8.479 27 8.479 27 17.667"/></svg>