<svg id="Icons" xmlns="http://www.w3.org/2000/svg" viewBox="0 0 32 32"><defs><style>.cls-1{fill:#5514b4;}</style></defs><path class="cls-1" d="M15.98639,4.54285,6.99518,6.66638v7.87891c0,8.04883,8.147,12.5,9,12.5s9-4.45117,9-12.49951l.00537-7.89112Zm8.00879,10.00244c0,7.03467-6.999,11.11719-8,11.48486-1.001-.36767-8-4.45019-8-11.48486V7.4574l7.99219-1.88721,8.0122,1.87744Z"/><path class="cls-1" d="M12.00293,12.49121a.5.5,0,1,0,1,0c0-1.7207,1.50879-2.49121,3.00391-2.49121,1.37988,0,2.99023.65576,2.99023,2.50391,0,1.09228-.69531,1.71142-1.5,2.42822a4.56281,4.56281,0,0,0-1.99219,3.57764.5.5,0,1,0,1,0c0-1.354.76856-2.03809,1.65821-2.83106a4.16288,4.16288,0,0,0,1.834-3.1748C19.99707,10.44092,18.35645,9,16.00684,9,13.64941,9,12.00293,10.43555,12.00293,12.49121Z"/><circle class="cls-1" cx="16" cy="21.99335" r="1"/></svg>