<svg id="Icons" xmlns="http://www.w3.org/2000/svg" viewBox="0 0 32 32"><defs><style>.cls-1{fill:#5514b4;}</style></defs><path class="cls-1" d="M27.90588,15.27783c-.79351-3.16632-1.868-7.44537-2.27557-9.03a2.99649,2.99649,0,0,0-3.337-2.20752L11.55487,6H6A2,2,0,0,0,4,8v8a2,2,0,0,0,2,2h5.536l3.03919,3.53845L15,27a3.48838,3.48838,0,0,0,2.50531,1c1.74542,0,3.08606-2.04327,3.08606-4.27777A12.46946,12.46946,0,0,0,19.49713,19l5.50128-.00073A2.99426,2.99426,0,0,0,27.90588,15.27783ZM5,16V8A1.00115,1.00115,0,0,1,6,7h5V17H6A1.00115,1.00115,0,0,1,5,16Z"/></svg>