<svg id="Icons" xmlns="http://www.w3.org/2000/svg" viewBox="0 0 32 32"><defs><style>.cls-1{fill:#5514b4;}</style></defs><path class="cls-1" d="M28.47789,2.02588H3.43492a1.50164,1.50164,0,0,0-1.5,1.5v9a1.50164,1.50164,0,0,0,1.5,1.5h25.043a1.50164,1.50164,0,0,0,1.5-1.5v-9A1.50164,1.50164,0,0,0,28.47789,2.02588Zm.5,10.5a.50065.50065,0,0,1-.5.5H3.43492a.50065.50065,0,0,1-.5-.5v-9a.50065.50065,0,0,1,.5-.5h25.043a.50065.50065,0,0,1,.5.5Z"/><path class="cls-1" d="M28.47789,18.06934H3.43492a1.50164,1.50164,0,0,0-1.5,1.5v9a1.50164,1.50164,0,0,0,1.5,1.5h25.043a1.50164,1.50164,0,0,0,1.5-1.5v-9A1.50164,1.50164,0,0,0,28.47789,18.06934Zm.5,10.5a.50066.50066,0,0,1-.5.5H3.43492a.50066.50066,0,0,1-.5-.5v-9a.50065.50065,0,0,1,.5-.5h25.043a.50065.50065,0,0,1,.5.5Z"/></svg>