<svg id="Icons" xmlns="http://www.w3.org/2000/svg" viewBox="0 0 32 32"><defs><style>.cls-1{fill:#5514b4;}</style></defs><path class="cls-1" d="M28,23V8a2,2,0,0,0-2-2H6A2,2,0,0,0,4,8V23H2v2a1,1,0,0,0,1,1H29a1,1,0,0,0,1-1V23ZM5,8A1.00115,1.00115,0,0,1,6,7H26a1.00115,1.00115,0,0,1,1,1V23H5ZM29,25H3V24H29Z"/><path class="cls-1" d="M6,22H26V8H6ZM18.50555,10.978h.49122a4,4,0,1,1,0,8H17.49969a4.00427,4.00427,0,0,1-4-4,3.94431,3.94431,0,0,1,.38965-1.71924.50035.50035,0,0,1,.90235.43262,2.94011,2.94011,0,0,0-.292,1.28662,3.00328,3.00328,0,0,0,3,3h1.49708a3,3,0,1,0,0-6h-.49122a.5.5,0,0,1,0-1Zm-5.499.00928h1.52734a4.00426,4.00426,0,0,1,4,4,3.95307,3.95307,0,0,1-.39062,1.71924.50034.50034,0,0,1-.90234-.43262,2.949,2.949,0,0,0,.293-1.28662,3.00328,3.00328,0,0,0-3-3H13.00653a3,3,0,0,0,0,6H13.527a.5.5,0,0,1,0,1h-.52051a4,4,0,0,1,0-8Z"/></svg>