<svg id="Icons" xmlns="http://www.w3.org/2000/svg" viewBox="0 0 32 32"><defs><style>.cls-1{fill:#5514b4;}</style></defs><path class="cls-1" d="M27.44843,12.172,16.62915,8.09192a1.66448,1.66448,0,0,0-1.23437-.00049l-.00586.00244L4.51947,12.28479a.8816.8816,0,0,0-.05566,1.61426l1.56256.6994v3.91669a.5.5,0,0,0,1,0V15.046l1.964.89153.02452,6.36378.28321.13623a15.53779,15.53779,0,0,0,13.42871-.00244l.2832-.13623-.04816-6.37122,4.54322-1.8963a1.0137,1.0137,0,0,0-.05664-1.85937ZM10.01489,21.669l-.01347-5.24465,5.48125,2.49428a1.17714,1.17714,0,0,0,1.00976,0l5.46924-2.5191.04834,5.267A14.60817,14.60817,0,0,1,10.01489,21.669Zm6.05078-3.65418a.186.186,0,0,1-.15136.002L5.13373,13.11292,15.76685,9.02014a.672.672,0,0,1,.49316.00049l10.81927,4.10645Z"/></svg>