<svg id="Icons" xmlns="http://www.w3.org/2000/svg" viewBox="0 0 32 32"><defs><style>.cls-1{fill:#5514b4;}</style></defs><path class="cls-1" d="M24.085,3H7.915A1.917,1.917,0,0,0,6,4.915V8.085A1.917,1.917,0,0,0,7.915,10H24.085A1.917,1.917,0,0,0,26,8.085V4.915A1.917,1.917,0,0,0,24.085,3ZM9.49933,7.00067a.4993.4993,0,1,1,.49927-.49933A.49935.49935,0,0,1,9.49933,7.00067Zm2,0a.4993.4993,0,1,1,.49927-.49933A.49935.49935,0,0,1,11.49933,7.00067Zm2,0a.4993.4993,0,1,1,.49927-.49933A.49935.49935,0,0,1,13.49933,7.00067Z"/><path class="cls-1" d="M24.05273,12H7.94727A1.94947,1.94947,0,0,0,6,13.94727v3.10546A1.94947,1.94947,0,0,0,7.94727,19H24.05273A1.94947,1.94947,0,0,0,26,17.05273V13.94727A1.94947,1.94947,0,0,0,24.05273,12Zm-14.552,4.00067A.4993.4993,0,1,1,10,15.50134.4993.4993,0,0,1,9.50073,16.00067Zm2,0A.4993.4993,0,1,1,12,15.50134.4993.4993,0,0,1,11.50073,16.00067Zm2,0A.4993.4993,0,1,1,14,15.50134.4993.4993,0,0,1,13.50073,16.00067Z"/><path class="cls-1" d="M24.09229,21H7.90771A1.91008,1.91008,0,0,0,6,22.90771v3.18458A1.91008,1.91008,0,0,0,7.90771,28H24.09229A1.91008,1.91008,0,0,0,26,26.09229V22.90771A1.91008,1.91008,0,0,0,24.09229,21ZM9.50073,25.00067A.4993.4993,0,1,1,10,24.50134.4993.4993,0,0,1,9.50073,25.00067Zm2,0A.4993.4993,0,1,1,12,24.50134.4993.4993,0,0,1,11.50073,25.00067Zm1.9986,0a.4993.4993,0,1,1,.49927-.49933A.49935.49935,0,0,1,13.49933,25.00067Z"/></svg>