<svg id="Icons" xmlns="http://www.w3.org/2000/svg" viewBox="0 0 32 32"><defs><style>.cls-1{fill:#5514b4;}</style></defs><path class="cls-1" d="M27.96051,6.99347H4.03949A1.02013,1.02013,0,0,0,3.01935,8.01361V23.98633a1.02013,1.02013,0,0,0,1.02014,1.02014h23.921a1.02018,1.02018,0,0,0,1.0202-1.02014V8.01361A1.02018,1.02018,0,0,0,27.96051,6.99347Zm0,17.013L4.01935,23.98633,4.03949,7.99347h23.921l.0202.02014Z"/><path class="cls-1" d="M21.7663,15.58289a2.4571,2.4571,0,0,0,.26867-1.10212,2.48364,2.48364,0,0,0-4.96728,0,2.45729,2.45729,0,0,0,.2716,1.10761,4.51937,4.51937,0,0,0-1.019.64563,3.89625,3.89625,0,0,0-.28369.29889,4.37679,4.37679,0,0,0-1.31018-.93976,2.45706,2.45706,0,0,0,.26868-1.10211,2.48368,2.48368,0,0,0-4.96735,0,2.45755,2.45755,0,0,0,.26862,1.10205,3.70761,3.70761,0,0,0-2.28272,3.29669v.28662a.82626.82626,0,0,0,.82617.82373h7.34278c.018,0,.033-.00909.05072-.01025h6.98932a.82626.82626,0,0,0,.82617-.82373v-.28662A3.70777,3.70777,0,0,0,21.7663,15.58289Zm-2.215-2.58576a1.48365,1.48365,0,1,1-1.48364,1.48364A1.48528,1.48528,0,0,1,19.55133,12.99713Zm-7.03986.01026a1.48364,1.48364,0,1,1-1.4837,1.48364A1.48532,1.48532,0,0,1,12.51147,13.00739Zm-3.4978,5.88238a2.8215,2.8215,0,0,1,1.92157-2.49408,2.435,2.435,0,0,0,3.15228.00012,2.82074,2.82074,0,0,1,1.92127,2.494v.1001H15.5752v.01025H9.01367Zm14.03516.1001h-6.04v-.1001a3.31921,3.31921,0,0,0-.38049-1.53546,2.908,2.908,0,0,1,.34631-.36444,3.61614,3.61614,0,0,1,1.00177-.6034,2.43492,2.43492,0,0,0,3.15106-.001,2.82134,2.82134,0,0,1,1.92139,2.494Z"/></svg>