<svg id="Icons" xmlns="http://www.w3.org/2000/svg" viewBox="0 0 32 32"><defs><style>.cls-1{fill:#5514b4;}</style></defs><path class="cls-1" d="M21.39148,20.5a3.04072,3.04072,0,0,1,1.61407-2.67743l-2.432-4.21234A3.03688,3.03688,0,0,1,15.95667,11h-4.75a3.03684,3.03684,0,0,1-4.61683,2.61023L4.1593,17.82a3.02778,3.02778,0,0,1,0,5.36l2.43054,4.20978A3.03684,3.03684,0,0,1,11.20667,30h4.75a3.03688,3.03688,0,0,1,4.61688-2.61023l2.432-4.21234A3.04072,3.04072,0,0,1,21.39148,20.5Zm-7.80981,3.75a3.75,3.75,0,1,1,3.75-3.75A3.75426,3.75426,0,0,1,13.58167,24.25Z"/><path class="cls-1" d="M26.91418,6.37482A1.88044,1.88044,0,0,1,25.31177,3.4859l-2.61-1.52258a1.87911,1.87911,0,0,1-.70654.721,1.89607,1.89607,0,0,1-2.58807-.706L16.84509,3.44208a1.897,1.897,0,0,1-.706,2.58813,1.8731,1.8731,0,0,1-.93549.24311l-.04437-.00049-.01361,3.01971.05121-.00067a1.88044,1.88044,0,0,1,1.60058,2.89172l2.6084,1.52167a1.88982,1.88982,0,0,1,3.29462-.01489l2.56207-1.46387a1.89694,1.89694,0,0,1,.706-2.58807,1.87242,1.87242,0,0,1,.93548-.24311l.04437.00049.01362-3.0216ZM22.02155,9.52814a1.95039,1.95039,0,1,1,.72607-2.66156A1.94461,1.94461,0,0,1,22.02155,9.52814Z"/></svg>