<svg id="Icons" xmlns="http://www.w3.org/2000/svg" viewBox="0 0 32 32"><defs><style>.cls-1{fill:#5514b4;}</style></defs><path class="cls-1" d="M19.02148,10.02625a2.01093,2.01093,0,0,0-2.00878,2.0083l.00036.00335-.00329.01618v.99072H15.00684V12.1c0-.01008-.00513-.01844-.00574-.02832.00024-.01264.00378-.02442.00378-.03711a2.0083,2.0083,0,1,0-2.00879,2.0083l.01172-.00116v.00311h.999v3.50146a.5.5,0,0,0,1,0V14.0448h2.00293v3.50146a.5.5,0,0,0,1,0V14.0448h1.00274v-.00287l.009.00092a2.0083,2.0083,0,0,0,0-4.0166Zm-6.02539,3.0166a1.0083,1.0083,0,1,1,1.00879-1.0083A1.00912,1.00912,0,0,1,12.99609,13.04285Zm6.02539,0a1.0083,1.0083,0,1,1,1.00782-1.0083A1.00932,1.00932,0,0,1,19.02148,13.04285Z"/><path class="cls-1" d="M24.98438,13.01855A8.98975,8.98975,0,1,0,9.59277,19.32861c.81568.73011,1.40772,2.69812,1.41309,4.68659v1.68158h.001a.99552.99552,0,0,0,.53222.8706l3.94824,2.33155a.99987.99987,0,0,0,1.02832.00244l3.92481-2.31885A.99509.99509,0,0,0,21,25.69678l.00128-1.71082c.012-1.98926.5943-3.94147,1.41864-4.68078A8.94061,8.94061,0,0,0,24.98438,13.01855Zm-4.80909,9.06122a.94379.94379,0,0,0-.17236-.03485h-7.998a.94591.94591,0,0,0-.17547.03552,6.21723,6.21723,0,0,0-1.54523-3.474A7.989,7.989,0,1,1,21.72949,18.583,6.23317,6.23317,0,0,0,20.17529,22.07977Z"/></svg>