<svg id="Icons" xmlns="http://www.w3.org/2000/svg" viewBox="0 0 32 32"><defs><style>.cls-1{fill:#5514b4;}</style></defs><path class="cls-1" d="M9.959,10.0127h2.417a5.99044,5.99044,0,0,1,5.22558,8.91552.5.5,0,1,0,.87207.48926A6.99034,6.99034,0,0,0,12.376,9.0127H9.959a6.98853,6.98853,0,0,0,0,13.97705h1.54a.5.5,0,1,0,0-1H9.959a5.98853,5.98853,0,0,1,0-11.977Z"/><path class="cls-1" d="M22.0625,9.0127h-1.54a.5.5,0,0,0,0,1h1.54a5.98853,5.98853,0,0,1,0,11.97705h-2.417a5.99145,5.99145,0,0,1-5.22656-8.915.49955.49955,0,1,0-.8711-.48926,6.99,6.99,0,0,0,6.09766,10.4043h2.417a6.98853,6.98853,0,0,0,0-13.977Z"/></svg>