<svg id="Icons" xmlns="http://www.w3.org/2000/svg" viewBox="0 0 32 32"><defs><style>.cls-1{fill:#5514b4;}</style></defs><path class="cls-1" d="M26.32208,11.554a3.50088,3.50088,0,1,0-5.6286.01879,6.10736,6.10736,0,0,0-3.132,2.8061l-.00164.00323a3.37834,3.37834,0,0,0-3.08332-.01959,6.13546,6.13546,0,0,0-3.15643-2.80621A3.49991,3.49991,0,1,0,5.67792,11.554,5.54137,5.54137,0,0,0,2,16.55762V17a1.00067,1.00067,0,0,0,1,1h9.5506a3.46567,3.46567,0,0,0,.6275,1.554A5.54146,5.54146,0,0,0,9.5,24.55762V25a1.00067,1.00067,0,0,0,1,1h11a1.00067,1.00067,0,0,0,1-1v-.44238a5.54128,5.54128,0,0,0-3.6778-5.00354A3.46475,3.46475,0,0,0,19.44977,18H29a1.00067,1.00067,0,0,0,1-1v-.44238A5.54137,5.54137,0,0,0,26.32208,11.554ZM23.5,7A2.5,2.5,0,1,1,21,9.5,2.50286,2.50286,0,0,1,23.5,7ZM18.50018,17.5a2.5,2.5,0,1,1-2.5-2.5A2.50286,2.50286,0,0,1,18.50018,17.5ZM8.5,7A2.5,2.5,0,1,1,6,9.5,2.50286,2.50286,0,0,1,8.5,7Z"/></svg>