<svg id="Icons" xmlns="http://www.w3.org/2000/svg" viewBox="0 0 32 32"><defs><style>.cls-1{fill:#5514b4;}</style></defs><path class="cls-1" d="M27.67224,14.28229,21.66882,8.27374a1.00024,1.00024,0,0,0-1.26715,0L14.39319,14.2818a.99974.99974,0,0,0-.36017.76843l-.00122,7.99512a1,1,0,0,0,1,1.00006h4a1,1,0,0,0,1-1v-3a1,1,0,0,1,2,0v3a1,1,0,0,0,1,1h3.9989a1,1,0,0,0,1-.99994l.0011-7.99383A1.0001,1.0001,0,0,0,27.67224,14.28229Zm-.64154,8.76312H23.0318v-3a2,2,0,0,0-4,0v3h-4l-.00513-7.98993,6.0091-6.00842-.00019.00018v.00049l5.99622,6.00378Z"/><path class="cls-1" d="M7.51746,6.99585a4.52547,4.52547,0,0,0-.47181,9.02747l-.0155,7.442a.50013.50013,0,0,0,.499.50147h.001a.50035.50035,0,0,0,.5-.49854l.01557-7.45056a4.52565,4.52565,0,0,0-.52826-9.02179Zm0,8.07519a3.5376,3.5376,0,1,1,3.53808-3.53759A3.54144,3.54144,0,0,1,7.51746,15.071Z"/></svg>