<svg id="Icons" xmlns="http://www.w3.org/2000/svg" viewBox="0 0 32 32"><defs><style>.cls-1{fill:#5514b4;}</style></defs><path class="cls-1" d="M16.9668,18.5415l-.96973-2.03711-.9873,2.05323a.49694.49694,0,0,1-.37207.27685l-2.44727.38867,1.63965,1.62647a.49879.49879,0,0,1,.14062.43506l-.39648,2.44971,2.21289-1.16651a.50184.50184,0,0,1,.46973.00147l2.19238,1.17382-.36817-2.43505a.5.5,0,0,1,.1377-.4253l1.63184-1.65918-2.51172-.40332A.49928.49928,0,0,1,16.9668,18.5415Z"/><path class="cls-1" d="M27,7H25V4.5a.5.5,0,0,0-1,0V7H8V4.5a.5.5,0,0,0-1,0V7H5A1.003,1.003,0,0,0,4,8V27a1.003,1.003,0,0,0,1,1H27a1.003,1.003,0,0,0,1-1V8A1.003,1.003,0,0,0,27,7ZM21.06641,19.41455l-1.959,1.99121.44043,2.916a.63039.63039,0,0,1-.91992.65136l-2.60938-1.397-2.63183,1.3877a.63108.63108,0,0,1-.917-.66065l.47363-2.9248-1.97461-1.958a.63153.63153,0,0,1,.3457-1.07129l2.90821-.46094,1.208-2.51269a.62557.62557,0,0,1,.56836-.35742H16.002a.624.624,0,0,1,.56739.36181l1.1875,2.49463,2.958.4751a.63139.63139,0,0,1,.35157,1.06494ZM27,12H5V8H7v.5a.5.5,0,0,0,1,0V8H24v.5a.5.5,0,0,0,1,0V8h2Z"/></svg>