<svg id="Icons" xmlns="http://www.w3.org/2000/svg" viewBox="0 0 32 32"><defs><style>.cls-1{fill:#5514b4;}</style></defs><path class="cls-1" d="M16,2A14,14,0,1,0,30,16,14,14,0,0,0,16,2ZM7.5,21.01361a.5.5,0,1,1,.5-.5A.5.5,0,0,1,7.5,21.01361ZM7.5,18a.5.5,0,1,1,.5-.5A.5.5,0,0,1,7.5,18Zm0-3.02094a.5.5,0,1,1,.5-.5A.5.5,0,0,1,7.5,14.97906ZM7.5,12a.5.5,0,1,1,.5-.5A.5.5,0,0,1,7.5,12Zm17.01617,9.02338H9.49011a.50081.50081,0,0,1,0-1H24.51617a.50081.50081,0,0,1,0,1ZM9,14.48352a.48646.48646,0,0,1,.47229-.5h15.026a.50081.50081,0,0,1,0,1H9.47229A.48646.48646,0,0,1,9,14.48352Zm15.51617,3.52625H9.49011a.50081.50081,0,0,1,0-1H24.51617a.50081.50081,0,0,1,0,1Zm-.00055-6.00843H9.47284a.50078.50078,0,0,1,0-1H24.51562a.50078.50078,0,0,1,0,1Z"/></svg>