<svg id="Icons" xmlns="http://www.w3.org/2000/svg" viewBox="0 0 32 32"><defs><style>.cls-1{fill:#5514b4;}</style></defs><path class="cls-1" d="M24.085,3H7.915A1.917,1.917,0,0,0,6,4.915V8.085A1.917,1.917,0,0,0,7.915,10H24.085A1.917,1.917,0,0,0,26,8.085V4.915A1.917,1.917,0,0,0,24.085,3ZM25,8.085A.91628.91628,0,0,1,24.085,9H7.915A.91628.91628,0,0,1,7,8.085V4.915A.91628.91628,0,0,1,7.915,4H24.085A.91628.91628,0,0,1,25,4.915Z"/><path class="cls-1" d="M24.05273,12H7.94727A1.94947,1.94947,0,0,0,6,13.94727v3.10546A1.94947,1.94947,0,0,0,7.94727,19H24.05273A1.94947,1.94947,0,0,0,26,17.05273V13.94727A1.94947,1.94947,0,0,0,24.05273,12ZM25,17.05273A.94816.94816,0,0,1,24.05273,18H7.94727A.94816.94816,0,0,1,7,17.05273V13.94727A.94816.94816,0,0,1,7.94727,13H24.05273A.94816.94816,0,0,1,25,13.94727Z"/><path class="cls-1" d="M24.09229,21H7.90771A1.91008,1.91008,0,0,0,6,22.90771v3.18458A1.91008,1.91008,0,0,0,7.90771,28H24.09229A1.91008,1.91008,0,0,0,26,26.09229V22.90771A1.91008,1.91008,0,0,0,24.09229,21ZM25,26.09229A.90878.90878,0,0,1,24.09229,27H7.90771A.90878.90878,0,0,1,7,26.09229V22.90771A.90878.90878,0,0,1,7.90771,22H24.09229A.90878.90878,0,0,1,25,22.90771Z"/><path class="cls-1" d="M9.49933,6.00208a.4993.4993,0,1,0,.49927.49926A.49929.49929,0,0,0,9.49933,6.00208Z"/><path class="cls-1" d="M11.49933,6.00208a.4993.4993,0,1,0,.49927.49926A.49929.49929,0,0,0,11.49933,6.00208Z"/><path class="cls-1" d="M13.49933,6.00208a.4993.4993,0,1,0,.49927.49926A.49929.49929,0,0,0,13.49933,6.00208Z"/><path class="cls-1" d="M9.50073,15.00208A.4993.4993,0,1,0,10,15.50134.49925.49925,0,0,0,9.50073,15.00208Z"/><path class="cls-1" d="M11.50073,15.00208A.4993.4993,0,1,0,12,15.50134.49925.49925,0,0,0,11.50073,15.00208Z"/><path class="cls-1" d="M13.50073,15.00208A.4993.4993,0,1,0,14,15.50134.49925.49925,0,0,0,13.50073,15.00208Z"/><path class="cls-1" d="M9.50073,24.00208A.4993.4993,0,1,0,10,24.50134.49925.49925,0,0,0,9.50073,24.00208Z"/><path class="cls-1" d="M11.50073,24.00208A.4993.4993,0,1,0,12,24.50134.49925.49925,0,0,0,11.50073,24.00208Z"/><path class="cls-1" d="M13.49933,24.00208a.4993.4993,0,1,0,.49927.49926A.49929.49929,0,0,0,13.49933,24.00208Z"/></svg>