<svg id="Icons" xmlns="http://www.w3.org/2000/svg" viewBox="0 0 32 32"><defs><style>.cls-1{fill:#5514b4;}</style></defs><path class="cls-1" d="M22.70441,11.88141,20.11859,9.29559a1.00009,1.00009,0,0,0-1.41418,0L5.53516,22.46643l.00012.00067-.24506.24506a1,1,0,0,0,0,1.41424L7.876,26.71216a1,1,0,0,0,1.41424,0l.18341-.18341H9.4751L22.70441,13.29559A1,1,0,0,0,22.70441,11.88141ZM8.58191,26.00385l-2.5846-2.5846,2.36774-2.36768-.00134-.0014,8.0105-8.01092,2.58636,2.58593ZM19.6676,14.91815l-2.58636-2.58594,2.32928-2.3294.001-.00006,2.58575,2.58575Z"/><path class="cls-1" d="M19.5,8a.49971.49971,0,0,0,.5-.5v-3a.5.5,0,0,0-1,0v3A.49971.49971,0,0,0,19.5,8Z"/><path class="cls-1" d="M27.5,12h-3a.5.5,0,0,0,0,1h3a.5.5,0,0,0,0-1Z"/><path class="cls-1" d="M23.50488,9.04688a.49839.49839,0,0,0,.35352-.14649L25.97949,6.7793a.49995.49995,0,0,0-.707-.707L23.15137,8.19336a.5.5,0,0,0,.35351.85352Z"/><path class="cls-1" d="M15.1416,8.84326a.49995.49995,0,0,0,.707-.707L13.72754,6.01514a.49995.49995,0,0,0-.707.707Z"/><path class="cls-1" d="M23.81641,16.15137a.49995.49995,0,0,0-.707.707L25.23047,18.98a.49994.49994,0,1,0,.707-.707Z"/></svg>