<svg id="Icons" xmlns="http://www.w3.org/2000/svg" viewBox="0 0 32 32"><defs><style>.cls-1{fill:#5514b4;}</style></defs><path class="cls-1" d="M5.0769,4l-.064.00006a1.00372,1.00372,0,0,0-.99127,1.00366l-.00745,5.26013a.99994.99994,0,0,0,.68317.94971l5.616,2.57874a.99973.99973,0,0,0,1.10291-.40839l1.597-2.39807a10.85212,10.85212,0,0,1,8,8L18.61761,20.583a1,1,0,0,0-.40814,1.10223l2.57587,5.61688a.99993.99993,0,0,0,.94867.68378h5.26013a1.0037,1.0037,0,0,0,1.00494-.99121C28.02661,13.01019,19.03772,4,5.0769,4ZM21.734,26.98584l-.01709-.05133-.02258-.04926-2.51178-5.47711L21.568,19.81787l.58637-.39087-.171-.68365a11.82027,11.82027,0,0,0-8.7276-8.72766l-.684-.171-.39081.58685-1.59015,2.38769-5.4762-2.51446-.04913-.02234-.05133-.01715.00055-5.26526L5.0769,5c6.57544,0,12.10553,2.05853,15.99231,5.95294,3.89234,3.9,5.94287,9.44641,5.92493,16.0329Z"/><path class="cls-1" d="M6,24a2,2,0,1,0,2,2A2,2,0,0,0,6,24Zm0,3a1,1,0,1,1,1-1A1.00115,1.00115,0,0,1,6,27Z"/><path class="cls-1" d="M11,24a2,2,0,1,0,2,2A2,2,0,0,0,11,24Zm0,3a1,1,0,1,1,1-1A1.00115,1.00115,0,0,1,11,27Z"/><path class="cls-1" d="M16,24a2,2,0,1,0,2,2A2,2,0,0,0,16,24Zm0,3a1,1,0,1,1,1-1A1.00115,1.00115,0,0,1,16,27Z"/></svg>