<svg id="Icons" xmlns="http://www.w3.org/2000/svg" viewBox="0 0 32 32"><defs><style>.cls-1{fill:#5514b4;}</style></defs><path class="cls-1" d="M18.18933,4.38027l-.68213-.26563L17.515,9.47353a1.5,1.5,0,0,1-3,0l.00049-5.35742-.68213.26611A6.00285,6.00285,0,0,0,13.015,15.17128V25.97353a3,3,0,0,0,6,0V15.17128a6.00213,6.00213,0,0,0-.82568-10.791Zm.09912,10.04785-.27051.13867L18.015,25.97353a2,2,0,0,1-4,0l-.00293-11.40674-.2705-.13867A5.00372,5.00372,0,0,1,13.5155,5.64L13.515,9.47353a2.5,2.5,0,1,0,5-.001l-.00585-3.83544a5.00358,5.00358,0,0,1-.22071,8.791Z"/><path class="cls-1" d="M16.00769,16.97353a.49971.49971,0,0,0-.5.5v6.99365a.5.5,0,0,0,1,0V17.47353A.49971.49971,0,0,0,16.00769,16.97353Z"/></svg>