<svg id="Icons" xmlns="http://www.w3.org/2000/svg" viewBox="0 0 32 32"><defs><style>.cls-1{fill:#5514b4;}</style></defs><path class="cls-1" d="M29.0294,16s-5.49317-5.64191-12.38562-5.96887a6.07825,6.07825,0,0,0-1.22876,0C8.52262,10.35809,3.0294,16,3.0294,16S8.52262,21.64191,15.415,21.96887a6.07825,6.07825,0,0,0,1.22876,0C23.53623,21.64191,29.0294,16,29.0294,16Zm-13,2a2,2,0,1,1,2-2A2,2,0,0,1,16.0294,18ZM4.5001,16a22.2037,22.2037,0,0,1,7.34424-4.295,5.98928,5.98928,0,0,0,.00012,8.59A22.20386,22.20386,0,0,1,4.5001,16Zm15.7143,4.295a5.98942,5.98942,0,0,0,.00012-8.59A22.20388,22.20388,0,0,1,27.55869,16,22.20339,22.20339,0,0,1,20.2144,20.295Z"/></svg>