<svg id="Icons" xmlns="http://www.w3.org/2000/svg" viewBox="0 0 32 32"><defs><style>.cls-1{fill:#5514b4;}</style></defs><path class="cls-1" d="M25.999,5H6.00092a2.00687,2.00687,0,0,0-2.001,2.001V20.999A2.00687,2.00687,0,0,0,6.00092,23H14v2H11.5a.5.5,0,0,0,0,1h9a.5.5,0,0,0,0-1H18V23h7.999A2.00687,2.00687,0,0,0,28,20.999V7.001A2.00687,2.00687,0,0,0,25.999,5ZM17,25H15V23h2ZM22.85352,9.64648,13.5,19,9.14648,14.64648a.49982.49982,0,0,1,0-.707.6868.6868,0,0,1,.85352,0l3.64648,3.64649,8.5-8.64649a.49995.49995,0,0,1,.707.707Z"/></svg>