<svg id="Icons" xmlns="http://www.w3.org/2000/svg" viewBox="0 0 32 32"><defs><style>.cls-1{fill:#5514b4;}</style></defs><path class="cls-1" d="M10.99544,11.99011V12H21.00081a1,1,0,0,0,1-1v-.02069h-1.022V6.0036a2,2,0,0,0-2-2H12.99544a2,2,0,0,0-2,2v4.97571h-.95111V11A.99468.99468,0,0,0,10.99544,11.99011Zm1-5.98651a1.00115,1.00115,0,0,1,1-1h5.98334a1.00115,1.00115,0,0,1,1,1v4.97571H11.99544Z"/><path class="cls-1" d="M27.97878,26.97571V22a2,2,0,0,0-2-2H19.99544a2,2,0,0,0-2,2v4.97571h-.95111v.02069a.99469.99469,0,0,0,.95111.99011v.00989H28.00081a1,1,0,0,0,1-1v-.02069Zm-1,0H18.99544V22a1.00115,1.00115,0,0,1,1-1h5.98334a1.00115,1.00115,0,0,1,1,1Z"/><path class="cls-1" d="M13.97878,22a2,2,0,0,0-2-2H5.99544a2,2,0,0,0-2,2v4.97571H3.04433v.02069a.99469.99469,0,0,0,.95111.99011v.00989H14.00081a1,1,0,0,0,1-1v-.02069h-1.022Zm-1,4.97571H4.99544V22a1.00115,1.00115,0,0,1,1-1h5.98334a1.00115,1.00115,0,0,1,1,1Z"/><path class="cls-1" d="M8.98739,18.99585a.498.498,0,0,0,.49639-.48212h.00354v-.01758l.00007-.0003-.00007-.00031v-1.9262a.57515.57515,0,0,1,.57422-.57422h11.874a.57515.57515,0,0,1,.57421.57422v1.92791l-.00018.00092.00018.00091v.00519h.001a.4988.4988,0,0,0,.99756,0h.0014V16.56934a1.57582,1.57582,0,0,0-1.57421-1.57422H16.49514V13.5163l.00329-.0163-.00329-.0163v-.02624h-.00531a.49265.49265,0,0,0-.98279,0h-.0119v1.53766h-5.4336a1.57583,1.57583,0,0,0-1.57422,1.57422v1.94439H8.491A.498.498,0,0,0,8.98739,18.99585Z"/></svg>