<svg id="Icons" xmlns="http://www.w3.org/2000/svg" viewBox="0 0 32 32"><defs><style>.cls-1{fill:#5514b4;}</style></defs><path class="cls-1" d="M17.00128,9.99036l-.00293,16.91046a1.11446,1.11446,0,0,0,1.11328,1.11377h8.79785a1.114,1.114,0,0,0,1.11329-1.1128L28.0257,14.981ZM25.5708,23.991h-6a.5.5,0,0,1,0-1h6a.5.5,0,0,1,0,1Zm0-2.00556h-6a.5.5,0,0,1,0-1h6a.5.5,0,0,1,0,1Zm0-1.989h-6a.5.5,0,0,1,0-1h6a.5.5,0,0,1,0,1Zm0-1.98907h-6a.5.5,0,0,1,0-1h6a.5.5,0,0,1,0,1Z"/><path class="cls-1" d="M3.99835,26.90082a1.11446,1.11446,0,0,0,1.11328,1.11377h8.79785a1.114,1.114,0,0,0,1.11329-1.1128L15.0257,8.98785,4.00128,3.95361Zm2.50934-13.888h6a.5.5,0,0,1,0,1h-6a.5.5,0,0,1,0-1Zm0,1.98907h6a.5.5,0,0,1,0,1h-6a.5.5,0,0,1,0-1Zm0,2.0055h6a.5.5,0,0,1,0,1h-6a.5.5,0,0,1,0-1Zm0,1.98907h6a.5.5,0,0,1,0,1h-6a.5.5,0,0,1,0-1Zm0,1.989h6a.5.5,0,1,1,0,1h-6a.5.5,0,0,1,0-1Zm0,2.00556h6a.5.5,0,0,1,0,1h-6a.5.5,0,0,1,0-1Z"/></svg>