<svg id="Icons" xmlns="http://www.w3.org/2000/svg" viewBox="0 0 32 32"><defs><style>.cls-1{fill:#5514b4;}</style></defs><path class="cls-1" d="M25.98926,14.00635h-.002l-1.29982.00342a9.41745,9.41745,0,0,0-1.10838-2.54151l.71582-.68945A2.00443,2.00443,0,0,0,22.93555,7.334a2.12052,2.12052,0,0,0-1.42578.5625l-.71875.69239A9.55607,9.55607,0,0,0,17.52734,7.2002l-.00293-2.21338a2.0044,2.0044,0,0,0-4.00879.00048l.001,2.20264a9.42247,9.42247,0,0,0-2.52832.92871l-.33887-.33008a2.05246,2.05246,0,0,0-2.834,0,2.00225,2.00225,0,0,0-.00781,2.82666l.11816.123a9.58343,9.58343,0,0,0-1.60547,3.2666l-1.30859.00244a2.00953,2.00953,0,0,0-1.41309.57325,1.95825,1.95825,0,0,0-.58886,1.41015,2.00385,2.00385,0,0,0,2.0039,2.002H5.0166l1.083-.002a9.53573,9.53573,0,0,0,1.31055,3.52393l-1.377,1.32959a2.00422,2.00422,0,1,0,2.78614,2.88183l1.37109-1.32714a9.53942,9.53942,0,0,0,3.35254,1.416v.14893a2.00391,2.00391,0,1,0,4.00781-.001v-.168a9.51516,9.51516,0,0,0,3.71973-1.72656l1.084,1.09424a2.00444,2.00444,0,1,0,2.833-2.83643L23.874,21.02588a9.3685,9.3685,0,0,0,1.02246-3.01172l1.09668.00049a2.00415,2.00415,0,0,0-.0039-4.0083ZM10.5,18.5a1,1,0,1,1,1-1A1.001,1.001,0,0,1,10.5,18.5Zm6.5-7a.5.5,0,1,1,.5-.5A.50065.50065,0,0,1,17,11.5Zm2,9A1.5,1.5,0,1,1,20.5,19,1.50164,1.50164,0,0,1,19,20.5Z"/></svg>