<svg id="Icons" xmlns="http://www.w3.org/2000/svg" viewBox="0 0 32 32"><defs><style>.cls-1{fill:#5514b4;}</style></defs><path class="cls-1" d="M9.50348,5h-3.007A1.49655,1.49655,0,0,0,5,6.49652v3.007A1.49655,1.49655,0,0,0,6.49652,11h3.007A1.49655,1.49655,0,0,0,11,9.50348v-3.007A1.49655,1.49655,0,0,0,9.50348,5ZM10,9.50348A.49706.49706,0,0,1,9.50348,10h-3.007A.49706.49706,0,0,1,6,9.50348v-3.007A.49706.49706,0,0,1,6.49652,6h3.007A.49706.49706,0,0,1,10,6.49652Z"/><polygon class="cls-1" points="7.341 7.428 7.341 7.871 7.829 7.454 7.829 8.991 8.266 8.991 8.266 7.008 7.854 7.008 7.341 7.428"/><path class="cls-1" d="M17.50342,5H14.49658A1.49657,1.49657,0,0,0,13,6.49652v3.007A1.49657,1.49657,0,0,0,14.49658,11h3.00684A1.49657,1.49657,0,0,0,19,9.50348v-3.007A1.49657,1.49657,0,0,0,17.50342,5ZM18,9.50348A.49711.49711,0,0,1,17.50342,10H14.49658A.49711.49711,0,0,1,14,9.50348v-3.007A.49711.49711,0,0,1,14.49658,6h3.00684A.49711.49711,0,0,1,18,6.49652Z"/><path class="cls-1" d="M16.38013,8.20361a1.23762,1.23762,0,0,0,.27929-.32324.64424.64424,0,0,0,.07715-.30859.53166.53166,0,0,0-.08886-.30323.62156.62156,0,0,0-.24512-.21142.81688.81688,0,0,0-.36719-.07764.89684.89684,0,0,0-.30859.0503.93153.93153,0,0,0-.24121.12939,1.17076,1.17076,0,0,0-.18262.16846l.24414.26416a.71878.71878,0,0,1,.19531-.17237A.506.506,0,0,1,16.01,7.34766a.3104.3104,0,0,1,.21582.07031.22817.22817,0,0,1,.07715.17676.33886.33886,0,0,1-.04981.17382,1.10594,1.10594,0,0,1-.19433.2168l-.7041.65235v.35351h1.39941v-.3623h-.84766Z"/><path class="cls-1" d="M25.50342,5H22.49658A1.49657,1.49657,0,0,0,21,6.49652v3.007A1.49657,1.49657,0,0,0,22.49658,11h3.00684A1.49657,1.49657,0,0,0,27,9.50348v-3.007A1.49657,1.49657,0,0,0,25.50342,5ZM26,9.50348A.49711.49711,0,0,1,25.50342,10H22.49658A.49711.49711,0,0,1,22,9.50348v-3.007A.49711.49711,0,0,1,22.49658,6h3.00684A.49711.49711,0,0,1,26,6.49652Z"/><path class="cls-1" d="M24.28772,7.94531a.54565.54565,0,0,0,.2959-.17236.40949.40949,0,0,0,.09765-.26465.43986.43986,0,0,0-.09082-.27588.61277.61277,0,0,0-.24414-.18506.94678.94678,0,0,0-.75976.02442,1.07655,1.07655,0,0,0-.29.21826l.24414.26172a.68822.68822,0,0,1,.18555-.15088.4633.4633,0,0,1,.23339-.05908.37433.37433,0,0,1,.21.05615.19467.19467,0,0,1,.08593.17676.18227.18227,0,0,1-.07715.16211.30632.30632,0,0,1-.17773.05322h-.25879v.35058h.25879a.3756.3756,0,0,1,.23047.063.21261.21261,0,0,1,.085.18116.22868.22868,0,0,1-.0918.19531.36956.36956,0,0,1-.22949.06933.54762.54762,0,0,1-.26367-.06054.76743.76743,0,0,1-.21387-.18408l-.28125.25a.95894.95894,0,0,0,.76953.36523.91626.91626,0,0,0,.38575-.07764.68262.68262,0,0,0,.26855-.21142.49661.49661,0,0,0,.09863-.30567.44019.44019,0,0,0-.11621-.30175A.60616.60616,0,0,0,24.28772,7.94531Z"/><path class="cls-1" d="M9.50348,13h-3.007A1.49651,1.49651,0,0,0,5,14.49652v3.007A1.49655,1.49655,0,0,0,6.49652,19h3.007A1.49655,1.49655,0,0,0,11,17.50348v-3.007A1.49651,1.49651,0,0,0,9.50348,13ZM10,17.50348A.4971.4971,0,0,1,9.50348,18h-3.007A.4971.4971,0,0,1,6,17.50348v-3.007A.49706.49706,0,0,1,6.49652,14h3.007A.49706.49706,0,0,1,10,14.49652Z"/><path class="cls-1" d="M8.47559,15.0083H8.0332L7.085,16.31885V16.606h.959v.38525h.43164V16.606h.25293v-.32471H8.47559ZM8.044,16.28125h-.5459l.5459-.75244Z"/><path class="cls-1" d="M17.50342,13H14.49658A1.49653,1.49653,0,0,0,13,14.49652v3.007A1.49657,1.49657,0,0,0,14.49658,19h3.00684A1.49657,1.49657,0,0,0,19,17.50348v-3.007A1.49653,1.49653,0,0,0,17.50342,13ZM18,17.50348A.49715.49715,0,0,1,17.50342,18H14.49658A.49715.49715,0,0,1,14,17.50348v-3.007A.49711.49711,0,0,1,14.49658,14h3.00684A.49711.49711,0,0,1,18,14.49652Z"/><path class="cls-1" d="M16.47131,15.76233a.61131.61131,0,0,0-.31933-.08594.51375.51375,0,0,0-.21778.0459.46764.46764,0,0,0-.17871.14941l.06348-.47412h.81055v-.3623H15.48889l-.11523,1.01758.333.09472a.32574.32574,0,0,1,.13671-.10937.436.436,0,0,1,.1709-.03418.31341.31341,0,0,1,.24707.09619.34546.34546,0,0,1,.08692.23975.32646.32646,0,0,1-.10254.25439.35905.35905,0,0,1-.251.09326.45956.45956,0,0,1-.249-.07324,1.13922,1.13922,0,0,1-.23438-.20557l-.27832.25293a1.16313,1.16313,0,0,0,.38184.3003.96849.96849,0,0,0,.39941.085.88533.88533,0,0,0,.39844-.08643.65729.65729,0,0,0,.27246-.24414.67536.67536,0,0,0,.09961-.36768.699.699,0,0,0-.085-.34912A.6352.6352,0,0,0,16.47131,15.76233Z"/><path class="cls-1" d="M25.50342,13H22.49658A1.49653,1.49653,0,0,0,21,14.49652v3.007A1.49657,1.49657,0,0,0,22.49658,19h3.00684A1.49657,1.49657,0,0,0,27,17.50348v-3.007A1.49653,1.49653,0,0,0,25.50342,13ZM26,17.50348A.49715.49715,0,0,1,25.50342,18H22.49658A.49715.49715,0,0,1,22,17.50348v-3.007A.49711.49711,0,0,1,22.49658,14h3.00684A.49711.49711,0,0,1,26,14.49652Z"/><path class="cls-1" d="M24.49573,15.77588a.56988.56988,0,0,0-.29981-.08057.60824.60824,0,0,0-.3164.0874.5674.5674,0,0,0-.22754.292,1.279,1.279,0,0,1,.05078-.36963.60769.60769,0,0,1,.12207-.22656.42026.42026,0,0,1,.16211-.11524.47735.47735,0,0,1,.168-.0332.57715.57715,0,0,1,.1875.03174.55768.55768,0,0,1,.18066.10937l.21582-.29053a.86776.86776,0,0,0-.25-.15087.92476.92476,0,0,0-.32519-.0503.81987.81987,0,0,0-.4668.13819.94254.94254,0,0,0-.32422.38525,1.29827,1.29827,0,0,0-.12012.57471,1.16971,1.16971,0,0,0,.09864.49414.777.777,0,0,0,.27148.33056.70747.70747,0,0,0,.40625.11768.81407.81407,0,0,0,.38965-.0918.701.701,0,0,0,.26855-.25293.6907.6907,0,0,0,.09766-.3623.64106.64106,0,0,0-.07812-.31738A.58468.58468,0,0,0,24.49573,15.77588Zm-.23438.80713a.32726.32726,0,0,1-.22949.08642.31085.31085,0,0,1-.22266-.08642.30084.30084,0,0,1-.09082-.22949.31387.31387,0,0,1,.09082-.23877.31041.31041,0,0,1,.22266-.08594.32682.32682,0,0,1,.22949.08594.30583.30583,0,0,1,.09473.23877A.29341.29341,0,0,1,24.26135,16.583Z"/><path class="cls-1" d="M9.50348,21h-3.007A1.49651,1.49651,0,0,0,5,22.49652v3.007A1.49655,1.49655,0,0,0,6.49652,27h3.007A1.49655,1.49655,0,0,0,11,25.50348v-3.007A1.49651,1.49651,0,0,0,9.50348,21ZM10,25.50348A.4971.4971,0,0,1,9.50348,26h-3.007A.4971.4971,0,0,1,6,25.50348v-3.007A.49706.49706,0,0,1,6.49652,22h3.007A.49706.49706,0,0,1,10,22.49652Z"/><polygon class="cls-1" points="7.276 23.371 8.273 23.371 7.414 24.991 7.905 24.991 8.715 23.348 8.715 23.008 7.276 23.008 7.276 23.371"/><path class="cls-1" d="M17.50342,21H14.49658A1.49653,1.49653,0,0,0,13,22.49652v3.007A1.49657,1.49657,0,0,0,14.49658,27h3.00684A1.49657,1.49657,0,0,0,19,25.50348v-3.007A1.49653,1.49653,0,0,0,17.50342,21ZM18,25.50348A.49715.49715,0,0,1,17.50342,26H14.49658A.49715.49715,0,0,1,14,25.50348v-3.007A.49711.49711,0,0,1,14.49658,22h3.00684A.49711.49711,0,0,1,18,22.49652Z"/><path class="cls-1" d="M16.314,23.92822a.435.435,0,0,0,.26368-.147.41683.41683,0,0,0,.08691-.26709.454.454,0,0,0-.09082-.2832.59255.59255,0,0,0-.24707-.18506.98194.98194,0,0,0-.71,0,.59255.59255,0,0,0-.24707.18506.454.454,0,0,0-.09082.2832.41683.41683,0,0,0,.08691.26709.43214.43214,0,0,0,.26367.147.59887.59887,0,0,0-.332.18213.47061.47061,0,0,0-.11035.312.50558.50558,0,0,0,.10059.31446.65674.65674,0,0,0,.27734.20849,1.14455,1.14455,0,0,0,.81348,0,.65761.65761,0,0,0,.27734-.21.51346.51346,0,0,0,.10059-.313.4664.4664,0,0,0-.11133-.312A.59248.59248,0,0,0,16.314,23.92822Zm-.5664-.55029a.43778.43778,0,0,1,.44922,0,.2018.2018,0,0,1,.082.1709.21747.21747,0,0,1-.082.17822.41561.41561,0,0,1-.44922,0,.21553.21553,0,0,1-.083-.17822A.20012.20012,0,0,1,15.74756,23.37793ZM16.23,24.60449a.46129.46129,0,0,1-.5166,0,.26247.26247,0,0,1-.09473-.21387.24884.24884,0,0,1,.09473-.20556.476.476,0,0,1,.5166,0,.24884.24884,0,0,1,.09473.20556A.26247.26247,0,0,1,16.23,24.60449Z"/><path class="cls-1" d="M25.50342,21H22.49658A1.49653,1.49653,0,0,0,21,22.49652v3.007A1.49657,1.49657,0,0,0,22.49658,27h3.00684A1.49657,1.49657,0,0,0,27,25.50348v-3.007A1.49653,1.49653,0,0,0,25.50342,21ZM26,25.50348A.49715.49715,0,0,1,25.50342,26H22.49658A.49715.49715,0,0,1,22,25.50348v-3.007A.49711.49711,0,0,1,22.49658,22h3.00684A.49711.49711,0,0,1,26,22.49652Z"/><path class="cls-1" d="M24.42078,23.12646a.71486.71486,0,0,0-.40821-.11816.80872.80872,0,0,0-.38965.09229.69743.69743,0,0,0-.26855.25146.67808.67808,0,0,0-.09766.36328.64331.64331,0,0,0,.07813.31592.56822.56822,0,0,0,.51074.30176.60374.60374,0,0,0,.31641-.0874.56126.56126,0,0,0,.22656-.28907,1.17031,1.17031,0,0,1-.05176.36231.64647.64647,0,0,1-.123.227.43261.43261,0,0,1-.16114.11767.44421.44421,0,0,1-.16406.03467.621.621,0,0,1-.19043-.03027.60494.60494,0,0,1-.18555-.10205l-.207.29a.89942.89942,0,0,0,.25.144.95039.95039,0,0,0,.3252.04883.81233.81233,0,0,0,.36035-.08057.85064.85064,0,0,0,.28711-.22851,1.09371,1.09371,0,0,0,.1914-.34766,1.34712,1.34712,0,0,0,.06836-.44092,1.18348,1.18348,0,0,0-.0957-.49609A.77718.77718,0,0,0,24.42078,23.12646Zm-.18653.78565A.3078.3078,0,0,1,24.00964,24a.32417.32417,0,0,1-.22949-.08789.30509.30509,0,0,1-.09473-.23682.29516.29516,0,0,1,.09473-.23.32726.32726,0,0,1,.22949-.08642.30049.30049,0,0,1,.31348.3164A.3193.3193,0,0,1,24.23425,23.91211Z"/></svg>