<svg id="Icons" xmlns="http://www.w3.org/2000/svg" viewBox="0 0 32 32"><defs><style>.cls-1{fill:#5514b4;}</style></defs><path class="cls-1" d="M26.84155,16.37024a5.98522,5.98522,0,0,0-7.88678-7.01257A6.98277,6.98277,0,0,0,6.12762,14.30524,5.99675,5.99675,0,0,0,8,26H25a4.98884,4.98884,0,0,0,1.84155-9.62976ZM25,25H8a4.99677,4.99677,0,0,1-1.55786-9.74554l.83179-.27552L7.11,14.11816A5.97675,5.97675,0,0,1,12.9906,7a5.95107,5.95107,0,0,1,5.11066,2.87872l.42676.699.7694-.28064a4.98274,4.98274,0,0,1,6.57087,5.8435l-.1977.838.79926.32A3.98886,3.98886,0,0,1,25,25Z"/><path class="cls-1" d="M19,16.0921V15.03516a3,3,0,1,0-6,0V16.0921A1.49758,1.49758,0,0,0,12,17.5v3A1.50164,1.50164,0,0,0,13.5,22h5A1.50164,1.50164,0,0,0,20,20.5v-3A1.49758,1.49758,0,0,0,19,16.0921Zm-3-3.05694a2.00229,2.00229,0,0,1,2,2V16H14v-.96484A2.00229,2.00229,0,0,1,16,13.03516ZM19,20.5a.50065.50065,0,0,1-.5.5h-5a.50065.50065,0,0,1-.5-.5v-3a.50065.50065,0,0,1,.5-.5h5a.50065.50065,0,0,1,.5.5Z"/></svg>