<svg id="Icons" xmlns="http://www.w3.org/2000/svg" viewBox="0 0 32 32"><defs><style>.cls-1{fill:#5514b4;}</style></defs><path class="cls-1" d="M19.53467,9.45264a.49995.49995,0,0,0-.70606.708,4.00784,4.00784,0,0,1,.03711,5.64112.5.5,0,1,0,.71485.69922,5.00758,5.00758,0,0,0-.0459-7.04834Z"/><path class="cls-1" d="M11.99219,13a3.97964,3.97964,0,0,1,1.168-2.82764.50029.50029,0,1,0-.709-.706A5.00823,5.00823,0,0,0,12.459,16.541a.5.5,0,0,0,.707-.707A3.9823,3.9823,0,0,1,11.99219,13Z"/><path class="cls-1" d="M21.63721,7.335a.5.5,0,0,0-.70508.709,6.99234,6.99234,0,0,1,.03857,9.873.5.5,0,1,0,.71094.70313A7.992,7.992,0,0,0,21.63721,7.335Z"/><path class="cls-1" d="M9.0083,13a6.94849,6.94849,0,0,1,2.02832-4.92432.5.5,0,0,0-.71-.7041,7.9913,7.9913,0,0,0,.02246,11.2793.49995.49995,0,0,0,.707-.707A6.94342,6.94342,0,0,1,9.0083,13Z"/><path class="cls-1" d="M5.9751,13A9.96254,9.96254,0,0,1,8.88477,5.938a.5.5,0,0,0-.71-.7041A11.024,11.024,0,0,0,8.169,20.75977a.5.5,0,1,0,.71-.70411A9.96281,9.96281,0,0,1,5.9751,13Z"/><path class="cls-1" d="M23.79541,5.20459a.49995.49995,0,0,0-.707.707,10.02308,10.02308,0,0,1,.03418,14.14209.5003.5003,0,0,0,.71094.7041,11.02392,11.02392,0,0,0-.03809-15.55322Z"/><path class="cls-1" d="M16,10.99756a1.99754,1.99754,0,0,0-.5249,3.92621V26.44385a.5.5,0,0,0,1,0V14.93921A1.99905,1.99905,0,0,0,16,10.99756Z"/></svg>