<svg id="Icons" xmlns="http://www.w3.org/2000/svg" viewBox="0 0 32 32"><defs><style>.cls-1{fill:#5514b4;}</style></defs><path class="cls-1" d="M16,6C8.268,6,2,10.47717,2,16S8.268,26,16,26a19.22614,19.22614,0,0,0,4.0116-.42175L24.62506,27.926A1,1,0,0,0,26,26.999V22.99207A8.78851,8.78851,0,0,0,30,16C30,10.47717,23.732,6,16,6ZM8.5,11h15a.5.5,0,0,1,0,1H8.5a.5.5,0,0,1,0-1Zm7,10h-7a.5.5,0,0,1,0-1h7a.5.5,0,0,1,0,1Zm10-3H6.5a.5.5,0,0,1,0-1h19a.5.5,0,0,1,0,1Zm0-3H6.5a.5.5,0,0,1,0-1h19a.5.5,0,0,1,0,1Z"/></svg>