<svg id="Icons" xmlns="http://www.w3.org/2000/svg" viewBox="0 0 32 32"><defs><style>.cls-1{fill:#5514b4;}</style></defs><path class="cls-1" d="M21.5741,11.145l6.29211-6.2915a.49995.49995,0,1,0-.707-.707l-6.62756,6.6269a14.93082,14.93082,0,0,0-3.90284-.74225,6.07825,6.07825,0,0,0-1.22876,0C8.50757,10.35809,3.0144,16,3.0144,16a23.69319,23.69319,0,0,0,7.43628,4.85327L4.18359,27.11963a.49995.49995,0,1,0,.707.707l6.6023-6.60156a14.93582,14.93582,0,0,0,3.9071.74377,6.07825,6.07825,0,0,0,1.22876,0C23.52124,21.64191,29.0144,16,29.0144,16A23.68921,23.68921,0,0,0,21.5741,11.145ZM16.0144,11a4.95116,4.95116,0,0,1,3.14515,1.14526l-2.13684,2.1366a1.98791,1.98791,0,0,0-2.72657,2.72626L12.1593,19.14478A4.951,4.951,0,0,1,11.0144,16,5.00561,5.00561,0,0,1,16.0144,11ZM4.48511,16a22.20415,22.20415,0,0,1,7.34424-4.295,5.988,5.988,0,0,0-.39563,8.16522L11.23,20.074A22.69628,22.69628,0,0,1,4.48511,16ZM16.0144,21A4.95145,4.95145,0,0,1,12.866,19.85211l2.13635-2.13605a1.98806,1.98806,0,0,0,2.72815-2.728l2.13635-2.136A4.9509,4.9509,0,0,1,21.0144,16,5.00561,5.00561,0,0,1,16.0144,21Zm4.18506-.705a5.98778,5.98778,0,0,0,.39283-8.16833l.20227-.20221A22.69063,22.69063,0,0,1,27.5437,16,22.20294,22.20294,0,0,1,20.19946,20.295Z"/></svg>