<svg id="Icons" xmlns="http://www.w3.org/2000/svg" viewBox="0 0 32 32"><defs><style>.cls-1{fill:#5514b4;}</style></defs><path class="cls-1" d="M27,7H25V4.5a.5.5,0,0,0-1,0V7H8V4.5a.5.5,0,0,0-1,0V7H5A1.003,1.003,0,0,0,4,8V27a1.003,1.003,0,0,0,1,1H27a1.003,1.003,0,0,0,1-1V8A1.003,1.003,0,0,0,27,7ZM14.68964,18.952a2.45669,2.45669,0,0,1,.51507,1.02685h2.3985a.50586.50586,0,0,1,0,1.01172H15.20129a2.47987,2.47987,0,0,1-.51165,1.01709,1.929,1.929,0,0,0-.44629.94189h4.0874a.50586.50586,0,1,1,0,1.01172H13.19354v-.50586a3.01327,3.01327,0,0,1,.68457-2.05371,2.20933,2.20933,0,0,0,.267-.41113h-.44623a.50586.50586,0,0,1,0-1.01172h.4513a2.19552,2.19552,0,0,0-.26673-.415,3.02162,3.02162,0,0,1-.69043-2.05761A2.55428,2.55428,0,0,1,16.01,15.01062a2.55636,2.55636,0,0,1,2.82666,2.48682.50586.50586,0,0,1-1.01172,0c0-1.01856-.91162-1.47461-1.81494-1.47461-.30127,0-1.80518.07177-1.80518,1.4834A2.0084,2.0084,0,0,0,14.68964,18.952ZM27,12H5V8H7v.5a.5.5,0,0,0,1,0V8H24v.5a.5.5,0,0,0,1,0V8h2Z"/></svg>