<svg id="Icons" xmlns="http://www.w3.org/2000/svg" viewBox="0 0 32 32"><defs><style>.cls-1{fill:#5514b4;}</style></defs><path class="cls-1" d="M9.04315,5A1.04316,1.04316,0,0,0,8,6.04315V25.97491A1.025,1.025,0,0,0,9.025,27H24V5ZM9,25.97491V6.04315A.04319.04319,0,0,1,9.04315,6h.93732V25.97656Zm14,.02338-12.01953-.02008V6H23Z"/><path class="cls-1" d="M13.53027,13.98438h1.90625l.39356,1.02539h1.07129l-1.85352-4.60108H13.94434l-1.84766,4.60108h1.03906Zm.95313-2.49756.66308,1.72851H13.82617Z"/><polygon class="cls-1" points="21.407 21.134 18.844 21.134 21.341 18.209 21.341 17.368 17.72 17.368 17.72 18.203 20.151 18.203 17.654 21.128 17.654 21.969 21.407 21.969 21.407 21.134"/></svg>