<svg id="Icons" xmlns="http://www.w3.org/2000/svg" viewBox="0 0 32 32"><defs><style>.cls-1{fill:#5514b4;}</style></defs><path class="cls-1" d="M26.84155,15.37025a5.98524,5.98524,0,0,0-7.88678-7.01258A6.98277,6.98277,0,0,0,6.12762,13.30524,5.99675,5.99675,0,0,0,8,25H25a4.98884,4.98884,0,0,0,1.84155-9.62976ZM25,24H8a4.99678,4.99678,0,0,1-1.55786-9.74555l.83179-.27551L7.11,13.11817A5.97675,5.97675,0,0,1,12.9906,6a5.95107,5.95107,0,0,1,5.11066,2.87872l.42676.699.7694-.28064a4.98274,4.98274,0,0,1,6.57087,5.8435l-.1977.83795.79926.32A3.98886,3.98886,0,0,1,25,24Z"/><path class="cls-1" d="M20.978,14.01105a2,2,0,0,0-2-2H12.99463a2,2,0,0,0-2,2v4.97571h-.95111v.02069a.99469.99469,0,0,0,.95111.99012v.00988H21a1,1,0,0,0,1-1v-.02069H20.978Zm-8.98334,0a1.00115,1.00115,0,0,1,1-1H18.978a1.00115,1.00115,0,0,1,1,1v4.97571H11.99463Z"/></svg>