<svg id="Icons" xmlns="http://www.w3.org/2000/svg" viewBox="0 0 32 32"><defs><style>.cls-1{fill:#5514b4;}</style></defs><path class="cls-1" d="M10,15a1,1,0,1,0,1,1,1,1,0,0,0-1-1Z"/><path class="cls-1" d="M16,15a1,1,0,1,0,1,1,1,1,0,0,0-1-1Z"/><path class="cls-1" d="M22,15a1,1,0,1,0,1,1,1,1,0,0,0-1-1Z"/><path class="cls-1" d="M16,7c7.16821,0,13,4.03735,13,9a7.78716,7.78716,0,0,1-3.58939,6.18423L25,22.4838v4.511L20.46515,24.687l-.31577-.16067-.34649.07394A18.25648,18.25648,0,0,1,16,25C8.83179,25,3,20.96262,3,16S8.83179,7,16,7m0-1C8.268,6,2,10.47717,2,16S8.268,26,16,26a19.22614,19.22614,0,0,0,4.0116-.42175l4.61349,2.34781A.99794.99794,0,0,0,26,26.999V22.99207A8.78851,8.78851,0,0,0,30,16c0-5.52283-6.268-10-14-10Z"/></svg>