<svg id="Icons" xmlns="http://www.w3.org/2000/svg" viewBox="0 0 32 32"><defs><style>.cls-1{fill:#5514b4;}</style></defs><path class="cls-1" d="M13.184,17.53082a.50659.50659,0,0,0,.50586.50586h.44623a2.20933,2.20933,0,0,1-.267.41113,3.01327,3.01327,0,0,0-.68457,2.05371v.50586h5.13721a.50586.50586,0,0,0,0-1.01172H14.23431a1.92906,1.92906,0,0,1,.44629-.94189,2.47975,2.47975,0,0,0,.51166-1.01709h2.40192a.50586.50586,0,0,0,0-1.01172h-2.3985a2.45681,2.45681,0,0,0-.51508-1.02686,2.00843,2.00843,0,0,1-.48486-1.4458c0-1.41162,1.50391-1.4834,1.80518-1.4834.90332,0,1.81494.45606,1.81494,1.47461a.50586.50586,0,1,0,1.01172,0,2.55636,2.55636,0,0,0-2.82666-2.48681,2.55427,2.55427,0,0,0-2.8169,2.4956,3.02158,3.02158,0,0,0,.69043,2.05762,2.19544,2.19544,0,0,1,.26672.415h-.45129A.50659.50659,0,0,0,13.184,17.53082Z"/><path class="cls-1" d="M16.75983,5.06152l2.13275-2.19946a.50036.50036,0,0,0-.71875-.69629L14.88965,5.554,18.15039,8.8811a.50106.50106,0,0,0,.35742.1499.50049.50049,0,0,0,.35742-.8501l-2.074-2.1156a10.97673,10.97673,0,1,1-8.0481,2.69031.49994.49994,0,1,0-.66015-.751,12.01184,12.01184,0,1,0,8.67682-2.94311Z"/></svg>