<svg id="Icons" xmlns="http://www.w3.org/2000/svg" viewBox="0 0 32 32"><defs><style>.cls-1{fill:#5514b4;}</style></defs><path class="cls-1" d="M16,2.03033a14,14,0,1,0,14,14A14,14,0,0,0,16,2.03033Zm0,27a13,13,0,1,1,13-13A13.01474,13.01474,0,0,1,16,29.03033Z"/><path class="cls-1" d="M15.98633,10.01074c1.49512,0,3.0039.77,3.0039,2.49072a.5.5,0,0,0,1,0c0-2.05517-1.64648-3.49072-4.0039-3.49072-2.34961,0-3.99024,1.44092-3.99024,3.50391a4.27327,4.27327,0,0,0,.98731,2.94482,4.51408,4.51408,0,0,1,.35492.53467h-.84223a.5.5,0,0,0,0,1h1.08362c0,.00586.00141.00971.00134.01563a2.23414,2.23414,0,0,1-.60156,1.54492,4.2653,4.2653,0,0,0-.98242,2.94336v.5h7.49316a.5.5,0,1,0,0-1H13.01855a3.15183,3.15183,0,0,1,.76172-1.84375,3.22077,3.22077,0,0,0,.80078-2.13965c.00007-.00769-.00195-.01288-.00195-.02051h3.8125a.5.5,0,1,0,0-1H14.41486a3.909,3.909,0,0,0-.63166-1.13476,3.29105,3.29105,0,0,1-.78711-2.34473C12.99609,10.6665,14.60645,10.01074,15.98633,10.01074Z"/></svg>