<svg id="Icons" xmlns="http://www.w3.org/2000/svg" viewBox="0 0 32 32"><defs><style>.cls-1{fill:#5514b4;}</style></defs><path class="cls-1" d="M21.57861,11.1405l6.2876-6.287a.49995.49995,0,1,0-.707-.707l-6.62366,6.623a14.929,14.929,0,0,0-3.89172-.73834,6.07825,6.07825,0,0,0-1.22876,0C8.52271,10.35809,3.02942,16,3.02942,16a23.70047,23.70047,0,0,0,7.42566,4.84882L4.18359,27.11963a.49995.49995,0,1,0,.707.707l6.60621-6.60541a14.93934,14.93934,0,0,0,3.91821.74762,6.07825,6.07825,0,0,0,1.22876,0C23.53625,21.64191,29.02942,16,29.02942,16A23.68094,23.68094,0,0,0,21.57861,11.1405ZM16.02942,14a1.97885,1.97885,0,0,1,.99853.27661l-2.722,2.72174A1.98717,1.98717,0,0,1,16.02942,14ZM4.50012,16a22.20435,22.20435,0,0,1,7.34424-4.295,5.988,5.988,0,0,0-.40247,8.1571L11.234,20.07A22.70583,22.70583,0,0,1,4.50012,16Zm11.5293,2a1.98134,1.98134,0,0,1-1.02185-.28925l2.73266-2.73242A1.98885,1.98885,0,0,1,16.02942,18Zm4.18494,2.295a5.98671,5.98671,0,0,0,.38574-8.17608l.19848-.19855A22.68623,22.68623,0,0,1,27.55872,16,22.204,22.204,0,0,1,20.21436,20.295Z"/></svg>