<svg id="Icons" xmlns="http://www.w3.org/2000/svg" viewBox="0 0 32 32"><defs><style>.cls-1{fill:#5514b4;}</style></defs><path class="cls-1" d="M28.5,2.00842,3.5,2.028A1.50164,1.50164,0,0,0,2,3.528V4.53479a1.50164,1.50164,0,0,0,1.5,1.5l25-.01953a1.50164,1.50164,0,0,0,1.5-1.5V3.50842A1.50164,1.50164,0,0,0,28.5,2.00842Z"/><path class="cls-1" d="M28.5,10.03186l-25,.01953a1.50164,1.50164,0,0,0-1.5,1.5v1.002a1.50164,1.50164,0,0,0,1.5,1.5l25-.01953a1.50164,1.50164,0,0,0,1.5-1.5v-1.002A1.50164,1.50164,0,0,0,28.5,10.03186Z"/><path class="cls-1" d="M28.5,18.01038l-25,.01953a1.50164,1.50164,0,0,0-1.5,1.5v.97461a1.50164,1.50164,0,0,0,1.5,1.5l25-.01953a1.50164,1.50164,0,0,0,1.5-1.5v-.97461A1.50164,1.50164,0,0,0,28.5,18.01038Z"/><path class="cls-1" d="M28.5,26.00159l-25,.01953a1.50164,1.50164,0,0,0-1.5,1.5v.99414a1.50164,1.50164,0,0,0,1.5,1.5l25-.01953a1.50164,1.50164,0,0,0,1.5-1.5v-.99414A1.50164,1.50164,0,0,0,28.5,26.00159Z"/></svg>