<svg id="Icons" xmlns="http://www.w3.org/2000/svg" viewBox="0 0 32 32"><defs><style>.cls-1{fill:#5514b4;}</style></defs><path class="cls-1" d="M6.83105,17h7.34278A.82626.82626,0,0,0,15,16.17627v-.28662A3.70733,3.70733,0,0,0,12.71765,12.593a2.45736,2.45736,0,0,0,.26868-1.10218,2.48365,2.48365,0,0,0-4.96729,0,2.45759,2.45759,0,0,0,.26862,1.10206,3.70767,3.70767,0,0,0-2.28278,3.29675v.28662A.82626.82626,0,0,0,6.83105,17Zm3.67164-6.9928A1.48365,1.48365,0,1,1,9.019,11.49084,1.48532,1.48532,0,0,1,10.50269,10.0072ZM7.00488,15.88965a2.82143,2.82143,0,0,1,1.92157-2.49408,2.43523,2.43523,0,0,0,3.15229.00012A2.82073,2.82073,0,0,1,14,15.88965V16H7.00488Z"/><path class="cls-1" d="M17.82617,17H25.169a.82626.82626,0,0,0,.82617-.82373v-.28662A3.70735,3.70735,0,0,0,23.71277,12.593a2.45736,2.45736,0,0,0,.26868-1.10218,2.48365,2.48365,0,0,0-4.96729,0,2.45759,2.45759,0,0,0,.26862,1.10206A3.70767,3.70767,0,0,0,17,15.88965v.28662A.82626.82626,0,0,0,17.82617,17Zm3.67163-6.9928a1.48365,1.48365,0,1,1-1.48364,1.48364A1.48532,1.48532,0,0,1,21.4978,10.0072ZM18,15.88965a2.82143,2.82143,0,0,1,1.92157-2.49408,2.43521,2.43521,0,0,0,3.15228.00012,2.82074,2.82074,0,0,1,1.92127,2.494V16H18Z"/><path class="cls-1" d="M27.5,20a1.49586,1.49586,0,0,0-1.40509.99011l-1.09747.00452A1.00581,1.00581,0,0,0,23.99274,20H19.00726A1.00729,1.00729,0,0,0,18,21.00726v.98548A1.00729,1.00729,0,0,0,19.00726,23h4.98548a1.00707,1.00707,0,0,0,1.00689-1.00537l1.08912-.00446A1.49734,1.49734,0,1,0,27.5,20Zm-3.50726,2L19,21.99274,19.00726,21h4.92047l.00391.999.0611-.00024ZM27.5,22a.5.5,0,1,1,.5-.5A.50057.50057,0,0,1,27.5,22Z"/><path class="cls-1" d="M13.99817,20.99817A1.00629,1.00629,0,0,0,12.99274,20H8.00726a1.00573,1.00573,0,0,0-1.00457.99384l-1.095.00451a1.50019,1.50019,0,1,0,.001,1l1.09155-.00445A1.00719,1.00719,0,0,0,8.00726,23h4.98548a1.00673,1.00673,0,0,0,1.00616-1.00183L18,21.98926l-.0072-1ZM4.5,22a.5.5,0,1,1,.5-.5A.50057.50057,0,0,1,4.5,22Zm8.49274,0L8,21.99274v-.00293l.127-.00055L8.12311,21h4.86963L13,21.00726Z"/></svg>