<svg id="Icons" xmlns="http://www.w3.org/2000/svg" viewBox="0 0 32 32"><defs><style>.cls-1{fill:#5514b4;}</style></defs><path class="cls-1" d="M26.91125,12H5.08875A1.09,1.09,0,0,0,4,13.08875v5.82244A1.09,1.09,0,0,0,5.08875,20h21.8225A1.09,1.09,0,0,0,28,18.91119V13.08875A1.09,1.09,0,0,0,26.91125,12ZM27,18.91119A.08876.08876,0,0,1,26.91125,19H5.08875A.08876.08876,0,0,1,5,18.91119V13.08875A.08874.08874,0,0,1,5.08875,13h21.8225A.08874.08874,0,0,1,27,13.08875Z"/><path class="cls-1" d="M7.67871,13.99072,6.07422,17.9873h.90234l.34278-.89062H8.97461l.34277.89062H10.248L8.6377,13.99072Zm-.10254,2.438.57031-1.50146.57715,1.50146Z"/><path class="cls-1" d="M13.46191,15.86328a1.17721,1.17721,0,0,0,.5625-.33935.78078.78078,0,0,0,.20215-.52832.92059.92059,0,0,0-.13965-.49122,1.013,1.013,0,0,0-.42187-.37109,1.59284,1.59284,0,0,0-.7168-.14258H11.04688V17.9873h1.94726a1.63562,1.63562,0,0,0,.74512-.15722,1.16127,1.16127,0,0,0,.47656-.42237,1.09341,1.09341,0,0,0,.165-.59082.86859.86859,0,0,0-.2334-.59668A1.24632,1.24632,0,0,0,13.46191,15.86328ZM11.915,14.68164h.89062a.56437.56437,0,0,1,.40821.12256.4394.4394,0,0,1,.12207.32275.49442.49442,0,0,1-.11914.3252.513.513,0,0,1-.41114.14306H11.915Zm1.42383,2.47217a.66022.66022,0,0,1-.459.14258H11.915v-1.022h.96484a.62784.62784,0,0,1,.459.1543.49647.49647,0,0,1,0,.7251Z"/><path class="cls-1" d="M17.73535,17.17383a1.3853,1.3853,0,0,1-.6084.12842,1.09386,1.09386,0,0,1-.59082-.16553,1.16481,1.16481,0,0,1-.41992-.4624,1.599,1.599,0,0,1,0-1.37061,1.17245,1.17245,0,0,1,.417-.4624,1.0792,1.0792,0,0,1,.58789-.16553,1.25629,1.25629,0,0,1,.585.13135,1.54855,1.54855,0,0,1,.48243.41113l.56543-.51367a2.17326,2.17326,0,0,0-.72754-.58252,2.08853,2.08853,0,0,0-.90528-.18848,2.1375,2.1375,0,0,0-.80761.15137,2.00615,2.00615,0,0,0-.65625.42822,1.97,1.97,0,0,0-.44043.65381,2.24045,2.24045,0,0,0,0,1.644,1.96986,1.96986,0,0,0,.44043.6538,1.9909,1.9909,0,0,0,.65918.42823,2.1504,2.1504,0,0,0,.81054.15136,2.20326,2.20326,0,0,0,.92188-.18554,2.15684,2.15684,0,0,0,.74512-.57959l-.56543-.51368A1.48157,1.48157,0,0,1,17.73535,17.17383Z"/><rect class="cls-1" x="20" y="17.00342" width="3" height="1"/></svg>