<svg id="Icons" xmlns="http://www.w3.org/2000/svg" viewBox="0 0 32 32"><defs><style>.cls-1{fill:#5514b4;}</style></defs><path class="cls-1" d="M23.56348,11.78613,16.82861,3.749a1.08542,1.08542,0,0,0-.84619-.40234,1.11193,1.11193,0,0,0-.84326.39893L8.42822,11.794A1.93459,1.93459,0,0,0,8,13.00439V27.5a.49971.49971,0,0,0,.5.5h15a.49971.49971,0,0,0,.5-.5V13.00635A1.93206,1.93206,0,0,0,23.56348,11.78613ZM23,27H9V13.00439a.92543.92543,0,0,1,.20117-.57617l6.70557-8.042.023-.00049c.042-.00049.12549.00049.12793,0l6.73486,8.0376a.925.925,0,0,1,.20752.583Z"/><circle class="cls-1" cx="16" cy="8" r="1.00073"/></svg>