<svg id="Icons" xmlns="http://www.w3.org/2000/svg" viewBox="0 0 32 32"><defs><style>.cls-1{fill:#5514b4;}</style></defs><path class="cls-1" d="M27.999,6H4.001A2.00684,2.00684,0,0,0,2,8.001V22.999A2.00684,2.00684,0,0,0,4.001,25H6.293L4.64648,26.64648a.5.5,0,1,0,.707.707L7.707,25h6.3067v.71466a2.21187,2.21187,0,0,0,2.12744,2.27582h7.72455a2.14,2.14,0,0,0,1.97449-1.44324l.80627.80628a.5.5,0,0,0,.707-.707l-1.36036-1.36035V25H27.999A2.00687,2.00687,0,0,0,30,22.999V8.001A2.00687,2.00687,0,0,0,27.999,6ZM24.99316,25.71466a1.22486,1.22486,0,0,1-1.12744,1.27582H16.14117a1.22486,1.22486,0,0,1-1.12744-1.27582V22.2699a1.22486,1.22486,0,0,1,1.12744-1.27582h7.72455a1.22486,1.22486,0,0,1,1.12744,1.27582ZM29,22.999A1.00212,1.00212,0,0,1,27.999,24H25.99316V22.2699a2.2119,2.2119,0,0,0-2.12744-2.27582H16.14117a2.21191,2.21191,0,0,0-2.12744,2.27582V24H4.001A1.00212,1.00212,0,0,1,3,22.999V8.001A1.00212,1.00212,0,0,1,4.001,7H27.999A1.00212,1.00212,0,0,1,29,8.001Z"/><path class="cls-1" d="M20.00348,21.995a2.0022,2.0022,0,1,0,2.0022,2.00219A2.00217,2.00217,0,0,0,20.00348,21.995Zm0,3.00439a1.0022,1.0022,0,1,1,1.0022-1.0022A1.00334,1.00334,0,0,1,20.00348,24.99939Z"/><path class="cls-1" d="M3.984,22.98309h9.02972V22.2699a3.20785,3.20785,0,0,1,3.12744-3.27582h7.72455a3.20784,3.20784,0,0,1,3.12744,3.27582v.71319h.99878V8.04376H3.984Z"/></svg>