<svg id="Icons" xmlns="http://www.w3.org/2000/svg" viewBox="0 0 32 32"><defs><style>.cls-1{fill:#5514b4;}</style></defs><path class="cls-1" d="M10.27924,5h0l.01712.05139.02259.04923L12.8307,10.5777,10.4453,12.168l-.58636.3909.17092.68368a11.8203,11.8203,0,0,0,8.7276,8.7276l.68405.171.39081-.58685,1.59015-2.38773,5.47617,2.5145.04917.02234.05132.01715-.00059,5.26526-.06215.00006c-6.57549,0-12.10556-2.0585-15.99234-5.95294C7.05173,17.1329,5.00121,11.58649,5.0191,5h5.26014m0-1H5.0191a1.00369,1.00369,0,0,0-1.00489.99124c-.02755,13.98441,8.96131,22.99463,22.92218,22.99463l.064-.00006a1.0037,1.0037,0,0,0,.99125-1.00369l.00748-5.26014a.99992.99992,0,0,0-.6832-.94967l-5.616-2.57874A.9996.9996,0,0,0,20.597,18.602L19,21a10.85212,10.85212,0,0,1-8-8l2.39568-1.59711a1,1,0,0,0,.40812-1.1022L11.22792,4.68378A1,1,0,0,0,10.27924,4Z"/></svg>