<svg id="Icons" xmlns="http://www.w3.org/2000/svg" viewBox="0 0 32 32"><defs><style>.cls-1{fill:#5514b4;}</style></defs><path class="cls-1" d="M15.78223,10.34619a8.88252,8.88252,0,0,0-6.27149-2.832h-.002a8.889,8.889,0,0,0-6.2666,2.83008A.85818.85818,0,0,0,3.24512,11.562l1.35156,1.34375a.96682.96682,0,0,0,.94629.1836l2.18262-.80957.18457-.13917a.85481.85481,0,0,0,.23828-.78076l-.13281-.65478a3.50525,3.50525,0,0,1,2.99121,0l-.13184.65332a.87365.87365,0,0,0,.49609.95459l2.05762.75439a.86579.86579,0,0,0,.99512-.15967l1.35547-1.34277a.8583.8583,0,0,0,.25488-.6123A.84843.84843,0,0,0,15.78223,10.34619Zm-1.999,1.78955-1.90429-.69531.251-1.24951-.30371-.18115a4.55061,4.55061,0,0,0-4.62988,0l-.30469.18115.25195,1.2456-1.8955.70655L4.0498,10.95215a7.85141,7.85141,0,0,1,5.459-2.438h.002a7.86048,7.86048,0,0,1,5.46387,2.43994Z"/><path class="cls-1" d="M28.78223,20.34619a8.88252,8.88252,0,0,0-6.27149-2.832h-.00195a8.889,8.889,0,0,0-6.2666,2.83008.85818.85818,0,0,0,.00293,1.21777l1.35156,1.34375a.96716.96716,0,0,0,.94629.1836l2.18262-.80957.18457-.13917a.85481.85481,0,0,0,.23828-.78076l-.13281-.65478a3.50525,3.50525,0,0,1,2.99121,0l-.13184.65332a.87365.87365,0,0,0,.49609.95459l2.05762.75439a.86579.86579,0,0,0,.99512-.15967l1.35547-1.34277a.8583.8583,0,0,0,.25488-.6123A.84843.84843,0,0,0,28.78223,20.34619Zm-1.999,1.78955-1.90429-.69531.251-1.24951-.30371-.18115a4.55061,4.55061,0,0,0-4.62988,0l-.30469.18115.252,1.2456-1.8955.70655L17.0498,20.95215a7.85141,7.85141,0,0,1,5.459-2.438h.00195a7.86048,7.86048,0,0,1,5.46387,2.43994Z"/><path class="cls-1" d="M12.14648,19.14648a.49983.49983,0,0,0,0,.707L13.293,21H10V13.5a.5.5,0,0,0-1,0V22h4.293l-1.14649,1.14648a.5.5,0,1,0,.707.707L15.207,21.5l-2.35351-2.35352A.49983.49983,0,0,0,12.14648,19.14648Z"/></svg>