<svg id="Icons" xmlns="http://www.w3.org/2000/svg" viewBox="0 0 32 32"><defs><style>.cls-1{fill:#5514b4;}</style></defs><path class="cls-1" d="M27.90588,15.27783c-.79351-3.16632-1.868-7.44537-2.27557-9.03a2.9914,2.9914,0,0,0-2.90411-2.2384,3.051,3.051,0,0,0-.43287.03088L11.55487,6H6A2,2,0,0,0,4,8v8a2,2,0,0,0,2,2h5.536l3.03919,3.53845L15,27a3.48838,3.48838,0,0,0,2.50531,1c1.74542,0,3.08606-2.04333,3.08606-4.27777A12.46946,12.46946,0,0,0,19.49713,19l5.50128-.00073A2.99428,2.99428,0,0,0,27.90588,15.27783ZM5,16V8A1.00115,1.00115,0,0,1,6,7h5V17H6A1.00115,1.00115,0,0,1,5,16Zm21.57452,1.23053a1.98662,1.98662,0,0,1-1.57629.76874L19.497,18l-1.58075.00153.6781,1.42858a11.53813,11.53813,0,0,1,.997,4.29212c0,1.71545-.99426,3.27777-2.08606,3.27777a2.62147,2.62147,0,0,1-1.53967-.48108l-.39344-5.058-.02532-.326-.21308-.248L12,17.00543V6.93524l10.43494-1.905a2.05806,2.05806,0,0,1,.29126-.02081A1.99142,1.99142,0,0,1,24.6618,6.497c.40729,1.58356,1.48108,5.8598,2.27411,9.024A1.97951,1.97951,0,0,1,26.57452,17.23053Z"/></svg>