<svg id="Icons" xmlns="http://www.w3.org/2000/svg" viewBox="0 0 32 32"><defs><style>.cls-1{fill:#5514b4;}</style></defs><circle class="cls-1" cx="16" cy="22.99335" r="1"/><path class="cls-1" d="M16.00488,20.00977a.49972.49972,0,0,0,.5-.5l.002-9.00977a.5.5,0,0,0-1,0l-.002,9.00977A.5.5,0,0,0,16.00488,20.00977Z"/><path class="cls-1" d="M29.83691,26.21,17.041,4.5332A1.15617,1.15617,0,0,0,16.03711,3.959h-.001a1.159,1.159,0,0,0-1.00586.57373L2.23535,26.21045a1.16676,1.16676,0,0,0,1.00488,1.76074H28.83105A1.16843,1.16843,0,0,0,29.83691,26.21Zm-.86035.67725a.164.164,0,0,1-.14551.084H3.24023a.16737.16737,0,0,1-.14355-.25244L15.8916,5.0415a.167.167,0,0,1,.28809,0l12.7959,21.67627A.16531.16531,0,0,1,28.97656,26.88721Z"/></svg>