<svg id="Icons" xmlns="http://www.w3.org/2000/svg" viewBox="0 0 32 32"><defs><style>.cls-1{fill:#5514b4;}</style></defs><path class="cls-1" d="M15.981,10.00293a2.00025,2.00025,0,1,0,2,2A2.002,2.002,0,0,0,15.981,10.00293Z"/><path class="cls-1" d="M16.105,4.99756A7.15477,7.15477,0,0,0,8.9585,12.144a6.78389,6.78389,0,0,0,.41015,2.3916c.343.91333,5.99512,12.00586,5.99512,12.00586a.82219.82219,0,0,0,.73584.46094.8136.8136,0,0,0,.73291-.45654l5.6709-11.21485.11377-.23779A7.15042,7.15042,0,0,0,16.105,4.99756Zm-.124,10.00586a3.00025,3.00025,0,1,1,3-3.00049A3.0037,3.0037,0,0,1,15.981,15.00342Z"/></svg>