<svg id="Icons" xmlns="http://www.w3.org/2000/svg" viewBox="0 0 32 32"><defs><style>.cls-1{fill:#5514b4;}</style></defs><path class="cls-1" d="M13.249,20.001H10.68555v-.00147a.49482.49482,0,0,1-.49414-.49463.512.512,0,0,1,.085-.27832l.89795-1.54413,1.1499.66962a.75509.75509,0,0,0,.37695.10156c.41309,0,.84107-.43542.749-.74951l-1.72168-5.34082a.91344.91344,0,0,0-.87793-.66943l-5.69336.99121a.74687.74687,0,0,0-.61817.7373.75553.75553,0,0,0,.3711.64746l1.593.9209-1.553,2.70215a2.2695,2.2695,0,0,0-.21582,1.43945,2.102,2.102,0,0,0,.30761.78418l2.02539,3.69434a2.84235,2.84235,0,0,0,2.43946,1.39453H13.249a.76675.76675,0,0,0,.7666-.76562V20.7666A.76675.76675,0,0,0,13.249,20.001Z"/><path class="cls-1" d="M16.34106,8.693a.51135.51135,0,0,1,.20289.20874l.91918,1.5315-1.14123.68414a.75618.75618,0,0,0-.27087.28119c-.19922.36182-.02442.94678.29516,1.0177L21.855,13.485a.91326.91326,0,0,0,1.00989-.446l1.87866-5.46509A.74675.74675,0,0,0,24.396,6.6767a.75545.75545,0,0,0-.7461.01269l-1.57532.951L20.457,4.97644a2.2693,2.2693,0,0,0-1.15674-.88354,2.10164,2.10164,0,0,0-.8352-.10889L14.252,3.97565a2.842,2.842,0,0,0-2.39843,1.46393L10.048,8.71735a.76679.76679,0,0,0,.30078,1.04089L13.39087,11.434a.76684.76684,0,0,0,1.04053-.30212l1.23681-2.24537.00122.00074A.49485.49485,0,0,1,16.34106,8.693Z"/><path class="cls-1" d="M28.19849,17.424l-1.85132-3.25214a.76663.76663,0,0,0-1.04456-.28747l-3.01843,1.7182a.76692.76692,0,0,0-.28613,1.045l1.26831,2.22779L23.265,18.876a.49464.49464,0,0,1-.18542.67413.51142.51142,0,0,1-.28394.06384l-1.78613-.01648.01319-1.33056a.75552.75552,0,0,0-.09839-.37787c-.20435-.359-.79444-.5155-1.02185-.28015l-3.78968,4.13836a.91338.91338,0,0,0-.14746,1.09418l3.678,4.45752a.74677.74677,0,0,0,.94653.17243.75556.75556,0,0,0,.379-.64277l.01233-1.84,3.11646.01288a2.27011,2.27011,0,0,0,1.35791-.52454,2.10413,2.10413,0,0,0,.52929-.65527l2.2085-3.58783A2.842,2.842,0,0,0,28.19849,17.424Z"/></svg>