<svg id="Icons" xmlns="http://www.w3.org/2000/svg" viewBox="0 0 32 32"><defs><style>.cls-1{fill:#5514b4;}</style></defs><path class="cls-1" d="M20.451,15.88525v1.45606h2.57617a1.8194,1.8194,0,0,1-.35644,1.03564,2.8198,2.8198,0,0,1-.97364.86133,2.88668,2.88668,0,0,1-1.42773.34277,3.09707,3.09707,0,0,1-1.582-.40576A2.84042,2.84042,0,0,1,17.58185,17.978a4.16451,4.16451,0,0,1-.40625-1.92481,3.96262,3.96262,0,0,1,.41992-1.8833A3.01776,3.01776,0,0,1,18.743,12.95215a3.17747,3.17747,0,0,1,1.63867-.42725,3.37442,3.37442,0,0,1,1.55371.34326,4.34061,4.34061,0,0,1,1.28809,1.05713l1.17578-1.064a5.54,5.54,0,0,0-1.80566-1.40039,5.21,5.21,0,0,0-2.21192-.44776,5.32123,5.32123,0,0,0-1.96.35694,4.55706,4.55706,0,0,0-1.582,1.02881,4.8117,4.8117,0,0,0-1.05078,1.59619,5.39123,5.39123,0,0,0-.37793,2.0581,5.61163,5.61163,0,0,0,.60254,2.68067A4.43777,4.43777,0,0,0,17.62384,20.477a4.18372,4.18372,0,0,0,2.22559.61621,3.61379,3.61379,0,0,0,1.918-.51123,3.47783,3.47783,0,0,0,1.3164-1.477v1.84815h1.65137V15.88525Z"/><path class="cls-1" d="M12.13965,15.86377a2.6261,2.6261,0,0,0,1.36523-.82861,2.02033,2.02033,0,0,0,.47364-1.31592,2.15691,2.15691,0,0,0-.41114-1.30225,2.81849,2.81849,0,0,0-1.11426-.89111,3.70289,3.70289,0,0,0-1.581-.32764,3.73442,3.73442,0,0,0-1.87988.4458A5.14633,5.14633,0,0,0,7.71094,12.647l.98926,1.03028A3.676,3.676,0,0,1,9.5498,12.96a2.26575,2.26575,0,0,1,1.22559-.313,1.7664,1.7664,0,0,1,1.11328.334,1.12737,1.12737,0,0,1,.43262.94677,1.17522,1.17522,0,0,1-.418.9751,1.45777,1.45777,0,0,1-.93359.334H9.74414v1.39306h1.22559a1.888,1.888,0,0,1,1.20507.38965,1.45737,1.45737,0,0,1-.00683,2.19336,2.07161,2.07161,0,0,1-1.32324.397,2.766,2.766,0,0,1-1.25293-.26465,3.38211,3.38211,0,0,1-1.04493-.87744l-1.08593.96094a4.49078,4.49078,0,0,0,1.55273,1.25342,4.27021,4.27021,0,0,0,1.84473.40381,4.20833,4.20833,0,0,0,1.82422-.376,3.03035,3.03035,0,0,0,1.24023-1.03027,2.56508,2.56508,0,0,0,.44531-1.47656,2.12987,2.12987,0,0,0-.59179-1.51758A2.91066,2.91066,0,0,0,12.13965,15.86377Z"/></svg>