<svg id="Icons" xmlns="http://www.w3.org/2000/svg" viewBox="0 0 32 32"><defs><style>.cls-1{fill:#5514b4;}</style></defs><path class="cls-1" d="M11.71275,23.58575a2.457,2.457,0,0,0,.26868-1.10211,2.48365,2.48365,0,0,0-4.96729,0,2.45726,2.45726,0,0,0,.26862,1.102A3.70759,3.70759,0,0,0,5,26.88239V27.169a.82626.82626,0,0,0,.82617.82373h7.34278a.82626.82626,0,0,0,.82617-.82373v-.28662A3.70743,3.70743,0,0,0,11.71275,23.58575ZM9.49778,21a1.48365,1.48365,0,1,1-1.48364,1.48364A1.48529,1.48529,0,0,1,9.49778,21Z"/><path class="cls-1" d="M12.3292,12H19.672a.82626.82626,0,0,0,.82617-.82373v-.28662A3.70723,3.70723,0,0,0,18.2158,7.593a2.45736,2.45736,0,0,0,.26868-1.10218,2.48365,2.48365,0,0,0-4.96729,0,2.45759,2.45759,0,0,0,.26862,1.10206A3.70767,3.70767,0,0,0,11.503,10.88965v.28662A.82626.82626,0,0,0,12.3292,12Zm3.67164-6.9928a1.48365,1.48365,0,1,1-1.48365,1.48364A1.48536,1.48536,0,0,1,16.00084,5.0072Z"/><path class="cls-1" d="M24.71763,23.58575a2.457,2.457,0,0,0,.26868-1.10211,2.48365,2.48365,0,0,0-4.96729,0,2.45726,2.45726,0,0,0,.26862,1.102,3.70759,3.70759,0,0,0-2.28278,3.29676V27.169a.82627.82627,0,0,0,.82618.82373h7.34277A.82626.82626,0,0,0,27,27.169v-.28662A3.70741,3.70741,0,0,0,24.71763,23.58575ZM22.50267,21A1.48365,1.48365,0,1,1,21.019,22.48364,1.48528,1.48528,0,0,1,22.50267,21Z"/><path class="cls-1" d="M9.50486,17.99707a.49971.49971,0,0,0,.5-.5V16.502a.50065.50065,0,0,1,.5-.5h11a.50065.50065,0,0,1,.5.5v1a.5.5,0,0,0,1,0v-1a1.50164,1.50164,0,0,0-1.5-1.5H16.50193V13.50439a.5.5,0,0,0-1,0V15.002H10.50486a1.50164,1.50164,0,0,0-1.5,1.5v.99512A.49972.49972,0,0,0,9.50486,17.99707Z"/></svg>