<svg id="Icons" xmlns="http://www.w3.org/2000/svg" viewBox="0 0 32 32"><defs><style>.cls-1{fill:#5514b4;}</style></defs><path class="cls-1" d="M15.98669,2a14,14,0,1,0,14,14A14,14,0,0,0,15.98669,2Zm0,27a13,13,0,1,1,13-13A13.01474,13.01474,0,0,1,15.98669,29Z"/><path class="cls-1" d="M16.006,11a2,2,0,1,0-2-2A2,2,0,0,0,16.006,11Zm0-3a1,1,0,1,1-1,1A1.00115,1.00115,0,0,1,16.006,8Z"/><path class="cls-1" d="M21.18652,9.10059l-3.83813,2.89935h-2.695L10.80371,9.09229a.5002.5002,0,1,0-.60351.79785L14,12.76013v5.689l-1.96777,5.8966a.50028.50028,0,0,0,.94922.31641L14.871,19h2.2749l1.89905,5.66309a.49967.49967,0,1,0,.94727-.31836L18,18.40393V12.76147l3.79-2.863a.5002.5002,0,1,0-.60352-.79785ZM17,18H15V13h2Z"/></svg>