<svg id="Icons" xmlns="http://www.w3.org/2000/svg" viewBox="0 0 32 32"><defs><style>.cls-1{fill:#5514b4;}</style></defs><path class="cls-1" d="M16,8a8,8,0,1,0,8,8A8.00917,8.00917,0,0,0,16,8Zm0,15a7,7,0,1,1,7-7A7.00818,7.00818,0,0,1,16,23Z"/><path class="cls-1" d="M15.99707,6.99756a.49971.49971,0,0,0,.5-.5v-3a.5.5,0,0,0-1,0v3A.49971.49971,0,0,0,15.99707,6.99756Z"/><path class="cls-1" d="M15.99707,24.99756a.49971.49971,0,0,0-.5.5v3a.5.5,0,0,0,1,0v-3A.49971.49971,0,0,0,15.99707,24.99756Z"/><path class="cls-1" d="M23.06738,22.36133a.49995.49995,0,1,0-.707.707l2.12207,2.12158a.49995.49995,0,0,0,.707-.707Z"/><path class="cls-1" d="M8.92578,9.6333a.49995.49995,0,0,0,.707-.707L7.51172,6.80518a.49995.49995,0,0,0-.707.707Z"/><path class="cls-1" d="M28.49707,15.49756h-3a.5.5,0,0,0,0,1h3a.5.5,0,0,0,0-1Z"/><path class="cls-1" d="M6.99707,15.99756a.49971.49971,0,0,0-.5-.5h-3a.5.5,0,0,0,0,1h3A.49971.49971,0,0,0,6.99707,15.99756Z"/><path class="cls-1" d="M22.71387,9.77979a.49835.49835,0,0,0,.35351-.14649l2.12207-2.12109a.49995.49995,0,0,0-.707-.707L22.36035,8.92627a.5.5,0,0,0,.35352.85352Z"/><path class="cls-1" d="M8.92578,22.36133,6.80469,24.48291a.49995.49995,0,1,0,.707.707l2.12109-2.12158a.49995.49995,0,1,0-.707-.707Z"/></svg>