<svg id="Icons" xmlns="http://www.w3.org/2000/svg" viewBox="0 0 32 32"><defs><style>.cls-1{fill:#5514b4;}</style></defs><path class="cls-1" d="M3.485,14.027h9a1.50164,1.50164,0,0,0,1.5-1.5v-9a1.50164,1.50164,0,0,0-1.5-1.5h-9a1.50164,1.50164,0,0,0-1.5,1.5v9A1.50164,1.50164,0,0,0,3.485,14.027Zm-.5-10.5a.50034.50034,0,0,1,.5-.5h9a.50034.50034,0,0,1,.5.5v9a.50034.50034,0,0,1-.5.5h-9a.50034.50034,0,0,1-.5-.5Z"/><path class="cls-1" d="M28.52893,2.027h-9a1.50164,1.50164,0,0,0-1.5,1.5v9a1.50164,1.50164,0,0,0,1.5,1.5h9a1.50164,1.50164,0,0,0,1.5-1.5v-9A1.50164,1.50164,0,0,0,28.52893,2.027Zm.5,10.5a.50065.50065,0,0,1-.5.5h-9a.50065.50065,0,0,1-.5-.5v-9a.50065.50065,0,0,1,.5-.5h9a.50065.50065,0,0,1,.5.5Z"/><path class="cls-1" d="M12.53088,18.04407h-9a1.50164,1.50164,0,0,0-1.5,1.5v9a1.50164,1.50164,0,0,0,1.5,1.5h9a1.50164,1.50164,0,0,0,1.5-1.5v-9A1.50164,1.50164,0,0,0,12.53088,18.04407Zm.5,10.5a.50065.50065,0,0,1-.5.5h-9a.50065.50065,0,0,1-.5-.5v-9a.50065.50065,0,0,1,.5-.5h9a.50065.50065,0,0,1,.5.5Z"/><path class="cls-1" d="M28.52893,18.03918h-9a1.50164,1.50164,0,0,0-1.5,1.5v9a1.50164,1.50164,0,0,0,1.5,1.5h9a1.50164,1.50164,0,0,0,1.5-1.5v-9A1.50164,1.50164,0,0,0,28.52893,18.03918Zm.5,10.5a.501.501,0,0,1-.5.5h-9a.501.501,0,0,1-.5-.5v-9a.501.501,0,0,1,.5-.5h9a.501.501,0,0,1,.5.5Z"/></svg>