<svg id="Icons" xmlns="http://www.w3.org/2000/svg" viewBox="0 0 32 32"><defs><style>.cls-1{fill:#5514b4;}</style></defs><path class="cls-1" d="M10.02368,15.50425a.49971.49971,0,0,0,.5.5l10.98737-.003a.5.5,0,0,0,0-1l-10.98737.003A.49972.49972,0,0,0,10.02368,15.50425Z"/><path class="cls-1" d="M21.51105,17.00468l-10.98737.003a.5.5,0,0,0,0,1l10.98737-.003a.5.5,0,1,0,0-1Z"/><path class="cls-1" d="M21.51105,19.00816l-10.98737.003a.5.5,0,1,0,0,1l10.98737-.003a.5.5,0,0,0,0-1Z"/><path class="cls-1" d="M21.51105,21.01158l-10.98737.00305a.5.5,0,0,0,0,1l10.98737-.00305a.5.5,0,0,0,0-1Z"/><path class="cls-1" d="M21.51105,22.99119l-10.98737.00305a.5.5,0,0,0,0,1l10.98737-.00305a.5.5,0,0,0,0-1Z"/><path class="cls-1" d="M20.707,3H8A1.003,1.003,0,0,0,7,4V28a1.003,1.003,0,0,0,1,1H24a1.003,1.003,0,0,0,1-1V7.30015ZM24,28H8V4H20.00708V8.00126a1.003,1.003,0,0,0,1,1H24ZM24,8.00126H21.00708V4.71739L24,7.71031Z"/><path class="cls-1" d="M12.96729,10.43455H10.861a1.0232,1.0232,0,0,0,.35407-.36529.95666.95666,0,0,0,.13482-.48609,1.15068,1.15068,0,0,0-.01684-.19562h1.20825V8.88066H11.16l-.01684-.03424a2.1791,2.1791,0,0,1-.13037-.3653,1.2639,1.2639,0,0,1-.03711-.28491A.54838.54838,0,0,1,11.16,7.76744a.67255.67255,0,0,1,.46643-.16413.92941.92941,0,0,1,.47773.11805,1.289,1.289,0,0,1,.32818.26745l.408-.42541a1.7193,1.7193,0,0,0-.5069-.39728,1.45624,1.45624,0,0,0-.70129-.16693,1.49136,1.49136,0,0,0-.68451.14947,1.10837,1.10837,0,0,0-.4552.41474,1.15514,1.15514,0,0,0-.1607.61535A1.33683,1.33683,0,0,0,10.38,8.5272a2.6072,2.6072,0,0,0,.1236.35346h-.44842v.50689h.662a.7104.7104,0,0,1,.02808.19,1.10014,1.10014,0,0,1-.07416.37927.96682.96682,0,0,1-.2102.34.42184.42184,0,0,1-.30793.13769h-.13824v.5929h2.95258Z"/></svg>