<svg id="Icons" xmlns="http://www.w3.org/2000/svg" viewBox="0 0 32 32"><defs><style>.cls-1{fill:#5514b4;}</style></defs><circle class="cls-1" cx="17" cy="27" r="1"/><path class="cls-1" d="M18.5,4h-3a.5.5,0,0,0,0,1h3a.5.5,0,0,0,0-1Z"/><path class="cls-1" d="M22.999,2H11.001A2.00687,2.00687,0,0,0,9,4.001V27.999A2.00687,2.00687,0,0,0,11.001,30H22.999A2.00687,2.00687,0,0,0,25,27.999V4.001A2.00687,2.00687,0,0,0,22.999,2ZM24,27.999A1.00212,1.00212,0,0,1,22.999,29H11.001A1.00212,1.00212,0,0,1,10,27.999V4.001A1.00212,1.00212,0,0,1,11.001,3H22.999A1.00212,1.00212,0,0,1,24,4.001Z"/></svg>