<svg id="Icons" xmlns="http://www.w3.org/2000/svg" viewBox="0 0 32 32"><defs><style>.cls-1{fill:#5514b4;}</style></defs><path class="cls-1" d="M20.96985,10.366l-4.686,4.68609a1.05931,1.05931,0,0,0-.2821-.03936l-.0155-.00312c-.015,0-.02735.00782-.04212.00849a.97717.97717,0,0,0-.29.05853.95433.95433,0,0,0-.09063.03412.94208.94208,0,0,0-.22223.1499.9851.9851,0,0,0-.355.749,1,1,0,0,0,1,1,.99443.99443,0,0,0,.97967-1.22534L21.677,11.07318a.5.5,0,0,0-.70715-.70715Z"/><path class="cls-1" d="M15.99988,2.0155A14.00031,14.00031,0,0,0,2.0155,15.99988,14.15729,14.15729,0,0,0,6.08484,25.851l.335.33936,2.50684-2.43555a.49995.49995,0,0,0-.707-.707L6.46667,24.80115a13.15947,13.15947,0,0,1-3.42767-8.314H5.50183a.5.5,0,1,0,0-1H3.04144A12.91688,12.91688,0,0,1,6.48621,7.19324L8.2196,8.92664a.5.5,0,0,0,.707-.707L7.19324,6.48621a12.91712,12.91712,0,0,1,8.29394-3.44477V5.50232a.5.5,0,1,0,1,0V3.04016a12.9164,12.9164,0,0,1,8.306,3.434L23.04773,8.2196a.49995.49995,0,1,0,.707.707l1.7467-1.74671a12.91731,12.91731,0,0,1,3.45685,8.30725H26.47253a.5.5,0,0,0,0,1h2.48908a12.86187,12.86187,0,0,1-3.44513,8.33887l-1.75977-1.77686a.5003.5003,0,0,0-.71093.70411l2.47363,2.4956.35449-.354a13.97885,13.97885,0,0,0-9.874-23.8794Z"/></svg>