<svg id="Icons" xmlns="http://www.w3.org/2000/svg" viewBox="0 0 32 32"><defs><style>.cls-1{fill:#5514b4;}</style></defs><path class="cls-1" d="M21.73926,14.251a18.20521,18.20521,0,0,0-1.60291-3.69818c-.01452.00488-.02685.01293-.04162.01739a1.49992,1.49992,0,0,1-1.87207-.9975c-.00318-.01037-.0033-.02081-.00623-.03119a17.34181,17.34181,0,0,0-7.65857,2.33417c.00342.01032.00916.01911.01233.02954a1.5,1.5,0,0,1-.99744,1.87219c-.01074.00324-.02136.0033-.032.00629a17.926,17.926,0,0,0,.72,3.96582A18.20605,18.20605,0,0,0,11.86426,21.447c.01428-.00482.02649-.01276.041-.01715a1.49992,1.49992,0,0,1,1.87207.9975c.0044.01434.00464.02881.00855.04321a17.82169,17.82169,0,0,0,7.66138-2.33405c-.00489-.01446-.01294-.027-.01746-.04168a1.5,1.5,0,0,1,.99744-1.87219c.01489-.00452.02978-.00477.04443-.00879A18.19048,18.19048,0,0,0,21.73926,14.251Z"/><path class="cls-1" d="M12.9248,2.4585a18.96225,18.96225,0,0,1,6.43384,5.2146,1.49022,1.49022,0,0,1,1.67945.89563A19.01629,19.01629,0,0,1,28.99121,11.02l.09815.06A13.97917,13.97917,0,0,0,12.79578,2.38849Z"/><path class="cls-1" d="M8.53906,13.71167a1.49781,1.49781,0,0,1-.35058-.20587,18.01509,18.01509,0,0,0-4.87793,6.10065l-.165.32226.42383.22022a17.92782,17.92782,0,0,0,7.33422,2.29956,1.49573,1.49573,0,0,1,.17212-.37513,19.2159,19.2159,0,0,1-1.772-4.03234A18.897,18.897,0,0,1,8.53906,13.71167Z"/><path class="cls-1" d="M22.05957,20.91522A18.87242,18.87242,0,0,1,18.041,22.6958a19.19634,19.19634,0,0,1-4.34095.79315,1.501,1.501,0,0,1-.20971.33832,17.92955,17.92955,0,0,0,5.993,4.80066l.39746.22363.25293-.395a17.92288,17.92288,0,0,0,2.31543-7.35986A1.49916,1.49916,0,0,1,22.05957,20.91522Z"/><path class="cls-1" d="M2.417,19.15918a18.98071,18.98071,0,0,1,5.25623-6.51746,1.49,1.49,0,0,1,.89587-1.68,19.01519,19.01519,0,0,1,2.50635-8.04938,13.979,13.979,0,0,0-8.6853,16.29889Z"/><path class="cls-1" d="M19.01562,29.51123a18.83519,18.83519,0,0,1-6.39892-5.17944,1.49014,1.49014,0,0,1-1.63892-.86261A18.93079,18.93079,0,0,1,3.082,21.02246l-.16528-.08557A13.97929,13.97929,0,0,0,19.197,29.61334Z"/><path class="cls-1" d="M9.93921,11.084a18.1854,18.1854,0,0,1,8.34863-2.54382A1.49738,1.49738,0,0,1,18.5094,8.173a17.92979,17.92979,0,0,0-6.04358-4.82635l-.35059-.18994-.18945.27978A17.93723,17.93723,0,0,0,9.572,10.90765,1.50332,1.50332,0,0,1,9.93921,11.084Z"/><path class="cls-1" d="M29.53418,12.93994a18.97652,18.97652,0,0,1-5.20728,6.41864,1.49013,1.49013,0,0,1-.895,1.67932,19.01353,19.01353,0,0,1-2.43676,7.92694l-.08081.12647a13.9788,13.9788,0,0,0,8.697-16.29614Z"/><path class="cls-1" d="M23.45984,18.28784a1.50215,1.50215,0,0,1,.36755.22193,17.92621,17.92621,0,0,0,4.81714-6.02637l.20215-.3794-.36621-.22461a17.97821,17.97821,0,0,0-7.38794-2.3081,1.50692,1.50692,0,0,1-.177.36877,18.17075,18.17075,0,0,1,2.54431,8.34778Z"/></svg>