<svg id="Icons" xmlns="http://www.w3.org/2000/svg" viewBox="0 0 32 32"><defs><style>.cls-1{fill:#5514b4;}</style></defs><path class="cls-1" d="M29.99609,9.98218a.99879.99879,0,0,0-.99707-.99853L10.808,8.9939a.96657.96657,0,0,0-.83984.44336l-3.668,4.58728-2.3125.00391a2.00354,2.00354,0,0,0-2.001,2.002l.0039,4.98077a.99913.99913,0,0,0,.9961.99952l5.07415.00042a2.49354,2.49354,0,0,0,4.88813.00061l8.12176-.00183a2.4937,2.4937,0,0,0,4.888.00055l3.04315.00269a1.00048,1.00048,0,0,0,.998-1.001ZM10.505,23.01069a1.49415,1.49415,0,1,1,1.49415-1.49415A1.49571,1.49571,0,0,1,10.505,23.01069Zm13.00983-.0022A1.49414,1.49414,0,1,1,25.009,21.51435,1.4957,1.4957,0,0,1,23.51483,23.00849ZM25.9588,20.96a2.4958,2.4958,0,0,0-4.888-.00055l-8.12176.00183a2.49612,2.49612,0,0,0-4.88813-.00061l-5.0534-.00043L3.0036,15.97944a1.00266,1.00266,0,0,1,1.002-1.00147l2.79-.00488,4.0293-5.02967L29.011,9.93171l.00586,11.03094Z"/></svg>