<svg id="Icons" xmlns="http://www.w3.org/2000/svg" viewBox="0 0 32 32"><defs><style>.cls-1{fill:#5514b4;}</style></defs><path class="cls-1" d="M25.86761,16.133a5.0001,5.0001,0,1,0-7.74078-.00672,8.13556,8.13556,0,0,0-2.124,1.52155,8.04759,8.04759,0,0,0-2.13513-1.515,5.00013,5.00013,0,1,0-7.73548,0A7.0117,7.0117,0,0,0,2,22.2998v.874A.8274.8274,0,0,0,2.82617,24H29.17383A.82771.82771,0,0,0,30,23.17383v-.874A7.01135,7.01135,0,0,0,25.86761,16.133ZM22,9a4,4,0,1,1-4,4A4.0045,4.0045,0,0,1,22,9ZM10,9a4,4,0,1,1-4,4A4.0045,4.0045,0,0,1,10,9Z"/></svg>