<svg id="Icons" xmlns="http://www.w3.org/2000/svg" viewBox="0 0 32 32"><defs><style>.cls-1{fill:#5514b4;}</style></defs><path class="cls-1" d="M25.999,4H6.001A2.00683,2.00683,0,0,0,4,6.001V16.999A2.00684,2.00684,0,0,0,6.001,19H15.5166V27.0331H8.90851a1.49979,1.49979,0,1,0-.00122,1H23.09271a1.50024,1.50024,0,1,0-.00122-1H16.5166V19H25.999A2.00687,2.00687,0,0,0,28,16.999V6.001A2.00687,2.00687,0,0,0,25.999,4ZM7.5,28.03115a.5.5,0,1,1,.5-.5A.50034.50034,0,0,1,7.5,28.03115Zm17-1a.5.5,0,1,1-.5.5A.50034.50034,0,0,1,24.5,27.03115ZM27,16.999A1.00212,1.00212,0,0,1,25.999,18H6.001A1.00212,1.00212,0,0,1,5,16.999V6.001A1.00211,1.00211,0,0,1,6.001,5H25.999A1.00211,1.00211,0,0,1,27,6.001Z"/><path class="cls-1" d="M21.809,10.59157A2.45728,2.45728,0,0,0,22.0777,9.4894a2.48368,2.48368,0,0,0-4.96735,0A2.45734,2.45734,0,0,0,17.382,10.597a4.51821,4.51821,0,0,0-1.019.64563,3.90764,3.90764,0,0,0-.279.294,4.37444,4.37444,0,0,0-1.31488-.94507,2.45693,2.45693,0,0,0,.26868-1.10211,2.48364,2.48364,0,1,0-4.96728,0,2.45729,2.45729,0,0,0,.26861,1.102,3.70757,3.70757,0,0,0-2.28277,3.29675v.28662a.82626.82626,0,0,0,.82617.82373H23.26532a.82626.82626,0,0,0,.82617-.82373v-.28662A3.70778,3.70778,0,0,0,21.809,10.59157Zm-2.215-2.58582A1.48365,1.48365,0,1,1,18.11035,9.4894,1.48532,1.48532,0,0,1,19.59406,8.00575Zm-7.03992,0A1.48365,1.48365,0,1,1,11.0705,9.4894,1.48529,1.48529,0,0,1,12.55414,8.00575Zm3.06372,5.99274H9.05634v-.11035a2.82142,2.82142,0,0,1,1.92157-2.49408,2.435,2.435,0,0,0,3.15228.00012,2.82073,2.82073,0,0,1,1.92126,2.494v.11035Zm7.47363,0h-6.04v-.11035a3.31812,3.31812,0,0,0-.37738-1.52844,2.90591,2.90591,0,0,1,.3432-.36121A3.6165,3.6165,0,0,1,18.019,11.3951a2.43512,2.43512,0,0,0,3.15113-.00092,2.82119,2.82119,0,0,1,1.92132,2.494Z"/></svg>