<svg id="Icons" xmlns="http://www.w3.org/2000/svg" viewBox="0 0 32 32"><defs><style>.cls-1{fill:#5514b4;}</style></defs><path class="cls-1" d="M23.05621,13.98584H10.63672V10.3584a5.36664,5.36664,0,1,1,10.73242.09619.46075.46075,0,0,0,.5.45166.54277.54277,0,0,0,.5-.54785,6.36621,6.36621,0,0,0-12.73242,0v3.62744H8.94379v-.002a1.93445,1.93445,0,0,0-1.93445,1.93444h.0022v9.13831H7.0108A1.93446,1.93446,0,0,0,8.94525,26.991l.02814-.00147H23.05621a1.93446,1.93446,0,0,0,1.93445-1.93445V15.91827A1.93274,1.93274,0,0,0,23.05621,13.98584Z"/></svg>