<svg id="Icons" xmlns="http://www.w3.org/2000/svg" viewBox="0 0 32 32"><defs><style>.cls-1{fill:#5514b4;}</style></defs><path class="cls-1" d="M12.5,13.00688a2.50294,2.50294,0,0,0,2.5-2.5,2.46973,2.46973,0,0,0-.15137-.82611l-2.09131,1.25482A.49993.49993,0,0,1,12,10.50688V8.05748a2.5,2.5,0,0,0,.5,4.9494Z"/><path class="cls-1" d="M13,8.05748v1.5661l1.33514-.801A2.491,2.491,0,0,0,13,8.05748Z"/><path class="cls-1" d="M9.001,16H22.999A2.00687,2.00687,0,0,0,25,13.999V7.001A2.00687,2.00687,0,0,0,22.999,5H9.001A2.00684,2.00684,0,0,0,7,7.001V13.999A2.00683,2.00683,0,0,0,9.001,16ZM17.5,8h5a.5.5,0,1,1,0,1h-5a.5.5,0,0,1,0-1Zm0,2h5a.5.5,0,0,1,0,1h-5a.5.5,0,0,1,0-1Zm0,2h2.99512a.5.5,0,0,1,0,1H17.5a.5.5,0,0,1,0-1Zm-5-4.9931a3.5,3.5,0,1,1-3.5,3.5A3.50424,3.50424,0,0,1,12.5,7.00688Z"/><path class="cls-1" d="M11.01562,21.01518H7.90253L6.99268,17.3975a.5.5,0,0,0-.96973.24414l.98975,3.93543v3.92346a.5.5,0,0,0,1,0V22.0142l2.99658-.00537v3.4917a.5.5,0,0,0,1,0v-3.4917A.99484.99484,0,0,0,11.01562,21.01518Z"/><path class="cls-1" d="M18.5,25.01078H16.49023v-5.02H22.502a.5.5,0,0,0,0-1H9.50928a.5.5,0,0,0,0,1h5.981v5.02H13.50488a.5.5,0,1,0,0,1H18.5a.5.5,0,0,0,0-1Z"/><path class="cls-1" d="M25.63129,17.03471a.5005.5005,0,0,0-.60694.36279l-.90985,3.61768H21.0014a.99484.99484,0,0,0-.99365.99365v3.4917a.5.5,0,0,0,1,0v-3.4917l2.99658.00537v3.48633a.5.5,0,0,0,1,0V21.57707l.98975-3.93543A.5.5,0,0,0,25.63129,17.03471Z"/></svg>