<svg id="Icons" xmlns="http://www.w3.org/2000/svg" viewBox="0 0 32 32"><defs><style>.cls-1{fill:#5514b4;}</style></defs><path class="cls-1" d="M10,8A2,2,0,1,0,8,6,2.002,2.002,0,0,0,10,8Zm0-3A1,1,0,1,1,9,6,1.0013,1.0013,0,0,1,10,5Z"/><path class="cls-1" d="M15,10.98193A1.98426,1.98426,0,0,0,13.01807,9H6.97412a1.957,1.957,0,0,0-1.96973,1.9082l-1,7.52588a.49941.49941,0,0,0,.42969.56153A.51119.51119,0,0,0,4.50049,19a.49974.49974,0,0,0,.49512-.43408L6,10.97412A.97525.97525,0,0,1,6.97412,10h6.044a1.0054,1.0054,0,0,1,.98632,1.04785l1,7.51807a.5.5,0,1,0,.99122-.13184Z"/><path class="cls-1" d="M7.99756,11.5498a.5.5,0,0,0-.99512-.0996L5.94775,22H8v5.5a.5.5,0,0,0,1,0V21H7.05273Z"/><path class="cls-1" d="M12.4502,11.00244a.49993.49993,0,0,0-.44776.54736L12.94727,21H11v6.5a.5.5,0,0,0,1,0V22h2.05225L12.99756,11.4502A.49807.49807,0,0,0,12.4502,11.00244Z"/><path class="cls-1" d="M23,8a2,2,0,1,0-2-2A2.002,2.002,0,0,0,23,8Zm0-3a1,1,0,1,1-1,1A1.0013,1.0013,0,0,1,23,5Z"/><path class="cls-1" d="M26.01807,9h-6.044A1.97655,1.97655,0,0,0,18,10.97412V18.5a.5.5,0,0,0,1,0V10.97412A.97525.97525,0,0,1,19.97412,10h6.044A.983.983,0,0,1,27,10.98193V18.5a.5.5,0,0,0,1,0V10.98193A1.98426,1.98426,0,0,0,26.01807,9Z"/><path class="cls-1" d="M20.5,11a.49971.49971,0,0,0-.5.5v16a.5.5,0,0,0,1,0v-16A.49971.49971,0,0,0,20.5,11Z"/><path class="cls-1" d="M25.5,11a.49971.49971,0,0,0-.5.5v16a.5.5,0,0,0,1,0v-16A.49971.49971,0,0,0,25.5,11Z"/></svg>