<svg id="Icons" xmlns="http://www.w3.org/2000/svg" viewBox="0 0 32 32"><defs><style>.cls-1{fill:#5514b4;}</style></defs><path class="cls-1" d="M24.99609,23.01069a3.52912,3.52912,0,0,1-2.584-1.126,2.54465,2.54465,0,0,0-3.83887,0,3.52182,3.52182,0,0,1-5.16308-.00049,2.53809,2.53809,0,0,0-3.832,0,3.51907,3.51907,0,0,1-5.16113,0A2.55683,2.55683,0,0,0,2.5,21.01069a.5.5,0,0,1,0-1,3.52387,3.52387,0,0,1,2.58105,1.12646,2.53913,2.53913,0,0,0,3.833,0,3.518,3.518,0,0,1,5.16016,0,2.54127,2.54127,0,0,0,3.835,0,3.52633,3.52633,0,0,1,5.167-.00049,2.5457,2.5457,0,0,0,3.83985,0,3.52908,3.52908,0,0,1,2.584-1.126.5.5,0,0,1,0,1,2.562,2.562,0,0,0-1.91992.874A3.52912,3.52912,0,0,1,24.99609,23.01069Z"/><rect class="cls-1" x="24" y="10.01069" width="1" height="5"/><path class="cls-1" d="M24,13.63813V8.65131L27.93262,10.354a.8619.8619,0,0,1-.001,1.58154Zm1-3.46436v1.9419l2.24219-.9712Z"/><path class="cls-1" d="M8.83887,22.21528A8.026,8.026,0,0,1,3,14.51069v-.5H28v7H27v-6H4.01758A7.0245,7.0245,0,0,0,9.1084,21.25238Z"/><path class="cls-1" d="M21.14062,15.01069H5.61719l3.0664-5.11036a1.70579,1.70579,0,0,1,1.61719-.812l8.416.84131a1.69646,1.69646,0,0,1,1.47168,1.27149Zm-13.75781-1H19.85938l-.64161-2.5669a.69141.69141,0,0,0-.60058-.519l-8.416-.84131a.683.683,0,0,0-.66015.33105Z"/></svg>