<svg id="Icons" xmlns="http://www.w3.org/2000/svg" viewBox="0 0 32 32"><defs><style>.cls-1{fill:#5514b4;}</style></defs><path class="cls-1" d="M18.89532,17.09424a6.01173,6.01173,0,1,0-8.79064,0A9.5487,9.5487,0,0,0,4,25.832V27a1.001,1.001,0,0,0,1,1H24a1.001,1.001,0,0,0,1-1V25.832A9.5487,9.5487,0,0,0,18.89532,17.09424ZM14.5,7.99048A5.01172,5.01172,0,1,1,9.48828,13.0022,5.01737,5.01737,0,0,1,14.5,7.99048ZM24,27H5V25.832a8.6787,8.6787,0,0,1,5.79883-7.94971.481.481,0,0,0,.10675-.06951,5.97885,5.97885,0,0,0,7.18884,0,.481.481,0,0,0,.10675.06951A8.6787,8.6787,0,0,1,24,25.832Z"/><path class="cls-1" d="M21.33856,4.00229a2.13192,2.13192,0,0,1,1.83037,1.032l.42674.699.76941-.28061a1.69224,1.69224,0,0,1,2.23313,1.98655l-.19771.838.7993.32a1.245,1.245,0,0,1-.457,2.405H19.63771l.22905,1h6.876a2.245,2.245,0,0,0,.82869-4.33339,2.69334,2.69334,0,0,0-3.549-3.15566,3.14065,3.14065,0,0,0-2.68389-1.51095h0a3.13952,3.13952,0,0,0-3.08833,3.73735A2.72543,2.72543,0,0,0,16.7911,7.89638l.91592.42384a1.712,1.712,0,0,1,.85769-.63132l.8318-.27558-.16395-.86079a2.17134,2.17134,0,0,1-.03977-.40447,2.1482,2.1482,0,0,1,2.14577-2.14577"/></svg>