<svg id="Icons" xmlns="http://www.w3.org/2000/svg" viewBox="0 0 32 32"><defs><style>.cls-1{fill:#5514b4;}</style></defs><path class="cls-1" d="M24.50391,3H21.49609A1.49789,1.49789,0,0,0,20,4.49658V7.50342A1.49789,1.49789,0,0,0,21.49609,9h3.00782A1.49789,1.49789,0,0,0,26,7.50342V4.49658A1.49789,1.49789,0,0,0,24.50391,3ZM25,7.50342A.4969.4969,0,0,1,24.50391,8H21.49609A.4969.4969,0,0,1,21,7.50342V4.49658A.4969.4969,0,0,1,21.49609,4h3.00782A.4969.4969,0,0,1,25,4.49658Z"/><path class="cls-1" d="M14.49609,9h3.00782A1.49789,1.49789,0,0,0,19,7.50342V4.49658A1.49789,1.49789,0,0,0,17.50391,3H14.49609A1.49789,1.49789,0,0,0,13,4.49658V7.50342A1.49789,1.49789,0,0,0,14.49609,9ZM14,4.49658A.4969.4969,0,0,1,14.49609,4h3.00782A.4969.4969,0,0,1,18,4.49658V7.50342A.4969.4969,0,0,1,17.50391,8H14.49609A.4969.4969,0,0,1,14,7.50342Z"/><path class="cls-1" d="M7.49609,9h3.00782A1.49789,1.49789,0,0,0,12,7.50342V4.49658A1.49789,1.49789,0,0,0,10.50391,3H7.49609A1.49789,1.49789,0,0,0,6,4.49658V7.50342A1.49789,1.49789,0,0,0,7.49609,9ZM7,4.49658A.4969.4969,0,0,1,7.49609,4h3.00782A.4969.4969,0,0,1,11,4.49658V7.50342A.4969.4969,0,0,1,10.50391,8H7.49609A.4969.4969,0,0,1,7,7.50342Z"/><path class="cls-1" d="M24.50391,10H21.49609A1.49789,1.49789,0,0,0,20,11.49658v3.00684A1.49789,1.49789,0,0,0,21.49609,16h3.00782A1.49789,1.49789,0,0,0,26,14.50342V11.49658A1.49789,1.49789,0,0,0,24.50391,10ZM25,14.50342A.4969.4969,0,0,1,24.50391,15H21.49609A.4969.4969,0,0,1,21,14.50342V11.49658A.4969.4969,0,0,1,21.49609,11h3.00782A.4969.4969,0,0,1,25,11.49658Z"/><path class="cls-1" d="M7.49609,16h3.00782A1.49789,1.49789,0,0,0,12,14.50342V11.49658A1.49789,1.49789,0,0,0,10.50391,10H7.49609A1.49789,1.49789,0,0,0,6,11.49658v3.00684A1.49789,1.49789,0,0,0,7.49609,16ZM7,11.49658A.4969.4969,0,0,1,7.49609,11h3.00782A.4969.4969,0,0,1,11,11.49658v3.00684A.4969.4969,0,0,1,10.50391,15H7.49609A.4969.4969,0,0,1,7,14.50342Z"/><path class="cls-1" d="M24.50391,17H22.019l-.02173-.0022a1.48869,1.48869,0,0,0-1,.39014,1.47666,1.47666,0,0,0-2,0,1.45315,1.45315,0,0,0-1.5-.298V16h.0066A1.49789,1.49789,0,0,0,19,14.50342V11.49658A1.49789,1.49789,0,0,0,17.50391,10H14.49609A1.49789,1.49789,0,0,0,13,11.49658v3.00684A1.49789,1.49789,0,0,0,14.49609,16h.00122v5.75171L13.40063,18.967a1.50748,1.50748,0,0,0-1.40332-.96924c-.02954,0-.05737.007-.08642.00873A1.49351,1.49351,0,0,0,10.50391,17H7.49609A1.49789,1.49789,0,0,0,6,18.49658v3.00684A1.49789,1.49789,0,0,0,7.49609,23h3.00782a1.48941,1.48941,0,0,0,1.0686-.45239l1.67578,4.31592a3.36726,3.36726,0,0,0,3.12109,2.13623l3.7793-.00586a3.35046,3.35046,0,0,0,3.34668-3.34717L23.49609,23h1.00782A1.49789,1.49789,0,0,0,26,21.50342V18.49658A1.49789,1.49789,0,0,0,24.50391,17ZM14.49609,15A.4969.4969,0,0,1,14,14.50342V11.49658A.4969.4969,0,0,1,14.49609,11h3.00782A.4969.4969,0,0,1,18,11.49658v3.00684A.4969.4969,0,0,1,17.50391,15h-.0066V13.4978a1.5,1.5,0,1,0-3,0V15ZM11,21.50342A.4969.4969,0,0,1,10.50391,22H7.49609A.4969.4969,0,0,1,7,21.50342V18.49658A.4969.4969,0,0,1,7.49609,18h3.00782a.48994.48994,0,0,1,.47686.40161,1.48841,1.48841,0,0,0-.38775,1.623L11,21.07288Zm11.49536,4.14331a2.34967,2.34967,0,0,1-2.34765,2.34717l-3.7793.00586a2.36189,2.36189,0,0,1-2.18848-1.498l-2.65234-6.833a.47339.47339,0,0,1-.03028-.1709.50065.50065,0,0,1,.5-.5.50616.50616,0,0,1,.47071.3291l1.24023,3.14844a.93732.93732,0,0,0,1.78906-.42383V13.4978a.5.5,0,1,1,1,0v6.99756a.5.5,0,1,0,1,0V18.4978a.5.5,0,1,1,1,0v2a.5.5,0,0,0,1,0v-2a.5.5,0,1,1,1,0v2a.5.5,0,0,0,1,0v-2a.5.5,0,1,1,1,0ZM25,21.50342A.4969.4969,0,0,1,24.50391,22H23.49634l.001-3.5022A1.48209,1.48209,0,0,0,23.40588,18h1.098A.4969.4969,0,0,1,25,18.49658Z"/></svg>