<svg id="Icons" xmlns="http://www.w3.org/2000/svg" viewBox="0 0 32 32"><defs><style>.cls-1{fill:#5514b4;}</style></defs><path class="cls-1" d="M28,23V8a2,2,0,0,0-2-2H6A2,2,0,0,0,4,8V23H2v2a1,1,0,0,0,1,1H29a1,1,0,0,0,1-1V23ZM5,8A1.00115,1.00115,0,0,1,6,7H26a1.00115,1.00115,0,0,1,1,1V23H5ZM29,25H3V24H29Z"/><path class="cls-1" d="M6,22H26V8H6Zm6-6.5a1.49758,1.49758,0,0,1,1-1.4079V13.03516a3,3,0,1,1,6,0V14.0921A1.49758,1.49758,0,0,1,20,15.5v3A1.50164,1.50164,0,0,1,18.5,20h-5A1.50164,1.50164,0,0,1,12,18.5Z"/><path class="cls-1" d="M18,13.03516a2,2,0,1,0-4,0V14h4Z"/><rect class="cls-1" x="13" y="15" width="6" height="4" rx="0.5"/></svg>