<svg id="Icons" xmlns="http://www.w3.org/2000/svg" viewBox="0 0 32 32"><defs><style>.cls-1{fill:#5514b4;}</style></defs><path class="cls-1" d="M27.01806,19.01758l-22.01855.002a1.98489,1.98489,0,0,0-1.98242,1.98291v6.49072a.5.5,0,1,0,1,0V21.00244a.9839.9839,0,0,1,.98242-.98291l22.01855-.002a.984.984,0,0,1,.98291.98291v6.49072a.5.5,0,0,0,1,0V21.00049a1.98531,1.98531,0,0,0-1.98291-1.98291Z"/><path class="cls-1" d="M20.99963,8.97321l.02826.02825-.02826,6.99372H14.00354l-3.004-.02826.02826-6.99371h9.9718m0-1h-9.9718A1.02824,1.02824,0,0,0,9.99957,9.00146v6.96546a1.02829,1.02829,0,0,0,1.02826,1.02826h2.97571V18.0166H12.44336a.5.5,0,0,0,0,1h7a.5.5,0,0,0,0-1H18.00354V16.99518h2.99609a1.02829,1.02829,0,0,0,1.02826-1.02826V9.00146a1.02824,1.02824,0,0,0-1.02826-1.02825ZM15.00354,17.99939V16.99518h2v1.00421Z"/><rect class="cls-1" x="11.99984" y="9.99728" width="7.99903" height="5.00021"/></svg>