<svg id="Icons" xmlns="http://www.w3.org/2000/svg" viewBox="0 0 32 32"><defs><style>.cls-1{fill:#5514b4;}</style></defs><path class="cls-1" d="M26.00659,8H5.99341A1.99342,1.99342,0,0,0,4,9.99341V22.00659A1.99346,1.99346,0,0,0,5.99341,24H26.00659A1.99342,1.99342,0,0,0,28,22.00659V9.99341A1.99338,1.99338,0,0,0,26.00659,8ZM27,22.00659A.99451.99451,0,0,1,26.00659,23H5.99341A.99455.99455,0,0,1,5,22.00659V13H27ZM27,11H5V9.99341A.99455.99455,0,0,1,5.99341,9H26.00659A.99451.99451,0,0,1,27,9.99341Z"/><path class="cls-1" d="M7.50879,21.00488h9.01465a.5.5,0,0,0,0-1H7.50879a.5.5,0,0,0,0,1Z"/><rect class="cls-1" x="20" y="15" width="5" height="4" rx="0.87115"/></svg>