<svg id="Icons" xmlns="http://www.w3.org/2000/svg" viewBox="0 0 32 32"><defs><style>.cls-1{fill:#5514b4;}</style></defs><path class="cls-1" d="M9,9a4,4,0,1,0,4,4A4,4,0,0,0,9,9Zm2.50439,2.356-1.998.87787V10.05115A2.99742,2.99742,0,0,1,11.50439,11.356ZM9,16a2.99511,2.99511,0,0,1-.49365-5.95007V13a.49958.49958,0,0,0,.70117.45752l2.69336-1.18384A2.967,2.967,0,0,1,12,13,3.0034,3.0034,0,0,1,9,16Z"/><path class="cls-1" d="M14.5,11h8a.5.5,0,0,0,0-1h-8a.5.5,0,0,0,0,1Z"/><path class="cls-1" d="M14.5,13h8a.5.5,0,0,0,0-1h-8a.5.5,0,0,0,0,1Z"/><path class="cls-1" d="M14.5,15h8a.5.5,0,0,0,0-1h-8a.5.5,0,0,0,0,1Z"/><path class="cls-1" d="M18.49512,16H14.5a.5.5,0,0,0,0,1h3.99512a.5.5,0,0,0,0-1Z"/><path class="cls-1" d="M29.35638,23.44519A1.98251,1.98251,0,0,0,30,21.999V7.001A2.00687,2.00687,0,0,0,27.999,5H4.001A2.00687,2.00687,0,0,0,2,7.001V21.999A2.00687,2.00687,0,0,0,4.001,24H18.23114a4.84873,4.84873,0,0,0-.74457,2.55054V26.99a.99932.99932,0,0,0,1,.99658h11a.99932.99932,0,0,0,1-.99658v-.43945A4.9269,4.9269,0,0,0,29.35638,23.44519ZM4.001,23A1.00212,1.00212,0,0,1,3,21.999V7.001A1.00212,1.00212,0,0,1,4.001,6H27.999A1.00212,1.00212,0,0,1,29,7.001V21.999a.99207.99207,0,0,1-.33167.73548,6.733,6.733,0,0,0-1.88305-1.16535,3.5,3.5,0,1,0-5.59717-.00012A6.62545,6.62545,0,0,0,19.00989,23Zm17.48578-3.51343a2.5,2.5,0,1,1,2.5,2.5A2.50279,2.50279,0,0,1,21.48676,19.48657Zm7.99981,7.5-11,.00342v-.43945a4.61587,4.61587,0,0,1,3.1875-4.10645l.2862-.11273a3.46138,3.46138,0,0,0,4.05285.00006l.28595.11267a4.61586,4.61586,0,0,1,3.1875,4.10645Z"/></svg>