<svg id="Icons" xmlns="http://www.w3.org/2000/svg" viewBox="0 0 32 32"><defs><style>.cls-1{fill:#5514b4;}</style></defs><path class="cls-1" d="M27.052,5.99316H4.96753A1.9551,1.9551,0,0,0,3.0144,7.94629V19.04736A1.955,1.955,0,0,0,4.96753,21H7.01635v2.06006a1.95509,1.95509,0,0,0,1.95313,1.95312H23.05737a1.95508,1.95508,0,0,0,1.95312-1.95312V21H27.052a1.95488,1.95488,0,0,0,1.95263-1.95264V7.94629A1.955,1.955,0,0,0,27.052,5.99316Zm.95263,13.0542A.95358.95358,0,0,1,27.052,20H24.01049v3.06006a.95441.95441,0,0,1-.95312.95312H8.96948a.95442.95442,0,0,1-.95313-.95312V20H4.96753a.954.954,0,0,1-.95313-.95264V7.94629a.95442.95442,0,0,1,.95313-.95313h6.06982v5.5044a.5.5,0,0,0,1,0V6.99316h1.98633v5.5044a.5.5,0,0,0,1,0V6.99316h1.98291v5.5044a.5.5,0,0,0,1,0V6.99316h2.06592v5.5044a.5.5,0,0,0,1,0V6.99316H27.052a.954.954,0,0,1,.95263.95313Z"/></svg>