<svg id="Icons" xmlns="http://www.w3.org/2000/svg" viewBox="0 0 32 32"><defs><style>.cls-1{fill:#5514b4;}</style></defs><path class="cls-1" d="M16.35419,12.65259l-.00135-.00141-.34991-.35186-.3562.35217-.00061.00055L12.125,16.1333a.5.5,0,0,0,.70312.71094L15.5,14.20282v8.29962a.5.5,0,0,0,1,0V14.21722l2.60938,2.62409a.49995.49995,0,1,0,.709-.70508Z"/><path class="cls-1" d="M26.84155,16.37024a5.98522,5.98522,0,0,0-7.88678-7.01257A6.98277,6.98277,0,0,0,6.12762,14.30524,5.99675,5.99675,0,0,0,8,26H25a4.98884,4.98884,0,0,0,1.84155-9.62976ZM25,25H8a4.99673,4.99673,0,0,1-1.55786-9.74548l.83179-.27558L7.11,14.11816A5.97675,5.97675,0,0,1,12.9906,7a5.95107,5.95107,0,0,1,5.11066,2.87872l.42676.699.7694-.28064a4.98274,4.98274,0,0,1,6.57087,5.84351l-.1977.83795.79926.32A3.98886,3.98886,0,0,1,25,25Z"/></svg>