<svg id="Icons" xmlns="http://www.w3.org/2000/svg" viewBox="0 0 32 32"><defs><style>.cls-1{fill:#5514b4;}</style></defs><path class="cls-1" d="M25.999,8H6.001A2.00684,2.00684,0,0,0,4,10.001V21.999A2.00684,2.00684,0,0,0,6.001,24H25.999A2.00687,2.00687,0,0,0,28,21.999V10.001A2.00687,2.00687,0,0,0,25.999,8ZM6.001,9H25.999A1.00212,1.00212,0,0,1,27,10.001v9.29156l-2.64648-3.64606a.49983.49983,0,0,0-.707,0L21,18.293l-7.64648-7.64649a.49983.49983,0,0,0-.707,0L5,20.293V10.001A1.00212,1.00212,0,0,1,6.001,9ZM27,20.70741V21.999A1.00212,1.00212,0,0,1,25.999,23H6.001A1.00212,1.00212,0,0,1,5,21.999v-.292l8-10,7.64648,7.64649a.49983.49983,0,0,0,.707,0L24,16.707"/><path class="cls-1" d="M22.5,14A1.5,1.5,0,1,0,21,12.5,1.5,1.5,0,0,0,22.5,14Zm0-2a.5.5,0,1,1-.5.5A.50057.50057,0,0,1,22.5,12Z"/></svg>