<svg id="Icons" xmlns="http://www.w3.org/2000/svg" viewBox="0 0 32 32"><defs><style>.cls-1{fill:#5514b4;}</style></defs><path class="cls-1" d="M21.5,4A6.48928,6.48928,0,0,0,16,7.04706l-.00409-.00568,2.578,4.09064-3.0415,2.5,2.60449,2.53125-3.32275,2.80029a.5.5,0,0,1-.64453-.76465l2.478-2.08838-2.61425-2.541,3.22412-2.65039-2.16065-3.4292a.49614.49614,0,0,1,.78208-.60448,1.70516,1.70516,0,0,0-.10752-.16472A6.47407,6.47407,0,0,0,10.5,4C6,4,4,7.91016,4,11.5,4,22,16,28,16,28s12-7,12-16.5C28,7.91016,26,4,21.5,4Z"/></svg>