<svg id="Icons" xmlns="http://www.w3.org/2000/svg" viewBox="0 0 32 32"><defs><style>.cls-1{fill:#5514b4;}</style></defs><path class="cls-1" d="M16,2A14,14,0,1,0,30,16,14,14,0,0,0,16,2ZM9.959,21.98975h1.54a.5.5,0,1,1,0,1H9.959a6.98853,6.98853,0,0,1,0-13.977h2.417a6.99034,6.99034,0,0,1,6.09765,10.40478.5.5,0,1,1-.87207-.48926A5.99044,5.99044,0,0,0,12.376,10.0127H9.959a5.98853,5.98853,0,0,0,0,11.97705Zm12.10352,1h-2.417a6.99,6.99,0,0,1-6.09766-10.4043.49955.49955,0,1,1,.8711.48926,5.99145,5.99145,0,0,0,5.22656,8.915h2.417a5.98853,5.98853,0,0,0,0-11.977h-1.54a.5.5,0,0,1,0-1h1.54a6.98853,6.98853,0,0,1,0,13.97705Z"/></svg>