<svg id="Icons" xmlns="http://www.w3.org/2000/svg" viewBox="0 0 32 32"><defs><style>.cls-1{fill:#5514b4;}</style></defs><path class="cls-1" d="M7.00781,13.01855h.001a.49988.49988,0,0,0,.44531-.27392L9.67969,8.35156a2.99908,2.99908,0,1,0-5.39844-.085l2.28123,4.479A.49883.49883,0,0,0,7.00781,13.01855ZM5.002,7A1.999,1.999,0,1,1,9,7a1.97082,1.97082,0,0,1-.21289.8999L7.00684,11.41455l-1.8252-3.583A1.98326,1.98326,0,0,1,5.002,7Z"/><circle class="cls-1" cx="7.00098" cy="7" r="1"/><path class="cls-1" d="M24.999,15a3.0017,3.0017,0,0,0-2.71972,4.26611l2.28125,4.479a.49877.49877,0,0,0,.44531.273h.001a.49988.49988,0,0,0,.44531-.27393l2.22558-4.39307A3.00182,3.00182,0,0,0,24.999,15Zm1.78614,3.89941-1.78028,3.51465-1.82519-3.583a1.99925,1.99925,0,1,1,3.60547.06836Z"/><circle class="cls-1" cx="24.99902" cy="17.99951" r="1"/><path class="cls-1" d="M24.502,25.00049H8.77246a.48622.48622,0,0,0-.136.0274.48561.48561,0,0,0-.13354-.02691,2.50293,2.50293,0,0,1,0-5.00586.4781.4781,0,0,0,.10266-.02069.48687.48687,0,0,0,.14148.0285h7.916a.49858.49858,0,0,0,.19244-.03882.49787.49787,0,0,0,.19623.04028,3.00171,3.00171,0,1,0,0-6.00341c-.01233,0-.02265.00616-.03473.007-.01538-.00141-.02863-.009-.04437-.009H7.50293a.5.5,0,0,0,0,1h9.46973c.01233,0,.02264-.00616.03473-.007.01538.00141.02862.009.04437.009a2.00171,2.00171,0,1,1,0,4.00341.49859.49859,0,0,0-.19245.03882.498.498,0,0,0-.19622-.04028h-7.916a.4781.4781,0,0,0-.10266.02069.48687.48687,0,0,0-.14148-.0285,3.50293,3.50293,0,0,0,0,7.00586.48588.48588,0,0,0,.136-.02741.48562.48562,0,0,0,.13354.02692H24.502a.5.5,0,0,0,0-1Z"/></svg>