<svg id="Icons" xmlns="http://www.w3.org/2000/svg" viewBox="0 0 32 32"><defs><style>.cls-1{fill:#5514b4;}</style></defs><path class="cls-1" d="M26.84155,15.37025a5.98524,5.98524,0,0,0-7.88678-7.01258A6.98277,6.98277,0,0,0,6.12762,13.30524,5.99675,5.99675,0,0,0,8,25H25a4.98884,4.98884,0,0,0,1.84155-9.62976ZM25,24H8a4.99678,4.99678,0,0,1-1.55786-9.74555l.83179-.27551L7.11,13.11817A5.97675,5.97675,0,0,1,12.9906,6a5.95107,5.95107,0,0,1,5.11066,2.87872l.42676.699.7694-.28064a4.98274,4.98274,0,0,1,6.57087,5.8435l-.1977.83795.79926.32A3.98886,3.98886,0,0,1,25,24Z"/><path class="cls-1" d="M21.75653,15.57093a2.45713,2.45713,0,0,0,.26874-1.10217,2.48368,2.48368,0,0,0-4.96735,0,2.45633,2.45633,0,0,0,.27167,1.1076,4.51842,4.51842,0,0,0-1.019.64569,3.89615,3.89615,0,0,0-.28369.29889,4.37718,4.37718,0,0,0-1.31019-.93976,2.45715,2.45715,0,0,0,.26868-1.10217,2.48364,2.48364,0,1,0-4.96728,0,2.45751,2.45751,0,0,0,.26861,1.10205,3.70768,3.70768,0,0,0-2.28277,3.29676v.28662a.82626.82626,0,0,0,.82617.82373h7.34277c.018,0,.033-.0091.05072-.01026h6.98932a.82626.82626,0,0,0,.82617-.82373v-.28662A3.70776,3.70776,0,0,0,21.75653,15.57093Zm-2.2149-2.58581a1.48364,1.48364,0,1,1-1.48371,1.48364A1.48535,1.48535,0,0,1,19.54163,12.98512Zm-7.03992.01025A1.48364,1.48364,0,1,1,11.01807,14.479,1.48532,1.48532,0,0,1,12.50171,12.99537Zm-3.4978,5.88245a2.82141,2.82141,0,0,1,1.92157-2.49408,2.43525,2.43525,0,0,0,3.15228.00012,2.82073,2.82073,0,0,1,1.92126,2.494v.10009h-.43359v.01026H9.00391Zm14.03515.10009h-6.04v-.10009a3.31913,3.31913,0,0,0-.38049-1.53547,2.90946,2.90946,0,0,1,.34631-.36444,3.6165,3.6165,0,0,1,1.00177-.60339,2.43532,2.43532,0,0,0,3.15113-.00092,2.82119,2.82119,0,0,1,1.92132,2.494Z"/></svg>