<svg id="Icons" xmlns="http://www.w3.org/2000/svg" viewBox="0 0 32 32"><defs><style>.cls-1{fill:#5514b4;}</style></defs><path class="cls-1" d="M27.96051,6.99347H25.726l2.1402-2.14a.49995.49995,0,1,0-.707-.707l-2.84729,2.847H4.03949A1.02013,1.02013,0,0,0,3.01935,8.01361V23.98633a1.02013,1.02013,0,0,0,1.02014,1.02014H6.297L4.18359,27.11963a.49995.49995,0,1,0,.707.707l2.8205-2.82019H27.96051a1.02018,1.02018,0,0,0,1.0202-1.02014V8.01361A1.02018,1.02018,0,0,0,27.96051,6.99347ZM4.01935,23.98633,4.03949,7.99347H23.31177l-7.96576,7.965a4.68541,4.68541,0,0,0-.63324-.37269,2.457,2.457,0,0,0,.26868-1.10211,2.48365,2.48365,0,0,0-4.96729,0,2.45726,2.45726,0,0,0,.26862,1.102A3.70759,3.70759,0,0,0,8,18.88239V19.169a.82626.82626,0,0,0,.82617.82373h2.48505L7.31445,23.98907Zm11.97577-5.10394v.11035H13.72546L15.3974,17.321A2.36112,2.36112,0,0,1,15.99512,18.88239Zm-3.49732-1.9151a2.4606,2.4606,0,0,0,1.57605-.57886,3.80916,3.80916,0,0,1,.554.28808l-2.31647,2.31623H9v-.11035a2.82142,2.82142,0,0,1,1.92157-2.49408A2.46062,2.46062,0,0,0,12.4978,16.96729Zm-1.48364-2.48365a1.48365,1.48365,0,1,1,1.48364,1.48365A1.48532,1.48532,0,0,1,11.01416,14.48364Zm16.94635,9.52283L8.72742,23.9903l3.998-3.99756H16.169a.82626.82626,0,0,0,.82617-.82373v-.28662a3.38537,3.38537,0,0,0-.89325-2.26575L24.726,7.99347h3.23456l.0202.02014Z"/><path class="cls-1" d="M25.5,13.5H19.50391a.5.5,0,0,0,0,1H25.5a.5.5,0,0,0,0-1Z"/><path class="cls-1" d="M25.5,15.5083H19.50391a.5.5,0,1,0,0,1H25.5a.5.5,0,1,0,0-1Z"/><path class="cls-1" d="M25.5,17.51367H19.50391a.5.5,0,0,0,0,1H25.5a.5.5,0,0,0,0-1Z"/></svg>