<svg id="Icons" xmlns="http://www.w3.org/2000/svg" viewBox="0 0 32 32"><defs><style>.cls-1{fill:#5514b4;}</style></defs><path class="cls-1" d="M16,2.03033a14,14,0,1,0,14,14A14,14,0,0,0,16,2.03033Zm3.50781,8.96674a1.50147,1.50147,0,1,1-1.501,1.50147A1.50331,1.50331,0,0,1,19.50781,10.99707Zm-7.01172-.00781a1.50537,1.50537,0,1,1-1.50488,1.50537A1.50747,1.50747,0,0,1,12.49609,10.98926Zm9.48829,7.51513a6.00411,6.00411,0,0,1-11.959.03174l-.04785-.542,12.05176-.03223Z"/><path class="cls-1" d="M16.00391,22.98145a5.02363,5.02363,0,0,0,4.90918-4.01661l-9.81348.02637A5.02959,5.02959,0,0,0,16.00391,22.98145Z"/></svg>