<svg id="Icons" xmlns="http://www.w3.org/2000/svg" viewBox="0 0 32 32"><defs><style>.cls-1{fill:#5514b4;}</style></defs><path class="cls-1" d="M15.99687,5.00165l-.00018.00015v.00049L27,14.0061,26.9989,27H20V20a2.00226,2.00226,0,0,0-2-2H14a2.00226,2.00226,0,0,0-2,2v7H5L4.9949,14.01007l11.002-9.00842m-.0005-.99961a.998.998,0,0,0-.63355.22629l-11.00145,9.008a1,1,0,0,0-.36016.76846L4,26.99991A1,1,0,0,0,5,28h7a1,1,0,0,0,1-1V20a1,1,0,0,1,1-1h4a1,1,0,0,1,1,1v7a1,1,0,0,0,1,1h6.9989a1,1,0,0,0,1-.99994L28,14.0062a1,1,0,0,0-.35954-.76932L16.62993,4.22833a.99809.99809,0,0,0-.63356-.22629Z"/></svg>