<svg id="Icons" xmlns="http://www.w3.org/2000/svg" viewBox="0 0 32 32"><defs><style>.cls-1{fill:#5514b4;}</style></defs><path class="cls-1" d="M26.6734,22.3219,20.17157,15.82,26.67078,9.3208a1.00008,1.00008,0,0,0,0-1.41424L24.085,5.3208a.99992.99992,0,0,0-1.41418,0L16.17157,11.82l-6.6062-6.6062a1.00743,1.00743,0,0,0-1.42468,0L5.32855,8.02594a1.00737,1.00737,0,0,0,0,1.42468l6.6062,6.6062L5.29724,22.69434a.99984.99984,0,0,0-.29291.70709v3.58581H8.59009a1.00023,1.00023,0,0,0,.70715-.2929l6.63751-6.63752,6.5019,6.5019a1.00738,1.00738,0,0,0,1.42462,0l2.81213-2.81214A1.00737,1.00737,0,0,0,26.6734,22.3219ZM23.37689,6.028l.001-.00006,2.58575,2.58582L22.873,11.70435,20.28662,9.11841ZM6.03564,8.733,8.84973,5.91919l.0033-.00043.00525.00214,2.26806,2.27154L10.07129,9.24707a.49995.49995,0,1,0,.707.707L11.83282,8.9l2.112,2.11518-1.05224,1.05267a.49995.49995,0,1,0,.707.707l1.0517-1.05212.80816.80932-2.81738,2.81739ZM8.59009,25.98724H6.00433V23.40143l13.57526-13.576L22.166,12.41138Zm14.55365-.13568-6.49988-6.50384,2.81732-2.81732.848.84845-1.05328,1.05328a.49995.49995,0,1,0,.707.707l1.053-1.053,2.11316,2.11444-1.05194,1.05237a.49995.49995,0,1,0,.707.707l1.05176-1.05218,2.13037,2.13171Z"/></svg>