<svg id="Icons" xmlns="http://www.w3.org/2000/svg" viewBox="0 0 32 32"><defs><style>.cls-1{fill:#5514b4;}</style></defs><path class="cls-1" d="M21.49658,3h3.00732A1.49609,1.49609,0,0,1,26,4.49609V7.50342A1.49658,1.49658,0,0,1,24.50342,9H21.49609A1.49609,1.49609,0,0,1,20,7.50391V4.49658A1.49658,1.49658,0,0,1,21.49658,3Z"/><path class="cls-1" d="M14.49658,3h3.00732A1.49609,1.49609,0,0,1,19,4.49609V7.50342A1.49658,1.49658,0,0,1,17.50342,9H14.49609A1.49609,1.49609,0,0,1,13,7.50391V4.49658A1.49658,1.49658,0,0,1,14.49658,3Z"/><path class="cls-1" d="M7.49658,3h3.00732A1.49609,1.49609,0,0,1,12,4.49609V7.50342A1.49658,1.49658,0,0,1,10.50342,9H7.49609A1.49609,1.49609,0,0,1,6,7.50391V4.49658A1.49658,1.49658,0,0,1,7.49658,3Z"/><path class="cls-1" d="M21.49658,10h3.00732A1.49609,1.49609,0,0,1,26,11.49609v3.00732A1.49658,1.49658,0,0,1,24.50342,16H21.49609A1.49609,1.49609,0,0,1,20,14.50391V11.49658A1.49658,1.49658,0,0,1,21.49658,10Z"/><path class="cls-1" d="M7.49658,10h3.00732A1.49609,1.49609,0,0,1,12,11.49609v3.00732A1.49658,1.49658,0,0,1,10.50342,16H7.49609A1.49609,1.49609,0,0,1,6,14.50391V11.49658A1.49658,1.49658,0,0,1,7.49658,10Z"/><path class="cls-1" d="M24.50391,17H22.019l-.02173-.0022a1.48869,1.48869,0,0,0-1,.39014,1.47666,1.47666,0,0,0-2,0,1.45315,1.45315,0,0,0-1.5-.298V16h.0066A1.49789,1.49789,0,0,0,19,14.50342V11.49658A1.49789,1.49789,0,0,0,17.50391,10H14.49609A1.49789,1.49789,0,0,0,13,11.49658v3.00684A1.49789,1.49789,0,0,0,14.49609,16h.00122v5.75171L13.40063,18.967a1.50748,1.50748,0,0,0-1.40332-.96924c-.02954,0-.05737.007-.08642.00873A1.49351,1.49351,0,0,0,10.50391,17H7.49609A1.49789,1.49789,0,0,0,6,18.49658v3.00684A1.49789,1.49789,0,0,0,7.49609,23h3.00782a1.4893,1.4893,0,0,0,1.0686-.45239l1.67578,4.31592a3.36726,3.36726,0,0,0,3.12109,2.13623l3.7793-.00586a3.35046,3.35046,0,0,0,3.34668-3.34717L23.49609,23h1.00782A1.49789,1.49789,0,0,0,26,21.50342V18.49658A1.49789,1.49789,0,0,0,24.50391,17Zm-2.00855,8.64673a2.34967,2.34967,0,0,1-2.34765,2.34717l-3.7793.00586a2.36189,2.36189,0,0,1-2.18848-1.498l-2.65234-6.833a.47339.47339,0,0,1-.03028-.1709.50065.50065,0,0,1,.5-.5.50616.50616,0,0,1,.47071.3291l1.24023,3.14844a.93732.93732,0,0,0,1.78906-.42383V13.4978a.5.5,0,1,1,1,0v6.99756a.5.5,0,1,0,1,0V18.4978a.5.5,0,1,1,1,0v2a.5.5,0,0,0,1,0v-2a.5.5,0,1,1,1,0v2a.5.5,0,0,0,1,0v-2a.5.5,0,1,1,1,0Z"/></svg>