<svg id="Icons" xmlns="http://www.w3.org/2000/svg" viewBox="0 0 32 32"><defs><style>.cls-1{fill:#5514b4;}</style></defs><path class="cls-1" d="M28,23V8a2,2,0,0,0-2-2H6A2,2,0,0,0,4,8V23H2v2a1,1,0,0,0,1,1H29a1,1,0,0,0,1-1V23ZM5,8A1.00115,1.00115,0,0,1,6,7H26a1.00115,1.00115,0,0,1,1,1V23H5ZM29,25H3V24H29Z"/><path class="cls-1" d="M21.48657,19.55055a4.61583,4.61583,0,0,0-3.1875-4.10644l-.28595-.11268a3.46134,3.46134,0,0,1-4.05285-.00006l-.2862.11274a4.61585,4.61585,0,0,0-3.1875,4.10644V19.99l11-.00341Z"/><circle class="cls-1" cx="15.98676" cy="12.48659" r="2.5"/><path class="cls-1" d="M6,22H26V8H6Zm3.48657-2.44946A5.51094,5.51094,0,0,1,13.18811,14.569a3.50007,3.50007,0,1,1,5.59717.00013,5.5109,5.5109,0,0,1,3.70129,4.98138V19.99a.99933.99933,0,0,1-1,.99659h-11a.99933.99933,0,0,1-1-.99659Z"/></svg>