<svg id="Icons" xmlns="http://www.w3.org/2000/svg" viewBox="0 0 32 32"><defs><style>.cls-1{fill:#5514b4;}</style></defs><path class="cls-1" d="M26.31683,11.552a3.49748,3.49748,0,1,0-5.62317.02112,6.10791,6.10791,0,0,0-3.13214,2.8053l-.00183.00366a3.37807,3.37807,0,0,0-3.08331-.01941,6.12519,6.12519,0,0,0-3.16016-2.80786,3.4974,3.4974,0,1,0-5.63806-.00049A5.53825,5.53825,0,0,0,2,16.55713V17a1.001,1.001,0,0,0,1,1h9.5506a3.46274,3.46274,0,0,0,.65094,1.5824A5.51094,5.51094,0,0,0,9.5,24.564v.43946A.99933.99933,0,0,0,10.5,26h11a.99933.99933,0,0,0,1-.99658V24.564a5.51091,5.51091,0,0,0-3.70129-4.98138A3.46262,3.46262,0,0,0,19.44977,18H29a1.001,1.001,0,0,0,1-1v-.44287A5.5397,5.5397,0,0,0,26.31683,11.552ZM23.5,7A2.5,2.5,0,1,1,21,9.5,2.49691,2.49691,0,0,1,23.5,7ZM18.50018,17.5a2.5,2.5,0,1,1-2.5-2.5A2.50282,2.50282,0,0,1,18.50018,17.5ZM8.5,7A2.5,2.5,0,1,1,6,9.5,2.49882,2.49882,0,0,1,8.5,7ZM3,16.55713a4.64468,4.64468,0,0,1,3.18848-4.13965l.25213-.09985a3.44445,3.44445,0,0,0,4.11689-.00074l.254.10059a5.1619,5.1619,0,0,1,2.78028,2.40723l.05139.10321A3.47314,3.47314,0,0,0,12.5506,17H3ZM21.5,24.564V25l-11,.00342V24.564a4.61584,4.61584,0,0,1,3.1875-4.10644l.28619-.11273a3.4614,3.4614,0,0,0,4.05286.00006l.28595.11267A4.61584,4.61584,0,0,1,21.5,24.564ZM29,17H19.44977a3.47581,3.47581,0,0,0-1.0589-2.04431l.06518-.131a5.15625,5.15625,0,0,1,2.7793-2.40723l.22046-.08728a3.44441,3.44441,0,0,0,4.10053-.01379l.25518.10107A4.64468,4.64468,0,0,1,29,16.55713Z"/></svg>