<svg id="Icons" xmlns="http://www.w3.org/2000/svg" viewBox="0 0 32 32"><defs><style>.cls-1{fill:#5514b4;}</style></defs><path class="cls-1" d="M27.64044,13.23688,16.62994,4.22833a.99991.99991,0,0,0-1.26709,0l-11.00146,9.008a1,1,0,0,0-.36017.76849L4,26.99988A1,1,0,0,0,5,28H26.9989a1,1,0,0,0,1-.99994L28,14.00616A.99968.99968,0,0,0,27.64044,13.23688ZM26.9989,27H5L4.99493,14.01007,15.9967,5.00177v.00049L27,14.0061Z"/><path class="cls-1" d="M13.94531,12.98535a3.00825,3.00825,0,0,0-2.92187,3.29541c0,4.17432,4.55468,6.499,4.748,6.59619l.24219.1211.2334-.13623c.19238-.1128,4.7207-2.79688,4.7207-6.58106a3.009,3.009,0,0,0-2.92285-3.29541,2.90268,2.90268,0,0,0-2.0498.84082A2.90269,2.90269,0,0,0,13.94531,12.98535Zm4.09961,1a2.06,2.06,0,0,1,1.92285,2.29541c0,2.76172-3.09961,4.98731-3.98925,5.56885-.89258-.51807-3.95508-2.51856-3.95508-5.56885a2.05921,2.05921,0,0,1,1.92187-2.29541,1.91487,1.91487,0,0,1,1.627.90186l.42285.67285.42285-.67285A1.91487,1.91487,0,0,1,18.04492,13.98535Z"/></svg>