<svg id="Icons" xmlns="http://www.w3.org/2000/svg" viewBox="0 0 32 32"><defs><style>.cls-1{fill:#5514b4;}</style></defs><path class="cls-1" d="M27.50916,16a4.48092,4.48092,0,0,1,2.37866-3.94568l-3.58405-6.2077A4.45776,4.45776,0,0,1,24,6.5,4.5,4.5,0,0,1,19.5,2h-7A4.5,4.5,0,0,1,8,6.5a4.45776,4.45776,0,0,1-2.30377-.65338L2.11438,12.05054a4.462,4.462,0,0,1,0,7.89892l3.58185,6.20392A4.47536,4.47536,0,0,1,12.5,30h7a4.47536,4.47536,0,0,1,6.80377-3.84662l3.58405-6.2077A4.48092,4.48092,0,0,1,27.50916,16Zm-1.60828,8.8512A5.3846,5.3846,0,0,0,24,24.5,5.50883,5.50883,0,0,0,18.59113,29H13.40894A5.509,5.509,0,0,0,8,24.5a5.3846,5.3846,0,0,0-1.90088.3512L3.44861,20.26038a5.44979,5.44979,0,0,0,0-8.52082L6.09912,7.14874A5.38332,5.38332,0,0,0,8,7.5,5.509,5.509,0,0,0,13.40894,3h5.18219A5.50888,5.50888,0,0,0,24,7.5a5.38332,5.38332,0,0,0,1.90088-.35126l2.6535,4.596a5.44937,5.44937,0,0,0,0,8.51056Z"/><path class="cls-1" d="M16,8a8,8,0,1,0,8,8A8.00917,8.00917,0,0,0,16,8Zm0,15a7,7,0,1,1,7-7A7.00787,7.00787,0,0,1,16,23Z"/></svg>