<svg id="Icons" xmlns="http://www.w3.org/2000/svg" viewBox="0 0 32 32"><defs><style>.cls-1{fill:#5514b4;}</style></defs><path class="cls-1" d="M26.52307,9.01056h-5.407a5.26048,5.26048,0,0,0-10.23218,0H5.4754a1.4716,1.4716,0,0,0-1.47,1.47v13.042a1.4716,1.4716,0,0,0,1.47,1.47H26.52307a1.47155,1.47155,0,0,0,1.47-1.47v-13.042A1.47155,1.47155,0,0,0,26.52307,9.01056ZM16,5.97412a4.28576,4.28576,0,0,1,4.09692,3.03644H11.902A4.28447,4.28447,0,0,1,16,5.97412Zm6,4.01642v14.022H10V9.99054ZM4.98541,23.52252v-13.042a.49028.49028,0,0,1,.49-.49H9v14.022H5.4754A.49028.49028,0,0,1,4.98541,23.52252Zm22.02765,0a.49028.49028,0,0,1-.49.49H23V9.99054h3.52307a.49028.49028,0,0,1,.49.49Z"/></svg>