<svg id="Icons" xmlns="http://www.w3.org/2000/svg" viewBox="0 0 32 32"><defs><style>.cls-1{fill:#5514b4;}</style></defs><path class="cls-1" d="M16,2A14,14,0,1,0,30,16,14,14,0,0,0,16,2ZM9.98145,17.39893l.00488,8.623a.9786.9786,0,0,0,.97851.979h.001l2.52344-.00147a.5.5,0,1,1,0,1l-2.52344.00147h-.001a1.97886,1.97886,0,0,1-1.97851-1.97852l-.00488-8.623a.89648.89648,0,0,0-.89551-.896H6.499a.49972.49972,0,0,1-.5-.5L5.99976,16,5.999,15.99658a.49972.49972,0,0,1,.5-.5H8.08594a.89638.89638,0,0,0,.89551-.89551l.00488-8.62451A1.978,1.978,0,0,1,10.96484,3.999h.001L13.48926,4a.5.5,0,1,1,0,1L12.575,4.99963,12.57324,5l-1.60742-.001h-.001a.9786.9786,0,0,0-.97851.978l-.00488,8.62451A1.88368,1.88368,0,0,1,9.35388,16,1.88457,1.88457,0,0,1,9.98145,17.39893Zm15.49536-.89551H23.88989a.89638.89638,0,0,0-.89551.89551l-.00488,8.62451A1.978,1.978,0,0,1,21.011,28.001H21.01L18.48657,28a.5.5,0,0,1,0-1l.91431.00037L19.40259,27l1.60742.001h.001a.9786.9786,0,0,0,.97851-.978l.00488-8.62451A1.88368,1.88368,0,0,1,22.62195,16a1.88457,1.88457,0,0,1-.62757-1.39893L21.9895,5.978a.9786.9786,0,0,0-.97851-.979H21.01l-2.52344.00147a.5.5,0,1,1,0-1L21.01,3.999h.001A1.97884,1.97884,0,0,1,22.9895,5.97754l.00488,8.623a.89648.89648,0,0,0,.89551.896h1.58692a.49972.49972,0,0,1,.5.5L25.97607,16l.00074.00342A.49972.49972,0,0,1,25.47681,16.50342Z"/></svg>