<svg id="Icons" xmlns="http://www.w3.org/2000/svg" viewBox="0 0 32 32"><defs><style>.cls-1{fill:#5514b4;}</style></defs><path class="cls-1" d="M28,23V8a2,2,0,0,0-2-2H6A2,2,0,0,0,4,8V23H2v2a1,1,0,0,0,1,1H29a1,1,0,0,0,1-1V23ZM5,8A1.00115,1.00115,0,0,1,6,7H26a1.00115,1.00115,0,0,1,1,1V23H5ZM29,25H3V24H29Z"/><path class="cls-1" d="M19.54163,15.95245a1.48364,1.48364,0,1,0-1.48371-1.48364A1.48535,1.48535,0,0,0,19.54163,15.95245Z"/><circle class="cls-1" cx="12.50171" cy="14.47906" r="1.48364"/><path class="cls-1" d="M15.56543,18.97791H15.999v-.1001a2.82073,2.82073,0,0,0-1.92126-2.494,2.435,2.435,0,0,1-3.15228-.00012,2.82142,2.82142,0,0,0-1.92157,2.49408v.11035h6.56152Z"/><path class="cls-1" d="M6,22H26V8H6Zm2.00391-3.12219a3.70758,3.70758,0,0,1,2.28277-3.29676,2.45726,2.45726,0,0,1-.26861-1.102,2.48364,2.48364,0,1,1,4.96728,0,2.457,2.457,0,0,1-.26868,1.10212,4.37684,4.37684,0,0,1,1.31019.93976,3.89431,3.89431,0,0,1,.28369-.29889,4.51786,4.51786,0,0,1,1.019-.64563,2.45735,2.45735,0,0,1-.27167-1.10761,2.48368,2.48368,0,0,1,4.96735,0,2.45728,2.45728,0,0,1-.26868,1.10217,3.70778,3.70778,0,0,1,2.28247,3.29657v.28662a.82626.82626,0,0,1-.82617.82374H16.22357c-.0177.00115-.03271.01025-.05072.01025H8.83008a.82626.82626,0,0,1-.82617-.82373Z"/><path class="cls-1" d="M16.999,18.97791h6.04v-.11036a2.82118,2.82118,0,0,0-1.92132-2.494,2.43514,2.43514,0,0,1-3.15113.00091,3.61629,3.61629,0,0,0-1.00177.6034,2.90877,2.90877,0,0,0-.34631.36444,3.31906,3.31906,0,0,1,.38049,1.53546Z"/></svg>