<svg id="Icons" xmlns="http://www.w3.org/2000/svg" viewBox="0 0 32 32"><defs><style>.cls-1{fill:#5514b4;}</style></defs><path class="cls-1" d="M20.707,3H8A1.003,1.003,0,0,0,7,4V28a1.003,1.003,0,0,0,1,1H24a1.003,1.003,0,0,0,1-1V7.30015ZM24,28H8V4H20.00708V8.00126a1.003,1.003,0,0,0,1,1H24ZM24,8.00126H21.00708V4.71739L24,7.71031Z"/><path class="cls-1" d="M10.02368,18.51115a.49971.49971,0,0,0,.5.5l10.98737-.003a.5.5,0,0,0,0-1l-10.98737.003A.49971.49971,0,0,0,10.02368,18.51115Z"/><path class="cls-1" d="M21.51105,20.01158l-10.98737.00305a.5.5,0,0,0,0,1l10.98737-.00305a.5.5,0,0,0,0-1Z"/><path class="cls-1" d="M21.51105,21.99119l-10.98737.00305a.5.5,0,0,0,0,1l10.98737-.00305a.5.5,0,0,0,0-1Z"/><path class="cls-1" d="M11.04,17.01353h4.92871A1.0336,1.0336,0,0,0,17.001,15.98082V9.038a1.0336,1.0336,0,0,0-1.03223-1.03272H11.04A1.03443,1.03443,0,0,0,10.00684,9.038v6.94287A1.03443,1.03443,0,0,0,11.04,17.01353Zm0-8.0083L16.001,9.038v6.94287a.03262.03262,0,0,1-.03223.03271l-4.96191-.03271Z"/></svg>