<svg id="Icons" xmlns="http://www.w3.org/2000/svg" viewBox="0 0 32 32"><defs><style>.cls-1{fill:#5514b4;}</style></defs><path class="cls-1" d="M16.49683,13.9978a.50065.50065,0,0,0-.5.5v8.55371a.93732.93732,0,0,1-1.78907.42383L12.96753,20.3269a.50616.50616,0,0,0-.4707-.3291.50065.50065,0,0,0-.5.5.47338.47338,0,0,0,.03027.1709l2.65234,6.833a2.3619,2.3619,0,0,0,2.18848,1.498l3.7793-.00586a2.34967,2.34967,0,0,0,2.34765-2.34717l.002-7.14893a.5.5,0,0,0-1,0v2a.5.5,0,0,1-1,0v-2a.5.5,0,0,0-1,0v2a.5.5,0,0,1-1,0v-2a.5.5,0,0,0-1,0v1.99756a.5.5,0,0,1-1,0V14.4978A.50065.50065,0,0,0,16.49683,13.9978Z"/><path class="cls-1" d="M16.47719,29.99977a.01167.01167,0,1,0,.00057-.02334,3.37026,3.37026,0,0,1-2.73-2.1129l-2.65527-6.83887a1.49971,1.49971,0,0,1,1.4043-2.02686,1.50749,1.50749,0,0,1,1.40332.96924l1.09668,2.78467V14.4978a1.5,1.5,0,0,1,3,0v3.5921a1.45315,1.45315,0,0,1,1.5.298,1.47666,1.47666,0,0,1,2,0,1.49073,1.49073,0,0,1,2.40795.59524.0462.0462,0,0,0,.09083-.01216V4.04794A2.054,2.054,0,0,0,21.94767,2H10.04354A2.054,2.054,0,0,0,7.99561,4.04794V27.95206A2.05394,2.05394,0,0,0,10.04361,30ZM14.49561,4h3a.5.5,0,0,1,0,1h-3a.5.5,0,0,1,0-1Z"/></svg>