<svg id="Icons" xmlns="http://www.w3.org/2000/svg" viewBox="0 0 32 32"><defs><style>.cls-1{fill:#5514b4;}</style></defs><path class="cls-1" d="M27.548,24.02588,21.75606,18.234A9.52244,9.52244,0,1,0,18.2029,21.7785l5.79577,5.7967a1.52657,1.52657,0,0,0,2.15576-.00049l1.39405-1.39307A1.52672,1.52672,0,0,0,27.548,24.02588ZM5.01625,13.52539a8.5,8.5,0,1,1,8.5,8.5A8.50951,8.50951,0,0,1,5.01625,13.52539ZM26.841,25.47461,25.4474,26.86768a.52576.52576,0,0,1-.7417,0L19.06154,21.223a9.5665,9.5665,0,0,0,2.13733-2.1322L26.841,24.73291A.52576.52576,0,0,1,26.841,25.47461Z"/></svg>