<svg id="Icons" xmlns="http://www.w3.org/2000/svg" viewBox="0 0 32 32"><defs><style>.cls-1{fill:#5514b4;}</style></defs><path class="cls-1" d="M26.91455,12H5.092a1.08986,1.08986,0,0,0-1.08862,1.08875v5.82244A1.08992,1.08992,0,0,0,5.092,20H26.91455a1.09013,1.09013,0,0,0,1.08887-1.08881V13.08875A1.09008,1.09008,0,0,0,26.91455,12ZM7.88147,17.99438H7.00574V14.91351l-.97913.8349v-.88653l1.03125-.84082h.82361Zm4.535,0H9.61206v-.70849l1.41016-1.30719a2.16222,2.16222,0,0,0,.38867-.43445.66852.66852,0,0,0,.10132-.34833.45934.45934,0,0,0-.15552-.35425.62.62,0,0,0-.43189-.14117,1.00791,1.00791,0,0,0-.5354.14417,1.42,1.42,0,0,0-.3916.34533l-.49-.52984a2.39622,2.39622,0,0,1,.36609-.337,1.86419,1.86419,0,0,1,.484-.25879,1.7761,1.7761,0,0,1,.6189-.10083,1.63529,1.63529,0,0,1,.73413.15546,1.24184,1.24184,0,0,1,.49194.42309,1.071,1.071,0,0,1,.1792.60767,1.29727,1.29727,0,0,1-.15552.6189,2.53432,2.53432,0,0,1-.55884.64794l-.95068.85212H12.4165Zm3.97327-.521a1.35365,1.35365,0,0,1-.53809.42309,1.83234,1.83234,0,0,1-.77148.15546,1.92436,1.92436,0,0,1-1.54395-.73108l.56482-.50134a1.50949,1.50949,0,0,0,.42908.36847,1.08336,1.08336,0,0,0,.52637.121.74454.74454,0,0,0,.46142-.13824.46191.46191,0,0,0,.18409-.39161.42644.42644,0,0,0-.17017-.36261.75835.75835,0,0,0-.4635-.12646H14.5498v-.70251h.51856a.613.613,0,0,0,.35718-.10682.36772.36772,0,0,0,.15539-.32519.39208.39208,0,0,0-.17309-.35425.75428.75428,0,0,0-.42017-.11212.94493.94493,0,0,0-.46936.118,1.39913,1.39913,0,0,0-.371.30213l-.49-.524a2.20012,2.20012,0,0,1,.58154-.43738,1.90524,1.90524,0,0,1,1.52319-.04919,1.2212,1.2212,0,0,1,.49.37146.881.881,0,0,1,.18115.553.82028.82028,0,0,1-.19593.52936,1.09209,1.09209,0,0,1-.59338.34589,1.22244,1.22244,0,0,1,.71143.35669.88958.88958,0,0,1,.23327.60467A1.00053,1.00053,0,0,1,16.38977,17.47339Zm4.944-.87311L20.87036,17.4l-1.20019-.87335L19.839,18h-.9259l.16772-1.50507-1.22058.905-.4635-.79968,1.37915-.6-1.37915-.60009.4635-.80011,1.21033.884L18.90186,14h.92688l-.16883,1.49481L20.87036,14.6l.46338.80011-1.37915.60009Zm4.653,0L25.52332,17.4l-1.20008-.87335L24.49194,18h-.926l.168-1.50507-1.22071.905-.4635-.79968,1.37915-.6-1.37915-.60009.4635-.80011,1.21033.884L23.55469,14h.927l-.16882,1.49481L25.52332,14.6l.46337.80011-1.37915.60009Z"/></svg>