<svg id="Icons" xmlns="http://www.w3.org/2000/svg" viewBox="0 0 32 32"><defs><style>.cls-1{fill:#5514b4;}</style></defs><path class="cls-1" d="M16,2A14,14,0,1,0,30,16,14,14,0,0,0,16,2ZM26.51444,13H24.54178v.50928a.5.5,0,0,1-1,0V13h-3v1.46533a.5.5,0,0,1-1,0V13h-3.019V26.5a.5.5,0,0,1-1,0V13H12.52469v3.48633a.5.5,0,0,1-1,0V13H8.47391v4.5a.5.5,0,0,1-1,0V13H5.51444a.5.5,0,0,1,0-1H7.47391V7.5a.5.5,0,0,1,1,0V12h3.05078V8.48975a.5.5,0,1,1,1,0V12h2.99805V9.46777a.5.5,0,0,1,1,0V12h3.019V10.51074a.5.5,0,0,1,1,0V12h3v-.5332a.5.5,0,1,1,1,0V12h1.97266a.5.5,0,0,1,0,1Z"/></svg>