<svg id="Icons" xmlns="http://www.w3.org/2000/svg" viewBox="0 0 32 32"><defs><style>.cls-1{fill:#5514b4;}</style></defs><path class="cls-1" d="M16,2.0155A13.98438,13.98438,0,1,0,29.98434,15.99988,14.00031,14.00031,0,0,0,16,2.0155ZM5.5018,16.48718H2.94028a.5.5,0,1,1,0-1H5.5018a.5.5,0,1,1,0,1ZM15.48715,2.94031a.5.5,0,0,1,1,0v2.562a.5.5,0,1,1-1,0ZM8.92661,23.75476,7.11508,25.56629a.49995.49995,0,0,1-.707-.707l1.81152-1.81152a.49995.49995,0,0,1,.707.707Zm0-14.82812a.49984.49984,0,0,1-.707,0L6.40805,7.11511a.49995.49995,0,0,1,.707-.707L8.92661,8.21961A.49982.49982,0,0,1,8.92661,8.92664Zm7.75653,7.77881a1,1,0,0,1-1.41425,0,.98845.98845,0,0,1-.23914-.98346l-4.686-4.686a.5.5,0,1,1,.70709-.70709L15.76193,15.04a.98367.98367,0,0,1,.92121.25128A1,1,0,0,1,16.68314,16.70545Zm8.88311,8.86084a.49983.49983,0,0,1-.707,0L23.0477,23.75476a.49995.49995,0,0,1,.707-.707l1.81152,1.81152A.49981.49981,0,0,1,25.56625,25.56629Zm0-18.45118L23.75473,8.92664a.49995.49995,0,0,1-.707-.707l1.81152-1.81153a.49995.49995,0,1,1,.707.707ZM29.034,16.48718H26.4725a.5.5,0,0,1,0-1H29.034a.5.5,0,0,1,0,1Z"/></svg>