<svg id="Icons" xmlns="http://www.w3.org/2000/svg" viewBox="0 0 32 32"><defs><style>.cls-1{fill:#5514b4;}</style></defs><path class="cls-1" d="M24.99841,13.00073,19.49713,13a12.46946,12.46946,0,0,0,1.09424-4.72223C20.59137,6.04327,19.25073,4,17.50531,4A3.48838,3.48838,0,0,0,15,5l-.4248,5.46155L11.536,14H6a2,2,0,0,0-2,2v8a2,2,0,0,0,2,2h5.55267l10.74866,1.96936A3.02814,3.02814,0,0,0,22.73059,28a2.99378,2.99378,0,0,0,2.89972-2.24786c.40753-1.5846,1.48206-5.86365,2.27557-9.03A2.99426,2.99426,0,0,0,24.99841,13.00073ZM5,24V16a1.00115,1.00115,0,0,1,1-1h5V25H6A1.00115,1.00115,0,0,1,5,24Zm21.93591-7.52094c-.793,3.16425-1.86682,7.44043-2.27411,9.024A1.99323,1.99323,0,0,1,22.73059,27a2.11864,2.11864,0,0,1-.249-.01428L12,25.06531V14.99451l3.3338-3.88141.21308-.248.02532-.326.39332-5.05658A2.6365,2.6365,0,0,1,17.50531,5c1.0918,0,2.08606,1.56232,2.08606,3.27777a11.53694,11.53694,0,0,1-.9964,4.29077l-.68445,1.43128L19.497,14l5.50122.00073a1.99431,1.99431,0,0,1,1.93768,2.47833Z"/></svg>