<svg id="Icons" xmlns="http://www.w3.org/2000/svg" viewBox="0 0 32 32"><defs><style>.cls-1{fill:#5514b4;}</style></defs><path class="cls-1" d="M25,12h-.0235a8.97651,8.97651,0,0,0-17.953,0H7a4,4,0,0,0-4,4v2a4,4,0,0,0,4,4H9V12H8.0235a7.97651,7.97651,0,0,1,15.953,0H23V22h.99316v.48828A4.0198,4.0198,0,0,1,19.978,26.50342H18.93036a2.00074,2.00074,0,1,0-.00214,1H19.978a5.0211,5.0211,0,0,0,5.01513-5.01514V22H25a4,4,0,0,0,4-4V16A4,4,0,0,0,25,12ZM8,21H7a3.00344,3.00344,0,0,1-3-3V16a3.0034,3.0034,0,0,1,3-3H8Zm9,7a1,1,0,1,1,1-1A1.00115,1.00115,0,0,1,17,28ZM28,18a3.0034,3.0034,0,0,1-3,3H24V13h1a3.00335,3.00335,0,0,1,3,3Z"/></svg>