<svg id="Icons" xmlns="http://www.w3.org/2000/svg" viewBox="0 0 32 32"><defs><style>.cls-1{fill:#5514b4;}</style></defs><path class="cls-1" d="M22.68445,16.03564l3.1336-3.13855a.49995.49995,0,0,0-.707-.707l-3.13415,3.1391-3.16608-3.16107a.49995.49995,0,0,0-.707.707l3.16663,3.16162-3.14466,3.14954a.49995.49995,0,1,0,.707.707L21.978,16.74323,25.111,19.87134a.49995.49995,0,0,0,.707-.707Z"/><path class="cls-1" d="M13.99652,9.18353l-5.6123,2.80078H4.99164A1.99678,1.99678,0,0,0,2.997,13.97845v4.02637a1.99719,1.99719,0,0,0,1.99463,1.99463H8.38422l5.6123,2.79395a.70251.70251,0,0,0,.311.07324.69584.69584,0,0,0,.69482-.6958V9.80609a.69561.69561,0,0,0-1.00586-.62256Zm.00586,12.49561L8.61957,18.99945H4.99164a.99589.99589,0,0,1-.99463-.99463V13.97845a.99547.99547,0,0,1,.99463-.99414H8.61957l5.38281-2.686Z"/></svg>