<svg id="Icons" xmlns="http://www.w3.org/2000/svg" viewBox="0 0 32 32"><defs><style>.cls-1{fill:#5514b4;}</style></defs><path class="cls-1" d="M25.97947,18.99854H23.50975v-2.4292a1.57583,1.57583,0,0,0-1.57422-1.57422H16.4951V13.93933a5.00009,5.00009,0,1,0-1-.00122v1.057H10.0615a1.57582,1.57582,0,0,0-1.57421,1.57422v2.4292H6.02439A1.01943,1.01943,0,0,0,5.00584,20.0166v5.96387a1.01944,1.01944,0,0,0,1.01855,1.01807h5.96387a1.0186,1.0186,0,0,0,1.01758-1.01807V20.0166a1.01859,1.01859,0,0,0-1.01758-1.01806h-2.501v-2.4292a.57515.57515,0,0,1,.57421-.57422h11.874a.57515.57515,0,0,1,.57422.57422v2.4292H20.01561A1.01859,1.01859,0,0,0,18.998,20.0166v5.96387a1.0186,1.0186,0,0,0,1.01758,1.01807h5.96386A1.01944,1.01944,0,0,0,26.998,25.98047V20.0166A1.01943,1.01943,0,0,0,25.97947,18.99854ZM14.68473,10.12018a2.30626,2.30626,0,0,1-.19134-.96875,2.56212,2.56212,0,0,1,.23346-1.12659,1.85245,1.85245,0,0,1,.63721-.75445,1.60064,1.60064,0,0,1,.91467-.27076,1.80091,1.80091,0,0,1,.63629.09851,1.67233,1.67233,0,0,1,.49078.29615l-.42285.56878a1.08638,1.08638,0,0,0-.355-.21429,1.12473,1.12473,0,0,0-.36645-.06171.9389.9389,0,0,0-.32917.06458.83732.83732,0,0,0-.3186.22534,1.217,1.217,0,0,0-.2392.44489,2.50357,2.50357,0,0,0-.09851.72381,1.11132,1.11132,0,0,1,.44489-.57172,1.19046,1.19046,0,0,1,.62-.17169,1.11788,1.11788,0,0,1,.58844.15784,1.14127,1.14127,0,0,1,.41425.43054,1.25856,1.25856,0,0,1,.15216.62238,1.33594,1.33594,0,0,1-.71857,1.20556,1.58466,1.58466,0,0,1-.76349.18036,1.38887,1.38887,0,0,1-.797-.23108A1.54085,1.54085,0,0,1,14.68473,10.12018Z"/><path class="cls-1" d="M16.47007,10.14264a.57767.57767,0,0,0,.18659-.45062.59889.59889,0,0,0-.18659-.46741.6452.6452,0,0,0-.45062-.16888.59367.59367,0,0,0-.61328.63629.5909.5909,0,0,0,.177.45062.60856.60856,0,0,0,.43628.16888A.643.643,0,0,0,16.47007,10.14264Z"/></svg>