<svg id="Icons" xmlns="http://www.w3.org/2000/svg" viewBox="0 0 32 32"><defs><style>.cls-1{fill:#5514b4;}</style></defs><path class="cls-1" d="M24.70166,7.01794a.49968.49968,0,0,0-.19092-.03845H17.50586a.5.5,0,0,0,0,1h5.79785l-8.15918,8.15918a.49995.49995,0,1,0,.707.707l8.15918-8.15918v5.77393a.5.5,0,1,0,1,0v-6.981a.50171.50171,0,0,0-.30908-.46155Z"/><path class="cls-1" d="M26.85156,3.99072H5.18359A1.20156,1.20156,0,0,0,3.9834,5.19141V26.89062a1.10362,1.10362,0,0,0,1.10254,1.103H26.85156a1.17979,1.17979,0,0,0,1.17871-1.17871V5.16943A1.17979,1.17979,0,0,0,26.85156,3.99072Zm.17871,22.82422a.17891.17891,0,0,1-.17871.17871H5.08594a.10419.10419,0,0,1-.10254-.103V5.19141a.20069.20069,0,0,1,.20019-.20069h21.668a.17888.17888,0,0,1,.17871.17871Z"/></svg>