<svg id="Icons" xmlns="http://www.w3.org/2000/svg" viewBox="0 0 32 32"><defs><style>.cls-1{fill:#5514b4;}</style></defs><path class="cls-1" d="M22.5,20.0227H10.707l3.14649-3.14648a.49995.49995,0,0,0-.707-.707L8.793,20.5227l4.35351,4.35352a.49995.49995,0,1,0,.707-.707L10.707,21.0227H22.5a.5.5,0,0,0,0-1Z"/><path class="cls-1" d="M9.28839,12.0227h11.793l-3.14648,3.14649a.49995.49995,0,1,0,.707.707l4.35351-4.35352L18.64191,7.16919a.49995.49995,0,0,0-.707.707l3.14648,3.14648H9.28839a.5.5,0,0,0,0,1Z"/><path class="cls-1" d="M16,2A14,14,0,1,0,30,16,14,14,0,0,0,16,2Zm0,27A13,13,0,1,1,29,16,13.01474,13.01474,0,0,1,16,29Z"/></svg>