<svg id="Icons" xmlns="http://www.w3.org/2000/svg" viewBox="0 0 32 32"><defs><style>.cls-1{fill:#5514b4;}</style></defs><path class="cls-1" d="M16,8a2,2,0,1,0-2-2A2.002,2.002,0,0,0,16,8Zm0-3a1,1,0,1,1-1,1A1.0013,1.0013,0,0,1,16,5Z"/><path class="cls-1" d="M21,10.98193A1.98426,1.98426,0,0,0,19.01807,9h-6.044A1.97655,1.97655,0,0,0,11,10.97412V18.5a.5.5,0,0,0,1,0V10.97412A.97525.97525,0,0,1,12.97412,10h6.044a1.0054,1.0054,0,0,1,.98632,1.04785l1,7.51807A.49974.49974,0,0,0,21.49951,19a.51119.51119,0,0,0,.06641-.00439.49968.49968,0,0,0,.42969-.56153Z"/><path class="cls-1" d="M13.5,11a.49971.49971,0,0,0-.5.5v16a.5.5,0,0,0,1,0v-16A.49971.49971,0,0,0,13.5,11Z"/><path class="cls-1" d="M18.4502,11.00244a.49993.49993,0,0,0-.44776.54736L18.94727,21H17v6.5a.5.5,0,0,0,1,0V22h2.05225L18.99756,11.4502A.49874.49874,0,0,0,18.4502,11.00244Z"/></svg>