<svg id="Icons" xmlns="http://www.w3.org/2000/svg" viewBox="0 0 32 32"><defs><style>.cls-1{fill:#5514b4;}</style></defs><path class="cls-1" d="M26.84155,16.37024a5.98522,5.98522,0,0,0-7.88678-7.01257A6.98277,6.98277,0,0,0,6.12762,14.30524,5.99675,5.99675,0,0,0,8,26H25a4.98884,4.98884,0,0,0,1.84155-9.62976Zm-13.32007,5.639H13.001a4,4,0,0,1,0-8h1.52734a4.00426,4.00426,0,0,1,4,4,3.95318,3.95318,0,0,1-.39062,1.71924.50035.50035,0,0,1-.90235-.43262,2.94882,2.94882,0,0,0,.293-1.28662,3.00328,3.00328,0,0,0-3-3H13.001a3,3,0,0,0,0,6h.5205a.5.5,0,0,1,0,1ZM18.99121,22H17.49414a4.00427,4.00427,0,0,1-4-4,3.94431,3.94431,0,0,1,.38965-1.71924.50034.50034,0,0,1,.90234.43262A2.9402,2.9402,0,0,0,14.49414,18a3.00328,3.00328,0,0,0,3,3h1.49707a3,3,0,0,0,0-6H18.5a.5.5,0,0,1,0-1h.49121a4,4,0,0,1,0,8Z"/></svg>