<svg id="Icons" xmlns="http://www.w3.org/2000/svg" viewBox="0 0 32 32"><defs><style>.cls-1{fill:#5514b4;}</style></defs><circle class="cls-1" cx="11" cy="12" r="2"/><path class="cls-1" d="M29.8783,21.39124,27.24994,10.87415A6.4173,6.4173,0,0,0,21.00775,6H10.99622A6.41742,6.41742,0,0,0,4.754,10.87415L2.12561,21.39124A3.70177,3.70177,0,0,0,5.73419,25.993a3.66211,3.66211,0,0,0,3.27759-2.02783L12,18h8.00391l2.98828,5.96515A3.66194,3.66194,0,0,0,26.26971,25.993,3.70177,3.70177,0,0,0,29.8783,21.39124ZM11,15a3,3,0,1,1,3-3A3,3,0,0,1,11,15Zm8-1.99817a.99817.99817,0,1,1,.99817-.99817A.99818.99818,0,0,1,19,13.00183Zm2,2a.99817.99817,0,1,1,.99817-.99817A.99818.99818,0,0,1,21,15.00183Zm0-4a.99817.99817,0,1,1,.99817-.99817A.99818.99818,0,0,1,21,11.00183Zm2,2a.99817.99817,0,1,1,.99817-.99817A.99818.99818,0,0,1,23,13.00183Z"/></svg>