<svg id="Icons" xmlns="http://www.w3.org/2000/svg" viewBox="0 0 32 32"><defs><style>.cls-1{fill:#5514b4;}</style></defs><path class="cls-1" d="M26.97656,18.7959a.49995.49995,0,1,0-.707.707,2.49968,2.49968,0,0,1,0,3.53564,2.571,2.571,0,0,1-3.14258.31409l.36328-.3634a1.93679,1.93679,0,0,0,0-2.73682l-8.54834-8.54925a4.9841,4.9841,0,1,0-4.93212,4.311,5.02115,5.02115,0,0,0,.69-.06738l8.54828,8.54785a1.938,1.938,0,0,0,2.7373,0l.42993-.43012a3.49316,3.49316,0,0,0,4.56128-5.26861ZM7.18164,13.84277a4.0009,4.0009,0,1,1,2.82813,1.17139A3.97294,3.97294,0,0,1,7.18164,13.84277ZM19.95508,23.7876,11.8313,15.66437a4.92907,4.92907,0,0,0,2.8291-2.82868l8.1228,8.12378a.93717.93717,0,0,1,0,1.32276L21.27832,23.7876A.93865.93865,0,0,1,19.95508,23.7876Z"/></svg>