<svg id="Icons" xmlns="http://www.w3.org/2000/svg" viewBox="0 0 32 32"><defs><style>.cls-1{fill:#5514b4;}</style></defs><path class="cls-1" d="M16,2.03033a14,14,0,1,0,14,14A14,14,0,0,0,16,2.03033Zm3.50781,8.96674a1.50147,1.50147,0,1,1-1.501,1.50147A1.50331,1.50331,0,0,1,19.50781,10.99707Zm-7.01172-.00781a1.50537,1.50537,0,1,1-1.50488,1.50537A1.50747,1.50747,0,0,1,12.49609,10.98926ZM21.53027,23.9502a.49349.49349,0,0,1-.542-.45459,5.0045,5.0045,0,0,0-9.9668.02685.4999.4999,0,0,1-.49707.459c-.01367,0-.02832-.00049-.042-.00147a.50007.50007,0,0,1-.457-.53955,6.00411,6.00411,0,0,1,11.959-.03174A.49979.49979,0,0,1,21.53027,23.9502Z"/></svg>