<svg id="Icons" xmlns="http://www.w3.org/2000/svg" viewBox="0 0 32 32"><defs><style>.cls-1{fill:#5514b4;}</style></defs><path class="cls-1" d="M16,2A14,14,0,1,0,30,16,14,14,0,0,0,16,2ZM13.74474,28.86475a.50036.50036,0,0,1-.71875-.69629L15.15874,25.969c-.01007-.00067-.029.00806-.03015-.002l-.00159-.02881A9.98437,9.98437,0,0,1,12.8369,6.51709a.50028.50028,0,1,1,.31641.94922,8.98732,8.98732,0,0,0,1.94611,17.47046l-2.04609-2.08716a.50032.50032,0,0,1,.71485-.7002l3.26074,3.32715Zm5.42322-3.394a.49982.49982,0,1,1-.31641-.94824A8.98484,8.98484,0,0,0,16.79509,7.04657L18.86522,9.1582a.50032.50032,0,0,1-.71484.7002L14.88964,6.53125l3.28418-3.38818a.50036.50036,0,0,1,.71875.69629L16.75982,6.03882c.01007.00067.029-.00806.03015.00195l.0003.00556A9.98244,9.98244,0,0,1,19.168,25.4707Z"/></svg>