<svg id="Icons" xmlns="http://www.w3.org/2000/svg" viewBox="0 0 32 32"><defs><style>.cls-1{fill:#5514b4;}</style></defs><path class="cls-1" d="M17.71477,17.1048a2.037,2.037,0,0,0,.61193-.09443c1.07325-.33764,4.00153-2.21508,3.66388-3.28833-.19824-.63012-1.478-.84295-2.7185-.84295a8.37118,8.37118,0,0,0-2.16809.24469,2.018,2.018,0,0,0-.60163.31677L16.517,8.03094a1.405,1.405,0,0,0,1.149-.74652c.36121-.69275.87714-3.05237.18439-3.41351a.44745.44745,0,0,0-.21039-.048c-.76947.00006-2.15436,1.52368-2.48273,2.15356a1.415,1.415,0,0,0,.36054,1.75067l-.007,2.59381a2.07165,2.07165,0,0,0-.42554-.30346,9.66152,9.66152,0,0,0-3.57666-.7779c-.70343.00006-1.2771.13733-1.46893.50531-.53388,1.024,2.08831,3.44684,3.1123,3.98072a2.05245,2.05245,0,0,0,2.35046-.30726l-.01507,6.572h-3.469v6.9972a1.0028,1.0028,0,0,0,1.0028,1.0028h5.99628a1.00092,1.00092,0,0,0,1.00092-1.00091V19.99035h-3.531l.00622-3.3A2.0353,2.0353,0,0,0,17.71477,17.1048Zm-.91913-2.51722a1.03045,1.03045,0,0,1,.60846-.50988,7.54071,7.54071,0,0,1,1.86834-.19861,5.44469,5.44469,0,0,1,1.62989.192,8.185,8.185,0,0,1-2.87574,1.98542,1.03721,1.03721,0,0,1-1.23095-1.46888ZM15.086,12.37591a1.08915,1.08915,0,0,1-.96911.587,1.07751,1.07751,0,0,1-.50263-.124,8.31486,8.31486,0,0,1-2.577-2.56629,2.88075,2.88075,0,0,1,.47168-.033,8.74667,8.74667,0,0,1,3.11408.66461,1.09088,1.09088,0,0,1,.463,1.47168Zm.958-5.93713A5.65381,5.65381,0,0,1,17.18248,5.152a5.65435,5.65435,0,0,1-.40314,1.67.41537.41537,0,0,1-.3689.22327A.40843.40843,0,0,1,16.22,6.99811.41516.41516,0,0,1,16.044,6.43878Z"/></svg>