<svg id="Icons" xmlns="http://www.w3.org/2000/svg" viewBox="0 0 32 32"><defs><style>.cls-1{fill:#5514b4;}</style></defs><path class="cls-1" d="M7.312,24.96643a.49953.49953,0,0,0,.19092.03845h7.00488a.5.5,0,0,0,0-1H8.71l8.15918-8.15918a.49995.49995,0,1,0-.707-.707L8.00293,23.29785V17.52393a.5.5,0,1,0-1,0v6.981a.50171.50171,0,0,0,.30908.46155Z"/><path class="cls-1" d="M5.16211,27.99365h21.668A1.20155,1.20155,0,0,0,28.03027,26.793V5.09375a1.10362,1.10362,0,0,0-1.10254-1.103H5.16211A1.17979,1.17979,0,0,0,3.9834,5.16943V26.81494A1.17979,1.17979,0,0,0,5.16211,27.99365ZM4.9834,5.16943a.17891.17891,0,0,1,.17871-.17871H26.92773a.10418.10418,0,0,1,.10254.103V26.793a.20068.20068,0,0,1-.20019.20068H5.16211a.17888.17888,0,0,1-.17871-.17871Z"/></svg>