<svg id="Icons" xmlns="http://www.w3.org/2000/svg" viewBox="0 0 32 32"><defs><style>.cls-1{fill:#5514b4;}</style></defs><path class="cls-1" d="M26.999,3H18.72011A1.99764,1.99764,0,0,0,16.999,2H5.001A2.00688,2.00688,0,0,0,3,4.001V27.999A2.00688,2.00688,0,0,0,5.001,30H16.999a1.99764,1.99764,0,0,0,1.72107-1H26.999A2.00687,2.00687,0,0,0,29,26.999V5.001A2.00687,2.00687,0,0,0,26.999,3ZM20.5,5h3a.5.5,0,0,1,0,1h-3a.5.5,0,0,1,0-1ZM9,4.5A.49972.49972,0,0,1,9.5,4h3a.5.5,0,0,1,0,1h-3A.49972.49972,0,0,1,9,4.5ZM11,28a1,1,0,1,1,1-1A1,1,0,0,1,11,28Zm11-1a1,1,0,1,1,1-1A1,1,0,0,1,22,27Zm-.18292-7.1651a.49995.49995,0,1,1-.707-.707l3.14648-3.14649h-11.793a.5.5,0,0,1,0-1h11.793L21.11006,11.8349a.49995.49995,0,1,1,.707-.707l4.35352,4.35351Z"/></svg>