<svg id="Icons" xmlns="http://www.w3.org/2000/svg" viewBox="0 0 32 32"><defs><style>.cls-1{fill:#5514b4;}</style></defs><path class="cls-1" d="M16.01007,1.98993a14,14,0,1,0,14,14A14,14,0,0,0,16.01007,1.98993ZM13.794,14.81885a3.92115,3.92115,0,0,1,.6311,1.13476h3.97729a.5.5,0,0,1,0,1H14.58881c0,.00782.00207.01313.002.021A3.22288,3.22288,0,0,1,13.79,19.11426a3.15014,3.15014,0,0,0-.76172,1.84326H19.5a.5.5,0,0,1,0,1H12.00684v-.5a4.26532,4.26532,0,0,1,.98242-2.94336,2.23421,2.23421,0,0,0,.60156-1.54492c.00006-.00592-.00134-.00977-.00134-.01563H12.50684a.5.5,0,0,1,0-1h.84179a4.46648,4.46648,0,0,0-.35547-.53515,4.27122,4.27122,0,0,1-.98632-2.94434c0-2.063,1.64062-3.50391,3.99023-3.50391C18.35352,8.97021,20,10.40576,20,12.46143a.5.5,0,0,1-1,0c0-1.72071-1.50781-2.49122-3.00293-2.49122-1.37988,0-2.99023.65577-2.99023,2.50391A3.28749,3.28749,0,0,0,13.794,14.81885Z"/></svg>