<svg id="Icons" xmlns="http://www.w3.org/2000/svg" viewBox="0 0 32 32"><defs><style>.cls-1{fill:#5514b4;}</style></defs><path class="cls-1" d="M27.999,6H4.001A2.00687,2.00687,0,0,0,2,8.001V22.999A2.00687,2.00687,0,0,0,4.001,25H6.293L4.64649,26.64648a.49995.49995,0,1,0,.707.707L7.707,25H24.293l2.35352,2.35352a.49995.49995,0,1,0,.707-.707L25.707,25h2.292A2.00687,2.00687,0,0,0,30,22.999V8.001A2.00687,2.00687,0,0,0,27.999,6ZM29,22.999A1.00211,1.00211,0,0,1,27.999,24H4.001A1.00212,1.00212,0,0,1,3,22.999V8.001A1.00212,1.00212,0,0,1,4.001,7H27.999A1.00211,1.00211,0,0,1,29,8.001Z"/></svg>