<svg id="Icons" xmlns="http://www.w3.org/2000/svg" viewBox="0 0 32 32"><defs><style>.cls-1{fill:#5514b4;}</style></defs><path class="cls-1" d="M14.53662,14.44573v0Zm-.5625-.40577-.00683.00391Zm-.86426-2.82226-.0039.00049Zm.20752-.66065.00244.00245ZM16.395,8.77727l-.00342.00732Z"/><path class="cls-1" d="M23.50391,11.50238A7.5,7.5,0,1,0,12,17.83325v8.674a.49993.49993,0,0,0,.74707.43457l3.27-1.85888L19.251,26.94086a.50012.50012,0,0,0,.749-.4336V17.838A7.49413,7.49413,0,0,0,23.50391,11.50238Zm-7.5,6.5a6.5,6.5,0,1,1,6.5-6.5A6.50753,6.50753,0,0,1,16.00391,18.00238Z"/></svg>