<svg id="Icons" xmlns="http://www.w3.org/2000/svg" viewBox="0 0 32 32"><defs><style>.cls-1{fill:#5514b4;}</style></defs><path class="cls-1" d="M23.01367,4.01416a3,3,0,1,0,3,3A3.00328,3.00328,0,0,0,23.01367,4.01416Zm0,5a2,2,0,1,1,2-2A2.00229,2.00229,0,0,1,23.01367,9.01416Z"/><path class="cls-1" d="M21.53418,16.98633h-4.7356c-.01416-.02039-.03015-.03925-.04443-.05945a.47269.47269,0,0,0,.07886-.05237l3.52734-3.52783a2.16077,2.16077,0,0,0,0-3.05762L16.085,6.01416a2.03148,2.03148,0,0,0-2.80566,0L10.39648,8.89648a1.56061,1.56061,0,0,0,2.207,2.207l2.08105-2.08106.86914.86914L11.4873,13.97314l-.00036.00055c-.15418-.01013-.30774-.02349-.46448-.02349a7.086,7.086,0,1,0,6.94959,6.05029h2.03479v5.55029a1.50314,1.50314,0,0,0,3.00586,0V18.46436A1.47986,1.47986,0,0,0,21.53418,16.98633ZM16.96582,9.89062,14.68457,7.6084l-2.78809,2.78808a.56071.56071,0,0,1-.793-.793l2.88281-2.88233a1.008,1.008,0,0,1,1.3916,0l4.27539,4.2749a1.16114,1.16114,0,0,1,0,1.64356l-3.52466,3.52521a7.019,7.019,0,0,0-3.41882-2.00129ZM11.02246,27.00049a6.02515,6.02515,0,1,1,6.02539-6.0249A6.03115,6.03115,0,0,1,11.02246,27.00049ZM22.0127,25.55078a.49206.49206,0,0,1-.52832.478.478.478,0,0,1-.47754-.478V19.00049H17.76025a6.95943,6.95943,0,0,0-.3894-1.01416h4.16333a.47888.47888,0,0,1,.47852.478Z"/></svg>