<svg id="Icons" xmlns="http://www.w3.org/2000/svg" viewBox="0 0 32 32"><defs><style>.cls-1{fill:#5514b4;}</style></defs><path class="cls-1" d="M26.93848,7H19.5946c.05842-.05341.11933-.10156.17591-.1582,1.22656-1.22657,1.58691-2.71582.83887-3.46387a1.63273,1.63273,0,0,0-1.70313-.27637A4.39216,4.39216,0,0,0,17.14551,4.2168a4.40577,4.40577,0,0,0-1.11524,1.76025c-.0177.05829-.02044.11115-.03393.168A4.20248,4.20248,0,0,0,14.834,4.2168a4.392,4.392,0,0,0-1.76074-1.11524,1.63922,1.63922,0,0,0-1.70312.27588,1.63786,1.63786,0,0,0-.27637,1.7041A4.406,4.406,0,0,0,12.209,6.8418c.05658.05658.11762.10479.176.1582H5.06152A1.06277,1.06277,0,0,0,4,8.061V27.939A1.06277,1.06277,0,0,0,5.06152,29H17.47223l.52582.00244V29h8.94043A1.06277,1.06277,0,0,0,28,27.939V8.061A1.06277,1.06277,0,0,0,26.93848,7Zm.02777,12.002h-9.9682v8.9704L15.002,27.9668V18.9873l-9.97436.0141.00616-2.002,9.9682-.01361V8.02148h1.9961V17h9.97436ZM16.98633,6.26807a3.46124,3.46124,0,0,1,.86621-1.34424,3.443,3.443,0,0,1,1.34473-.86572,1.39952,1.39952,0,0,1,.39746-.06641.43333.43333,0,0,1,.30761.09326c.24121.24121.0293,1.18164-.83886,2.04981a3.44306,3.44306,0,0,1-1.34473.86572c-.32031.09765-.5918.08789-.70508-.02735A.76606.76606,0,0,1,16.98633,6.26807ZM12.0498,4.79053a.76737.76737,0,0,1,.02735-.70557.43334.43334,0,0,1,.30762-.09326,1.39963,1.39963,0,0,1,.39746.06641,3.443,3.443,0,0,1,1.34472.86572c.86817.86816,1.08008,1.80859.83887,2.0498a.77023.77023,0,0,1-.70605.02686A3.44007,3.44007,0,0,1,12.916,6.13477,3.46122,3.46122,0,0,1,12.0498,4.79053ZM5.06152,8H14.002v7.98682l-8.96508.01226ZM5,27.939l.02448-7.938,8.97747-.0127V27.964ZM26.93848,28l-8.94043-.0249V20.002h8.96508ZM17.99805,16V8.00055L27,8.061,26.97552,16Z"/></svg>