<svg id="Icons" xmlns="http://www.w3.org/2000/svg" viewBox="0 0 32 32"><defs><style>.cls-1{fill:#5514b4;}</style></defs><path class="cls-1" d="M27.25928,7.9917H13.00049v-.061A1.95384,1.95384,0,0,0,11.04883,5.979H8.999V3.5a.5.5,0,0,0-1,0V5.979H7.95215A1.95384,1.95384,0,0,0,6.00049,7.93066v.061H4.74854A1.74629,1.74629,0,0,0,3.00439,9.73633V24.23a1.74629,1.74629,0,0,0,1.74415,1.74463H27.25928A1.74671,1.74671,0,0,0,29.00391,24.23V9.73633A1.74671,1.74671,0,0,0,27.25928,7.9917Zm-20.25879-.061A.95254.95254,0,0,1,7.95215,6.979h3.09668a.95254.95254,0,0,1,.95166.95166V21.02734a.95253.95253,0,0,1-.95166.95166H7.95215a.95253.95253,0,0,1-.95166-.95166ZM28.00391,24.23a.74541.74541,0,0,1-.74463.74463H4.74854A.74531.74531,0,0,1,4.00439,24.23V9.73633a.7453.7453,0,0,1,.74415-.74463H6.00049V21.02734A1.95384,1.95384,0,0,0,7.95215,22.979h3.09668a1.95384,1.95384,0,0,0,1.95166-1.95166V8.9917H27.25928a.7454.7454,0,0,1,.74463.74463Z"/><path class="cls-1" d="M20.99365,11.00781H20.002a1.00672,1.00672,0,0,0-1.00537,1.00537v.98633A1.0063,1.0063,0,0,0,20.002,14.00439h.9917A1.0063,1.0063,0,0,0,21.999,12.99951v-.98633A1.00672,1.00672,0,0,0,20.99365,11.00781Zm.00537,1.9917-.00537.00488-.99707-.00488.00537-.9917.99707.00537Z"/><path class="cls-1" d="M16.99707,11.00488h-.9917A1.00672,1.00672,0,0,0,15,12.01025v.98633a1.0063,1.0063,0,0,0,1.00537,1.00488h.9917a1.0063,1.0063,0,0,0,1.00537-1.00488v-.98633A1.00672,1.00672,0,0,0,16.99707,11.00488Zm.00537,1.9917-.00537.00488L16,12.99658l.00537-.9917.99707.00537Z"/><path class="cls-1" d="M24.99414,11.00781h-.9917a1.00672,1.00672,0,0,0-1.00537,1.00537v.98633a1.0063,1.0063,0,0,0,1.00537,1.00488h.9917a1.0063,1.0063,0,0,0,1.00537-1.00488v-.98633A1.00672,1.00672,0,0,0,24.99414,11.00781Zm.00537,1.9917-.00537.00488-.99707-.00488.00537-.9917.99707.00537Z"/><path class="cls-1" d="M20.99365,15.00293H20.002a1.00672,1.00672,0,0,0-1.00537,1.00537v.98633A1.0063,1.0063,0,0,0,20.002,17.99951h.9917A1.0063,1.0063,0,0,0,21.999,16.99463V16.0083A1.00672,1.00672,0,0,0,20.99365,15.00293Zm.00537,1.9917-.00537.00488-.99707-.00488.00537-.9917.99707.00537Z"/><path class="cls-1" d="M16.99414,15.00293h-.9917a1.00672,1.00672,0,0,0-1.00537,1.00537v.98633a1.0063,1.0063,0,0,0,1.00537,1.00488h.9917a1.0063,1.0063,0,0,0,1.00537-1.00488V16.0083A1.00672,1.00672,0,0,0,16.99414,15.00293Zm.00537,1.9917-.00537.00488-.99707-.00488.00537-.9917.99707.00537Z"/><path class="cls-1" d="M24.99414,15.00293h-.9917a1.00672,1.00672,0,0,0-1.00537,1.00537v.98633a1.0063,1.0063,0,0,0,1.00537,1.00488h.9917a1.0063,1.0063,0,0,0,1.00537-1.00488V16.0083A1.00672,1.00672,0,0,0,24.99414,15.00293Zm.00537,1.9917-.00537.00488-.99707-.00488.00537-.9917.99707.00537Z"/><path class="cls-1" d="M20.99365,19.00293H20.002a1.00672,1.00672,0,0,0-1.00537,1.00537v.98633A1.0063,1.0063,0,0,0,20.002,21.99951h.9917A1.0063,1.0063,0,0,0,21.999,20.99463V20.0083A1.00672,1.00672,0,0,0,20.99365,19.00293Zm.00537,1.9917-.00537.00488-.99707-.00488.00537-.9917.99707.00537Z"/><path class="cls-1" d="M16.99414,19.00293h-.9917a1.00672,1.00672,0,0,0-1.00537,1.00537v.98633a1.0063,1.0063,0,0,0,1.00537,1.00488h.9917a1.0063,1.0063,0,0,0,1.00537-1.00488V20.0083A1.00672,1.00672,0,0,0,16.99414,19.00293Zm.00537,1.9917-.00537.00488-.99707-.00488.00537-.9917.99707.00537Z"/><path class="cls-1" d="M24.99414,19.00293h-.9917a1.00672,1.00672,0,0,0-1.00537,1.00537v.98633a1.0063,1.0063,0,0,0,1.00537,1.00488h.9917a1.0063,1.0063,0,0,0,1.00537-1.00488V20.0083A1.00672,1.00672,0,0,0,24.99414,19.00293Zm.00537,1.9917-.00537.00488-.99707-.00488.00537-.9917.99707.00537Z"/></svg>