<svg id="Icons" xmlns="http://www.w3.org/2000/svg" viewBox="0 0 32 32"><defs><style>.cls-1{fill:#5514b4;}</style></defs><path class="cls-1" d="M24.02441,4H20V3.97607A.97692.97692,0,0,0,19.02441,3H12.97559A.97692.97692,0,0,0,12,3.97607V4H7.97559A.97692.97692,0,0,0,7,4.97607V28.02393A.97692.97692,0,0,0,7.97559,29H24.02441A.97692.97692,0,0,0,25,28.02393V4.97607A.97692.97692,0,0,0,24.02441,4ZM19,3.97607V5l-6,.02393L12.97559,4ZM8,28.02393,7.97559,5H12v.02393A.97692.97692,0,0,0,12.97559,6h6.04882A.97692.97692,0,0,0,20,5.02393V4.99768l4-.02161L24.02441,28Z"/></svg>