<svg id="Icons" xmlns="http://www.w3.org/2000/svg" viewBox="0 0 32 32"><defs><style>.cls-1{fill:#5514b4;}</style></defs><path class="cls-1" d="M16,2A14,14,0,1,0,30,16,14,14,0,0,0,16,2Zm8.83887,12.23224-10.253,10.25305a5.00005,5.00005,0,0,1-7.07117-7.07111L18.47485,6.454a3.5,3.5,0,1,1,4.94971,4.94977L13.17163,21.65686a2,2,0,1,1-2.82849-2.82843l9.546-9.546a.5.5,0,0,1,.707.70709l-9.5459,9.546a1,1,0,1,0,1.41419,1.41425L22.71753,10.69672A2.5,2.5,0,1,0,19.182,7.16119L8.2218,18.12134a4,4,0,1,0,5.65686,5.65686l10.25305-10.253a.5.5,0,0,1,.70716.70709Z"/></svg>