<svg id="Icons" xmlns="http://www.w3.org/2000/svg" viewBox="0 0 32 32"><defs><style>.cls-1{fill:#5514b4;}</style></defs><path class="cls-1" d="M27.47754,17.0127h-.76032a5.84942,5.84942,0,0,0-3.36279-3.39991,3.49759,3.49759,0,1,0-5.59912-.06292,6.55532,6.55532,0,0,0-2.37744,1.6109,7.04961,7.04961,0,0,0-1.0987-.57819A3.5,3.5,0,1,0,8.682,14.58246,6.19057,6.19057,0,0,0,5.72552,17.0127h-1.228a1.506,1.506,0,0,0-1.5044,1.50439v1.99658a.5.5,0,0,0,1,0V18.51709a.50472.50472,0,0,1,.5044-.50439h.74213A4.79253,4.79253,0,0,0,4.98047,19.564v.43946a.99933.99933,0,0,0,1,.99658h11a.99933.99933,0,0,0,1-.99658V19.564a4.7928,4.7928,0,0,0-.25922-1.55126h9.75629a.50513.50513,0,0,1,.50488.50439v1.99658a.5.5,0,0,0,1,0V18.51709A1.50643,1.50643,0,0,0,27.47754,17.0127ZM20.58087,9a2.5,2.5,0,1,1-2.5,2.5A2.50282,2.50282,0,0,1,20.58087,9Zm-9.10022,1a2.5,2.5,0,1,1-2.5,2.5A2.50282,2.50282,0,0,1,11.48065,10Zm5.49982,10-11,.00342V19.564A4.61584,4.61584,0,0,1,9.168,15.45752l.28619-.11273a3.4614,3.4614,0,0,0,4.05286.00006l.28595.11267a4.61586,4.61586,0,0,1,3.1875,4.10644Zm-.79431-4.23169a5.78553,5.78553,0,0,1,1.9859-1.31079l.35126-.13837a3.46282,3.46282,0,0,0,4.05285.05133l.22089.087a5.17921,5.17921,0,0,1,2.84942,2.55518H17.23541A5.573,5.573,0,0,0,16.18616,15.76831Z"/></svg>