<svg id="Icons" xmlns="http://www.w3.org/2000/svg" viewBox="0 0 32 32"><defs><style>.cls-1{fill:#5514b4;}</style></defs><path class="cls-1" d="M26.5144,12H24.54174v-.5332a.5.5,0,1,0-1,0V12h-3V10.51074a.5.5,0,0,0-1,0V12h-3.019V9.46777a.5.5,0,0,0-1,0V12H12.52465V8.48975a.5.5,0,1,0-1,0V12H8.47387V7.5a.5.5,0,0,0-1,0V12H5.5144a.5.5,0,0,0,0,1H7.47387v4.5a.5.5,0,0,0,1,0V13h3.05078v3.48633a.5.5,0,0,0,1,0V13H15.5227V26.5a.5.5,0,0,0,1,0V13h3.019v1.46533a.5.5,0,0,0,1,0V13h3v.50928a.5.5,0,0,0,1,0V13H26.5144a.5.5,0,0,0,0-1Z"/></svg>