<svg id="Icons" xmlns="http://www.w3.org/2000/svg" viewBox="0 0 32 32"><defs><style>.cls-1{fill:#5514b4;}</style></defs><path class="cls-1" d="M13.68152,19.431H11.118V19.4295a.49481.49481,0,0,1-.49414-.49462.51208.51208,0,0,1,.085-.27832l.89795-1.54413,1.1499.66961a.75514.75514,0,0,0,.377.10157c.41308,0,.84106-.43543.749-.74952L12.161,11.79327a.91344.91344,0,0,0-.87793-.66943l-5.69336.99121a.74687.74687,0,0,0-.61816.73731.75554.75554,0,0,0,.37109.64746l1.593.9209-1.553,2.70214a2.2696,2.2696,0,0,0-.21582,1.43946,2.10211,2.10211,0,0,0,.30762.78418l2.02539,3.69433a2.84232,2.84232,0,0,0,2.43945,1.39453h3.74219a.76676.76676,0,0,0,.7666-.76562V20.19659A.76676.76676,0,0,0,13.68152,19.431Zm-7.33789-.57813L6.23816,18.66l-.00293.00147a1.066,1.066,0,0,1-.083-.26953,1.2736,1.2736,0,0,1,.1084-.79151l1.54077-2.6792.50037-.866L6.44226,12.9798l4.77832-.84522,1.4834,4.46094L11.236,15.739l-1.38257,2.4A1.45674,1.45674,0,0,0,9.715,19.431H7.49207A1.40587,1.40587,0,0,1,6.34363,18.85284Zm7.10449,4.58252H9.93933A1.83372,1.83372,0,0,1,8.369,22.54669L7.1991,20.41339a2.43217,2.43217,0,0,0,.293.01758h5.956Z"/><path class="cls-1" d="M16.77368,8.123a.5119.5119,0,0,1,.20276.20868l.91931,1.53155-1.14136.68414a.7541.7541,0,0,0-.27075.28119c-.19946.36182-.02441.94678.295,1.01764L22.28735,12.915a.9135.9135,0,0,0,1.01-.446L25.176,7.00385a.74687.74687,0,0,0-.34754-.89716.75565.75565,0,0,0-.74621.01263l-1.5752.951-1.61755-2.664a2.2698,2.2698,0,0,0-1.15662-.88348,2.1028,2.1028,0,0,0-.83533-.10895l-4.21313-.00836A2.84235,2.84235,0,0,0,12.286,4.86951L10.48047,8.14734a.76685.76685,0,0,0,.30078,1.04089l3.04224,1.67566a.76667.76667,0,0,0,1.0404-.30206l1.23682-2.24536.00134.00067A.49471.49471,0,0,1,16.77368,8.123Zm2.137-3.7096.21973.00073.00025-.00329a1.06835,1.06835,0,0,1,.27612.05731,1.27311,1.27311,0,0,1,.64087.47687l1.60351,2.64221.51709.85608,1.83911-1.10993-1.56518,4.5932-4.623-.853,1.45862-.87256-1.43518-2.369a1.45692,1.45692,0,0,0-1.06494-.74463l1.07251-1.947A1.406,1.406,0,0,1,18.91064,4.41339ZM14.10059,9.87494,11.469,8.42542,13.16187,5.352A1.83416,1.83416,0,0,1,14.698,4.40527l2.433.00452a2.39639,2.39639,0,0,0-.15674.24817Z"/><path class="cls-1" d="M28.6311,16.85394l-1.85131-3.25219a.76684.76684,0,0,0-1.04468-.28742L22.7168,15.03247a.76675.76675,0,0,0-.28614,1.045l1.26807,2.22785-.00122.00073a.49494.49494,0,0,1-.1853.67413.51252.51252,0,0,1-.28394.06385l-1.78613-.01648.01294-1.33063a.755.755,0,0,0-.09815-.37781c-.20434-.359-.79443-.5155-1.022-.28015l-3.78979,4.13837a.9135.9135,0,0,0-.14746,1.09417l3.678,4.45746a.74694.74694,0,0,0,.94666.17249.7553.7553,0,0,0,.379-.64276l.0122-1.84,3.1167.01288a2.26908,2.26908,0,0,0,1.35767-.5246,2.101,2.101,0,0,0,.5293-.65527L28.626,19.66388A2.84294,2.84294,0,0,0,28.6311,16.85394Zm-3.07275,5.8866-.11548.18707.00269.00183a1.06447,1.06447,0,0,1-.19312.20551,1.27358,1.27358,0,0,1-.74145.2973l-3.09058-.01355-1.00024-.00647-.01465,2.148-3.09839-3.7345,3.14294-3.496-.01819,1.69959,2.76978.01422a1.45671,1.45671,0,0,0,1.19128-.51886l1.09974,1.93182A1.40608,1.40608,0,0,1,25.55835,22.74054ZM27.7666,19.153,26.49133,21.2251a2.43635,2.43635,0,0,0-.12976-.26331l-2.94641-5.17621,2.611-1.48626L27.762,17.34863A1.834,1.834,0,0,1,27.7666,19.153Z"/></svg>