<svg id="Icons" xmlns="http://www.w3.org/2000/svg" viewBox="0 0 32 32"><defs><style>.cls-1{fill:#5514b4;}</style></defs><path class="cls-1" d="M24.54,28.98633a.50164.50164,0,0,1-.23633-.05908l-8.19629-4.38819-8.27734,4.3628a.4999.4999,0,0,1-.72656-.52247l1.498-9.23193L2.27148,12.87012a.50035.50035,0,0,1,.27442-.84864l9.11816-1.44531,3.96778-8.25A.49847.49847,0,0,1,16.082,2.043h.001a.49922.49922,0,0,1,.45019.28515l3.91407,8.2212,9.14453,1.47216a.50034.50034,0,0,1,.27734.84424L23.64062,19.2002l1.39356,9.21142a.49967.49967,0,0,1-.49414.57471Z"/></svg>