<svg id="Icons" xmlns="http://www.w3.org/2000/svg" viewBox="0 0 32 32"><defs><style>.cls-1{fill:#5514b4;}</style></defs><circle class="cls-1" cx="16" cy="6" r="1"/><path class="cls-1" d="M16,2A14,14,0,1,0,30,16,14,14,0,0,0,16,2Zm0,2a2,2,0,1,1-2,2A2.002,2.002,0,0,1,16,4ZM14,27.5a.5.5,0,0,1-1,0v-16a.5.5,0,0,1,1,0Zm5,0a.5.5,0,0,1-1,0v-16a.5.5,0,0,1,1,0Zm2-9a.5.5,0,0,1-1,0V10.98193A.983.983,0,0,0,19.01807,10h-6.044A.97525.97525,0,0,0,12,10.97412V18.5a.5.5,0,0,1-1,0V10.97412A1.97655,1.97655,0,0,1,12.97412,9h6.044A1.98426,1.98426,0,0,1,21,10.98193Z"/></svg>