<svg id="Icons" xmlns="http://www.w3.org/2000/svg" viewBox="0 0 32 32"><defs><style>.cls-1{fill:#5514b4;}</style></defs><path class="cls-1" d="M8.51194,5.0047a.5.5,0,0,0,.5-.5c0-.27612-.22388-1.5047-.5-1.5047-.26349,0-.5,1.22858-.5,1.5047A.5.5,0,0,0,8.51194,5.0047Z"/><path class="cls-1" d="M27.006,12.01h-2.994V6.5a.5.5,0,0,0-1,0v5.51H19.03171V6.5a.5.5,0,0,0-1,0v5.51H14.01194V6.5a.5.5,0,0,0-1,0v5.51h-4V6.5a.5.5,0,0,0-1,0v5.51H5.006a1.003,1.003,0,0,0-1,1V26.01288a1.003,1.003,0,0,0,1,1h22a1.003,1.003,0,0,0,1-1V13.01A1.003,1.003,0,0,0,27.006,12.01Zm-.785,7.99a1.78766,1.78766,0,0,1-1.77148-1.79907l-.00293-.36969a.7715.7715,0,0,0-1.543-.004l-.02149.403a1.77159,1.77159,0,1,1-3.543-.02929l-.001-.37226a.772.772,0,0,0-1.54395-.00146l-.02148.403a1.77111,1.77111,0,1,1-3.542-.02929l.002-.37677a.772.772,0,0,0-1.544.00305l-.02148.403a1.77111,1.77111,0,1,1-3.542-.02929l.00195-.37677a.772.772,0,0,0-1.54395.00305l-.02148.403a1.77111,1.77111,0,1,1-3.542-.02929.50029.50029,0,1,1,1,0,.77152.77152,0,0,0,1.543,0l.02148-.403a1.77159,1.77159,0,1,1,3.543.0293l-.00195.37677a.77153.77153,0,0,0,1.543-.00305l.02148-.403a1.77159,1.77159,0,1,1,3.543.0293l-.002.37677a.77153.77153,0,0,0,1.543-.00305l.02149-.403a1.77159,1.77159,0,1,1,3.543.0293l.001.37219a.772.772,0,0,0,1.544.00153l.02148-.403a1.77111,1.77111,0,1,1,3.542.0293l.00293.36969a.7715.7715,0,0,0,1.543.004.50029.50029,0,1,1,1,0A1.78766,1.78766,0,0,1,26.22092,20Z"/><path class="cls-1" d="M13.51194,5.0047a.5.5,0,0,0,.5-.5c0-.27612-.22388-1.5047-.5-1.5047-.26349,0-.5,1.22858-.5,1.5047A.5.5,0,0,0,13.51194,5.0047Z"/><path class="cls-1" d="M18.51194,5.0047a.5.5,0,0,0,.5-.5c0-.27612-.22388-1.5047-.5-1.5047-.26349,0-.5,1.22858-.5,1.5047A.5.5,0,0,0,18.51194,5.0047Z"/><path class="cls-1" d="M23.51194,5.0047a.5.5,0,0,0,.5-.5c0-.27612-.22388-1.5047-.5-1.5047-.26349,0-.5,1.22858-.5,1.5047A.5.5,0,0,0,23.51194,5.0047Z"/></svg>