<svg id="Icons" xmlns="http://www.w3.org/2000/svg" viewBox="0 0 32 32"><defs><style>.cls-1{fill:#5514b4;}</style></defs><path class="cls-1" d="M27.03571,20.26642a3.28444,3.28444,0,1,0-5.21186-.00012c-.17907.08447-.35248.17407-.51843.27325a9.67149,9.67149,0,0,0-5.13574-4.63092,5.80835,5.80835,0,1,0-8.22412.00366C4.285,17.39514,2.01318,20.45764,2.01318,23.97363V25a1.001,1.001,0,0,0,1,1H28.98824a1.001,1.001,0,0,0,1-1v-.32129A4.8925,4.8925,0,0,0,27.03571,20.26642Zm-2.6059-4.26319a2.28437,2.28437,0,1,1-2.28436,2.28437A2.28694,2.28694,0,0,1,24.42981,16.00323ZM12.056,7a4.8085,4.8085,0,1,1-4.80853,4.80853A4.814,4.814,0,0,1,12.056,7Z"/></svg>