<svg id="Icons" xmlns="http://www.w3.org/2000/svg" viewBox="0 0 32 32"><defs><style>.cls-1{fill:#5514b4;}</style></defs><path class="cls-1" d="M9.5,7h3a.5.5,0,0,0,0-1h-3a.5.5,0,0,0,0,1Z"/><path class="cls-1" d="M26.093,14H18.0144V5.97754A1.97989,1.97989,0,0,0,16.03687,4H5.99194A1.97989,1.97989,0,0,0,4.0144,5.97754V26.02246A1.97989,1.97989,0,0,0,5.99194,28H26.093A3.95794,3.95794,0,0,0,30,24.0155v-6.031A3.95791,3.95791,0,0,0,26.093,14ZM5.99194,27a.97859.97859,0,0,1-.97754-.97754V5.97754A.97859.97859,0,0,1,5.99194,5H16.03687a.97858.97858,0,0,1,.97753.97754V14H11.907A3.95792,3.95792,0,0,0,8,17.9845v6.031A3.99421,3.99421,0,0,0,9.35,27ZM29,24.0155A2.94987,2.94987,0,0,1,26.093,27H11.907A2.94988,2.94988,0,0,1,9,24.0155v-6.031A2.94984,2.94984,0,0,1,11.907,15H26.093A2.94983,2.94983,0,0,1,29,17.9845Z"/><path class="cls-1" d="M19,17a4,4,0,1,0,4,4A4,4,0,0,0,19,17Zm0,7a3,3,0,1,1,3-3A3.00344,3.00344,0,0,1,19,24Z"/></svg>