<svg id="Icons" xmlns="http://www.w3.org/2000/svg" viewBox="0 0 32 32"><defs><style>.cls-1{fill:#5514b4;}</style></defs><path class="cls-1" d="M15.98639,4.54285,6.99518,6.66638v7.87891c0,8.04883,8.147,12.5,9,12.5s9-4.45117,9-12.49951l.00537-7.89112Zm8.00879,10.00244c0,7.03467-6.999,11.11719-8,11.48486-1.001-.36767-8-4.45019-8-11.48486V7.4574l7.99219-1.88721,8.0122,1.87744Z"/><path class="cls-1" d="M15.5061,12.01416v2.5h-2.5a.5.5,0,0,0,0,1h2.5v2.5a.5.5,0,0,0,1,0v-2.5h2.5a.5.5,0,0,0,0-1h-2.5v-2.5a.5.5,0,0,0-1,0Z"/></svg>