<svg id="Icons" xmlns="http://www.w3.org/2000/svg" viewBox="0 0 32 32"><defs><style>.cls-1{fill:#5514b4;}</style></defs><circle class="cls-1" cx="17.4978" cy="11.49084" r="1.48364"/><path class="cls-1" d="M20.99512,15.88965a2.82074,2.82074,0,0,0-1.92127-2.494,2.43521,2.43521,0,0,1-3.15228-.00012A2.82143,2.82143,0,0,0,14,15.88965V16h6.99512Z"/><path class="cls-1" d="M23.985,4H6.0022A1.00219,1.00219,0,0,0,5,5.00214V26.93707A1.06293,1.06293,0,0,0,6.06293,28H24.01025A2.98975,2.98975,0,0,0,27,25.01025V7.015A3.015,3.015,0,0,0,23.985,4ZM13,15.88965a3.70767,3.70767,0,0,1,2.28278-3.29675,2.45759,2.45759,0,0,1-.26862-1.10206,2.48365,2.48365,0,0,1,4.96729,0,2.45736,2.45736,0,0,1-.26868,1.10218,3.70735,3.70735,0,0,1,2.28235,3.29663v.28662A.82626.82626,0,0,1,21.169,17H13.82617A.82626.82626,0,0,1,13,16.17627ZM8.99707,27h-1V5h1Zm11.24121-4.98682H14.24219a.5.5,0,0,1,0-1h5.99609a.5.5,0,0,1,0,1Zm2.25-2.0083H11.99316a.5.5,0,0,1,0-1H22.48828a.5.5,0,1,1,0,1Z"/></svg>