<svg id="Icons" xmlns="http://www.w3.org/2000/svg" viewBox="0 0 32 32"><defs><style>.cls-1{fill:#5514b4;}</style></defs><path class="cls-1" d="M5.16211,27.99365h21.668A1.20155,1.20155,0,0,0,28.03027,26.793V5.09375a1.10362,1.10362,0,0,0-1.10254-1.103H5.16211A1.17979,1.17979,0,0,0,3.9834,5.16943V26.81494A1.17979,1.17979,0,0,0,5.16211,27.99365ZM7.00293,17.52393a.5.5,0,1,1,1,0v5.77392l8.15918-8.15918a.49995.49995,0,1,1,.707.707L8.71,24.00488h5.79785a.5.5,0,0,1,0,1H7.50293a.50171.50171,0,0,1-.5-.5Z"/></svg>