<svg id="Icons" xmlns="http://www.w3.org/2000/svg" viewBox="0 0 32 32"><defs><style>.cls-1{fill:#5514b4;}</style></defs><path class="cls-1" d="M15.95619,28.02771a8.01156,8.01156,0,0,1-8.00293-8.00244L7.96693,7.49255a2.4961,2.4961,0,0,1,4.99219.00049l.00781,12.51123A2.9971,2.9971,0,1,0,15.964,17.0199h-.498a.5.5,0,0,1,0-1h.498a3.99073,3.99073,0,1,1-3.99708,3.98486L11.95912,7.49353A1.4961,1.4961,0,0,0,8.96693,7.493L8.95326,20.02576a7.00293,7.00293,0,1,0,7.00293-7.00342h-.48828a.5.5,0,0,1,0-1h.48828a8.00269,8.00269,0,1,1,0,16.00537Z"/></svg>