<svg id="Icons" xmlns="http://www.w3.org/2000/svg" viewBox="0 0 32 32"><defs><style>.cls-1{fill:#5514b4;}</style></defs><path class="cls-1" d="M16,7c7.16821,0,13,4.03735,13,9a7.787,7.787,0,0,1-3.58939,6.1842L25,22.48383v.50824l-.00006,4.00274L20.46515,24.687l-.31577-.1607-.34649.074A18.2585,18.2585,0,0,1,16,25C8.83179,25,3,20.96265,3,16S8.83179,7,16,7m0-1C8.268,6,2,10.47717,2,16S8.268,26,16,26a19.22614,19.22614,0,0,0,4.0116-.42175l4.61349,2.34784A.998.998,0,0,0,26,26.999v-4.007A8.78851,8.78851,0,0,0,30,16c0-5.52283-6.268-10-14-10Z"/></svg>