<svg id="Icons" xmlns="http://www.w3.org/2000/svg" viewBox="0 0 32 32"><defs><style>.cls-1{fill:#5514b4;}</style></defs><path class="cls-1" d="M12.47235,2.028h-9a1.50164,1.50164,0,0,0-1.5,1.5V4.53479a1.50164,1.50164,0,0,0,1.5,1.5h9a1.50164,1.50164,0,0,0,1.5-1.5V3.528A1.50164,1.50164,0,0,0,12.47235,2.028Zm.5,2.50684a.50034.50034,0,0,1-.5.5h-9a.50034.50034,0,0,1-.5-.5V3.528a.50034.50034,0,0,1,.5-.5h9a.50034.50034,0,0,1,.5.5Z"/><path class="cls-1" d="M28.5163,2.028h-9a1.50164,1.50164,0,0,0-1.5,1.5V4.53479a1.50164,1.50164,0,0,0,1.5,1.5h9a1.50164,1.50164,0,0,0,1.5-1.5V3.528A1.50165,1.50165,0,0,0,28.5163,2.028Zm.5,2.50684a.50065.50065,0,0,1-.5.5h-9a.50065.50065,0,0,1-.5-.5V3.528a.50066.50066,0,0,1,.5-.5h9a.50066.50066,0,0,1,.5.5Z"/><path class="cls-1" d="M12.47235,10.05139h-9a1.50164,1.50164,0,0,0-1.5,1.5v1.002a1.50164,1.50164,0,0,0,1.5,1.5h9a1.50164,1.50164,0,0,0,1.5-1.5v-1.002A1.50164,1.50164,0,0,0,12.47235,10.05139Zm.5,2.502a.50034.50034,0,0,1-.5.5h-9a.50034.50034,0,0,1-.5-.5v-1.002a.50034.50034,0,0,1,.5-.5h9a.50034.50034,0,0,1,.5.5Z"/><path class="cls-1" d="M28.5163,10.05139h-9a1.50164,1.50164,0,0,0-1.5,1.5v1.002a1.50164,1.50164,0,0,0,1.5,1.5h9a1.50164,1.50164,0,0,0,1.5-1.5v-1.002A1.50164,1.50164,0,0,0,28.5163,10.05139Zm.5,2.502a.50065.50065,0,0,1-.5.5h-9a.50065.50065,0,0,1-.5-.5v-1.002a.50065.50065,0,0,1,.5-.5h9a.50065.50065,0,0,1,.5.5Z"/><path class="cls-1" d="M12.47235,18.02991h-9a1.50164,1.50164,0,0,0-1.5,1.5v.97461a1.50164,1.50164,0,0,0,1.5,1.5h9a1.50164,1.50164,0,0,0,1.5-1.5v-.97461A1.50164,1.50164,0,0,0,12.47235,18.02991Zm.5,2.47461a.50065.50065,0,0,1-.5.5h-9a.50065.50065,0,0,1-.5-.5v-.97461a.50065.50065,0,0,1,.5-.5h9a.50065.50065,0,0,1,.5.5Z"/><path class="cls-1" d="M28.5163,18.02991h-9a1.50164,1.50164,0,0,0-1.5,1.5v.97461a1.50164,1.50164,0,0,0,1.5,1.5h9a1.50164,1.50164,0,0,0,1.5-1.5v-.97461A1.50164,1.50164,0,0,0,28.5163,18.02991Zm.5,2.47461a.501.501,0,0,1-.5.5h-9a.501.501,0,0,1-.5-.5v-.97461a.501.501,0,0,1,.5-.5h9a.501.501,0,0,1,.5.5Z"/><path class="cls-1" d="M12.47235,26.02112h-9a1.50164,1.50164,0,0,0-1.5,1.5v.99414a1.50164,1.50164,0,0,0,1.5,1.5h9a1.50164,1.50164,0,0,0,1.5-1.5v-.99414A1.50164,1.50164,0,0,0,12.47235,26.02112Zm.5,2.49414a.50065.50065,0,0,1-.5.5h-9a.50065.50065,0,0,1-.5-.5v-.99414a.50065.50065,0,0,1,.5-.5h9a.50065.50065,0,0,1,.5.5Z"/><path class="cls-1" d="M28.5163,26.02112h-9a1.50164,1.50164,0,0,0-1.5,1.5v.99414a1.50164,1.50164,0,0,0,1.5,1.5h9a1.50164,1.50164,0,0,0,1.5-1.5v-.99414A1.50164,1.50164,0,0,0,28.5163,26.02112Zm.5,2.49414a.501.501,0,0,1-.5.5h-9a.501.501,0,0,1-.5-.5v-.99414a.501.501,0,0,1,.5-.5h9a.501.501,0,0,1,.5.5Z"/></svg>