<svg id="Icons" xmlns="http://www.w3.org/2000/svg" viewBox="0 0 32 32"><defs><style>.cls-1{fill:#5514b4;}</style></defs><path class="cls-1" d="M21.11914,29.04883a.8519.8519,0,0,1-.168-.0166l-4.27148-.8545a3.59608,3.59608,0,0,0-1.35938-.01171l-4.30469.78711a.85318.85318,0,0,1-1.00683-.83936V26.79639a.85665.85665,0,0,1,.34961-.689l2.56738-1.82373A.17774.17774,0,0,0,13,24.1377l-.00488-5.1792-8.1836.98535a.71474.71474,0,0,1-.80859-.71V15.68213a.72.72,0,0,1,.51465-.687L13.001,12.1377V5.93652a2.99871,2.99871,0,0,1,5.99609,0l.001,6.20118,8.50488,2.86376a.71277.71277,0,0,1,.49609.68067v3.55176a.7149.7149,0,0,1-.82617.70752l-8.167-.9834L19,24.11426a.36927.36927,0,0,0,.168.31006l2.417,1.581a.84916.84916,0,0,1,.38672.71387v1.47607a.8529.8529,0,0,1-.85254.85352ZM4.69434,18.95068l-.01954.00245Zm22.60058-.00146.01465.00146Zm-.11328-3.00147.02148.00733ZM4.835,15.94336l-.01758.00537Z"/></svg>