<svg id="Icons" xmlns="http://www.w3.org/2000/svg" viewBox="0 0 32 32"><defs><style>.cls-1{fill:#5514b4;}</style></defs><path class="cls-1" d="M12.48279,2.0083H3.53455a1.50164,1.50164,0,0,0-1.5,1.5V8.4917a1.50164,1.50164,0,0,0,1.5,1.5h8.94824a1.50168,1.50168,0,0,0,1.5-1.5V3.5083A1.50168,1.50168,0,0,0,12.48279,2.0083Zm.5,6.4834a.50065.50065,0,0,1-.5.5H3.53455a.50065.50065,0,0,1-.5-.5V3.5083a.50065.50065,0,0,1,.5-.5h8.94824a.50065.50065,0,0,1,.5.5Z"/><path class="cls-1" d="M12.48279,21.9917H3.53455a1.50164,1.50164,0,0,0-1.5,1.5v5.01465a1.50164,1.50164,0,0,0,1.5,1.5h8.94824a1.50168,1.50168,0,0,0,1.5-1.5V23.4917A1.50168,1.50168,0,0,0,12.48279,21.9917Zm.5,6.51465a.50065.50065,0,0,1-.5.5H3.53455a.50065.50065,0,0,1-.5-.5V23.4917a.50065.50065,0,0,1,.5-.5h8.94824a.50065.50065,0,0,1,.5.5Z"/><path class="cls-1" d="M12.48279,11.99072H3.53455a1.50164,1.50164,0,0,0-1.5,1.5v5.01709a1.50164,1.50164,0,0,0,1.5,1.5h8.94824a1.50168,1.50168,0,0,0,1.5-1.5V13.49072A1.50168,1.50168,0,0,0,12.48279,11.99072Zm.5,6.51709a.50065.50065,0,0,1-.5.5H3.53455a.50065.50065,0,0,1-.5-.5V13.49072a.50065.50065,0,0,1,.5-.5h8.94824a.50065.50065,0,0,1,.5.5Z"/><path class="cls-1" d="M28.47205,2.02881H19.5238a1.50164,1.50164,0,0,0-1.5,1.5v4.9834a1.50164,1.50164,0,0,0,1.5,1.5h8.94825a1.50164,1.50164,0,0,0,1.5-1.5V3.52881A1.50164,1.50164,0,0,0,28.47205,2.02881Zm.5,6.4834a.50065.50065,0,0,1-.5.5H19.5238a.50065.50065,0,0,1-.5-.5V3.52881a.50065.50065,0,0,1,.5-.5h8.94825a.50065.50065,0,0,1,.5.5Z"/><path class="cls-1" d="M28.47205,22.01221H19.5238a1.50164,1.50164,0,0,0-1.5,1.5v5.01465a1.50165,1.50165,0,0,0,1.5,1.5h8.94825a1.50165,1.50165,0,0,0,1.5-1.5V23.51221A1.50164,1.50164,0,0,0,28.47205,22.01221Zm.5,6.51465a.50066.50066,0,0,1-.5.5H19.5238a.50066.50066,0,0,1-.5-.5V23.51221a.50065.50065,0,0,1,.5-.5h8.94825a.50065.50065,0,0,1,.5.5Z"/><path class="cls-1" d="M28.47205,12.01123H19.5238a1.50164,1.50164,0,0,0-1.5,1.5v5.01709a1.50164,1.50164,0,0,0,1.5,1.5h8.94825a1.50164,1.50164,0,0,0,1.5-1.5V13.51123A1.50164,1.50164,0,0,0,28.47205,12.01123Zm.5,6.51709a.50065.50065,0,0,1-.5.5H19.5238a.50065.50065,0,0,1-.5-.5V13.51123a.50065.50065,0,0,1,.5-.5h8.94825a.50065.50065,0,0,1,.5.5Z"/></svg>