<svg id="Icons" xmlns="http://www.w3.org/2000/svg" viewBox="0 0 32 32"><defs><style>.cls-1{fill:#5514b4;}</style></defs><path class="cls-1" d="M13.16113,11.76172a.10284.10284,0,0,0-.10742,0A.10229.10229,0,0,0,13,11.85449v8.2876a.10314.10314,0,0,0,.05371.09326.10451.10451,0,0,0,.10742.00049l7.17774-4.14453a.10285.10285,0,0,0,.05371-.09277.10421.10421,0,0,0-.05371-.09375Z"/><path class="cls-1" d="M16,2A14,14,0,1,0,30,16,14,14,0,0,0,16,2Zm4.83887,14.957-7.17774,4.14453A1.10791,1.10791,0,0,1,12,20.14209v-8.2876a1.107,1.107,0,0,1,1.66113-.95849l7.17774,4.14355a1.10688,1.10688,0,0,1,0,1.91748Z"/></svg>