<svg id="Icons" xmlns="http://www.w3.org/2000/svg" viewBox="0 0 32 32"><defs><style>.cls-1{fill:#5514b4;}</style></defs><path class="cls-1" d="M19.01758,9.98242a2.01094,2.01094,0,0,0-2.00879,2.0083l.00037.00336-.0033.01617V13.001H15.00293v-.94483c0-.01007-.00513-.01843-.00574-.02832.00025-.01263.00379-.02441.00379-.03711a2.0083,2.0083,0,1,0-2.00879,2.0083l.01172-.00116V14.001h.999v3.50146a.5.5,0,0,0,1,0V14.001h2.00293v3.50146a.5.5,0,0,0,1,0V14.001h1.00275v-.00287l.009.00091a2.0083,2.0083,0,0,0,0-4.0166ZM12.99219,12.999a1.0083,1.0083,0,1,1,1.00879-1.0083A1.0091,1.0091,0,0,1,12.99219,12.999Zm6.02539,0a1.0083,1.0083,0,1,1,1.00781-1.0083A1.00932,1.00932,0,0,1,19.01758,12.999Z"/><path class="cls-1" d="M24.98047,12.97461a8.98975,8.98975,0,1,0-15.3916,6.31006c.81567.7301,1.40771,2.69812,1.41308,4.68658v1.68158h.001a.99551.99551,0,0,0,.53223.87061l3.94824,2.332a1.00278,1.00278,0,0,0,1.02832.00244l3.9248-2.31934a.99509.99509,0,0,0,.55957-.88574l.00129-1.71033c.012-1.98974.59429-3.94195,1.41864-4.68127A8.94056,8.94056,0,0,0,24.98047,12.97461Zm-5.02442,12.6875-3.96,2.33447-3.99316-2.35791h-.001l-.00061-1.64062h.00159c0-.0152-.00153-.03162-.00159-.04688l-.00036-.94971h7.99707l-.00037.9267c-.00018.02509-.00256.05182-.00256.07672h.00256l-.00061,1.648H20.125Zm.21528-3.62579a.94242.94242,0,0,0-.17231-.03486H12.001a.94433.94433,0,0,0-.17542.03547,6.218,6.218,0,0,0-1.54529-3.47442,7.989,7.989,0,1,1,11.44532-.02345A6.23327,6.23327,0,0,0,20.17133,22.03632Z"/></svg>