<svg id="Icons" xmlns="http://www.w3.org/2000/svg" viewBox="0 0 32 32"><defs><style>.cls-1{fill:#5514b4;}</style></defs><path class="cls-1" d="M27.83594,4.13721a.50069.50069,0,0,0-.707.00049L23.19312,8.07953A7.49519,7.49519,0,0,0,9.03027,11.50781a.5.5,0,0,0,1,0A6.4958,6.4958,0,0,1,22.44543,8.82843l-1.5675,1.57a4.47706,4.47706,0,0,0-8.831,1.04883.5.5,0,0,0,1,0A3.47733,3.47733,0,0,1,19.9978,11.28L15.32007,15.9649A2.99421,2.99421,0,0,0,12.5166,14a.5.5,0,0,0,0,1,1.99366,1.99366,0,0,1,1.9773,1.7923L4.16016,27.14209a.49995.49995,0,1,0,.707.707l4.29834-4.305A5.64952,5.64952,0,0,0,20.2334,21.273a4.71309,4.71309,0,0,1-.0791-.86231A4.61509,4.61509,0,0,1,21.66211,16.977a7.52883,7.52883,0,0,0,2.36816-5.46924,7.45123,7.45123,0,0,0-.4143-2.43664l4.22-4.22644A.50041.50041,0,0,0,27.83594,4.13721Zm-4.80567,7.3706a6.44471,6.44471,0,0,1-2.05566,4.74463,5.66566,5.66566,0,0,0-1.82031,4.1582,5.87706,5.87706,0,0,0,.10449,1.0918,4.39606,4.39606,0,0,1,.0791.84131,4.64714,4.64714,0,0,1-9.2843.31091l2.67712-2.68121a2.98376,2.98376,0,0,0,2.76282-2.76715l4.04407-4.05042a3.67414,3.67414,0,0,1-.75049.94373,6.42149,6.42149,0,0,0-1.875,6.58935,2.50379,2.50379,0,0,1-4.48828,2.07032.5.5,0,0,0-.82813.56054,3.50338,3.50338,0,0,0,6.40723-1.95947,3.74313,3.74313,0,0,0-.14844-1.02,5.18341,5.18341,0,0,1-.20215-1.43408,5.44562,5.44562,0,0,1,1.85157-4.10254,4.47717,4.47717,0,0,0,1.48327-3.09961l1.827-1.82977A6.46943,6.46943,0,0,1,23.03027,11.50781Z"/></svg>