<svg id="Icons" xmlns="http://www.w3.org/2000/svg" viewBox="0 0 32 32"><defs><style>.cls-1{fill:#5514b4;}</style></defs><path class="cls-1" d="M27.5,7H25V4.5a.5.5,0,0,0-1,0V7H21.5a.5.5,0,0,0,0,1H24v2.5a.5.5,0,0,0,1,0V8h2.5a.5.5,0,0,0,0-1Z"/><path class="cls-1" d="M18.89532,17.09424a6.01173,6.01173,0,1,0-8.79064,0A9.5487,9.5487,0,0,0,4,25.832V27a1.001,1.001,0,0,0,1,1H24a1.001,1.001,0,0,0,1-1V25.832A9.5487,9.5487,0,0,0,18.89532,17.09424ZM14.5,7.99048A5.01172,5.01172,0,1,1,9.48828,13.0022,5.01737,5.01737,0,0,1,14.5,7.99048ZM24,27H5V25.832a8.6787,8.6787,0,0,1,5.79883-7.94971.481.481,0,0,0,.10675-.06951,5.97885,5.97885,0,0,0,7.18884,0,.481.481,0,0,0,.10675.06951A8.6787,8.6787,0,0,1,24,25.832Z"/></svg>