<svg id="Icons" xmlns="http://www.w3.org/2000/svg" viewBox="0 0 32 32"><defs><style>.cls-1{fill:#5514b4;}</style></defs><path class="cls-1" d="M23,10.002a4.97585,4.97585,0,0,0-3.96191,1.98584H7.18359a1.70031,1.70031,0,0,0-1.20117.502L4.36328,14.127a1.22438,1.22438,0,0,0,0,1.71582l1.88379,1.90186a.90592.90592,0,0,0,1.2793,0L9.31248,15.959a.10613.10613,0,0,1,.14943,0l1.78418,1.78565a.90533.90533,0,0,0,1.2793,0L14.31152,15.959a.10553.10553,0,0,1,.15039.00147l1.79981,1.78418a.89508.89508,0,0,0,.61523.25683c.10938.001,2.124-.00048,2.124-.00048l.02783-.00006A4.98951,4.98951,0,1,0,23,10.002ZM23,16.5A1.5,1.5,0,1,1,24.5,15,1.50164,1.50164,0,0,1,23,16.5Z"/></svg>