<svg id="Icons" xmlns="http://www.w3.org/2000/svg" viewBox="0 0 32 32"><defs><style>.cls-1{fill:#5514b4;}</style></defs><path class="cls-1" d="M16,8a2,2,0,1,0-2-2A2.002,2.002,0,0,0,16,8Zm0-3a1,1,0,1,1-1,1A1.0013,1.0013,0,0,1,16,5Z"/><path class="cls-1" d="M21,10.98193A1.98426,1.98426,0,0,0,19.01807,9h-6.044a1.957,1.957,0,0,0-1.96973,1.9082l-1,7.52588a.49941.49941,0,0,0,.42969.56153A.51119.51119,0,0,0,10.50049,19a.49974.49974,0,0,0,.49512-.43408L12,10.97412A.97525.97525,0,0,1,12.97412,10h6.044a1.0054,1.0054,0,0,1,.98632,1.04785l1,7.51807a.5.5,0,0,0,.99122-.13184Z"/><path class="cls-1" d="M13.99756,11.5498a.5.5,0,1,0-.99512-.0996L11.94775,22H14v5.5a.5.5,0,0,0,1,0V21H13.05273Z"/><path class="cls-1" d="M18.4502,11.00244a.49993.49993,0,0,0-.44776.54736L18.94727,21H17v6.5a.5.5,0,0,0,1,0V22h2.05225L18.99756,11.4502A.49807.49807,0,0,0,18.4502,11.00244Z"/></svg>