<svg id="Icons" xmlns="http://www.w3.org/2000/svg" viewBox="0 0 32 32"><defs><style>.cls-1{fill:#5514b4;}</style></defs><path class="cls-1" d="M26.52808,10.05048h-5.407a5.26045,5.26045,0,0,0-10.23211,0H5.48041a1.4716,1.4716,0,0,0-1.47,1.47v13.042a1.47155,1.47155,0,0,0,1.47,1.47H26.52808a1.47161,1.47161,0,0,0,1.47-1.47v-13.042A1.47166,1.47166,0,0,0,26.52808,10.05048ZM16.00507,7.0141A4.28564,4.28564,0,0,1,20.102,10.05048H11.9071A4.28451,4.28451,0,0,1,16.00507,7.0141Zm-6,18.02539h-1v-14h1Zm13,0h-1v-14h1Z"/></svg>