<svg id="Icons" xmlns="http://www.w3.org/2000/svg" viewBox="0 0 32 32"><defs><style>.cls-1{fill:#5514b4;}</style></defs><path class="cls-1" d="M16,2.03033a14,14,0,1,0,14,14A14,14,0,0,0,16,2.03033Zm3.50781,8.96674a1.50147,1.50147,0,1,1-1.501,1.50147A1.50331,1.50331,0,0,1,19.50781,10.99707Zm-7.01172-.00781a1.50537,1.50537,0,1,1-1.50488,1.50537A1.50747,1.50747,0,0,1,12.49609,10.98926Zm3.50782,12.99219a6.02448,6.02448,0,0,1-5.97852-5.44532.49977.49977,0,0,1,.4541-.5415.48915.48915,0,0,1,.542.45459,5.0045,5.0045,0,0,0,9.9668-.02686.50942.50942,0,0,1,.53906-.45752.50008.50008,0,0,1,.457.53955A6.01792,6.01792,0,0,1,16.00391,23.98145Z"/></svg>