<svg id="Icons" xmlns="http://www.w3.org/2000/svg" viewBox="0 0 32 32"><defs><style>.cls-1{fill:#5514b4;}</style></defs><path class="cls-1" d="M23.56348,11.78613,16.82861,3.749a1.08542,1.08542,0,0,0-.84619-.40234,1.19487,1.19487,0,0,0-.84326.39893L8.42822,11.794A1.93459,1.93459,0,0,0,8,13.00439V27.5a.49971.49971,0,0,0,.5.5h15a.49971.49971,0,0,0,.5-.5V13.00635A1.93206,1.93206,0,0,0,23.56348,11.78613ZM16,6.99927A1.00073,1.00073,0,1,1,14.99927,8,1.00071,1.00071,0,0,1,16,6.99927ZM14.66846,17.96191a2.4568,2.4568,0,0,1,.51507,1.02686H17.582a.50586.50586,0,1,1,0,1.01172H15.18011a2.47987,2.47987,0,0,1-.51165,1.01709,1.929,1.929,0,0,0-.44629.94189h4.0874a.50586.50586,0,0,1,0,1.01172H13.17236v-.50586a3.01327,3.01327,0,0,1,.68457-2.05371,2.20933,2.20933,0,0,0,.267-.41113h-.44623a.50586.50586,0,0,1,0-1.01172h.4513a2.19552,2.19552,0,0,0-.26673-.415,3.02163,3.02163,0,0,1-.69042-2.05762,2.55427,2.55427,0,0,1,2.81689-2.4956,2.55636,2.55636,0,0,1,2.82666,2.48681.50586.50586,0,0,1-1.01172,0c0-1.01855-.91162-1.47461-1.81494-1.47461-.30127,0-1.80518.07178-1.80518,1.4834A2.00839,2.00839,0,0,0,14.66846,17.96191Z"/></svg>