<svg id="Icons" xmlns="http://www.w3.org/2000/svg" viewBox="0 0 32 32"><defs><style>.cls-1{fill:#5514b4;}</style></defs><path class="cls-1" d="M29.87836,21.39124,27.24994,10.87415A6.41737,6.41737,0,0,0,21.00775,6H10.99622A6.41736,6.41736,0,0,0,4.754,10.87415L2.12561,21.39124A3.70182,3.70182,0,0,0,5.71619,25.993l.018-.00006a3.66211,3.66211,0,0,0,3.27759-2.02783L12,18h8.00391l2.98828,5.96515A3.662,3.662,0,0,0,26.26971,25.993h.00007l.018.00006A3.7017,3.7017,0,0,0,29.87836,21.39124Zm-1.46155,2.56335a2.69619,2.69619,0,0,1-4.53052-.43738L20.898,17.55206,20.62146,17H11.38251l-.27661.55206L8.11768,23.51721a2.69881,2.69881,0,0,1-5.02192-1.88354L5.72418,11.11658A5.42624,5.42624,0,0,1,10.99622,7H21.00775a5.4263,5.4263,0,0,1,5.272,4.11658L28.9082,21.63367A2.68842,2.68842,0,0,1,28.41681,23.95459Z"/><circle class="cls-1" cx="19" cy="12.00366" r="0.99817"/><circle class="cls-1" cx="21" cy="10.00366" r="0.99817"/><circle class="cls-1" cx="23" cy="12.00366" r="0.99817"/><circle class="cls-1" cx="21" cy="14.00366" r="0.99817"/><path class="cls-1" d="M11,9a3,3,0,1,0,3,3A3,3,0,0,0,11,9Zm0,5a2,2,0,1,1,2-2A2.0023,2.0023,0,0,1,11,14Z"/></svg>