<svg id="Icons" xmlns="http://www.w3.org/2000/svg" viewBox="0 0 32 32"><defs><style>.cls-1{fill:#5514b4;}</style></defs><path class="cls-1" d="M24.49609,21.98865l-.50976.00146L23.98047,13.975a7.98456,7.98456,0,0,0-6.6604-7.86023,1.46776,1.46776,0,0,0,.15649-.65052,1.48633,1.48633,0,0,0-2.97265,0,1.46756,1.46756,0,0,0,.15826.65381A7.98479,7.98479,0,0,0,8.02246,13.975v8.0166l-.50781-.00293a1.50464,1.50464,0,1,0,0,3.00927h3.45672a1.99753,1.99753,0,0,0,3.99476,0h9.53094a1.50464,1.50464,0,1,0-.001-3.00927ZM12.96875,25.97119a.99761.99761,0,0,1-.99469-.97327h1.98938A.99761.99761,0,0,1,12.96875,25.97119Z"/></svg>