<svg id="Icons" xmlns="http://www.w3.org/2000/svg" viewBox="0 0 32 32"><defs><style>.cls-1{fill:#5514b4;}</style></defs><path class="cls-1" d="M27.82715,5.15332a.49945.49945,0,0,0-.707-.03125l-2.24384,2.0542L20.707,3H8A1.003,1.003,0,0,0,7,4V23.54169L4.14355,26.15674a.50008.50008,0,0,0,.67579.7373L7,24.89771V28a1.003,1.003,0,0,0,1,1H24a1.003,1.003,0,0,0,1-1V8.419l2.7959-2.55957A.5.5,0,0,0,27.82715,5.15332Zm-6.82007-.43591L24,7.71033v.26819l-.0249.02276h-2.968Zm-10.4834,7.28686,9.08161-.0025-1.09266,1.00031-7.989.00219a.5.5,0,0,1,0-1Zm0,2.00348,6.89252-.00189-1.09265,1.0003-5.79987.00159a.5.5,0,0,1,0-1Zm0,2.00342,4.70349-.00128-1.09265,1.0003-3.61084.001a.5.5,0,1,1,0-1Zm0,2.00348,2.51441-.00067-1.09266,1.0003-1.42175.00037a.5.5,0,0,1,0-1Zm-.5,2.47961a.49972.49972,0,0,1,.5-.5l.35138-.00012-.79187.72492A.489.489,0,0,1,10.02368,20.49426Zm11.48737.49695L11.264,20.99408l1.09265-1.00031,9.15442-.00256a.5.5,0,0,1,0,1Zm0-1.97961-8.08405.00225,1.09265-1.0003,6.9914-.00195a.5.5,0,0,1,0,1Zm0-2.00342-5.895.00159,1.09265-1.00031,4.80231-.00128a.5.5,0,0,1,0,1Zm0-2.00348-3.70587.001,1.09265-1.00031,2.61322-.00073a.5.5,0,0,1,0,1Zm0-3.00348a.5.5,0,0,1,0,1l-1.51679.00043,1.09265-1.00031Z"/></svg>