<svg id="Icons" xmlns="http://www.w3.org/2000/svg" viewBox="0 0 32 32"><defs><style>.cls-1{fill:#5514b4;}</style></defs><path class="cls-1" d="M16.75983,5.06152l2.13275-2.19946a.50036.50036,0,0,0-.71875-.69629L14.88965,5.554,18.15039,8.8811a.50106.50106,0,0,0,.35742.1499.50049.50049,0,0,0,.35742-.8501l-2.074-2.1156a10.97673,10.97673,0,1,1-8.0481,2.69031.49994.49994,0,1,0-.66015-.751,12.01184,12.01184,0,1,0,8.67682-2.94311Z"/><path class="cls-1" d="M15.9967,9.00543a8.00421,8.00421,0,1,0,8.00422,8.00421A8.00423,8.00423,0,0,0,15.9967,9.00543ZM14.6806,15.9981a2.45681,2.45681,0,0,1,.51508,1.02686h2.3985a.50586.50586,0,0,1,0,1.01172H15.19226a2.47975,2.47975,0,0,1-.51166,1.01709,1.92906,1.92906,0,0,0-.44629.94189h4.08741a.50586.50586,0,0,1,0,1.01172H13.18451v-.50586a3.01327,3.01327,0,0,1,.68457-2.05371,2.20933,2.20933,0,0,0,.267-.41113h-.44623a.50586.50586,0,1,1,0-1.01172h.45129a2.19544,2.19544,0,0,0-.26672-.415A3.02158,3.02158,0,0,1,13.184,14.5523a2.55427,2.55427,0,0,1,2.8169-2.4956,2.55636,2.55636,0,0,1,2.82666,2.48681.50586.50586,0,1,1-1.01172,0c0-1.01855-.91162-1.47461-1.81494-1.47461-.30127,0-1.80518.07178-1.80518,1.4834A2.00843,2.00843,0,0,0,14.6806,15.9981Z"/></svg>