<svg id="Icons" xmlns="http://www.w3.org/2000/svg" viewBox="0 0 32 32"><defs><style>.cls-1{fill:#5514b4;}</style></defs><g id="Icons-2" data-name="Icons"><path class="cls-1" d="M27.4541,13.79736a.49834.49834,0,0,1-.35351-.14648,15.69407,15.69407,0,0,0-22.29,0,.49995.49995,0,0,1-.707-.707,16.69367,16.69367,0,0,1,23.7041,0,.5.5,0,0,1-.35352.85351Z"/><path class="cls-1" d="M23.4502,17.1626a.49839.49839,0,0,1-.35352-.14649,10.1414,10.1414,0,0,0-14.36816,0,.49995.49995,0,1,1-.707-.707,11.141,11.141,0,0,1,15.78223,0,.5.5,0,0,1-.35351.85352Z"/><path class="cls-1" d="M12.37793,20.48584a.5.5,0,0,1-.35352-.85352,5.70532,5.70532,0,0,1,7.93848-.00732.49972.49972,0,1,1-.69141.72168,4.70031,4.70031,0,0,0-6.54-.00732A.49842.49842,0,0,1,12.37793,20.48584Z"/><path class="cls-1" d="M15.90967,22.99607a1.00281,1.00281,0,1,0,1.0028,1.00281.94742.94742,0,0,0-1.0028-1.00281Z"/></g></svg>