<svg id="Icons" xmlns="http://www.w3.org/2000/svg" viewBox="0 0 32 32"><defs><style>.cls-1{fill:#5514b4;}</style></defs><path class="cls-1" d="M16,2A14,14,0,1,0,30,16,14,14,0,0,0,16,2ZM13.92285,19.67969A3.03035,3.03035,0,0,1,12.68262,20.71a4.20833,4.20833,0,0,1-1.82422.376,4.27021,4.27021,0,0,1-1.84473-.40381,4.49078,4.49078,0,0,1-1.55273-1.25342l1.08593-.96094a3.38211,3.38211,0,0,0,1.04493.87744,2.766,2.766,0,0,0,1.25293.26465,2.07161,2.07161,0,0,0,1.32324-.397,1.45737,1.45737,0,0,0,.00683-2.19336,1.888,1.888,0,0,0-1.20507-.38965H9.74414V15.23682h1.22559a1.45777,1.45777,0,0,0,.93359-.334,1.17522,1.17522,0,0,0,.418-.9751,1.12737,1.12737,0,0,0-.43262-.94677,1.7664,1.7664,0,0,0-1.11328-.334,2.26575,2.26575,0,0,0-1.22559.313,3.676,3.676,0,0,0-.8496.71729L7.71094,12.647A5.14633,5.14633,0,0,1,8.99219,11.644a3.73442,3.73442,0,0,1,1.87988-.4458,3.70289,3.70289,0,0,1,1.581.32764,2.81849,2.81849,0,0,1,1.11426.89111,2.15691,2.15691,0,0,1,.41114,1.30225,2.02033,2.02033,0,0,1-.47364,1.31592,2.6261,2.6261,0,0,1-1.36523.82861,2.91066,2.91066,0,0,1,1.63672.82178,2.12987,2.12987,0,0,1,.59179,1.51758A2.56508,2.56508,0,0,1,13.92285,19.67969Zm10.81232,1.27344H23.0838V19.105a3.47783,3.47783,0,0,1-1.3164,1.477,3.61379,3.61379,0,0,1-1.918.51123,4.18372,4.18372,0,0,1-2.22559-.61621,4.43777,4.43777,0,0,1-1.61035-1.74316,5.61163,5.61163,0,0,1-.60254-2.68067,5.39123,5.39123,0,0,1,.37793-2.0581,4.8117,4.8117,0,0,1,1.05078-1.59619,4.55706,4.55706,0,0,1,1.582-1.02881,5.32123,5.32123,0,0,1,1.96-.35694,5.21,5.21,0,0,1,2.21192.44776,5.54,5.54,0,0,1,1.80566,1.40039l-1.17578,1.064a4.34061,4.34061,0,0,0-1.28809-1.05713,3.37442,3.37442,0,0,0-1.55371-.34326,3.17747,3.17747,0,0,0-1.63867.42725,3.01776,3.01776,0,0,0-1.14746,1.21777,3.96262,3.96262,0,0,0-.41992,1.8833,4.16451,4.16451,0,0,0,.40625,1.92481,2.84042,2.84042,0,0,0,1.10547,1.19726,3.09707,3.09707,0,0,0,1.582.40576,2.88668,2.88668,0,0,0,1.42773-.34277,2.8198,2.8198,0,0,0,.97364-.86133,1.8194,1.8194,0,0,0,.35644-1.03564H20.451V15.88525h4.28418Z"/></svg>