<svg id="Icons" xmlns="http://www.w3.org/2000/svg" viewBox="0 0 32 32"><defs><style>.cls-1{fill:#5514b4;}</style></defs><path class="cls-1" d="M9.5,7h3a.5.5,0,0,0,0-1h-3a.5.5,0,0,0,0,1Z"/><circle class="cls-1" cx="18.95673" cy="21" r="3"/><path class="cls-1" d="M26.04968,14H18.0144V5.97754A1.97989,1.97989,0,0,0,16.03687,4H5.99194A1.97989,1.97989,0,0,0,4.0144,5.97754V26.02246A1.97989,1.97989,0,0,0,5.99194,28H26.04968a3.958,3.958,0,0,0,3.90705-3.9845v-6.031A3.958,3.958,0,0,0,26.04968,14ZM5.99194,27a.97859.97859,0,0,1-.97754-.97754V5.97754A.97859.97859,0,0,1,5.99194,5H16.03687a.97858.97858,0,0,1,.97753.97754V14H11.86371a3.95794,3.95794,0,0,0-3.907,3.9845v6.031A3.99424,3.99424,0,0,0,9.30676,27Zm12.96479-2a4,4,0,1,1,4-4A4,4,0,0,1,18.95673,25Z"/></svg>