<svg id="Icons" xmlns="http://www.w3.org/2000/svg" viewBox="0 0 32 32"><defs><style>.cls-1{fill:#5514b4;}</style></defs><path class="cls-1" d="M26.001,23.251a1.55689,1.55689,0,0,0-1.0293-1.44678L23.292,21.20605a.44961.44961,0,0,1-.29687-.41992l-.00879-1.95361a5.02248,5.02248,0,0,0-.23535-1.49707L21.44141,13.2207a2.928,2.928,0,0,0-.69825-1.16406l-1.709-2.0542c-.01074-.01172.00586-.12451-.00586-.13525l1.748-2.31885a.77923.77923,0,0,0,.21289-.71094.7697.7697,0,0,0-.459-.56054L18.5459,5.39355l1.249-1.12939a.75439.75439,0,0,0-.55664-1.26367H17.05859a1.49311,1.49311,0,0,0-.708.22265c-.56543.4043-1.80469,1.437-2.31153,1.8628a1.44923,1.44923,0,0,0-.5.83838l-1.52343,4.85351a1.03487,1.03487,0,0,0,1.0166,1.21143l1.77441.00342-.6543.82617a.896.896,0,0,0-.11816.73779.9072.9072,0,0,0,.49707.57813l1.23926.53662a.37617.37617,0,0,1,.22656.3457v1.92285a.513.513,0,0,1-.27344.457L13.291,18.55664a.4996.4996,0,0,0-.13575.80762l.63965.62939-1.5,1.46924a.965.965,0,0,0-.27734.80713.90759.90759,0,0,0,.39941.66943l.66406.561a2.06679,2.06679,0,0,0,1.32325.48828l2.1455.00879-.66406.68115a.81681.81681,0,0,1-.61621.32422h-.00195l-2.39844-.00586h-.00293a1.68148,1.68148,0,0,0-1.21.5166l-1.30176,1.35987a1.26094,1.26094,0,0,0,.90625,2.13232l1.63379.00488h.00488a1.36534,1.36534,0,0,0,1.11719-.582l.2959-.42383a.21556.21556,0,0,1,.1582-.09326l8.21387-.83935a2.27927,2.27927,0,0,0,1.34082-.62061l1.46-1.40283a1.70478,1.70478,0,0,0,.52051-1.23682Z"/><path class="cls-1" d="M11.35645,17.00049a.92719.92719,0,0,0,.79-.43945l.68946-1.11182a1.052,1.052,0,0,0,.06543-.98633l-.82715-1.834a1.038,1.038,0,0,0-.94824-.63184l-.73047-.00488h-.001a1.71624,1.71624,0,0,0-.6289.1665L7.37891,13.5332a.7624.7624,0,0,0-.34864.48.77291.77291,0,0,0,.11621.60547l.84278,1.16992a.49837.49837,0,0,0,.40527.20752l.88477.00245.415.58349a1.001,1.001,0,0,0,.8125.41846Z"/></svg>