<svg id="Icons" xmlns="http://www.w3.org/2000/svg" viewBox="0 0 32 32"><defs><style>.cls-1{fill:#5514b4;}</style></defs><path class="cls-1" d="M7.68408,14.381a.67534.67534,0,0,0,.7749.12537l3.889-1.42926a.66494.66494,0,0,0,.32971-.71118l-.38012-1.88a7.33625,7.33625,0,0,1,7.59314,0l-.37891,1.879a.66337.66337,0,0,0,.32947.71069l3.88818,1.43109a.67547.67547,0,0,0,.77466-.12469l2.49634-2.47528a.66419.66419,0,0,0,.00647-.93939A15.49371,15.49371,0,0,0,16.093,6.014,15.46418,15.46418,0,0,0,5.2157,10.93323l-.0304.03015a.664.664,0,0,0,.00592.93878ZM16.0929,7.014a14.37542,14.37542,0,0,1,9.95666,4.42132L23.947,13.52008,20.55884,12.273l.3208-1.591.1394-.691-.60937-.36255a8.35226,8.35226,0,0,0-8.63111,0l-.60961.36273.13989.69135.32178,1.59179-3.38855,1.2453-2.09974-2.088A14.36544,14.36544,0,0,1,16.0929,7.014Z"/><path class="cls-1" d="M9.34375,22.23828a.59183.59183,0,0,0,.084-.29834c0-.03125-.002-.0625-.0039-.09375h.88574v-.42676H9.29l-.0127-.02978a1.52707,1.52707,0,0,1-.08007-.24707.93583.93583,0,0,1-.01954-.17481.35126.35126,0,0,1,.1211-.28173.435.435,0,0,1,.292-.10254.71315.71315,0,0,1,.33594.07714.82281.82281,0,0,1,.24023.18311L10.5332,20.46a1.28214,1.28214,0,0,0-.38965-.29639,1.179,1.179,0,0,0-.54785-.12548,1.20421,1.20421,0,0,0-.53125.11084.853.853,0,0,0-.35937.31347.87343.87343,0,0,0-.12891.47949,1.012,1.012,0,0,0,.03028.24952,2.20767,2.20767,0,0,0,.06835.228H8.37012v.42676h.49023a.50021.50021,0,0,1,.00781.085.63611.63611,0,0,1-.05371.25391.60781.60781,0,0,1-.1416.209.28373.28373,0,0,1-.20019.083H8.33984v.5459h2.31348V22.477H9.12207A.7207.7207,0,0,0,9.34375,22.23828Z"/><path class="cls-1" d="M15.44141,20.2113a.5833.5833,0,0,0,.08691-.29724c.00073-.03149-.00171-.0625-.002-.09387l.885.00916.004-.42627-1.01868-.01087-.01294-.03027a1.54616,1.54616,0,0,1-.07666-.2475.952.952,0,0,1-.01782-.17535.35162.35162,0,0,1,.12451-.28058.43769.43769,0,0,1,.29321-.09906.70911.70911,0,0,1,.335.08093.83733.83733,0,0,1,.238.1853l.37048-.37933a1.27,1.27,0,0,0-.38684-.30054,1.16222,1.16222,0,0,0-.54541-.13128,1.1897,1.1897,0,0,0-.53271.10449.84971.84971,0,0,0-.36353.30932.87492.87492,0,0,0-.1333.47815.92967.92967,0,0,0,.02759.25031c.01819.08118.041.15716.06445.22821l-.30444-.00305-.00415.42627.49048.00549a.48222.48222,0,0,1,.00634.08563.64579.64579,0,0,1-.05627.25318.59939.59939,0,0,1-.14417.20715.28619.28619,0,0,1-.20019.08112l-.13281-.00147-.00623.54547,2.31287.02582.00659-.54645-1.53149-.0169A.71164.71164,0,0,0,15.44141,20.2113Z"/><path class="cls-1" d="M23.79785,17.12842a4.51919,4.51919,0,0,0-3.94531.80322,4.50285,4.50285,0,0,0-8.29077-.42194,4.48981,4.48981,0,1,0,2.04052,5.99659,4.51371,4.51371,0,0,0,4.782-.5044,4.54242,4.54242,0,0,0,6.52,2.378,4.47671,4.47671,0,0,0,1.64843-6.15039A4.52266,4.52266,0,0,0,23.79785,17.12842ZM9.55273,25.023a3.50017,3.50017,0,1,1,3.53418-3.5A3.521,3.521,0,0,1,9.55273,25.023ZM16.63281,22.811a3.51874,3.51874,0,0,1-2.67614-.26111,4.35606,4.35606,0,0,0-1.55652-4.50013,3.5259,3.5259,0,0,1,6.5813.376c.02905.09406.04589.18793.0664.28186a4.35612,4.35612,0,0,0-.911,3.1806A3.55581,3.55581,0,0,1,16.63281,22.811Zm9.41309-.4209a3.45825,3.45825,0,0,1-1.6377,2.12158,3.5003,3.5003,0,1,1,1.28028-4.77832A3.45877,3.45877,0,0,1,26.0459,22.39014Z"/><path class="cls-1" d="M22.436,22.20178a.59054.59054,0,0,0,.083-.29834c0-.03125-.001-.0625-.0039-.09375h.87793v-.42676H22.38232l-.01269-.02978a1.50866,1.50866,0,0,1-.0791-.24707.92723.92723,0,0,1-.01856-.17481.35293.35293,0,0,1,.11914-.28173.43172.43172,0,0,1,.29-.10254.70107.70107,0,0,1,.333.07715.82594.82594,0,0,1,.23828.1831l.36231-.38379a1.26278,1.26278,0,0,0-.38575-.29638,1.16,1.16,0,0,0-.54394-.12549,1.18847,1.18847,0,0,0-.52637.11084.85071.85071,0,0,0-.35644.31347.88133.88133,0,0,0-.12793.4795,1.061,1.061,0,0,0,.03027.24951,2.20764,2.20764,0,0,0,.06836.228h-.30274v.42676h.48633a.49921.49921,0,0,1,.00782.085.65192.65192,0,0,1-.05274.25391.63443.63443,0,0,1-.14062.209.28267.28267,0,0,1-.19825.083h-.13281v.5459h2.29492v-.5459H22.21631A.72531.72531,0,0,0,22.436,22.20178Z"/></svg>