<svg id="Icons" xmlns="http://www.w3.org/2000/svg" viewBox="0 0 32 32"><defs><style>.cls-1{fill:#5514b4;}</style></defs><polygon class="cls-1" points="11.833 17.148 11.833 12.752 8.641 17.148 11.833 17.148"/><path class="cls-1" d="M16,2A14,14,0,1,0,30,16,14,14,0,0,0,16,2ZM14.71719,18.46362H13.49942v2.04394h-1.666V18.46362H7.017V17.31567l4.64844-6.46827h1.834v6.3003h1.21777Zm10.27539,2.04394H23.34121V18.65942a3.47783,3.47783,0,0,1-1.3164,1.477,3.61377,3.61377,0,0,1-1.918.51123,4.18381,4.18381,0,0,1-2.22559-.61621,4.4378,4.4378,0,0,1-1.61035-1.74317,5.61159,5.61159,0,0,1-.60254-2.68066,5.39128,5.39128,0,0,1,.37793-2.05811,4.8117,4.8117,0,0,1,1.05078-1.59619,4.55734,4.55734,0,0,1,1.582-1.02881,5.32145,5.32145,0,0,1,1.96-.35693,5.21,5.21,0,0,1,2.21191.44775,5.54009,5.54009,0,0,1,1.80566,1.40039l-1.17578,1.064a4.34039,4.34039,0,0,0-1.28808-1.05713,3.37433,3.37433,0,0,0-1.55371-.34326,3.17757,3.17757,0,0,0-1.63868.42724,3.01779,3.01779,0,0,0-1.14746,1.21778,3.96259,3.96259,0,0,0-.41992,1.8833,4.16457,4.16457,0,0,0,.40625,1.9248,2.84045,2.84045,0,0,0,1.10547,1.19727,3.09709,3.09709,0,0,0,1.582.40576,2.88676,2.88676,0,0,0,1.42773-.34277,2.81992,2.81992,0,0,0,.97364-.86133,1.81943,1.81943,0,0,0,.35644-1.03565H20.7084v-1.456h4.28418Z"/></svg>