<svg id="Icons" xmlns="http://www.w3.org/2000/svg" viewBox="0 0 32 32"><defs><style>.cls-1{fill:#5514b4;}</style></defs><polygon class="cls-1" points="23.326 16.457 24.651 16.457 23.988 14.76 23.326 16.457"/><path class="cls-1" d="M26.91455,12H5.092a1.08986,1.08986,0,0,0-1.08862,1.08875v5.82244A1.08992,1.08992,0,0,0,5.092,20H26.91455a1.09013,1.09013,0,0,0,1.08887-1.08881V13.08875A1.09008,1.09008,0,0,0,26.91455,12ZM10.937,16.60028,10.47363,17.4l-1.20019-.87335L9.44226,18h-.9259l.16772-1.50507L7.4635,17.4,7,16.60028l1.37915-.6L7,15.40015,7.4635,14.6l1.21033.884L8.50513,14H9.432l-.16883,1.49481L10.47363,14.6l.46338.80011-1.37915.60009Zm5,0L15.47363,17.4l-1.20007-.87335L14.44226,18h-.926l.168-1.50507-1.2207.905L12,16.60028l1.37915-.6L12,15.40015,12.4635,14.6l1.21033.884L13.505,14h.927l-.16883,1.49481L15.47363,14.6l.46338.80011-1.37915.60009Zm4.937,0L20.41064,17.4l-1.20007-.87335L19.37927,18h-.926l.168-1.50507-1.22071.905-.4635-.79968,1.37915-.6L16.937,15.40015l.4635-.80011,1.21033.884L18.442,14h.927l-.16882,1.49481L20.41064,14.6l.46338.80011-1.37915.60009ZM25.25684,18l-.37659-.96582H23.09741L22.71985,18H22l1.61169-4h.771l1.61169,4Z"/></svg>