<svg id="Icons" xmlns="http://www.w3.org/2000/svg" viewBox="0 0 32 32"><defs><style>.cls-1{fill:#5514b4;}</style></defs><path class="cls-1" d="M15.99512,1.9873a13.98267,13.98267,0,1,0,13.9834,13.98291A13.99864,13.99864,0,0,0,15.99512,1.9873Zm0,26.96534a12.98267,12.98267,0,1,1,12.9834-12.98243A12.99723,12.99723,0,0,1,15.99512,28.95264Z"/><path class="cls-1" d="M24.88086,9.48584l-.34473-.4707L9.042,24.50928l.47168.34472A10.99924,10.99924,0,0,0,24.88086,9.48584ZM15.99512,25.96631a9.91718,9.91718,0,0,1-5.40821-1.5874L24.40625,10.55957a10.00209,10.00209,0,0,1-8.41113,15.40674Z"/><path class="cls-1" d="M22.6543,7.21729a10.89329,10.89329,0,0,0-6.65918-2.24366A11.0087,11.0087,0,0,0,4.999,15.97021a10.89667,10.89667,0,0,0,2.24121,6.6543l.34571.45557L23.10938,7.564ZM7.7002,21.55176A9.90635,9.90635,0,0,1,5.999,15.97021a10.00771,10.00771,0,0,1,9.9961-9.99658A9.89883,9.89883,0,0,1,21.582,7.67725Z"/></svg>