<svg id="Icons" xmlns="http://www.w3.org/2000/svg" viewBox="0 0 32 32"><defs><style>.cls-1{fill:#5514b4;}</style></defs><path class="cls-1" d="M27.999,6H4.001A2.00687,2.00687,0,0,0,2,8.001V22.999A2.00687,2.00687,0,0,0,4.001,25H6.293L4.64648,26.64648a.5.5,0,1,0,.707.707L7.707,25H24.293l2.35351,2.35352a.5.5,0,0,0,.707-.707L25.707,25h2.292A2.00687,2.00687,0,0,0,30,22.999V8.001A2.00687,2.00687,0,0,0,27.999,6ZM29,22.999A1.00212,1.00212,0,0,1,27.999,24H4.001A1.00212,1.00212,0,0,1,3,22.999V8.001A1.00212,1.00212,0,0,1,4.001,7H27.999A1.00212,1.00212,0,0,1,29,8.001Z"/><path class="cls-1" d="M21.809,14.59149a2.457,2.457,0,0,0,.26868-1.10211,2.48365,2.48365,0,0,0-4.96729,0A2.45723,2.45723,0,0,0,17.382,14.597a4.5195,4.5195,0,0,0-1.019.64563,3.90549,3.90549,0,0,0-.279.29395,4.37365,4.37365,0,0,0-1.31488-.94507,2.457,2.457,0,0,0,.26867-1.10211,2.48367,2.48367,0,0,0-4.96734,0,2.45751,2.45751,0,0,0,.26861,1.10205A3.7076,3.7076,0,0,0,8.0564,17.88812v.28662a.82625.82625,0,0,0,.82617.82373H23.26538a.82625.82625,0,0,0,.82617-.82373v-.28662A3.70776,3.70776,0,0,0,21.809,14.59149Zm-2.215-2.58575a1.48364,1.48364,0,1,1-1.48365,1.48364A1.48528,1.48528,0,0,1,19.59406,12.00574Zm-7.03986,0a1.48364,1.48364,0,1,1-1.4837,1.48364A1.48532,1.48532,0,0,1,12.5542,12.00574Zm3.06372,5.99273H9.0564v-.11035A2.82149,2.82149,0,0,1,10.978,15.394a2.435,2.435,0,0,0,3.15228.00013,2.82072,2.82072,0,0,1,1.92126,2.494v.11035Zm7.47363,0h-6.04v-.11035a3.31815,3.31815,0,0,0-.37738-1.52844,2.90591,2.90591,0,0,1,.3432-.36121,3.6165,3.6165,0,0,1,1.00177-.60339,2.43495,2.43495,0,0,0,3.15107-.001,2.82133,2.82133,0,0,1,1.92138,2.494Z"/></svg>