<svg id="Icons" xmlns="http://www.w3.org/2000/svg" viewBox="0 0 32 32"><defs><style>.cls-1{fill:#5514b4;}</style></defs><path class="cls-1" d="M28,23V8a2,2,0,0,0-2-2H6A2,2,0,0,0,4,8V23H2v2a1,1,0,0,0,1,1H29a1,1,0,0,0,1-1V23ZM5,15.47754h6.63574a1.45318,1.45318,0,0,0,1.02051-.42236l2.874-2.87452v7.0044a.81449.81449,0,0,0,1.39063.57617l4.18848-4.188a.43959.43959,0,0,1,.3125-.12939H27V23H5ZM6,7H26a1.00115,1.00115,0,0,1,1,1v6.44385H21.42188a1.43276,1.43276,0,0,0-1.01954.42236l-3.87207,3.87158V11.73438a.81509.81509,0,0,0-1.3916-.57618l-3.18945,3.18994a.44629.44629,0,0,1-.31348.1294H5V8A1.00115,1.00115,0,0,1,6,7ZM29,25H3V24H29Z"/></svg>