<svg id="Icons" xmlns="http://www.w3.org/2000/svg" viewBox="0 0 32 32"><defs><style>.cls-1{fill:#5514b4;}</style></defs><path class="cls-1" d="M16,2A14,14,0,1,0,30,16,14,14,0,0,0,16,2Zm-1.40887,17.4206a2.77184,2.77184,0,0,1-.85352.90283,4.04586,4.04586,0,0,1-1.19727.53906,5.10611,5.10611,0,0,1-1.35156.18213,6.19389,6.19389,0,0,1-2.10644-.36426,4.93182,4.93182,0,0,1-1.74317-1.0498l.98047-1.17627a4.67811,4.67811,0,0,0,1.28027.78418,4.06576,4.06576,0,0,0,1.58887.3081,2.54213,2.54213,0,0,0,1.46387-.35693,1.15356,1.15356,0,0,0,.20215-1.74317,2.82877,2.82877,0,0,0-1.28711-.602L10.097,16.43865a3.58626,3.58626,0,0,1-1.84082-1.022,2.41664,2.41664,0,0,1-.56738-1.61035,2.44225,2.44225,0,0,1,.46973-1.49072A3.10336,3.10336,0,0,1,9.432,11.32146a4.4673,4.4673,0,0,1,1.82714-.35693,4.95782,4.95782,0,0,1,1.97461.38477,4.59645,4.59645,0,0,1,1.45508.94531l-.99316,1.11963a3.40494,3.40494,0,0,0-2.42285-.95166,2.16785,2.16785,0,0,0-1.39942.36377,1.10227,1.10227,0,0,0-.43457.86816,1.08022,1.08022,0,0,0,.31543.78418,2.64891,2.64891,0,0,0,1.14063.55957l1.48437.40625a3.804,3.804,0,0,1,1.97363,1.07813,2.50461,2.50461,0,0,1,.56055,1.63769A2.43345,2.43345,0,0,1,14.59113,19.42059Zm9.40039-.86817a4.46221,4.46221,0,0,1-1.876,1.729,6.43113,6.43113,0,0,1-2.94629.623H15.72491v-9.7998h3.44434a6.43113,6.43113,0,0,1,2.94629.623,4.46423,4.46423,0,0,1,1.876,1.72852,4.92534,4.92534,0,0,1,.65136,2.54834A4.92229,4.92229,0,0,1,23.99152,18.55242Z"/><path class="cls-1" d="M19.16925,12.58855H17.43292v6.81788h1.73633a3.82228,3.82228,0,0,0,2.75781-.917,3.28828,3.28828,0,0,0,.95215-2.48486,3.31658,3.31658,0,0,0-.95215-2.48486A3.787,3.787,0,0,0,19.16925,12.58855Z"/></svg>