<svg id="Icons" xmlns="http://www.w3.org/2000/svg" viewBox="0 0 32 32"><defs><style>.cls-1{fill:#5514b4;}</style></defs><path class="cls-1" d="M13.04187,17.00964H6.93054a1.94623,1.94623,0,0,0-1.94433,1.94385V25.0658a1.94623,1.94623,0,0,0,1.94433,1.94384h6.11133a1.94623,1.94623,0,0,0,1.94434-1.94384V18.95349A1.94624,1.94624,0,0,0,13.04187,17.00964Zm.94434,8.05616a.94525.94525,0,0,1-.94434.94384H6.93054a.94524.94524,0,0,1-.94433-.94384V18.95349a.94524.94524,0,0,1,.94433-.94385h6.11133a.94525.94525,0,0,1,.94434.94385Z"/><path class="cls-1" d="M21.98621,17.00964a5,5,0,1,0,5,5A5.00589,5.00589,0,0,0,21.98621,17.00964Zm0,9a4,4,0,1,1,4-4A4.00426,4.00426,0,0,1,21.98621,26.00964Z"/><path class="cls-1" d="M11.43835,15.00964h9.16309a1.02051,1.02051,0,0,0,.88379-1.53027L16.90417,5.54382a1.05482,1.05482,0,0,0-1.76757,0l-4.58106,7.93555a1.02,1.02,0,0,0,.88281,1.53027Zm4.56348-8.96582,4.59961,7.96582-9.18066-.03027Z"/></svg>