<svg id="Icons" xmlns="http://www.w3.org/2000/svg" viewBox="0 0 32 32"><defs><style>.cls-1{fill:#5514b4;}</style></defs><path class="cls-1" d="M16,2.03033a14,14,0,1,0,14,14A14,14,0,0,0,16,2.03033Zm0,27a13,13,0,1,1,13-13A13.01474,13.01474,0,0,1,16,29.03033Z"/><path class="cls-1" d="M12.49609,14a1.50537,1.50537,0,1,0-1.50488-1.50537A1.50747,1.50747,0,0,0,12.49609,14Z"/><path class="cls-1" d="M19.50781,14a1.50147,1.50147,0,1,0-1.501-1.50146A1.50331,1.50331,0,0,0,19.50781,14Z"/><path class="cls-1" d="M21.48633,18.99463H10.52344a.5.5,0,0,0,0,1H21.48633a.5.5,0,0,0,0-1Z"/></svg>