<svg id="Icons" xmlns="http://www.w3.org/2000/svg" viewBox="0 0 32 32"><defs><style>.cls-1{fill:#5514b4;}</style></defs><path class="cls-1" d="M27,7H25V4.5a.5.5,0,0,0-1,0V7H8V4.5a.5.5,0,0,0-1,0V7H5A1.003,1.003,0,0,0,4,8V27a1.003,1.003,0,0,0,1,1H27a1.003,1.003,0,0,0,1-1V8A1.003,1.003,0,0,0,27,7Zm0,20H5V13H27Zm0-15H5V8H7v.5a.5.5,0,0,0,1,0V8H24v.5a.5.5,0,0,0,1,0V8h2Z"/><path class="cls-1" d="M12.94336,21.37842l-.47363,2.9248a.63108.63108,0,0,0,.917.66065l2.63183-1.3877,2.60938,1.397a.63059.63059,0,0,0,.91992-.65136l-.44043-2.916,1.959-1.99121a.63139.63139,0,0,0-.35157-1.06494l-2.958-.4751-1.1875-2.49463a.624.624,0,0,0-.56739-.36181H15.999a.62557.62557,0,0,0-.56836.35742l-1.208,2.51269-2.90821.46094a.63153.63153,0,0,0-.3457,1.07129Zm1.69434-2.54395a.49694.49694,0,0,0,.37207-.27685l.9873-2.05323.96973,2.03711a.49928.49928,0,0,0,.37207.27881l2.51172.40332-1.63184,1.65918a.5.5,0,0,0-.1377.4253l.36817,2.43505-2.19238-1.17382a.50184.50184,0,0,0-.46973-.00147l-2.21289,1.16651.39648-2.44971a.49879.49879,0,0,0-.14062-.43506l-1.63965-1.62647Z"/></svg>