<svg id="Icons" xmlns="http://www.w3.org/2000/svg" viewBox="0 0 32 32"><defs><style>.cls-1{fill:#5514b4;}</style></defs><path class="cls-1" d="M10.99542,11.99011V12H21.00079a1,1,0,0,0,1-1v-.02069h-1.022V6.0036a2,2,0,0,0-2-2H12.99542a2,2,0,0,0-2,2v4.97571h-.95111V11A.99468.99468,0,0,0,10.99542,11.99011Z"/><path class="cls-1" d="M27.97876,26.97571V22a2,2,0,0,0-2-2H19.99542a2,2,0,0,0-2,2v4.97571h-.95111v.02069a.99469.99469,0,0,0,.95111.99011v.00989H28.00079a1,1,0,0,0,1-1v-.02069Z"/><path class="cls-1" d="M13.97876,22a2,2,0,0,0-2-2H5.99542a2,2,0,0,0-2,2v4.97571H3.04431v.02069a.99469.99469,0,0,0,.95111.99011v.00989H14.00079a1,1,0,0,0,1-1v-.02069h-1.022Z"/><path class="cls-1" d="M8.98737,18.99585a.498.498,0,0,0,.49639-.48212H9.4873v-.01758l.00007-.0003-.00007-.00031v-1.9262a.57515.57515,0,0,1,.57422-.57422h11.874a.57515.57515,0,0,1,.57422.57422v1.92791l-.00019.00092.00019.00091v.00519h.001a.4988.4988,0,0,0,.99756,0h.00141V16.56934a1.57583,1.57583,0,0,0-1.57422-1.57422H16.49512V13.5163l.00329-.0163-.00329-.0163v-.02624h-.00531a.49265.49265,0,0,0-.98279,0h-.0119v1.53766h-5.4336A1.57583,1.57583,0,0,0,8.4873,16.56934v1.94439H8.491A.498.498,0,0,0,8.98737,18.99585Z"/></svg>