<svg id="Icons" xmlns="http://www.w3.org/2000/svg" viewBox="0 0 32 32"><defs><style>.cls-1{fill:#5514b4;}</style></defs><path class="cls-1" d="M26.85156,3.99072H5.18359A1.20156,1.20156,0,0,0,3.9834,5.19141V26.89062a1.10362,1.10362,0,0,0,1.10254,1.103H26.85156a1.17979,1.17979,0,0,0,1.17871-1.17871V5.16943A1.17979,1.17979,0,0,0,26.85156,3.99072Zm-.86657,12.207a.49972.49972,0,0,1-.10785.16217l-4.93628,4.93628a.5.5,0,0,1-.7071-.70709l4.08283-4.08282H12.77771a.49994.49994,0,1,1,0-.99988H24.31659l-4.09973-4.09967a.5.5,0,0,1,.70709-.7071l4.95319,4.95319a.50156.50156,0,0,1,.10785.54492Z"/></svg>