<svg id="Icons" xmlns="http://www.w3.org/2000/svg" viewBox="0 0 32 32"><defs><style>.cls-1{fill:#5514b4;}</style></defs><path class="cls-1" d="M23.50391,11.50238A7.5,7.5,0,1,0,12,17.83325v8.674a.49993.49993,0,0,0,.74707.43457l3.27-1.85888L19.251,26.94086a.50012.50012,0,0,0,.749-.4336V17.838A7.49413,7.49413,0,0,0,23.50391,11.50238ZM19,25.64349l-2.73242-1.56982a.49967.49967,0,0,0-.4961-.001L13,25.64789V18.37a7.45257,7.45257,0,0,0,6,.00378Zm-2.99609-7.64111a6.5,6.5,0,1,1,6.5-6.5A6.50753,6.50753,0,0,1,16.00391,18.00238Z"/></svg>