<svg id="Icons" xmlns="http://www.w3.org/2000/svg" viewBox="0 0 32 32"><defs><style>.cls-1{fill:#5514b4;}</style></defs><path class="cls-1" d="M24.59937,8.12006l3.26684-3.26654a.49995.49995,0,1,0-.707-.707L23.667,7.63818A18.137,18.137,0,0,0,16,6C8.26807,6,2,10.47717,2,16c0,3.20935,2.125,6.05811,5.41565,7.88794L4.18359,27.11963a.49995.49995,0,1,0,.707.707l3.45826-3.45795A18.14237,18.14237,0,0,0,16,26a19.22614,19.22614,0,0,0,4.0116-.42175l4.61352,2.34784A.998.998,0,0,0,26,26.999v-4.007A8.78851,8.78851,0,0,0,30,16C30,12.79541,27.88147,9.95013,24.59937,8.12006Z"/></svg>