<svg id="Icons" xmlns="http://www.w3.org/2000/svg" viewBox="0 0 32 32"><defs><style>.cls-1{fill:#5514b4;}</style></defs><path class="cls-1" d="M28,23V8a2,2,0,0,0-2-2H6A2,2,0,0,0,4,8V23H2v2a1,1,0,0,0,1,1H29a1,1,0,0,0,1-1V23ZM5,8A1.00115,1.00115,0,0,1,6,7H26a1.00115,1.00115,0,0,1,1,1V23H5ZM29,25H3V24H29Z"/><path class="cls-1" d="M19,14.0921V13.03516a3,3,0,1,0-6,0V14.0921A1.49758,1.49758,0,0,0,12,15.5v3A1.50164,1.50164,0,0,0,13.5,20h5A1.50164,1.50164,0,0,0,20,18.5v-3A1.49758,1.49758,0,0,0,19,14.0921Zm-3-3.05694a2.00229,2.00229,0,0,1,2,2V14H14v-.96484A2.00229,2.00229,0,0,1,16,11.03516ZM19,18.5a.50065.50065,0,0,1-.5.5h-5a.50065.50065,0,0,1-.5-.5v-3a.50065.50065,0,0,1,.5-.5h5a.50065.50065,0,0,1,.5.5Z"/></svg>