<svg id="Icons" xmlns="http://www.w3.org/2000/svg" viewBox="0 0 32 32"><defs><style>.cls-1{fill:#5514b4;}</style></defs><path class="cls-1" d="M24.85449,15.06982a.4996.4996,0,0,0-.70117.09082l-2.56055,3.32618a7.13092,7.13092,0,0,0-.92285,1.562L17.93359,26.4082a.99249.99249,0,0,1-1.85449-.70312L17.875,20.6748a1.99953,1.99953,0,1,0-3.88574-.65966l.04883,6.00732a.99232.99232,0,0,1-1.9834.04883l-.8877-8.71338a3.89528,3.89528,0,0,1,.42578-2.20557l1.8545-3.54687a1.61895,1.61895,0,0,1,.81152-.74365L23.65332,6.9585a.5.5,0,1,0-.38281-.92383L13.875,9.938a2.62366,2.62366,0,0,0-1.31445,1.2041l-1.8545,3.54639a4.88809,4.88809,0,0,0-.5332,2.7705l.05945.58356a.47932.47932,0,0,0-.036.05756L8.13184,23.61621a1.97167,1.97167,0,0,0-.1084.64893,1.97736,1.97736,0,0,0,3.01562,1.69769l.01953.192a1.99192,1.99192,0,0,0,3.97461.00585,1.9915,1.9915,0,0,0,3.82032.63916l2.73437-6.355a6.14469,6.14469,0,0,1,.7959-1.3457l2.5625-3.32812A.50057.50057,0,0,0,24.85449,15.06982ZM10.01562,25.25732a.99359.99359,0,0,1-.99218-.99218.942.942,0,0,1,.0498-.30957l1.38452-3.699.45118,4.4281A.98737.98737,0,0,1,10.01562,25.25732Zm5.11915.11866a2.02477,2.02477,0,0,0-.09864.46338l-.04687-5.82813a.99951.99951,0,1,1,1.999,0,1.01619,1.01619,0,0,1-.05566.33008Z"/></svg>