<svg id="Icons" xmlns="http://www.w3.org/2000/svg" viewBox="0 0 32 32"><defs><style>.cls-1{fill:#5514b4;}</style></defs><path class="cls-1" d="M26.85156,3.99072H5.18359A1.20156,1.20156,0,0,0,3.9834,5.19141V26.89062a1.10362,1.10362,0,0,0,1.10254,1.103H26.85156a1.17979,1.17979,0,0,0,1.17871-1.17871V5.16943A1.17979,1.17979,0,0,0,26.85156,3.99072ZM25.01074,14.46045a.5.5,0,1,1-1,0V8.68652L15.85156,16.8457a.49995.49995,0,0,1-.707-.707l8.15918-8.15918H17.50586a.5.5,0,0,1,0-1h7.00488a.50171.50171,0,0,1,.5.5Z"/></svg>