<svg id="Icons" xmlns="http://www.w3.org/2000/svg" viewBox="0 0 32 32"><defs><style>.cls-1{fill:#5514b4;}</style></defs><path class="cls-1" d="M12.62366,19.36536l.81482-.56458a4.524,4.524,0,0,1,5.123,0l.81476.56445L30,12.01056V10.55573a1,1,0,0,0-.47192-.84919L18.15723,2.63525A4.00009,4.00009,0,0,0,13.83942,2.63L2.47363,9.71289a.992.992,0,0,0-.47107.84357c-.00012.33642-.00024.83758-.00036,1.455Z"/><polygon class="cls-1" points="30 26.725 30 13.227 20.255 19.974 30 26.725"/><path class="cls-1" d="M11.74554,19.97388,2.002,13.22772c-.00067,3.69464-.00128,9.75879-.00164,13.4989Z"/><path class="cls-1" d="M17.99219,19.62305a3.51925,3.51925,0,0,0-3.98438,0L2.00018,27.94342c-.00006.39966-.00006.769-.00006,1.06287a.99455.99455,0,0,0,1,.99371H29a1,1,0,0,0,1-1V27.94177Z"/></svg>