<svg id="Icons" xmlns="http://www.w3.org/2000/svg" viewBox="0 0 32 32"><defs><style>.cls-1{fill:#5514b4;}</style></defs><path class="cls-1" d="M6.93005,17.00964h6.11182A1.94434,1.94434,0,0,1,14.98621,18.954V25.0658a1.94385,1.94385,0,0,1-1.94385,1.94385H6.93054a1.94434,1.94434,0,0,1-1.94434-1.94434V18.95349A1.94385,1.94385,0,0,1,6.93005,17.00964Z"/><circle class="cls-1" cx="21.98621" cy="22.00964" r="5"/><path class="cls-1" d="M11.02124,15h9.16309a1.02051,1.02051,0,0,0,.88379-1.53027L16.48706,5.53418a1.05482,1.05482,0,0,0-1.76758,0l-4.58105,7.93555A1.02,1.02,0,0,0,11.02124,15Z"/></svg>