<svg id="Icons" xmlns="http://www.w3.org/2000/svg" viewBox="0 0 32 32"><defs><style>.cls-1{fill:#5514b4;}</style></defs><path class="cls-1" d="M25.5,6H20V5.97949A1.98166,1.98166,0,0,0,18.02051,4h-4.041A1.98166,1.98166,0,0,0,12,5.97949V6H6.5a.5.5,0,0,0,0,1H8V25.02588A1.97666,1.97666,0,0,0,9.97461,27H22.02539A1.97666,1.97666,0,0,0,24,25.02588V7h1.5a.5.5,0,0,0,0-1ZM13,5.97949A.98067.98067,0,0,1,13.97949,5h4.041A.98067.98067,0,0,1,19,5.97949L13,6ZM23,25.02588A.97568.97568,0,0,1,22.02539,26H9.97461A.97566.97566,0,0,1,9,25.02588V7H23Z"/><path class="cls-1" d="M16.02148,10a.49972.49972,0,0,0-.5.5v12a.5.5,0,0,0,1,0v-12A.49971.49971,0,0,0,16.02148,10Z"/><path class="cls-1" d="M19.5,10a.49971.49971,0,0,0-.5.5v12a.5.5,0,0,0,1,0v-12A.49971.49971,0,0,0,19.5,10Z"/><path class="cls-1" d="M12.5,10a.49971.49971,0,0,0-.5.5v12a.5.5,0,0,0,1,0v-12A.49971.49971,0,0,0,12.5,10Z"/></svg>