<svg id="Icons" xmlns="http://www.w3.org/2000/svg" viewBox="0 0 32 32"><defs><style>.cls-1{fill:#5514b4;}</style></defs><circle class="cls-1" cx="16" cy="15.99756" r="1"/><path class="cls-1" d="M26.03955,6.99512H5.96045A2.96284,2.96284,0,0,0,3.001,9.95459v12.084a2.96285,2.96285,0,0,0,2.95947,2.95948h20.0791A2.96285,2.96285,0,0,0,28.999,22.03857V9.95459A2.96284,2.96284,0,0,0,26.03955,6.99512Zm1.957,13.00146H3.999v-1H27.99658ZM14,15.99756a2,2,0,1,1,2,2A2.002,2.002,0,0,1,14,15.99756Zm13.99658-3.001H3.999v-1H27.99658Z"/></svg>