<svg id="Icons" xmlns="http://www.w3.org/2000/svg" viewBox="0 0 32 32"><defs><style>.cls-1{fill:#5514b4;}</style></defs><path class="cls-1" d="M20.707,3H8A1.003,1.003,0,0,0,7,4V28a1.003,1.003,0,0,0,1,1H24a1.003,1.003,0,0,0,1-1V7.30017ZM24,28H8V4H20.00708V8.00128a1.003,1.003,0,0,0,1,1H24ZM24,8.00128H21.00708V4.71741L24,7.71033Z"/><path class="cls-1" d="M12.81445,20.88464a1.7908,1.7908,0,0,0-.84179-.18115H10.01953V25.0033h.94531V23.54138h1.00782a1.7908,1.7908,0,0,0,.84179-.18115,1.24257,1.24257,0,0,0,.52149-.501,1.6093,1.6093,0,0,0,0-1.47412A1.24441,1.24441,0,0,0,12.81445,20.88464Zm-.43652,1.71387a.65842.65842,0,0,1-.50977.18115h-.90332V21.46521h.90332a.65846.65846,0,0,1,.50977.18115.7656.7656,0,0,1,0,.95215Z"/><path class="cls-1" d="M17.02539,20.97693a2.95046,2.95046,0,0,0-1.32422-.27344H14.1416V25.0033h1.55957a2.95046,2.95046,0,0,0,1.32422-.27344,1.99207,1.99207,0,0,0,.8418-.7583,2.2937,2.2937,0,0,0,0-2.23633A1.99207,1.99207,0,0,0,17.02539,20.97693Zm-.21777,2.87158a1.5315,1.5315,0,0,1-1.10645.36865h-.61426V21.48962h.61426a1.524,1.524,0,0,1,1.10645.37159,1.48663,1.48663,0,0,1,0,1.9873Z"/><polygon class="cls-1" points="18.853 25.003 19.798 25.003 19.798 23.289 21.481 23.289 21.481 22.503 19.798 22.503 19.798 21.49 22.003 21.49 22.003 20.703 18.853 20.703 18.853 25.003"/></svg>