<svg id="Icons" xmlns="http://www.w3.org/2000/svg" viewBox="0 0 32 32"><defs><style>.cls-1{fill:#5514b4;}</style></defs><path class="cls-1" d="M7.66138,14.72986a.66528.66528,0,0,0,.76837.12536L12.286,13.426a.66543.66543,0,0,0,.32691-.71118l-.377-1.88a7.22206,7.22206,0,0,1,7.52918,0l-.37574,1.879a.66544.66544,0,0,0,.32666.71069l3.85535,1.43109a.66547.66547,0,0,0,.76819-.1247l2.47534-2.47528a.66808.66808,0,0,0,.00635-.93939c-3.28906-3.30206-7.05628-4.953-10.8219-4.95331-3.75378-.0003-7.506,1.63959-10.78558,4.91925l-.03009.03016a.668.668,0,0,0,.00586.93878Zm8.33789-7.367a14.19834,14.19834,0,0,1,9.8728,4.42133L23.78723,13.869l-3.35962-1.24707.31812-1.591.13818-.691-.60425-.36255a8.22194,8.22194,0,0,0-8.55822,0l-.60462.36274.13867.69134.31909,1.5918-3.35992,1.2453-2.082-2.088A14.18837,14.18837,0,0,1,15.99927,7.36285Z"/><path class="cls-1" d="M26.91455,16.98914H5.0921a1.09,1.09,0,0,0-1.08874,1.08874v5.82245A1.09,1.09,0,0,0,5.0921,24.98914H26.91455a1.09014,1.09014,0,0,0,1.08887-1.08881V18.07788A1.09008,1.09008,0,0,0,26.91455,16.98914Zm.08887,6.91119a.08883.08883,0,0,1-.08887.08881H5.0921a.08876.08876,0,0,1-.08874-.08881V18.07788a.08874.08874,0,0,1,.08874-.08874H26.91455a.08881.08881,0,0,1,.08887.08874Z"/><polygon class="cls-1" points="7.011 19.851 7.011 20.738 7.99 19.903 7.99 22.984 8.865 22.984 8.865 19.01 8.042 19.01 7.011 19.851"/><path class="cls-1" d="M12.51819,21.4057a2.5352,2.5352,0,0,0,.559-.64795,1.29711,1.29711,0,0,0,.15539-.6189,1.07087,1.07087,0,0,0-.17907-.60766,1.24182,1.24182,0,0,0-.492-.4231,1.63562,1.63562,0,0,0-.73413-.15545,1.77585,1.77585,0,0,0-.61889.10083,1.86121,1.86121,0,0,0-.48407.25879,2.399,2.399,0,0,0-.36609.337l.49005.52985a1.419,1.419,0,0,1,.3916-.34534,1.00744,1.00744,0,0,1,.53528-.14416.62016.62016,0,0,1,.432.14117.45931.45931,0,0,1,.15551.35425.66747.66747,0,0,1-.10144.34833,2.16131,2.16131,0,0,1-.38867.43444l-1.41,1.30719v.7085h2.80444v-.72571H11.56763Z"/><path class="cls-1" d="M16.2688,20.88763a1.09212,1.09212,0,0,0,.59338-.34588.8203.8203,0,0,0,.19593-.52936.88094.88094,0,0,0-.18116-.553,1.22119,1.22119,0,0,0-.49-.37146,1.9053,1.9053,0,0,0-1.52319.0492,2.19972,2.19972,0,0,0-.58154.43737l.49.524a1.39874,1.39874,0,0,1,.371-.30212.94484.94484,0,0,1,.46936-.11805.75422.75422,0,0,1,.42016.11213.39205.39205,0,0,1,.1731.35424.36774.36774,0,0,1-.15539.3252.613.613,0,0,1-.35718.10681h-.51856v.70252h.51856a.75835.75835,0,0,1,.4635.12646.42643.42643,0,0,1,.17016.36261.4619.4619,0,0,1-.18408.3916.74455.74455,0,0,1-.46142.13825,1.08336,1.08336,0,0,1-.52637-.121,1.50919,1.50919,0,0,1-.42908-.36847l-.56482.50135a1.92436,1.92436,0,0,0,1.544.73108,1.83252,1.83252,0,0,0,.77148-.15546,1.35367,1.35367,0,0,0,.53809-.4231,1.00059,1.00059,0,0,0,.19885-.61352.88959.88959,0,0,0-.23328-.60468A1.2225,1.2225,0,0,0,16.2688,20.88763Z"/><path class="cls-1" d="M20.7019,19.01019h-.88647l-1.90015,2.62574v.57617H19.838v.77142h.86389V22.2121h.50684v-.65094H20.7019Zm-.86389,2.551H18.74377L19.838,20.05225Z"/><path class="cls-1" d="M24.36353,20.467a1.22043,1.22043,0,0,0-.63965-.17267,1.04888,1.04888,0,0,0-.43775.092.93476.93476,0,0,0-.3562.29962l.126-.95h1.62451v-.72571H22.39355l-.23022,2.03833.66821.19037A.64184.64184,0,0,1,23.105,21.02a.87042.87042,0,0,1,.34253-.06934.6315.6315,0,0,1,.49585.19287.69488.69488,0,0,1,.17224.48114.65577.65577,0,0,1-.20471.50971.7183.7183,0,0,1-.50379.18695.919.919,0,0,1-.49792-.14661,2.24306,2.24306,0,0,1-.46924-.4118l-.558.50677a2.34141,2.34141,0,0,0,.7655.60169,1.93694,1.93694,0,0,0,.80005.16974,1.77307,1.77307,0,0,0,.798-.17267,1.33009,1.33009,0,0,0,.547-.48956,1.36111,1.36111,0,0,0,.19885-.737,1.40187,1.40187,0,0,0-.17029-.69959A1.263,1.263,0,0,0,24.36353,20.467Z"/></svg>