<svg id="Icons" xmlns="http://www.w3.org/2000/svg" viewBox="0 0 32 32"><defs><style>.cls-1{fill:#5514b4;}</style></defs><path class="cls-1" d="M23.093,9H8.907A3.95792,3.95792,0,0,0,5,12.9845v6.031A3.958,3.958,0,0,0,8.907,23H23.093A3.95794,3.95794,0,0,0,27,19.0155v-6.031A3.95791,3.95791,0,0,0,23.093,9ZM26,19.0155A2.94987,2.94987,0,0,1,23.093,22H8.907A2.94988,2.94988,0,0,1,6,19.0155v-6.031A2.94984,2.94984,0,0,1,8.907,10H23.093A2.94983,2.94983,0,0,1,26,12.9845Z"/><path class="cls-1" d="M16,12a4,4,0,1,0,4,4A4,4,0,0,0,16,12Zm0,7a3,3,0,1,1,3-3A3.00344,3.00344,0,0,1,16,19Z"/></svg>