<svg id="Icons" xmlns="http://www.w3.org/2000/svg" viewBox="0 0 32 32"><defs><style>.cls-1{fill:#5514b4;}</style></defs><path class="cls-1" d="M7.68408,14.4043a.67536.67536,0,0,0,.7749.12536l3.889-1.42926a.66494.66494,0,0,0,.32971-.71118l-.38012-1.88a7.33625,7.33625,0,0,1,7.59314,0l-.37891,1.879a.66339.66339,0,0,0,.32947.7107L23.72949,14.53a.67546.67546,0,0,0,.77466-.1247L27.00049,11.93a.66419.66419,0,0,0,.00647-.93939A15.49379,15.49379,0,0,0,16.093,6.03729,15.46426,15.46426,0,0,0,5.2157,10.95654l-.0304.03015a.664.664,0,0,0,.00586.93879Z"/><path class="cls-1" d="M23.79785,17.12842a4.51919,4.51919,0,0,0-3.94531.80322,4.50285,4.50285,0,0,0-8.29077-.42194,4.48981,4.48981,0,1,0,2.04052,5.99659,4.51371,4.51371,0,0,0,4.782-.5044,4.54242,4.54242,0,0,0,6.52,2.378,4.47671,4.47671,0,0,0,1.64843-6.15039A4.52266,4.52266,0,0,0,23.79785,17.12842ZM10.65332,23.023H8.33984V22.477h.13282a.28373.28373,0,0,0,.20019-.083.60781.60781,0,0,0,.1416-.209.63611.63611,0,0,0,.05371-.25391.50021.50021,0,0,0-.00781-.085H8.37012v-.42676H8.6748a2.20767,2.20767,0,0,1-.06835-.228,1.012,1.012,0,0,1-.03028-.24952.87343.87343,0,0,1,.12891-.47949.853.853,0,0,1,.35937-.31347,1.20421,1.20421,0,0,1,.53125-.11084,1.179,1.179,0,0,1,.54785.12548,1.28214,1.28214,0,0,1,.38965.29639l-.36621.38379a.82281.82281,0,0,0-.24023-.18311.71315.71315,0,0,0-.33594-.07714.435.435,0,0,0-.292.10254.35126.35126,0,0,0-.1211.28173.93583.93583,0,0,0,.01954.17481,1.52707,1.52707,0,0,0,.08007.24707l.0127.02978h1.01953v.42676H9.42383c.00195.03125.0039.0625.0039.09375a.59183.59183,0,0,1-.084.29834.7207.7207,0,0,1-.22168.23877h1.53125Zm6.08887-2.01233-2.31287-.02582.00623-.54547.13281.00147a.28619.28619,0,0,0,.20019-.08112.59939.59939,0,0,0,.14417-.20715.64579.64579,0,0,0,.05627-.25318.48222.48222,0,0,0-.00634-.08563l-.49048-.00549.00415-.42627.30444.00305c-.02344-.071-.04626-.147-.06445-.22821a.92967.92967,0,0,1-.02759-.25031.87494.87494,0,0,1,.1333-.47815.84971.84971,0,0,1,.36353-.30932,1.1897,1.1897,0,0,1,.53271-.10449,1.16222,1.16222,0,0,1,.54541.13128,1.27,1.27,0,0,1,.38684.30054l-.37048.37933a.83733.83733,0,0,0-.238-.1853.70911.70911,0,0,0-.335-.08093.43769.43769,0,0,0-.29321.09906.35162.35162,0,0,0-.12451.28058.952.952,0,0,0,.01782.17535,1.54616,1.54616,0,0,0,.07666.2475l.01294.03027,1.01868.01087-.004.42627-.885-.00916c.00024.03137.00268.06238.002.09387a.5833.5833,0,0,1-.08691.29724.71164.71164,0,0,1-.22412.236l1.53149.0169Zm6.99267,1.97583H21.43994v-.5459h.13281a.28267.28267,0,0,0,.19825-.083.63443.63443,0,0,0,.14062-.209.65192.65192,0,0,0,.05274-.25391.49921.49921,0,0,0-.00782-.085h-.48633v-.42676H21.773a2.20764,2.20764,0,0,1-.06836-.228,1.061,1.061,0,0,1-.03027-.24951.88133.88133,0,0,1,.12793-.4795.85071.85071,0,0,1,.35644-.31347,1.18847,1.18847,0,0,1,.52637-.11084,1.16,1.16,0,0,1,.54394.12549,1.26278,1.26278,0,0,1,.38575.29638l-.36231.38379a.82594.82594,0,0,0-.23828-.1831.70107.70107,0,0,0-.333-.07715.43172.43172,0,0,0-.29.10254.35293.35293,0,0,0-.11914.28173.92723.92723,0,0,0,.01856.17481,1.50866,1.50866,0,0,0,.0791.24707l.01269.02978h1.01075v.42676h-.87793c.00293.03125.0039.0625.0039.09375a.59054.59054,0,0,1-.083.29834.72531.72531,0,0,1-.21973.23877h1.51855Z"/></svg>