<svg id="Icons" xmlns="http://www.w3.org/2000/svg" viewBox="0 0 32 32"><defs><style>.cls-1{fill:#5514b4;}</style></defs><path class="cls-1" d="M7.66138,14.72986a.66537.66537,0,0,0,.76843.12536L12.286,13.426a.66543.66543,0,0,0,.32691-.71118l-.377-1.88a7.22206,7.22206,0,0,1,7.52918,0l-.37574,1.879a.66544.66544,0,0,0,.32666.71069l3.85535,1.43109a.66547.66547,0,0,0,.76819-.1247l2.47534-2.47528a.66808.66808,0,0,0,.00635-.93939c-3.28906-3.30206-7.05628-4.953-10.8219-4.95331-3.75378-.0003-7.506,1.63959-10.78564,4.91925l-.03.03016a.668.668,0,0,0,.00586.93878Z"/><polygon class="cls-1" points="19.838 21.561 19.838 20.052 18.744 21.561 19.838 21.561"/><path class="cls-1" d="M26.91455,16.98914H5.092a1.08986,1.08986,0,0,0-1.08862,1.08874v5.82245A1.08992,1.08992,0,0,0,5.092,24.98914H26.91455a1.09014,1.09014,0,0,0,1.08887-1.08881V18.07788A1.09008,1.09008,0,0,0,26.91455,16.98914ZM8.86548,22.98352H7.98975V19.90265l-.97913.8349V19.851l1.03113-.84082h.82373Zm4.40161,0H10.46265V22.275l1.41-1.30719a2.16131,2.16131,0,0,0,.38867-.43444.66747.66747,0,0,0,.10144-.34833.45931.45931,0,0,0-.15551-.35425.62016.62016,0,0,0-.432-.14117,1.00744,1.00744,0,0,0-.53528.14416,1.41817,1.41817,0,0,0-.3916.34534l-.49-.52985a2.40077,2.40077,0,0,1,.366-.337,1.86257,1.86257,0,0,1,.48413-.25879,1.77585,1.77585,0,0,1,.61889-.10083,1.63562,1.63562,0,0,1,.73413.15545,1.24182,1.24182,0,0,1,.492.4231,1.07087,1.07087,0,0,1,.17907.60766,1.29711,1.29711,0,0,1-.15539.6189,2.5352,2.5352,0,0,1-.559.64795l-.95056.85211h1.69946Zm3.74756-.521a1.35367,1.35367,0,0,1-.53809.4231,1.83252,1.83252,0,0,1-.77148.15546,1.92436,1.92436,0,0,1-1.544-.73108l.56482-.50135a1.50919,1.50919,0,0,0,.42908.36847,1.08336,1.08336,0,0,0,.52637.121.74455.74455,0,0,0,.46142-.13825.4619.4619,0,0,0,.18408-.3916.42643.42643,0,0,0-.17016-.36261.75835.75835,0,0,0-.4635-.12646h-.51856v-.70252h.51856a.613.613,0,0,0,.35718-.10681.36774.36774,0,0,0,.15539-.3252.39205.39205,0,0,0-.1731-.35424.75422.75422,0,0,0-.42016-.11213.94484.94484,0,0,0-.46936.11805,1.39874,1.39874,0,0,0-.371.30212l-.49-.524a2.19972,2.19972,0,0,1,.58154-.43737A1.9053,1.9053,0,0,1,16.387,19.088a1.22119,1.22119,0,0,1,.49.37146.88094.88094,0,0,1,.18116.553.8203.8203,0,0,1-.19593.52936,1.09212,1.09212,0,0,1-.59338.34588,1.2225,1.2225,0,0,1,.71142.35669.88959.88959,0,0,1,.23328.60468A1.00059,1.00059,0,0,1,17.01465,22.46252Zm4.19409-.25042H20.7019v.77142H19.838V22.2121H17.91528v-.57617l1.90015-2.62574h.88647v2.551h.50684Zm3.58374.16675a1.33009,1.33009,0,0,1-.547.48956,1.77307,1.77307,0,0,1-.798.17267,1.93694,1.93694,0,0,1-.80005-.16974,2.34141,2.34141,0,0,1-.7655-.60169l.558-.50677a2.24306,2.24306,0,0,0,.46924.4118.919.919,0,0,0,.49792.14661.7183.7183,0,0,0,.50379-.18695.65577.65577,0,0,0,.20471-.50971.69488.69488,0,0,0-.17224-.48114.6315.6315,0,0,0-.49585-.19287A.87042.87042,0,0,0,23.105,21.02a.64184.64184,0,0,0-.27344.21893l-.66821-.19037.23022-2.03833h2.28687v.72571H23.05591l-.126.95a.93476.93476,0,0,1,.3562-.29962,1.04888,1.04888,0,0,1,.43775-.092,1.22043,1.22043,0,0,1,.63965.17267,1.263,1.263,0,0,1,.45751.47528,1.40187,1.40187,0,0,1,.17029.69959A1.36111,1.36111,0,0,1,24.79248,22.37885Z"/></svg>