<svg id="Icons" xmlns="http://www.w3.org/2000/svg" viewBox="0 0 32 32"><defs><style>.cls-1{fill:#5514b4;}</style></defs><path class="cls-1" d="M26.84157,16.37024a5.98522,5.98522,0,0,0-7.88678-7.01257A6.98277,6.98277,0,0,0,6.12764,14.30524,5.99675,5.99675,0,0,0,8,26H25a4.98884,4.98884,0,0,0,1.84155-9.62976ZM25,25H8A4.99675,4.99675,0,0,1,6.4421,15.25452l.83178-.27558-.16394-.86078A5.97708,5.97708,0,0,1,12.99062,7a5.95122,5.95122,0,0,1,5.11066,2.87872l.42669.699.76947-.28064a4.98255,4.98255,0,0,1,6.5708,5.84351l-.19763.83795.79926.32A3.98886,3.98886,0,0,1,25,25Z"/><path class="cls-1" d="M18.22121,16.58118a2.45709,2.45709,0,0,0,.26868-1.10211,2.48365,2.48365,0,1,0-4.96729,0,2.45733,2.45733,0,0,0,.26862,1.102,3.70757,3.70757,0,0,0-2.28278,3.29675v.28662a.82626.82626,0,0,0,.82617.82373h7.34278a.82626.82626,0,0,0,.82617-.82373v-.28662A3.70741,3.70741,0,0,0,18.22121,16.58118Zm-2.215-2.58576a1.48365,1.48365,0,1,1-1.48364,1.48365A1.48529,1.48529,0,0,1,16.00624,13.99542Zm3.49732,5.99274H12.50844v-.11035A2.82143,2.82143,0,0,1,14.43,17.38373a2.435,2.435,0,0,0,3.15228.00012,2.82074,2.82074,0,0,1,1.92127,2.494Z"/></svg>