<svg id="Icons" xmlns="http://www.w3.org/2000/svg" viewBox="0 0 32 32"><defs><style>.cls-1{fill:#5514b4;}</style></defs><path class="cls-1" d="M9.98633,5.97705a.9786.9786,0,0,1,.97851-.978h.001L12.57324,5l.00171-.00037L13.48926,5a.5.5,0,1,0,0-1l-2.52344-.001h-.001A1.978,1.978,0,0,0,8.98633,5.97656l-.00488,8.62451a.89638.89638,0,0,1-.89551.89551H6.499a.49972.49972,0,0,0-.5.5L5.99976,16l-.00074.00342a.49972.49972,0,0,0,.5.5H8.08594a.89648.89648,0,0,1,.89551.896l.00488,8.623A1.97886,1.97886,0,0,0,10.96484,28.001h.001l2.52344-.00147a.5.5,0,1,0,0-1l-2.52344.00147h-.001a.9786.9786,0,0,1-.97851-.979l-.00488-8.623A1.88457,1.88457,0,0,0,9.35388,16a1.88368,1.88368,0,0,0,.62757-1.39844Z"/><path class="cls-1" d="M25.97681,15.99658a.49972.49972,0,0,0-.5-.5H23.88989a.89648.89648,0,0,1-.89551-.896l-.00488-8.623A1.97884,1.97884,0,0,0,21.011,3.999H21.01l-2.52344.00147a.5.5,0,1,0,0,1L21.01,4.999h.001a.9786.9786,0,0,1,.97851.979l.00488,8.623A1.88457,1.88457,0,0,0,22.62195,16a1.88368,1.88368,0,0,0-.62757,1.39844L21.9895,26.023a.9786.9786,0,0,1-.97851.978H21.01L19.40259,27l-.00171.00037L18.48657,27a.5.5,0,0,0,0,1l2.52344.001h.001a1.978,1.978,0,0,0,1.97851-1.97754l.00488-8.62451a.89638.89638,0,0,1,.89551-.89551h1.58692a.49972.49972,0,0,0,.5-.5L25.97607,16Z"/></svg>