<svg id="Icons" xmlns="http://www.w3.org/2000/svg" viewBox="0 0 32 32"><defs><style>.cls-1{fill:#5514b4;}</style></defs><path class="cls-1" d="M17.49561,4h-3a.5.5,0,0,0,0,1h3a.5.5,0,0,0,0-1Z"/><path class="cls-1" d="M23.99561,19.39813V4.001A2.00684,2.00684,0,0,0,21.99463,2H9.99664a2.00687,2.00687,0,0,0-2.001,2.001V27.999A2.00687,2.00687,0,0,0,9.99664,30h11.998a2.00684,2.00684,0,0,0,2.001-2.001v-1.272c.00073-.02734.00817-.05286.00817-.08032l.002-7.14893C24.00574,19.46368,23.99792,19.4317,23.99561,19.39813Zm-1,8.60089A1.00208,1.00208,0,0,1,21.99463,29H20.678l-.02185-.0061-3.7793.00586a2.3619,2.3619,0,0,1-2.18848-1.498L12.036,20.6687a.47338.47338,0,0,1-.03027-.1709.50065.50065,0,0,1,.5-.5.50616.50616,0,0,1,.4707.3291l1.24023,3.14844a.93732.93732,0,0,0,1.78907-.42383V14.4978a.5.5,0,0,1,1,0v6.99756a.5.5,0,0,0,1,0V19.4978a.5.5,0,0,1,1,0v2a.5.5,0,0,0,1,0v-2a.5.5,0,0,1,1,0v2a.5.5,0,0,0,1,0v-2a.496.496,0,0,1,.98987-.04974Zm0-9.91223a1.45006,1.45006,0,0,0-1.48987.30115,1.47666,1.47666,0,0,0-2,0,1.45315,1.45315,0,0,0-1.5-.298V14.4978a1.5,1.5,0,0,0-3,0v8.25391L13.90906,19.967a1.50021,1.50021,0,0,0-2.90332.53076,1.48692,1.48692,0,0,0,.0957.52686l2.65527,6.83887A3.30845,3.30845,0,0,0,14.50586,29H9.99664a1.00211,1.00211,0,0,1-1.001-1.001V4.001A1.00211,1.00211,0,0,1,9.99664,3h11.998a1.00208,1.00208,0,0,1,1.001,1.001Z"/></svg>