<svg id="Icons" xmlns="http://www.w3.org/2000/svg" viewBox="0 0 32 32"><defs><style>.cls-1{fill:#5514b4;}</style></defs><path class="cls-1" d="M26.35535,15.75916l-2.94324-1.69928a.2781.2781,0,0,0-.41718.24084V15.5H10.70032l3.35925-3.35889a.5064.5064,0,0,1,.35742-.14795h1.67273a1.49912,1.49912,0,1,0,.00421-1H14.417a1.51461,1.51461,0,0,0-1.06543.44141L9.28613,15.5H8.92926a2,2,0,1,0,0,1h2.36615l4.07373,4.07373a1.43686,1.43686,0,0,0,1.02246.42383H18V21.56a.44.44,0,0,0,.44.44h2.12a.44.44,0,0,0,.44-.44V19.44a.44.44,0,0,0-.44-.44H18.44a.44.44,0,0,0-.44.44v.55756H16.3916a.442.442,0,0,1-.31543-.13086L12.70947,16.5H22.99493v1.19928a.2781.2781,0,0,0,.41718.24084l2.94324-1.69928A.27808.27808,0,0,0,26.35535,15.75916Z"/></svg>