<svg id="Icons" xmlns="http://www.w3.org/2000/svg" viewBox="0 0 32 32"><defs><style>.cls-1{fill:#5514b4;}</style></defs><path class="cls-1" d="M23.98868,4.11009a.49995.49995,0,0,0-.707.707,15.69407,15.69407,0,0,1,0,22.29.49995.49995,0,0,0,.707.707,16.69367,16.69367,0,0,0,0-23.7041Z"/><path class="cls-1" d="M20.62344,8.02806a.49995.49995,0,0,0-.707.707,10.14141,10.14141,0,0,1,0,14.36817.49995.49995,0,0,0,.707.707,11.141,11.141,0,0,0,0-15.78223Z"/><path class="cls-1" d="M16.59317,12.031a.49983.49983,0,0,0,0,.707,4.70033,4.70033,0,0,1-.00732,6.54.49972.49972,0,1,0,.72168.69141A5.70532,5.70532,0,0,0,17.3002,12.031.49982.49982,0,0,0,16.59317,12.031Z"/><path class="cls-1" d="M13.95322,9.18352,8.34091,11.9843H4.94834a1.99677,1.99677,0,0,0-1.99463,1.99414v4.02637a1.99719,1.99719,0,0,0,1.99463,1.99463H8.34091l5.61231,2.79394a.70236.70236,0,0,0,.311.07324.69584.69584,0,0,0,.69483-.6958V9.80608a.69561.69561,0,0,0-1.00586-.62256Z"/></svg>