<svg id="Icons" xmlns="http://www.w3.org/2000/svg" viewBox="0 0 32 32"><defs><style>.cls-1{fill:#5514b4;}</style></defs><path class="cls-1" d="M24.46875,28.96407a.50156.50156,0,0,1-.23633-.05909l-8.19726-4.38769-8.27735,4.3623a.4999.4999,0,0,1-.72656-.52246l1.498-9.23144L2.19922,12.84786a.50035.50035,0,0,1,.27441-.84864l9.11914-1.44531,3.9668-8.25a.49934.49934,0,0,1,.4502-.2832h.001a.49923.49923,0,0,1,.4502.28515l3.915,8.22168,9.14453,1.47168a.50033.50033,0,0,1,.27734.84424l-6.22949,6.33447,1.39453,9.21143a.50048.50048,0,0,1-.49414.57471Zm-8.43164-5.5127a.50167.50167,0,0,1,.23633.05908l7.55176,4.042L22.542,19.08028a.5004.5004,0,0,1,.1377-.4253l5.72656-5.82226L19.958,11.47334a.49758.49758,0,0,1-.37207-.2788L16.00781,3.6794l-3.62793,7.54394a.49692.49692,0,0,1-.37207.27686l-8.40332,1.332L9.417,18.59688a.49928.49928,0,0,1,.14063.43506L8.17871,27.52706l7.625-4.01807A.50008.50008,0,0,1,16.03711,23.45137Z"/></svg>