<svg id="Icons" xmlns="http://www.w3.org/2000/svg" viewBox="0 0 32 32"><defs><style>.cls-1{fill:#5514b4;}</style></defs><path class="cls-1" d="M27.5,27.00409H5V15.59247l3.00244,3.44562,2.08545-2.43067,2.94873,3.32324,4.10059-4.52832,1.91259,1.6543,2.93262-3.48877,4.02393,4.478,1.8789-2.20313a.4998.4998,0,1,0-.76074-.64843l-1.13769,1.334L21.957,12.04346l-3.02051,3.59326-1.88427-1.62988-4.00782,4.42578L10.0752,15.08691,7.99658,17.50879,5,14.07V4.47284a.5.5,0,0,0-1,0V28.00409H27.5a.5.5,0,0,0,0-1Z"/></svg>