<svg id="Icons" xmlns="http://www.w3.org/2000/svg" viewBox="0 0 32 32"><defs><style>.cls-1{fill:#5514b4;}</style></defs><path class="cls-1" d="M29.99609,9.9822a.99879.99879,0,0,0-.99707-.99853l-18.191.01025a.96657.96657,0,0,0-.83984.44336l-3.668,4.58726-2.3125.00391a2.00353,2.00353,0,0,0-2.001,2.002l.0039,4.98077a.99913.99913,0,0,0,.9961.99952l5.07413.00042a2.49354,2.49354,0,0,0,4.88813.00061l8.1218-.00181a2.4937,2.4937,0,0,0,4.888.00055l3.04313.00267a1.00048,1.00048,0,0,0,.998-1.001ZM10.505,23.01069a1.49415,1.49415,0,1,1,1.49414-1.49415A1.4957,1.4957,0,0,1,10.505,23.01069Zm13.00986-.00219A1.49414,1.49414,0,1,1,25.009,21.51436,1.4957,1.4957,0,0,1,23.51485,23.0085Z"/></svg>