<svg id="Icons" xmlns="http://www.w3.org/2000/svg" viewBox="0 0 32 32"><defs><style>.cls-1{fill:#5514b4;}</style></defs><path class="cls-1" d="M16,2A14,14,0,1,0,30,16,14,14,0,0,0,16,2Zm0,20.99335a1,1,0,1,1,1-1A1,1,0,0,1,16,22.99335Zm2.16309-7.31464c-.88965.793-1.65821,1.47754-1.65821,2.83106a.5.5,0,1,1-1,0,4.56184,4.56184,0,0,1,1.99219-3.57715c.80469-.7168,1.5-1.33692,1.5-2.42871C18.99707,10.65625,17.38672,10,16.00684,10c-1.49512,0-3.00391.77051-3.00391,2.49121a.5.5,0,1,1-1,0C12.00293,10.43555,13.64941,9,16.00684,9c2.34961,0,3.99023,1.44043,3.99023,3.50391A4.162,4.162,0,0,1,18.16309,15.67871Z"/></svg>