<svg id="Icons" xmlns="http://www.w3.org/2000/svg" viewBox="0 0 32 32"><defs><style>.cls-1{fill:#5514b4;}</style></defs><circle class="cls-1" cx="16.00623" cy="15.47906" r="1.48364"/><path class="cls-1" d="M17.58228,17.38385A2.435,2.435,0,0,1,14.43,17.38373a2.82143,2.82143,0,0,0-1.92157,2.49408v.11035h6.99512v-.11035A2.82073,2.82073,0,0,0,17.58228,17.38385Z"/><path class="cls-1" d="M26.84155,16.37024a5.98522,5.98522,0,0,0-7.88678-7.01257A6.98277,6.98277,0,0,0,6.12762,14.30524,5.99675,5.99675,0,0,0,8,26H25a4.98884,4.98884,0,0,0,1.84155-9.62976Zm-6.338,3.79419a.82626.82626,0,0,1-.82617.82373H12.33459a.82626.82626,0,0,1-.82617-.82373v-.28662a3.70759,3.70759,0,0,1,2.28278-3.29676,2.45726,2.45726,0,0,1-.26862-1.102,2.48365,2.48365,0,0,1,4.96729,0,2.4571,2.4571,0,0,1-.26868,1.10212,3.7074,3.7074,0,0,1,2.28235,3.29663Z"/></svg>