<svg id="Icons" xmlns="http://www.w3.org/2000/svg" viewBox="0 0 32 32"><defs><style>.cls-1{fill:#5514b4;}</style></defs><path class="cls-1" d="M9.07324,23.95557a.942.942,0,0,0-.0498.30957.98865.98865,0,0,0,1.8855.41955l-.45118-4.4281Z"/><path class="cls-1" d="M16.98828,20.01123a.99951.99951,0,1,0-1.999,0l.04687,5.82813a2.02477,2.02477,0,0,1,.09864-.46338l1.79785-5.03467A1.01619,1.01619,0,0,0,16.98828,20.01123Z"/><path class="cls-1" d="M16,2A14,14,0,1,0,30,16,14,14,0,0,0,16,2Zm8.94629,13.771-2.5625,3.32812a6.14469,6.14469,0,0,0-.7959,1.3457l-2.73437,6.355a1.9915,1.9915,0,0,1-3.82032-.63916,1.99192,1.99192,0,0,1-3.97461-.00585l-.01953-.192a1.98662,1.98662,0,0,1-2.90722-2.34662l2.06445-5.51611a.47932.47932,0,0,1,.036-.05756l-.05945-.58356a4.88809,4.88809,0,0,1,.5332-2.7705l1.8545-3.54639A2.62366,2.62366,0,0,1,13.875,9.938l9.39551-3.90332a.5.5,0,1,1,.38281.92383l-9.39453,3.90332a1.61895,1.61895,0,0,0-.81152.74365l-1.8545,3.54687a3.89528,3.89528,0,0,0-.42578,2.20557l.8877,8.71338a.99232.99232,0,0,0,1.9834-.04883l-.04883-6.00732a1.99951,1.99951,0,1,1,3.88574.65966l-1.7959,5.03028a.99235.99235,0,0,0,1.85449.70312l2.73633-6.35937a7.13092,7.13092,0,0,1,.92285-1.562l2.56055-3.32618a.50034.50034,0,0,1,.793.61036Z"/></svg>