<svg id="Icons" xmlns="http://www.w3.org/2000/svg" viewBox="0 0 32 32"><defs><style>.cls-1{fill:#5514b4;}</style></defs><path class="cls-1" d="M26.84157,16.37024a5.98522,5.98522,0,0,0-7.88678-7.01257A6.98277,6.98277,0,0,0,6.12764,14.30524,5.99675,5.99675,0,0,0,8,26H25a4.98884,4.98884,0,0,0,1.84155-9.62976ZM25,25H8A4.99675,4.99675,0,0,1,6.4421,15.25452l.83178-.27558-.16394-.86078A5.97708,5.97708,0,0,1,12.99062,7a5.95122,5.95122,0,0,1,5.11066,2.87872l.42669.699.76947-.28064a4.98255,4.98255,0,0,1,6.5708,5.84351l-.19763.83795.79926.32A3.98886,3.98886,0,0,1,25,25Z"/><circle class="cls-1" cx="15.98885" cy="22.00732" r="1"/><path class="cls-1" d="M15.99373,19.02374a.49971.49971,0,0,0,.5-.5l.002-6.00976a.5.5,0,0,0-1,0l-.002,6.00976A.5.5,0,0,0,15.99373,19.02374Z"/></svg>