<svg id="Icons" xmlns="http://www.w3.org/2000/svg" viewBox="0 0 32 32"><defs><style>.cls-1{fill:#5514b4;}</style></defs><path class="cls-1" d="M20.707,3H8A1.003,1.003,0,0,0,7,4V28a1.003,1.003,0,0,0,1,1H24a1.003,1.003,0,0,0,1-1V7.30015ZM10.01471,10.43455H10.153a.42184.42184,0,0,0,.30793-.13769.96682.96682,0,0,0,.2102-.34,1.10014,1.10014,0,0,0,.07416-.37927.7104.7104,0,0,0-.02808-.19h-.662V8.88066h.44842A2.6072,2.6072,0,0,1,10.38,8.5272a1.33683,1.33683,0,0,1-.04833-.34845,1.15514,1.15514,0,0,1,.1607-.61535,1.10837,1.10837,0,0,1,.4552-.41474,1.49136,1.49136,0,0,1,.68451-.14947,1.45624,1.45624,0,0,1,.70129.16693,1.7193,1.7193,0,0,1,.5069.39728l-.408.42541a1.289,1.289,0,0,0-.32818-.26745.92941.92941,0,0,0-.47773-.11805.67255.67255,0,0,0-.46643.16413.54838.54838,0,0,0-.18432.42877,1.2639,1.2639,0,0,0,.03711.28491,2.1791,2.1791,0,0,0,.13037.3653l.01684.03424h1.38135v.50689H11.33307a1.15068,1.15068,0,0,1,.01684.19562.95666.95666,0,0,1-.13482.48609,1.0232,1.0232,0,0,1-.35407.36529h2.10627v.5929H10.01471ZM21.51105,23.99119l-10.98737.00305a.5.5,0,0,1,0-1l10.98737-.00305a.5.5,0,0,1,0,1Zm0-1.97961-10.98737.00305a.5.5,0,0,1,0-1l10.98737-.00305a.5.5,0,0,1,0,1Zm0-2.00342-10.98737.003a.5.5,0,1,1,0-1l10.98737-.003a.5.5,0,0,1,0,1Zm0-2.00348-10.98737.003a.5.5,0,0,1,0-1l10.98737-.003a.5.5,0,1,1,0,1Zm0-2.00348-10.98737.003a.5.5,0,1,1,0-1l10.98737-.003a.5.5,0,0,1,0,1ZM24,8.00126H21.00708V4.71739L24,7.71031Z"/></svg>