<svg id="Icons" xmlns="http://www.w3.org/2000/svg" viewBox="0 0 32 32"><defs><style>.cls-1{fill:#5514b4;}</style></defs><path class="cls-1" d="M26.91455,12H5.0921a1.09,1.09,0,0,0-1.08874,1.08875v5.82244A1.09,1.09,0,0,0,5.0921,20H26.91455a1.09013,1.09013,0,0,0,1.08887-1.08881V13.08875A1.09008,1.09008,0,0,0,26.91455,12Zm.08887,6.91119A.08883.08883,0,0,1,26.91455,19H5.0921a.08875.08875,0,0,1-.08874-.08881V13.08875A.08874.08874,0,0,1,5.0921,13H26.91455a.08881.08881,0,0,1,.08887.08875Z"/><polygon class="cls-1" points="10.474 14.6 9.263 15.495 9.432 14 8.505 14 8.674 15.484 7.464 14.6 7 15.4 8.379 16 7 16.6 7.464 17.4 8.684 16.495 8.516 18 9.442 18 9.273 16.527 10.474 17.4 10.937 16.6 9.558 16 10.937 15.4 10.474 14.6"/><polygon class="cls-1" points="15.474 14.6 14.263 15.495 14.432 14 13.505 14 13.674 15.484 12.464 14.6 12 15.4 13.379 16 12 16.6 12.464 17.4 13.684 16.495 13.516 18 14.442 18 14.274 16.527 15.474 17.4 15.937 16.6 14.558 16 15.937 15.4 15.474 14.6"/><polygon class="cls-1" points="20.411 14.6 19.2 15.495 19.369 14 18.442 14 18.611 15.484 17.401 14.6 16.937 15.4 18.316 16 16.937 16.6 17.401 17.4 18.621 16.495 18.453 18 19.379 18 19.211 16.527 20.411 17.4 20.874 16.6 19.495 16 20.874 15.4 20.411 14.6"/><path class="cls-1" d="M23.61169,14,22,18h.71985l.37756-.96582h1.78284L25.25684,18h.73754l-1.61169-4Zm-.28552,2.45709.66223-1.69678.66309,1.69678Z"/></svg>