<svg id="Icons" xmlns="http://www.w3.org/2000/svg" viewBox="0 0 32 32"><defs><style>.cls-1{fill:#5514b4;}</style></defs><path class="cls-1" d="M21.77728,20.38574a20.69059,20.69059,0,0,0,.212-2.9187c0-5.46533-2.083-10.42236-5.19922-12.0835L16.002,4.99878l-.77148.39258c-3.10059,1.65332-5.18359,6.61035-5.18359,12.07568a20.69041,20.69041,0,0,0,.211,2.91077A3.98958,3.98958,0,0,0,9.42969,27.032l.52636.44239.25879-.6377A3.01017,3.01017,0,0,1,11.6897,25.2851c.06622.13836.12805.28186.198.41583l.14062.26855,7.98047-.001L20.14941,25.7c.06861-.13147.12915-.27234.19422-.408a3.01071,3.01071,0,0,1,1.4591,1.54474l.25879.6377.52637-.44239a3.99012,3.99012,0,0,0-.81061-6.64624ZM16,14.967a2,2,0,1,1,2-2A2.00229,2.00229,0,0,1,16,14.967Z"/></svg>