<svg id="Icons" xmlns="http://www.w3.org/2000/svg" viewBox="0 0 32 32"><defs><style>.cls-1{fill:#5514b4;}</style></defs><path class="cls-1" d="M5.02124,4.00006A1.00374,1.00374,0,0,0,4.03,5.00378l-.00745,5.26007a.99994.99994,0,0,0,.68317.94971l5.616,2.57874a.99994.99994,0,0,0,1.1029-.40839l1.597-2.398a10.85212,10.85212,0,0,1,8,8L18.626,20.583a.99992.99992,0,0,0-.40815,1.10217l2.57587,5.61694a1,1,0,0,0,.94867.68378l5.26019-.00006a1.0037,1.0037,0,0,0,1.00489-.99121C28.035,12.98883,19.01862,3.97247,5.02124,4.00006Z"/><circle class="cls-1" cx="6" cy="26" r="2"/><circle class="cls-1" cx="11" cy="26" r="2"/><circle class="cls-1" cx="16" cy="26" r="2"/></svg>