<svg id="Icons" xmlns="http://www.w3.org/2000/svg" viewBox="0 0 32 32"><defs><style>.cls-1{fill:#5514b4;}</style></defs><path class="cls-1" d="M24.50977,21.98867,24,21.99014,23.99414,13.975a7.98466,7.98466,0,0,0-6.66046-7.86011,1.46733,1.46733,0,0,0,.15655-.65063,1.48633,1.48633,0,1,0-2.97265,0,1.46732,1.46732,0,0,0,.15826.65369,7.9849,7.9849,0,0,0-6.63971,7.857v8.0166l-.50781-.00293a1.50464,1.50464,0,1,0,0,3.00928h3.45679a1.997,1.997,0,0,0,3.99365,0h9.532a1.50464,1.50464,0,1,0-.001-3.00928ZM16.00391,4.97793a.48633.48633,0,1,1-.48633.48633A.48668.48668,0,0,1,16.00391,4.97793ZM12.98242,25.97158a.998.998,0,0,1-.99469-.97363h1.98841A.99785.99785,0,0,1,12.98242,25.97158ZM24.51074,23.998H7.52832a.50465.50465,0,0,1-.00488-1.00928l1.51269.00293V13.975a6.979,6.979,0,0,1,13.958.00049L23,22.99209l1.51074-.00342a.50464.50464,0,1,1,0,1.00928Z"/></svg>