<svg id="Icons" xmlns="http://www.w3.org/2000/svg" viewBox="0 0 32 32"><defs><style>.cls-1{fill:#5514b4;}</style></defs><path class="cls-1" d="M15.99965,2.019a13.981,13.981,0,1,0,13.98144,13.981A13.99655,13.99655,0,0,0,15.99965,2.019Zm9.7868,22.4826H21.54579l-2.36755-4.00744L21.44087,16.5h4.907l1.99079,3.51362A12.96484,12.96484,0,0,1,25.78645,24.50159Zm-3.98236,1H24.815a12.97676,12.97676,0,0,1-4.5863,2.75794Zm-3.49487-5.50207H13.68635L11.42042,16l2.266-3.99951h4.62275L20.57472,16Zm-8.25476,5.50207,1.53839,2.69263a12.979,12.979,0,0,1-4.40766-2.69263Zm.39489-1H6.2137a12.95424,12.95424,0,0,1-2.66718-4.86786L5.32173,16.5h5.2326l2.26307,3.99415ZM3.01918,15.99994a12.95625,12.95625,0,0,1,.19873-2.18487L4.45558,16,3.21791,18.18494A12.95713,12.95713,0,0,1,3.01918,15.99994ZM6.21357,7.49842h4.31916l2.28711,4.003L10.55433,15.5H5.32173L3.54652,12.36622A12.95514,12.95514,0,0,1,6.21357,7.49842Zm4.36915-1.007-.00245.007H7.185a12.96391,12.96391,0,0,1,5.13019-2.939ZM26.34779,15.5H21.44087l-2.26508-3.99853,2.28669-4.003h4.32409a12.96585,12.96585,0,0,1,2.55207,4.48785ZM21.55958,6.49842a.47322.47322,0,0,0-.0238-.06873L19.869,3.60846a12.97256,12.97256,0,0,1,4.946,2.89ZM18.50551,3.26679l2.14672,3.63409-2.34179,4.09961H13.68513L11.41554,7.028c.00793-.01123.02136-.01575.0285-.02783L13.6653,3.24061a12.60342,12.60342,0,0,1,4.84021.02618Zm-5.522,25.34589-1.87463-3.28119c.00818-.01233.0133-.02753.02057-.0409.01068-.01428.02783-.02051.03711-.03619l2.51391-4.25488h4.63471l2.49572,4.22485-1.95977,3.43085a12.58958,12.58958,0,0,1-5.86762-.04254Zm15.72632-9.97242L27.21394,16l1.49585-2.64032a12.98329,12.98329,0,0,1,0,5.28058Z"/></svg>