<svg id="Icons" xmlns="http://www.w3.org/2000/svg" viewBox="0 0 32 32"><defs><style>.cls-1{fill:#5514b4;}</style></defs><path class="cls-1" d="M19.97461,16.00049,19.04834,13.856l-3.04,6.92871L11.98682,11.686l-1.998,4.32568h-5.225C7.404,23.69989,16,28,16,28s8.34265-4.87146,11.11328-11.99951Z"/><path class="cls-1" d="M9.34912,15.01172l2.65723-5.7544,3.999,9.0459,3.05078-6.95312,1.57569,3.65039h6.83123A12.01139,12.01139,0,0,0,28,11.5C28,7.91016,26,4,21.5,4A6.48928,6.48928,0,0,0,16,7.04706,6.48928,6.48928,0,0,0,10.5,4C6,4,4,7.91016,4,11.5a13.68541,13.68541,0,0,0,.4635,3.51172Z"/></svg>