<svg id="Icons" xmlns="http://www.w3.org/2000/svg" viewBox="0 0 32 32"><defs><style>.cls-1{fill:#5514b4;}</style></defs><path class="cls-1" d="M6.83024,16.99274H14.173a.82626.82626,0,0,0,.82617-.82373v-.28662a3.70743,3.70743,0,0,0-2.28235-3.29664,2.457,2.457,0,0,0,.26868-1.10211,2.48365,2.48365,0,0,0-4.96729,0,2.45726,2.45726,0,0,0,.26862,1.102,3.70759,3.70759,0,0,0-2.28278,3.29676V16.169A.82626.82626,0,0,0,6.83024,16.99274ZM10.50187,10a1.48365,1.48365,0,1,1-1.48364,1.48364A1.48529,1.48529,0,0,1,10.50187,10Z"/><path class="cls-1" d="M17.83024,16.99274H25.173a.82626.82626,0,0,0,.82617-.82373v-.28662a3.70743,3.70743,0,0,0-2.28235-3.29664,2.457,2.457,0,0,0,.26868-1.10211,2.48365,2.48365,0,0,0-4.96729,0,2.45726,2.45726,0,0,0,.26862,1.102,3.70759,3.70759,0,0,0-2.28278,3.29676V16.169A.82626.82626,0,0,0,17.83024,16.99274ZM21.50187,10a1.48365,1.48365,0,1,1-1.48364,1.48364A1.48529,1.48529,0,0,1,21.50187,10Z"/><path class="cls-1" d="M27.5,20a1.49586,1.49586,0,0,0-1.40509.99011l-1.09827.00452A1.00576,1.00576,0,0,0,23.99192,20H19.00645a1.00536,1.00536,0,0,0-1.004.991l-4.00512.00732A1.00625,1.00625,0,0,0,12.99192,20H8.00645a1.00579,1.00579,0,0,0-1.00458.9939l-1.09424.00445a1.50019,1.50019,0,1,0,.001,1l1.09076-.00445A1.00719,1.00719,0,0,0,8.00645,23h4.98547A1.00665,1.00665,0,0,0,13.998,21.99835l4.00116-.00726v.00165A1.00729,1.00729,0,0,0,19.00645,23h4.98547a1.007,1.007,0,0,0,1.0069-1.00537l1.08991-.00446A1.49734,1.49734,0,1,0,27.5,20Z"/></svg>