<svg id="Icons" xmlns="http://www.w3.org/2000/svg" viewBox="0 0 32 32"><defs><style>.cls-1{fill:#5514b4;}</style></defs><path class="cls-1" d="M23.05377,14.00293h-.68756V11.37549a6.36572,6.36572,0,1,0-12.73144,0v2.62744H8.94128v-.002A1.93439,1.93439,0,0,0,7.00684,15.9353l.00225.00006v9.13831H7.00836a1.93446,1.93446,0,0,0,1.93445,1.93445l.02808-.00153H23.05377a1.93446,1.93446,0,0,0,1.93445-1.93445V15.9353A1.93268,1.93268,0,0,0,23.05377,14.00293Zm-12.419-2.62744a5.36572,5.36572,0,1,1,10.73144,0v2.62744H10.63477ZM23.98822,25.07214a.93551.93551,0,0,1-.93445.93445H8.97089l-.04755.00128a.93328.93328,0,0,1-.91425-.9342V15.93536L8.009,15.8725a.93578.93578,0,0,1,.87073-.86957H23.05377a.93447.93447,0,0,1,.93445.93237Z"/></svg>