<svg id="Icons" xmlns="http://www.w3.org/2000/svg" viewBox="0 0 32 32"><defs><style>.cls-1{fill:#5514b4;}</style></defs><path class="cls-1" d="M21.49524,26.551a4.61584,4.61584,0,0,0-3.18756-4.10645l-.28589-.11261a3.46162,3.46162,0,0,1-4.05292-.00012l-.28619.11273A4.61588,4.61588,0,0,0,10.49524,26.551L10.499,28H21.49518Z"/><circle class="cls-1" cx="15.99542" cy="19.48706" r="2.5"/><path class="cls-1" d="M27.64044,13.23688,16.62994,4.22833a.99991.99991,0,0,0-1.26709,0l-11.00146,9.008a1,1,0,0,0-.36017.76849L4,26.99988A1,1,0,0,0,5,28H9.48511l.01013-1.449a5.51093,5.51093,0,0,1,3.70154-4.98151,3.50006,3.50006,0,1,1,5.59717.00012A5.51092,5.51092,0,0,1,22.49524,26.551L22.5011,28h4.4978a1,1,0,0,0,1-.99994L28,14.00616A.99968.99968,0,0,0,27.64044,13.23688Z"/></svg>