<svg id="Icons" xmlns="http://www.w3.org/2000/svg" viewBox="0 0 32 32"><defs><style>.cls-1{fill:#5514b4;}</style></defs><path class="cls-1" d="M25.5,6H20V5.97949A1.98166,1.98166,0,0,0,18.02051,4h-4.041A1.98166,1.98166,0,0,0,12,5.97949V6H6.5a.5.5,0,0,0,0,1H8V25.02588A1.97666,1.97666,0,0,0,9.97461,27H22.02539A1.97666,1.97666,0,0,0,24,25.02588V7h1.5a.5.5,0,0,0,0-1ZM13,5.97949A.98067.98067,0,0,1,13.97949,5h4.041A.98067.98067,0,0,1,19,5.97949L13,6ZM13,22.5a.5.5,0,0,1-1,0v-12a.5.5,0,0,1,1,0Zm3.52148,0a.5.5,0,0,1-1,0v-12a.5.5,0,0,1,1,0ZM20,22.5a.5.5,0,0,1-1,0v-12a.5.5,0,0,1,1,0Z"/></svg>