<svg id="Icons" xmlns="http://www.w3.org/2000/svg" viewBox="0 0 32 32"><defs><style>.cls-1{fill:#5514b4;}</style></defs><path class="cls-1" d="M27.98553,12H26V6H2V19H8.97894v5.00659A1.99342,1.99342,0,0,0,10.97235,26H27.98553a1.99345,1.99345,0,0,0,1.99341-1.99341V13.99341A1.99342,1.99342,0,0,0,27.98553,12ZM25,7v5H24V10.293L21.707,8H16V7ZM16,9h5.293L23,10.707V12H16ZM15,7v5H13V7ZM3,18V7h9V8H6.293L4,10.293V14.707L6.293,17h2.686v1Zm5.97894-4.00659V16H6.707L5,14.293V10.707L6.707,9H12v3H10.97235A1.99338,1.99338,0,0,0,8.97894,13.99341ZM27.37012,22.999h-14.875a.5.5,0,0,1,0-1h14.875a.5.5,0,0,1,0,1Zm-4.36768-2.87237V18.87177a.87114.87114,0,0,1,.87116-.87116h2.25769a.87113.87113,0,0,1,.87115.87116v1.25488a.87118.87118,0,0,1-.87115.87121H23.8736A.87119.87119,0,0,1,23.00244,20.12665Zm5.99384-3.13007H9.98047v-2H28.99628Z"/></svg>