<svg id="Icons" xmlns="http://www.w3.org/2000/svg" viewBox="0 0 32 32"><defs><style>.cls-1{fill:#5514b4;}</style></defs><path class="cls-1" d="M23.41148,5.00273l2.58579,2.58579L9.58578,24H7V21.41422L23.41052,5.00281l.001-.00008m0-1a.99689.99689,0,0,0-.7071.29289L6.29289,20.70711A1,1,0,0,0,6,21.41422V25H9.58578a1,1,0,0,0,.70711-.29289L26.70438,8.29562a1,1,0,0,0,0-1.41421L24.11859,4.29562a.99691.99691,0,0,0-.70711-.29289Z"/><path class="cls-1" d="M27.5,28H4.5a.5.5,0,0,1,0-1h23a.5.5,0,0,1,0,1Z"/><path class="cls-1" d="M23.51758,10.9751a.49839.49839,0,0,1-.35352-.14649L20.18115,7.84619a.49995.49995,0,1,1,.707-.707l2.98291,2.98242a.5.5,0,0,1-.35351.85352Z"/></svg>