<svg id="Icons" xmlns="http://www.w3.org/2000/svg" viewBox="0 0 32 32"><defs><style>.cls-1{fill:#5514b4;}</style></defs><path class="cls-1" d="M26.101,7a1.00113,1.00113,0,0,1,1,1V20.00084A1.0003,1.0003,0,0,1,26.10179,21H6.10589A1.00607,1.00607,0,0,1,5.101,19.99507V8a1.00113,1.00113,0,0,1,1-1h20m0-1h-20a2,2,0,0,0-2,2V19.99507A2.00493,2.00493,0,0,0,6.10589,22h19.9959A1.99918,1.99918,0,0,0,28.101,20.00084V8a2,2,0,0,0-2-2Z"/><path class="cls-1" d="M28.101,24v1h-24V24h24m1-1h-26v2a1,1,0,0,0,1,1h24a1,1,0,0,0,1-1V23Z"/></svg>