<svg id="Icons" xmlns="http://www.w3.org/2000/svg" viewBox="0 0 32 32"><defs><style>.cls-1{fill:#5514b4;}</style></defs><path class="cls-1" d="M27.82715,5.15332a.49945.49945,0,0,0-.707-.03125l-2.24384,2.0542L20.707,3H8A1.003,1.003,0,0,0,7,4V23.54169L4.14355,26.15674a.50008.50008,0,0,0,.67579.7373L7,24.89771V28a1.003,1.003,0,0,0,1,1H24a1.003,1.003,0,0,0,1-1V8.419l2.7959-2.55957A.5.5,0,0,0,27.82715,5.15332Zm-6.82007-.43591L24,7.71033v.26819l-.0249.02276h-2.968ZM8,4H20.00708V8.00128a1.003,1.003,0,0,0,1,1h1.87567l-3.27746,3.00049-9.08161.0025a.5.5,0,0,0,0,1l7.989-.00219L17.4162,14.00586l-6.89252.00189a.5.5,0,0,0,0,1l5.79987-.00159-1.09638,1.00373-4.70349.00128a.5.5,0,1,0,0,1l3.61084-.001L13.03809,18.014l-2.51441.00067a.5.5,0,0,0,0,1l1.42175-.00037-1.07037.97986-.35138.00012a.49972.49972,0,0,0-.5.5.489.489,0,0,0,.05951.2248L8,22.62622ZM24,28H8V23.98218l3.264-2.9881,10.24707-.00287a.5.5,0,0,0,0-1l-9.15442.00256,1.07037-.97992,8.08405-.00225a.5.5,0,0,0,0-1l-6.9914.00195,1.09644-1.00378,5.895-.00159a.5.5,0,0,0,0-1l-4.80231.00128,1.09644-1.00372,3.70587-.001a.5.5,0,0,0,0-1l-2.61322.00073,1.09643-1.00378,1.51679-.00043a.5.5,0,0,0,0-1l-.42414.00012L24,9.33447Z"/></svg>