<svg id="Icons" xmlns="http://www.w3.org/2000/svg" viewBox="0 0 32 32"><defs><style>.cls-1{fill:#5514b4;}</style></defs><path class="cls-1" d="M16,2A14,14,0,1,0,30,16,14,14,0,0,0,16,2ZM9.28839,11.0227h11.793L17.93488,7.87622a.49995.49995,0,0,1,.707-.707l4.35351,4.35351-4.35351,4.35352a.49995.49995,0,0,1-.707-.707l3.14648-3.14649H9.28839a.5.5,0,0,1,0-1Zm13.21161,10H10.707l3.14649,3.14649a.49995.49995,0,1,1-.707.707L8.793,20.5227l4.35351-4.35351a.49995.49995,0,0,1,.707.707L10.707,20.0227H22.5a.5.5,0,0,1,0,1Z"/></svg>