<svg id="Icons" xmlns="http://www.w3.org/2000/svg" viewBox="0 0 32 32"><defs><style>.cls-1{fill:#5514b4;}</style></defs><path class="cls-1" d="M9.001,16H22.999A2.00687,2.00687,0,0,0,25,13.999V7.001A2.00687,2.00687,0,0,0,22.999,5H9.001A2.00687,2.00687,0,0,0,7,7.001V13.999A2.00687,2.00687,0,0,0,9.001,16ZM8,7.001A1.00212,1.00212,0,0,1,9.001,6H22.999A1.00212,1.00212,0,0,1,24,7.001V13.999A1.00211,1.00211,0,0,1,22.999,15H9.001A1.00211,1.00211,0,0,1,8,13.999Z"/><path class="cls-1" d="M12.5,14.00688a3.5,3.5,0,1,0-3.5-3.5A3.50424,3.50424,0,0,0,12.5,14.00688Zm.5-5.9494a2.491,2.491,0,0,1,1.33514.76513L13,9.62358Zm-1,0v2.4494a.5.5,0,0,0,.75732.42871l2.09131-1.25482A2.46973,2.46973,0,0,1,15,10.50688a2.5,2.5,0,1,1-3-2.4494Z"/><path class="cls-1" d="M17.5,9h5a.5.5,0,1,0,0-1h-5a.5.5,0,0,0,0,1Z"/><path class="cls-1" d="M17.5,11h5a.5.5,0,0,0,0-1h-5a.5.5,0,0,0,0,1Z"/><path class="cls-1" d="M17.5,13h2.99512a.5.5,0,0,0,0-1H17.5a.5.5,0,0,0,0,1Z"/><path class="cls-1" d="M11.01562,21.01518H7.90253L6.99268,17.3975a.5.5,0,0,0-.96973.24414l.98975,3.93543v3.92346a.5.5,0,0,0,1,0V22.0142l2.99658-.00537v3.4917a.5.5,0,0,0,1,0v-3.4917A.99484.99484,0,0,0,11.01562,21.01518Z"/><path class="cls-1" d="M18.5,25.01078H16.49023v-5.02H22.502a.5.5,0,0,0,0-1H9.50928a.5.5,0,0,0,0,1h5.981v5.02H13.50488a.5.5,0,1,0,0,1H18.5a.5.5,0,0,0,0-1Z"/><path class="cls-1" d="M25.63129,17.03471a.5005.5005,0,0,0-.60694.36279l-.90985,3.61768H21.0014a.99484.99484,0,0,0-.99365.99365v3.4917a.5.5,0,0,0,1,0v-3.4917l2.99658.00537v3.48633a.5.5,0,0,0,1,0V21.57707l.98975-3.93543A.5.5,0,0,0,25.63129,17.03471Z"/></svg>