<svg id="Icons" xmlns="http://www.w3.org/2000/svg" viewBox="0 0 32 32"><defs><style>.cls-1{fill:#5514b4;}</style></defs><path class="cls-1" d="M27.64044,13.23688,16.62994,4.22833a.99991.99991,0,0,0-1.26709,0l-11.00146,9.008a1,1,0,0,0-.36017.76849L4,26.99988A1,1,0,0,0,5,28H26.9989a1,1,0,0,0,1-.99994L28,14.00616A.99968.99968,0,0,0,27.64044,13.23688Zm-11.645,8.75018a2.5,2.5,0,1,1,2.5-2.5A2.50279,2.50279,0,0,1,15.99542,21.98706Zm-2.31274.45752.28619-.11273a3.46162,3.46162,0,0,0,4.05292.00012l.28589.11261A4.61584,4.61584,0,0,1,21.49524,26.551v.436l-11,.00342V26.551A4.61588,4.61588,0,0,1,13.68268,22.44458ZM26.9989,27H22.49329l.002-.00952V26.551A5.51092,5.51092,0,0,0,18.794,21.56964a3.5,3.5,0,1,0-5.59717-.00012A5.51093,5.51093,0,0,0,9.49524,26.551v.43945L9.49719,27H5L4.99493,14.01007,15.9967,5.00177v.00049L27,14.0061Z"/></svg>