<svg id="Icons" xmlns="http://www.w3.org/2000/svg" viewBox="0 0 32 32"><defs><style>.cls-1{fill:#5514b4;}</style></defs><path class="cls-1" d="M26.5,13h-2a.5.5,0,0,0,0,1h2a.5.5,0,0,0,0-1Z"/><circle class="cls-1" cx="25.5" cy="24.5" r="0.5"/><path class="cls-1" d="M28.019,11H28V8a2,2,0,0,0-2-2H6A2,2,0,0,0,4,8V23H2v2a1,1,0,0,0,1,1H21.27374a1.97678,1.97678,0,0,0,1.712,1H28.019a1.98552,1.98552,0,0,0,1.9834-1.9834V12.9834A1.98552,1.98552,0,0,0,28.019,11ZM5,8A1.00115,1.00115,0,0,1,6,7H26a1.00115,1.00115,0,0,1,1,1v3H22.98578a1.98552,1.98552,0,0,0-1.9834,1.9834V23H5ZM21,25H3V24H21Zm8.00238.0166A.98422.98422,0,0,1,28.019,26h-5.0332a.98422.98422,0,0,1-.9834-.9834V12.9834A.98422.98422,0,0,1,22.98578,12H28.019a.98422.98422,0,0,1,.9834.9834Z"/><path class="cls-1" d="M22.08032,10.02747h3.92456V7.98376H5.997v14.0268h14.016V12.09479A2.06736,2.06736,0,0,1,22.08032,10.02747Z"/></svg>