<svg id="Icons" xmlns="http://www.w3.org/2000/svg" viewBox="0 0 32 32"><defs><style>.cls-1{fill:#5514b4;}</style></defs><path class="cls-1" d="M9.07012,16.71094l-1.31641-.3916L8.36992,11.293h5.32032v1.456H9.62969l-.36426,2.772a2.31371,2.31371,0,0,1,.90332-.77686,2.67121,2.67121,0,0,1,1.1416-.24512,2.88186,2.88186,0,0,1,1.56055.43409A3.21331,3.21331,0,0,1,13.97735,16.102a3.33746,3.33746,0,0,1,.4121,1.65918,3.24169,3.24169,0,0,1-.46875,1.75684,3.17473,3.17473,0,0,1-1.28125,1.16211,4.0522,4.0522,0,0,1-1.86132.41308,4.42581,4.42581,0,0,1-1.85547-.39892A5.0692,5.0692,0,0,1,7.22149,19.3291l1.13476-1.00781a4.31664,4.31664,0,0,0,1.11231.98682,2.422,2.422,0,0,0,1.25293.34326,2.013,2.013,0,0,0,1.42187-.51123,1.80562,1.80562,0,0,0,.55274-1.39307,1.9392,1.9392,0,0,0-.51075-1.36475,1.80529,1.80529,0,0,0-1.39355-.55322,2.20613,2.20613,0,0,0-.98731.22412A1.81843,1.81843,0,0,0,9.07012,16.71094Z"/><path class="cls-1" d="M19.84942,21.09326a4.18369,4.18369,0,0,1-2.22559-.61621,4.43777,4.43777,0,0,1-1.61035-1.74316,5.61163,5.61163,0,0,1-.60254-2.68067,5.39123,5.39123,0,0,1,.37793-2.0581,4.8117,4.8117,0,0,1,1.05078-1.59619,4.55706,4.55706,0,0,1,1.582-1.02881,5.32123,5.32123,0,0,1,1.96-.35694,5.21006,5.21006,0,0,1,2.21192.44776,5.54,5.54,0,0,1,1.80566,1.40039l-1.17578,1.064a4.34061,4.34061,0,0,0-1.28809-1.05713,3.37442,3.37442,0,0,0-1.55371-.34326,3.17747,3.17747,0,0,0-1.63867.42725,3.01776,3.01776,0,0,0-1.14746,1.21777,3.96262,3.96262,0,0,0-.41992,1.8833,4.16451,4.16451,0,0,0,.40625,1.92481,2.84042,2.84042,0,0,0,1.10547,1.19726,3.09707,3.09707,0,0,0,1.582.40576,2.88668,2.88668,0,0,0,1.42773-.34277,2.81977,2.81977,0,0,0,.97363-.86133,1.81934,1.81934,0,0,0,.35645-1.03564H20.451V15.88525h4.28418v5.06788H23.08379V19.105a3.47785,3.47785,0,0,1-1.31641,1.477A3.61373,3.61373,0,0,1,19.84942,21.09326Z"/></svg>