<svg id="Icons" xmlns="http://www.w3.org/2000/svg" viewBox="0 0 32 32"><defs><style>.cls-1{fill:#5514b4;}</style></defs><path class="cls-1" d="M21.5,5C25.84161,5,27,9.08578,27,11.5c0,7.77261-8.87035,13.95215-11.03378,15.34317C13.7903,25.60791,5,20.08405,5,11.5,5,9.08578,6.15839,5,10.5,5a5.47358,5.47358,0,0,1,4.65359,2.57962L16,8.9248l.84641-1.34518A5.47358,5.47358,0,0,1,21.5,5m0-1A6.48928,6.48928,0,0,0,16,7.04706,6.48928,6.48928,0,0,0,10.5,4C6,4,4,7.91016,4,11.5,4,22,16,28,16,28s12-7,12-16.5C28,7.91016,26,4,21.5,4Z"/></svg>