<svg id="Icons" xmlns="http://www.w3.org/2000/svg" viewBox="0 0 32 32"><defs><style>.cls-1{fill:#5514b4;}</style></defs><path class="cls-1" d="M25.97949,18.99854H23.50977v-2.4292a1.57583,1.57583,0,0,0-1.57422-1.57422H16.49512V13h2.48633A1.01943,1.01943,0,0,0,20,11.98193V6.01807A1.01943,1.01943,0,0,0,18.98145,5H13.01758A1.01859,1.01859,0,0,0,12,6.01807v5.96386A1.01859,1.01859,0,0,0,13.01758,13h2.47754v1.99512h-5.4336A1.57583,1.57583,0,0,0,8.4873,16.56934v2.4292H6.02441A1.01943,1.01943,0,0,0,5.00586,20.0166v5.96387a1.01944,1.01944,0,0,0,1.01855,1.01807h5.96387a1.01861,1.01861,0,0,0,1.01758-1.01807V20.0166a1.0186,1.0186,0,0,0-1.01758-1.01806H9.4873v-2.4292a.57515.57515,0,0,1,.57422-.57422h11.874a.57515.57515,0,0,1,.57422.57422v2.4292H20.01562a1.01859,1.01859,0,0,0-1.01757,1.01806v5.96387a1.0186,1.0186,0,0,0,1.01757,1.01807h5.96387a1.01944,1.01944,0,0,0,1.01856-1.01807V20.0166A1.01943,1.01943,0,0,0,25.97949,18.99854Z"/></svg>