<svg id="Icons" xmlns="http://www.w3.org/2000/svg" viewBox="0 0 32 32"><defs><style>.cls-1{fill:#5514b4;}</style></defs><path class="cls-1" d="M27,7H25V4.5a.5.5,0,0,0-1,0V7H8V4.5a.5.5,0,0,0-1,0V7H5A1.003,1.003,0,0,0,4,8V27a1.003,1.003,0,0,0,1,1H27a1.003,1.003,0,0,0,1-1V8A1.003,1.003,0,0,0,27,7ZM7,8v.5a.5.5,0,0,0,1,0V8H24v.5a.5.5,0,0,0,1,0V8h2v4H5V8ZM5,27V13H27V27Z"/><path class="cls-1" d="M20.14648,16.14648,14.5,21.793l-2.64648-2.64649a.5.5,0,0,0-.707.707L14.5,23.207l6.35352-6.35351a.5.5,0,0,0-.707-.707Z"/></svg>