<svg id="Icons" xmlns="http://www.w3.org/2000/svg" viewBox="0 0 32 32"><defs><style>.cls-1{fill:#5514b4;}</style></defs><path class="cls-1" d="M18.5,11A1.5,1.5,0,1,0,17,12.5,1.50164,1.50164,0,0,0,18.5,11Zm-2,0a.5.5,0,1,1,.5.5A.50065.50065,0,0,1,16.5,11Z"/><path class="cls-1" d="M19,16.5A2.5,2.5,0,1,0,21.5,19,2.50263,2.50263,0,0,0,19,16.5Zm0,4A1.5,1.5,0,1,1,20.5,19,1.50164,1.50164,0,0,1,19,20.5Z"/><path class="cls-1" d="M10.5,15.5a2,2,0,1,0,2,2A2.00229,2.00229,0,0,0,10.5,15.5Zm0,3a1,1,0,1,1,1-1A1.001,1.001,0,0,1,10.5,18.5Z"/><path class="cls-1" d="M25.98926,14.00635h-.002l-1.29982.00342a9.41745,9.41745,0,0,0-1.10838-2.54151l.71582-.68945A2.00443,2.00443,0,0,0,22.93555,7.334a2.10415,2.10415,0,0,0-1.42578.5625l-.71875.69239A9.55607,9.55607,0,0,0,17.52734,7.2002l-.00293-2.21338a2.0044,2.0044,0,0,0-4.00879.00048l.001,2.20264a9.42247,9.42247,0,0,0-2.52832.92871l-.33887-.33008a2.05246,2.05246,0,0,0-2.834,0,2.00225,2.00225,0,0,0-.00781,2.82666l.11816.123a9.58343,9.58343,0,0,0-1.60547,3.2666l-1.30859.00244a2.00953,2.00953,0,0,0-1.41309.57325,1.95825,1.95825,0,0,0-.58886,1.41015,2.00385,2.00385,0,0,0,2.0039,2.002H5.0166l1.083-.002a9.53556,9.53556,0,0,0,1.31055,3.52393l-1.377,1.32959a2.00422,2.00422,0,1,0,2.78614,2.88183l1.37109-1.32714a9.53942,9.53942,0,0,0,3.35254,1.416v.14893a2.00391,2.00391,0,1,0,4.00781-.001v-.168a9.51516,9.51516,0,0,0,3.71973-1.72656l1.084,1.09424a2.00444,2.00444,0,1,0,2.833-2.83643L23.874,21.02588a9.3685,9.3685,0,0,0,1.02246-3.01172l1.09668.00049a2.00415,2.00415,0,0,0-.0039-4.0083Zm.00293,3.0083-1.97949-.00049-.04981.44434A8.41588,8.41588,0,0,1,22.82031,20.856l-.20019.33593,1.8623,1.84327A1.00438,1.00438,0,0,1,23.06348,24.457L21.33887,22.7168l-.35254.29736a8.49766,8.49766,0,0,1-4.02149,1.877l-.416.07178.002,1.001a1.00391,1.00391,0,1,1-2.00781-.001l-.002-.98877-.41895-.06836a8.51912,8.51912,0,0,1-3.68459-1.55615l-.3408-.25244L8.124,25.00732a1.004,1.004,0,1,1-1.3955-1.44384L8.70605,21.6543l-.23828-.34864A8.50877,8.50877,0,0,1,7.03418,17.436l-.04883-.44629-1.9707.00293h-.001a1.00443,1.00443,0,0,1-1.0039-1.00293.96458.96458,0,0,1,.29-.69532,1.01421,1.01421,0,0,1,.71387-.28711l2.09473-.00439.08887-.3877A8.58006,8.58006,0,0,1,8.97168,11.0293l.28809-.34326-.73731-.77a1.00259,1.00259,0,0,1,0-1.42041,1.02459,1.02459,0,0,1,1.42481.00488l.88671.86328.32911-.19531a8.44028,8.44028,0,0,1,2.93554-1.0708l.418-.06934-.001-3.041a1.0044,1.0044,0,0,1,2.00879,0l.00293,3.04688.416.0708A8.53891,8.53891,0,0,1,20.5459,9.6377l.33984.25L22.2041,8.61621A.87687.87687,0,0,1,22.919,8.334a1.004,1.004,0,0,1,.68164,1.7251l-1.31934,1.27051.24023.34961a8.44126,8.44126,0,0,1,1.28809,2.94141l.08789.39111,2.0918-.00537h.001a1.00415,1.00415,0,0,1,.002,2.0083Z"/></svg>