<svg id="Icons" xmlns="http://www.w3.org/2000/svg" viewBox="0 0 32 32"><defs><style>.cls-1{fill:#5514b4;}</style></defs><path class="cls-1" d="M20.23376,21.29614a.49967.49967,0,0,0,.7071,0l4.93628-4.93628a.50156.50156,0,0,0,0-.70709L20.924,10.69958a.5.5,0,0,0-.70709.7071l4.09973,4.09967H12.77771a.49994.49994,0,1,0,0,.99988H24.31659l-4.08283,4.08282A.49968.49968,0,0,0,20.23376,21.29614Z"/><path class="cls-1" d="M27.53027,9.00342a.49971.49971,0,0,0,.5-.5v-3.334a1.17979,1.17979,0,0,0-1.17871-1.17871H5.18359A1.20156,1.20156,0,0,0,3.9834,5.19141V26.89062a1.10362,1.10362,0,0,0,1.10254,1.103H26.85156a1.17979,1.17979,0,0,0,1.17871-1.17871V23.94873a.5.5,0,1,0-1,0v2.86621a.17879.17879,0,0,1-.17871.17871H5.08594a.10294.10294,0,0,1-.10254-.103V5.19141a.20058.20058,0,0,1,.20019-.20069h21.668a.17879.17879,0,0,1,.17871.17871v3.334A.49972.49972,0,0,0,27.53027,9.00342Z"/></svg>