<svg id="Icons" xmlns="http://www.w3.org/2000/svg" viewBox="0 0 32 32"><defs><style>.cls-1{fill:#5514b4;}</style></defs><path class="cls-1" d="M24.032,4.11009a.49995.49995,0,1,0-.707.707,15.694,15.694,0,0,1,0,22.29.49995.49995,0,1,0,.707.707,16.69367,16.69367,0,0,0,0-23.7041Z"/><path class="cls-1" d="M20.66676,8.02806a.49995.49995,0,0,0-.707.707,10.14141,10.14141,0,0,1,0,14.36817.49995.49995,0,0,0,.707.707,11.141,11.141,0,0,0,0-15.78223Z"/><path class="cls-1" d="M16.63649,12.031a.4998.4998,0,0,0,0,.707,4.70034,4.70034,0,0,1-.00733,6.54.49972.49972,0,1,0,.72168.69141,5.70531,5.70531,0,0,0-.00732-7.93848A.49982.49982,0,0,0,16.63649,12.031Z"/><path class="cls-1" d="M13.9965,9.18354,8.3842,11.98432H4.99162A1.99678,1.99678,0,0,0,2.997,13.97846v4.02637a1.99719,1.99719,0,0,0,1.99463,1.99463H8.3842l5.6123,2.794a.70251.70251,0,0,0,.311.07324.69584.69584,0,0,0,.69482-.6958V9.8061a.69561.69561,0,0,0-1.00586-.62256Zm.00586,12.49561L8.61955,18.99946H4.99162a.99589.99589,0,0,1-.99463-.99463V13.97846a.99547.99547,0,0,1,.99463-.99414H8.61955l5.38281-2.686Z"/></svg>