<svg id="Icons" xmlns="http://www.w3.org/2000/svg" viewBox="0 0 32 32"><defs><style>.cls-1{fill:#5514b4;}</style></defs><path class="cls-1" d="M29.52808,9.70654,18.15723,2.63525A4.00009,4.00009,0,0,0,13.83942,2.63L2.47363,9.71289a.992.992,0,0,0-.47107.84357c-.001,2.61.00367,14.8562.00336,18.44983a.99455.99455,0,0,0,1,.99371H29a1,1,0,0,0,1-1V10.55573A.99992.99992,0,0,0,29.52808,9.70654Zm-26.52552.855L14.37811,3.47247a3.00065,3.00065,0,0,1,3.251.012L29,10.55573v2.14672l-9.62354,6.6626-.81494-.56427a4.52222,4.52222,0,0,0-5.123,0l-.81513.56439L3.0025,12.70422C3.00238,11.76324,3.00238,11.01428,3.00256,10.56158ZM29,13.91888v12.109l-8.745-6.05462ZM3.00421,20.15961c-.00061-2.21942-.00122-4.44367-.00152-6.23889l8.74218,6.05267-8.7395,6.05078Zm.00171,8.84674-.00037-1.76587,11.00226-7.61743a3.5158,3.5158,0,0,1,3.98438,0L29,27.24432V29Z"/></svg>