<svg id="Icons" xmlns="http://www.w3.org/2000/svg" viewBox="0 0 32 32"><defs><style>.cls-1{fill:#5514b4;}</style></defs><path class="cls-1" d="M26.03955,6.99512H5.96045A2.96284,2.96284,0,0,0,3.001,9.95459v12.084a2.96285,2.96285,0,0,0,2.95947,2.95948h20.0791A2.96285,2.96285,0,0,0,28.999,22.03857V9.95459A2.96284,2.96284,0,0,0,26.03955,6.99512Zm-20.0791,1h20.0791A1.96154,1.96154,0,0,1,27.999,9.95459v2.042H4.001v-2.042A1.96154,1.96154,0,0,1,5.96045,7.99512ZM27.999,12.99658v6H4.001v-6ZM26.03955,23.99805H5.96045A1.96155,1.96155,0,0,1,4.001,22.03857v-2.042H27.999v2.042A1.96155,1.96155,0,0,1,26.03955,23.99805Z"/><path class="cls-1" d="M16,17.99756a2,2,0,1,0-2-2A2.002,2.002,0,0,0,16,17.99756Zm0-3a1,1,0,1,1-1,1A1.0013,1.0013,0,0,1,16,14.99756Z"/></svg>