<svg id="Icons" xmlns="http://www.w3.org/2000/svg" viewBox="0 0 32 32"><defs><style>.cls-1{fill:#5514b4;}</style></defs><path class="cls-1" d="M21.5,4A6.48928,6.48928,0,0,0,16,7.04706,6.48928,6.48928,0,0,0,10.5,4C6,4,4,7.91016,4,11.5,4,22,16,28,16,28s12-7,12-16.5C28,7.91016,26,4,21.5,4Zm-11,1a5.47364,5.47364,0,0,1,4.65363,2.57959L16,8.9248l.84644-1.34521A5.47351,5.47351,0,0,1,21.5,5C25.84161,5,27,9.08575,27,11.5a11.0877,11.0877,0,0,1-.60651,3.50049H20.63184L19.05615,11.3501l-3.05078,6.95312-3.999-9.0459-2.65723,5.7544H5.51849A12.58643,12.58643,0,0,1,5,11.5C5,9.08575,6.15839,5,10.5,5Zm5.46625,21.84314c-1.76654-1.00281-7.892-4.8327-10.13465-10.83142H9.98877l1.998-4.32568,4.02148,9.09863,3.04-6.92871.92627,2.14453h6.049C23.6662,21.57709,17.69092,25.73425,15.96625,26.84314Z"/></svg>