<svg id="Icons" xmlns="http://www.w3.org/2000/svg" viewBox="0 0 32 32"><defs><style>.cls-1{fill:#5514b4;}</style></defs><path class="cls-1" d="M9,11h2V8.39307a1,1,0,0,0-1.31982-.94745L8,8.01282V10A1,1,0,0,0,9,11Z"/><path class="cls-1" d="M26.362,25.39062c.19763-.21795.39325-.437.577-.66711.12182-.15259.23516-.31122.35064-.46893.16687-.22785.32953-.45783.48267-.69586.1087-.16889.21118-.341.31268-.51471q.212-.363.40253-.73871c.09131-.18042.17963-.36164.26324-.54651.11731-.25922.22358-.52344.32526-.79077.07117-.18714.14307-.373.20636-.56391.09326-.28149.17133-.569.24689-.858.0487-.18616.10254-.36975.14367-.55884.07019-.32269.11975-.65228.1673-.98285.02344-.163.05658-.32244.07434-.48718A14.13669,14.13669,0,0,0,30,16c0-.43909-.02612-.8717-.06567-1.30048-.01215-.13183-.03064-.26135-.04645-.39209-.03656-.303-.08167-.603-.13733-.89978-.02582-.13775-.052-.2749-.08179-.41119-.06921-.31635-.15039-.62775-.2406-.93567-.02789-.0954-.05078-.19263-.08069-.28717q-.18786-.59371-.42584-1.16351c-.03741-.08966-.08118-.17566-.12042-.26435-.12879-.291-.26557-.57727-.41315-.85748-.06341-.12036-.12958-.23834-.19635-.35663q-.21515-.38114-.45343-.74646c-.0683-.105-.13422-.21124-.20526-.31433-.22748-.33014-.46484-.65277-.71906-.96161L26.80151,7.093c-.259-.31379-.53515-.61237-.82006-.90229-.08661-.08813-.17719-.17169-.26612-.2575q-.314-.303-.64551-.58673c-.10241-.08735-.205-.17383-.30993-.25824-.24323-.19556-.49365-.38153-.74982-.56073-.08063-.0564-.158-.11658-.23987-.17133q-.50728-.33921-1.04461-.63464c-.08252-.04529-.16852-.08429-.25208-.128-.2821-.14753-.56879-.28669-.86182-.41517-.12506-.0548-.25146-.10607-.37835-.15728-.12-.04846-.23645-.10364-.358-.14881l-.00428.01624A13.99428,13.99428,0,1,0,24.991,26.72522l.00287.00421c.09491-.07965.17865-.17139.27136-.25348.24969-.221.497-.444.73028-.68207C26.12274,25.664,26.23987,25.52533,26.362,25.39062ZM16,29A13.00006,13.00006,0,1,1,20.615,3.86169L19,10l-6,3.00281V17H9.5A1.5,1.5,0,0,0,8,18.5V24h4.75238a1.49994,1.49994,0,0,0,1.20117-.60162L14.99945,22h1.34662L18,24.517v.98144a1.50007,1.50007,0,0,0,2.332,1.248L22,25.54523,19.60443,22h2.12311l2.68725,3.89105A12.9338,12.9338,0,0,1,16,29Z"/><path class="cls-1" d="M15.64294,9.12427l-.64117-1.563L15,6.004a1,1,0,0,0-.99744-.99884L12,5v7l3.17-1.60425A1,1,0,0,0,15.64294,9.12427Z"/></svg>