<svg id="Icons" xmlns="http://www.w3.org/2000/svg" viewBox="0 0 32 32"><defs><style>.cls-1{fill:#5514b4;}</style></defs><path class="cls-1" d="M24.38123,6.61373a1.35149,1.35149,0,0,0-1.23632-.16309l-9.77527,3.55469H9.95741a4,4,0,1,0,0,8h1.077l-.00177.00879v3.98242a1.01016,1.01016,0,0,0,1.00928,1.00879h.98193a1.01006,1.01006,0,0,0,1.00879-1.00879V18.24642L23.14491,21.56a1.3511,1.3511,0,0,0,1.8125-1.26954V7.72017A1.35121,1.35121,0,0,0,24.38123,6.61373ZM6.95741,14.00533a3.00328,3.00328,0,0,1,3-3h3v6h-3A3.00328,3.00328,0,0,1,6.95741,14.00533Zm6.0664,8h-.98193l-.00928-.00879.00928-3.99121.99072.00879Zm10.9336-1.71485a.35123.35123,0,0,1-.47071.33008l-9.52929-3.46533v-6.2998L23.4867,7.39009a.35123.35123,0,0,1,.47071.33008Z"/></svg>