<svg id="Icons" xmlns="http://www.w3.org/2000/svg" viewBox="0 0 32 32"><defs><style>.cls-1{fill:#5514b4;}</style></defs><circle class="cls-1" cx="16.00598" cy="9" r="1"/><rect class="cls-1" x="15" y="13" width="2" height="5"/><path class="cls-1" d="M15.98669,2a14,14,0,1,0,14,14A14,14,0,0,0,15.98669,2ZM16.006,7a2,2,0,1,1-2,2A2,2,0,0,1,16.006,7ZM21.79,9.89844,18,12.76147v5.64246l1.99219,5.9408a.49967.49967,0,1,1-.94727.31836L17.14587,19H14.871l-1.88952,5.66211a.50028.50028,0,0,1-.94922-.31641L14,18.4491v-5.689l-3.7998-2.87a.5002.5002,0,1,1,.60351-.79785l3.84967,2.90765h2.695l3.83813-2.89935a.5002.5002,0,1,1,.60352.79785Z"/></svg>