<svg id="Icons" xmlns="http://www.w3.org/2000/svg" viewBox="0 0 32 32"><defs><style>.cls-1{fill:#5514b4;}</style></defs><path class="cls-1" d="M16,25.99805A9.998,9.998,0,0,1,16,6.002c.00586,0,.09961.00489.10547.00489a.50763.50763,0,0,1,.44824.30859.4987.4987,0,0,1-.09082.53174A8.9839,8.9839,0,0,0,22.96,21.95312a.50013.50013,0,0,1,.36133.84034A10.02383,10.02383,0,0,1,16,25.99805ZM14.9834,7.07129A8.99186,8.99186,0,0,0,16,24.99805,8.877,8.877,0,0,0,21.794,22.87451,9.98162,9.98162,0,0,1,14.9834,7.07129Z"/></svg>