<svg id="Icons" xmlns="http://www.w3.org/2000/svg" viewBox="0 0 32 32"><defs><style>.cls-1{fill:#5514b4;}</style></defs><path class="cls-1" d="M16.001,15.98082V9.038L11.04,9.00523l-.0332,6.97559,4.96191.03271A.03262.03262,0,0,0,16.001,15.98082Z"/><path class="cls-1" d="M20.707,3H8A1.003,1.003,0,0,0,7,4V28a1.003,1.003,0,0,0,1,1H24a1.003,1.003,0,0,0,1-1V7.30015ZM10.00684,9.038A1.03443,1.03443,0,0,1,11.04,8.00523h4.92871A1.0336,1.0336,0,0,1,17.001,9.038v6.94287a1.0336,1.0336,0,0,1-1.03223,1.03271H11.04a1.03443,1.03443,0,0,1-1.0332-1.03271ZM21.51105,22.99119l-10.98737.00305a.5.5,0,0,1,0-1l10.98737-.00305a.5.5,0,0,1,0,1Zm0-1.97961-10.98737.00305a.5.5,0,0,1,0-1l10.98737-.00305a.5.5,0,0,1,0,1Zm0-2.00342-10.98737.003a.5.5,0,1,1,0-1l10.98737-.003a.5.5,0,0,1,0,1ZM24,8.00126H21.00708V4.71739L24,7.71031Z"/></svg>