<svg id="Icons" xmlns="http://www.w3.org/2000/svg" viewBox="0 0 32 32"><defs><style>.cls-1{fill:#5514b4;}</style></defs><path class="cls-1" d="M12.5166,15a.5.5,0,0,1,0-1,2.99421,2.99421,0,0,1,2.80347,1.9649L19.9978,11.28a3.47733,3.47733,0,0,0-6.95092.1673.5.5,0,0,1-1,0,4.47706,4.47706,0,0,1,8.83105-1.04883l1.5675-1.57a6.4958,6.4958,0,0,0-12.41516,2.67938.5.5,0,0,1-1,0A7.49519,7.49519,0,0,1,23.19312,8.07953l2.32348-2.327A13.98422,13.98422,0,0,0,5.76709,25.53265L14.4939,16.7923A1.99366,1.99366,0,0,0,12.5166,15Z"/><path class="cls-1" d="M14.68457,26.99756a4.65923,4.65923,0,0,0,4.65332-4.65381,4.39606,4.39606,0,0,0-.0791-.84131,5.87706,5.87706,0,0,1-.10449-1.0918,5.66566,5.66566,0,0,1,1.82031-4.1582,6.45179,6.45179,0,0,0,1.8396-6.37811l-1.827,1.82977a4.47717,4.47717,0,0,1-1.48327,3.09961,5.44562,5.44562,0,0,0-1.85157,4.10254,5.18341,5.18341,0,0,0,.20215,1.43408,3.74313,3.74313,0,0,1,.14844,1.02,3.50338,3.50338,0,0,1-6.40723,1.95947.5.5,0,0,1,.82813-.56054A2.50419,2.50419,0,0,0,16.91211,20.689a6.42149,6.42149,0,0,1,1.875-6.58935,3.67414,3.67414,0,0,0,.75049-.94373L15.49353,17.2063a2.98376,2.98376,0,0,1-2.76282,2.76715l-2.67712,2.68121A4.62341,4.62341,0,0,0,14.68457,26.99756Z"/><path class="cls-1" d="M26.22473,6.45837,23.616,9.07117a7.45123,7.45123,0,0,1,.4143,2.43664A7.52883,7.52883,0,0,1,21.66211,16.977a4.61509,4.61509,0,0,0-1.50781,3.43359,4.71309,4.71309,0,0,0,.0791.86231,5.56429,5.56429,0,0,1,.10449,1.0708A5.65029,5.65029,0,0,1,9.16553,23.54413l-2.691,2.69525a13.98438,13.98438,0,0,0,19.75024-19.781Z"/></svg>