<svg id="Icons" xmlns="http://www.w3.org/2000/svg" viewBox="0 0 32 32"><defs><style>.cls-1{fill:#5514b4;}</style></defs><circle class="cls-1" cx="12.4978" cy="14.48364" r="1.48364"/><path class="cls-1" d="M27.96051,6.99347H4.03949A1.02013,1.02013,0,0,0,3.01935,8.01361V23.98633a1.02013,1.02013,0,0,0,1.02014,1.02014h23.921a1.02018,1.02018,0,0,0,1.0202-1.02014V8.01361A1.02018,1.02018,0,0,0,27.96051,6.99347ZM16.99512,19.169a.82626.82626,0,0,1-.82617.82373H8.82617A.82626.82626,0,0,1,8,19.169v-.28662a3.70759,3.70759,0,0,1,2.28278-3.29676,2.45726,2.45726,0,0,1-.26862-1.102,2.48365,2.48365,0,0,1,4.96729,0,2.457,2.457,0,0,1-.26868,1.10211,3.70743,3.70743,0,0,1,2.28235,3.29664ZM25.5,18.51367H19.50391a.5.5,0,0,1,0-1H25.5a.5.5,0,0,1,0,1Zm0-2.00537H19.50391a.5.5,0,1,1,0-1H25.5a.5.5,0,1,1,0,1Zm0-2.0083H19.50391a.5.5,0,0,1,0-1H25.5a.5.5,0,0,1,0,1Z"/><path class="cls-1" d="M14.07385,16.38843a2.435,2.435,0,0,1-3.15228-.00012A2.82142,2.82142,0,0,0,9,18.88239v.11035h6.99512v-.11035A2.82074,2.82074,0,0,0,14.07385,16.38843Z"/></svg>