<svg id="Icons" xmlns="http://www.w3.org/2000/svg" viewBox="0 0 32 32"><defs><style>.cls-1{fill:#5514b4;}</style></defs><path class="cls-1" d="M12.9906,7a5.95114,5.95114,0,0,1,5.11066,2.87872l.42672.699.76944-.28064a4.98266,4.98266,0,0,1,6.57084,5.8435l-.19767.838.79926.32A3.98886,3.98886,0,0,1,25,25H8a4.99676,4.99676,0,0,1-1.55789-9.74551l.83179-.27555L7.11,14.11816A5.97694,5.97694,0,0,1,12.9906,7m0-1a6.97685,6.97685,0,0,0-6.863,8.30524A5.99675,5.99675,0,0,0,8,26H25a4.98884,4.98884,0,0,0,1.84155-9.62976,5.98522,5.98522,0,0,0-7.88678-7.01257A6.97914,6.97914,0,0,0,12.9906,6Z"/><path class="cls-1" d="M18.99121,22H17.49414a4.00427,4.00427,0,0,1-4-4,3.94431,3.94431,0,0,1,.38965-1.71924.50034.50034,0,0,1,.90234.43262A2.9402,2.9402,0,0,0,14.49414,18a3.00328,3.00328,0,0,0,3,3h1.49707a3,3,0,0,0,0-6H18.5a.5.5,0,0,1,0-1h.49121a4,4,0,0,1,0,8Z"/><path class="cls-1" d="M13.52148,22.00928H13.001a4,4,0,0,1,0-8h1.52734a4.00426,4.00426,0,0,1,4,4,3.95318,3.95318,0,0,1-.39062,1.71924.50035.50035,0,0,1-.90235-.43262,2.94882,2.94882,0,0,0,.293-1.28662,3.00328,3.00328,0,0,0-3-3H13.001a3,3,0,0,0,0,6h.5205a.5.5,0,0,1,0,1Z"/></svg>