<svg id="Icons" xmlns="http://www.w3.org/2000/svg" viewBox="0 0 32 32"><defs><style>.cls-1{fill:#5514b4;}</style></defs><path class="cls-1" d="M16,2A14,14,0,1,0,30,16,14,14,0,0,0,16,2Zm7.41211,15.94012a.2781.2781,0,0,1-.41718-.24084V16.5H12.70947l3.3667,3.3667a.442.442,0,0,0,.31543.13086H18V19.44a.44.44,0,0,1,.44-.44h2.12a.44.44,0,0,1,.44.44v2.12a.44.44,0,0,1-.44.44H18.44a.44.44,0,0,1-.44-.44v-.56244H16.3916a1.43686,1.43686,0,0,1-1.02246-.42383L11.29541,16.5H8.92926a2,2,0,1,1,0-1h.35687l4.06543-4.06543a1.51461,1.51461,0,0,1,1.06543-.44141h1.67694a1.5009,1.5009,0,1,1-.00421,1H14.417a.5064.5064,0,0,0-.35742.14795L10.70032,15.5H22.99493V14.30072a.2781.2781,0,0,1,.41718-.24084l2.94324,1.69928a.27808.27808,0,0,1,0,.48168Z"/></svg>