<svg id="Icons" xmlns="http://www.w3.org/2000/svg" viewBox="0 0 32 32"><defs><style>.cls-1{fill:#5514b4;}</style></defs><path class="cls-1" d="M7.51472,24.48528a5.00588,5.00588,0,0,1,0-7.07107L18.47487,6.45406a3.5,3.5,0,1,1,4.94975,4.94975l-10.25305,10.253a2,2,0,1,1-2.82842-2.82842l9.54594-9.54594a.5.5,0,1,1,.7071.7071l-9.54594,9.54594a1,1,0,0,0,1.41422,1.41422l10.253-10.25305A2.5,2.5,0,1,0,19.182,7.16117L8.22183,18.12132a4,4,0,0,0,5.65685,5.65685l10.25305-10.253a.5.5,0,1,1,.7071.7071l-10.253,10.25305A5.00588,5.00588,0,0,1,7.51472,24.48528Z"/></svg>