<svg id="Icons" xmlns="http://www.w3.org/2000/svg" viewBox="0 0 32 32"><defs><style>.cls-1{fill:#5514b4;}</style></defs><path class="cls-1" d="M25.999,5H6.00092a2.00687,2.00687,0,0,0-2.001,2.001V20.999A2.00687,2.00687,0,0,0,6.00092,23H14v2H11.5a.5.5,0,0,0,0,1h9a.5.5,0,0,0,0-1H18V23h7.999A2.00687,2.00687,0,0,0,28,20.999V7.001A2.00687,2.00687,0,0,0,25.999,5ZM17,25H15V23h2Zm10-4.001A1.00212,1.00212,0,0,1,25.999,22H6.00092a1.00211,1.00211,0,0,1-1.001-1.001V7.001A1.00211,1.00211,0,0,1,6.00092,6H25.999A1.00212,1.00212,0,0,1,27,7.001Z"/><rect class="cls-1" x="6" y="7" width="20" height="14"/></svg>