<svg id="Icons" xmlns="http://www.w3.org/2000/svg" viewBox="0 0 32 32"><defs><style>.cls-1{fill:#5514b4;}</style></defs><path class="cls-1" d="M9,19a4,4,0,1,0-4-4A4,4,0,0,0,9,19Zm2.50439-5.644-1.998.87787V12.05115A2.99742,2.99742,0,0,1,11.50439,13.356Zm-2.998-1.30609V15a.49958.49958,0,0,0,.70117.45752l2.69336-1.18384A2.967,2.967,0,0,1,12,15a3,3,0,1,1-3.49365-2.95007Z"/><path class="cls-1" d="M16.5,13h8a.5.5,0,0,0,0-1h-8a.5.5,0,0,0,0,1Z"/><path class="cls-1" d="M16.5,15h8a.5.5,0,0,0,0-1h-8a.5.5,0,0,0,0,1Z"/><path class="cls-1" d="M16.5,17h8a.5.5,0,0,0,0-1h-8a.5.5,0,0,0,0,1Z"/><path class="cls-1" d="M16.5,19h3.99512a.5.5,0,0,0,0-1H16.5a.5.5,0,0,0,0,1Z"/><path class="cls-1" d="M2,4V23.06787A1.93425,1.93425,0,0,0,3.93213,25H28.06787A1.93425,1.93425,0,0,0,30,23.06787V4ZM29,23.06787A.933.933,0,0,1,28.06787,24H3.93213A.933.933,0,0,1,3,23.06787V8H29ZM29,7H3V5H29Z"/></svg>