<svg id="Icons" xmlns="http://www.w3.org/2000/svg" viewBox="0 0 32 32"><defs><style>.cls-1{fill:#5514b4;}</style></defs><path class="cls-1" d="M27.29883,15.40405l-4.39545.61774a3.3925,3.3925,0,1,0-.55853.05048,3.54494,3.54494,0,0,0,.39911-.02808L10.95209,17.70148a1.52467,1.52467,0,0,0,1.29608-1.723l-.54883-3.9087A1.5294,1.5294,0,0,0,9.97571,10.771l-3.90821.54931A1.52586,1.52586,0,0,0,4.76868,13.044l.54882,3.90869a1.52136,1.52136,0,0,0,1.71906,1.29913l-2.51044.35284a.5.5,0,1,0,.13922.99024L27.438,16.39429a.5.5,0,1,0-.13916-.99024ZM6.90247,17.26123a.52541.52541,0,0,1-.59473-.44775l-.54883-3.90869a.52611.52611,0,0,1,.44727-.59424l3.9082-.54932a.52853.52853,0,0,1,.59473.44775l.54882,3.9087a.52538.52538,0,0,1-.44726.59423Zm15.79687-2.21387a2.49128,2.49128,0,1,1-.69336-4.93408,2.52794,2.52794,0,0,1,.35254-.0249,2.4932,2.4932,0,0,1,2.46094,2.145v.00049a2.49155,2.49155,0,0,1-2.12012,2.81347Z"/><polygon class="cls-1" points="13.015 22.015 18.998 22.015 16.006 18.001 13.015 22.015"/></svg>