<svg id="Icons" xmlns="http://www.w3.org/2000/svg" viewBox="0 0 32 32"><defs><style>.cls-1{fill:#5514b4;}</style></defs><path class="cls-1" d="M27,7H25V4.5a.5.5,0,0,0-1,0V7H8V4.5a.5.5,0,0,0-1,0V7H5A1.003,1.003,0,0,0,4,8V27a1.003,1.003,0,0,0,1,1H27a1.003,1.003,0,0,0,1-1V8A1.003,1.003,0,0,0,27,7Zm0,20H5V13H27Zm0-15H5V8H7v.5a.5.5,0,0,0,1,0V8H24v.5a.5.5,0,0,0,1,0V8h2Z"/><path class="cls-1" d="M19.02155,22.0105H14.7251a2.07,2.07,0,0,0,.72229-.74573,1.95234,1.95234,0,0,0,.27612-.99219,2.35218,2.35218,0,0,0-.03534-.39886h2.465V18.84045H15.33563l-.03534-.07025a4.31524,4.31524,0,0,1-.26373-.74566,2.51243,2.51243,0,0,1-.07642-.58094,1.11588,1.11588,0,0,1,.37549-.87463,1.37627,1.37627,0,0,1,.95062-.3349,1.89235,1.89235,0,0,1,.97449.24078,2.57076,2.57076,0,0,1,.66974.546l.83313-.86895a3.51822,3.51822,0,0,0-1.03278-.8097,2.97548,2.97548,0,0,0-1.43218-.34063,3.03725,3.03725,0,0,0-1.39777.30529,2.2612,2.2612,0,0,0-.9267.845,2.36331,2.36331,0,0,0-.32867,1.25634,2.70832,2.70832,0,0,0,.09936.71033,5.23061,5.23061,0,0,0,.2522.72186h-.91528v1.03327h1.35a1.45494,1.45494,0,0,1,.05823.38739,2.23791,2.23791,0,0,1-.15185.77484,1.95109,1.95109,0,0,1-.429.69269.85862.85862,0,0,1-.62769.28186h-.28186v1.209h6.02192Z"/></svg>