<svg id="Icons" xmlns="http://www.w3.org/2000/svg" viewBox="0 0 32 32"><defs><style>.cls-1{fill:#5514b4;}</style></defs><path class="cls-1" d="M27.03772,20.26392a3.28547,3.28547,0,1,0-5.17645.04773,5.71432,5.71432,0,0,0-.51966.3,9.64851,9.64851,0,0,0-5.172-4.70294,5.80838,5.80838,0,1,0-8.22419.00342c-3.65979,1.48291-5.93176,4.54535-5.93176,8.062V25a1.001,1.001,0,0,0,1,1H19.793v-.03967A.92637.92637,0,0,0,19.98633,26h9.02734A.99439.99439,0,0,0,30,25v-.32129A4.97787,4.97787,0,0,0,27.03772,20.26392Zm-2.60791-4.26069a2.28437,2.28437,0,1,1-2.28436,2.28437A2.287,2.287,0,0,1,24.42981,16.00323ZM12.056,7a4.8085,4.8085,0,1,1-4.80853,4.80853A4.814,4.814,0,0,1,12.056,7ZM19,24.67871V25H3.01367V23.97412c0-3.7832,2.84668-6.21484,5.50977-7.229l.29693-.1128a5.80824,5.80824,0,0,0,6.471.00013l.29657.11267a8.64,8.64,0,0,1,4.9494,4.493A4.75066,4.75066,0,0,0,19,24.67871ZM20,25v-.32129a4.0064,4.0064,0,0,1,2.65015-3.6369,3.2673,3.2673,0,0,0,3.62188-.03565A4.03059,4.03059,0,0,1,29,24.67871L29.01367,25Z"/></svg>