<svg id="Icons" xmlns="http://www.w3.org/2000/svg" viewBox="0 0 32 32"><defs><style>.cls-1{fill:#5514b4;}</style></defs><path class="cls-1" d="M7.017,18.46364v-1.148l4.64844-6.46827h1.834v6.3003H14.7172v1.31592H13.49943v2.04394h-1.666V18.46364Zm1.624-1.31592h3.19238v-4.396Z"/><path class="cls-1" d="M20.10685,20.64772a4.18381,4.18381,0,0,1-2.22559-.61621,4.4378,4.4378,0,0,1-1.61035-1.74317,5.61159,5.61159,0,0,1-.60254-2.68066,5.39128,5.39128,0,0,1,.37793-2.05811,4.8117,4.8117,0,0,1,1.05078-1.59619,4.55734,4.55734,0,0,1,1.582-1.02881,5.32144,5.32144,0,0,1,1.96-.35693,5.21,5.21,0,0,1,2.21192.44775,5.54009,5.54009,0,0,1,1.80566,1.40039l-1.17578,1.064a4.34039,4.34039,0,0,0-1.28808-1.05713,3.37434,3.37434,0,0,0-1.55372-.34326,3.17756,3.17756,0,0,0-1.63867.42724,3.01779,3.01779,0,0,0-1.14746,1.21778,3.96259,3.96259,0,0,0-.41992,1.8833,4.16457,4.16457,0,0,0,.40625,1.9248,2.84045,2.84045,0,0,0,1.10547,1.19727,3.09709,3.09709,0,0,0,1.582.40576,2.88676,2.88676,0,0,0,1.42773-.34277,2.81992,2.81992,0,0,0,.97364-.86133,1.81943,1.81943,0,0,0,.35644-1.03565H20.70841v-1.456h4.28418v5.06787H23.34122V18.65944a3.47789,3.47789,0,0,1-1.3164,1.477A3.61377,3.61377,0,0,1,20.10685,20.64772Z"/></svg>