<svg id="Icons" xmlns="http://www.w3.org/2000/svg" viewBox="0 0 32 32"><defs><style>.cls-1{fill:#5514b4;}</style></defs><path class="cls-1" d="M16,2A14,14,0,1,0,30,16,14,14,0,0,0,16,2Zm0,27A13,13,0,1,1,29,16,13.01474,13.01474,0,0,1,16,29Z"/><path class="cls-1" d="M20.85352,11.14648a.49983.49983,0,0,0-.707,0L16,15.293l-4.14648-4.14649a.5.5,0,0,0-.707.707L15.293,16l-4.14649,4.14648a.5.5,0,1,0,.707.707L16,16.707l4.14648,4.14649a.5.5,0,0,0,.707-.707L16.707,16l4.14649-4.14648A.49983.49983,0,0,0,20.85352,11.14648Z"/></svg>