<svg id="Icons" xmlns="http://www.w3.org/2000/svg" viewBox="0 0 32 32"><defs><style>.cls-1{fill:#5514b4;}</style></defs><path class="cls-1" d="M26.91455,12H5.0921a1.09,1.09,0,0,0-1.08874,1.08875v5.82244A1.09,1.09,0,0,0,5.0921,20H26.91455a1.09013,1.09013,0,0,0,1.08887-1.08881V13.08875A1.09008,1.09008,0,0,0,26.91455,12Zm.08887,6.91119A.08883.08883,0,0,1,26.91455,19H5.0921a.08875.08875,0,0,1-.08874-.08881V13.08875A.08874.08874,0,0,1,5.0921,13H26.91455a.08881.08881,0,0,1,.08887.08875Z"/><polygon class="cls-1" points="6.027 14.862 6.027 15.748 7.006 14.914 7.006 17.994 7.881 17.994 7.881 14.021 7.058 14.021 6.027 14.862"/><path class="cls-1" d="M11.66772,16.41656a2.53432,2.53432,0,0,0,.55884-.64794,1.29727,1.29727,0,0,0,.15552-.6189,1.071,1.071,0,0,0-.1792-.60767,1.24184,1.24184,0,0,0-.49194-.42309,1.63521,1.63521,0,0,0-.73407-.15546,1.7761,1.7761,0,0,0-.6189.10083,1.86167,1.86167,0,0,0-.48407.25879,2.399,2.399,0,0,0-.36609.337l.49005.52984a1.419,1.419,0,0,1,.39161-.34533,1.00743,1.00743,0,0,1,.53527-.14417.62008.62008,0,0,1,.432.14117.45934.45934,0,0,1,.15552.35425.66852.66852,0,0,1-.10132.34833,2.16222,2.16222,0,0,1-.38867.43445l-1.4101,1.30719v.70849H12.4165v-.7257H10.7171Z"/><path class="cls-1" d="M15.64392,15.8985a1.09209,1.09209,0,0,0,.59338-.34589.82028.82028,0,0,0,.19593-.52936.881.881,0,0,0-.18115-.553,1.2212,1.2212,0,0,0-.49-.37146,1.90524,1.90524,0,0,0-1.52319.04919,2.20012,2.20012,0,0,0-.58154.43738l.49.524a1.39913,1.39913,0,0,1,.371-.30213.94493.94493,0,0,1,.46936-.118.75428.75428,0,0,1,.42017.11212.39208.39208,0,0,1,.17309.35425.36772.36772,0,0,1-.15539.32519.613.613,0,0,1-.35718.10682H14.5498v.70251h.51856a.75835.75835,0,0,1,.4635.12646.42644.42644,0,0,1,.17017.36261.46191.46191,0,0,1-.18409.39161.74454.74454,0,0,1-.46142.13824,1.08336,1.08336,0,0,1-.52637-.121,1.50949,1.50949,0,0,1-.42908-.36847l-.56482.50134a1.92436,1.92436,0,0,0,1.54395.73108,1.83234,1.83234,0,0,0,.77148-.15546,1.35365,1.35365,0,0,0,.53809-.42309,1.00053,1.00053,0,0,0,.19885-.61353.88958.88958,0,0,0-.23327-.60467A1.22244,1.22244,0,0,0,15.64392,15.8985Z"/><polygon class="cls-1" points="20.87 14.6 19.66 15.495 19.829 14 18.902 14 19.071 15.484 17.86 14.6 17.397 15.4 18.776 16 17.397 16.6 17.86 17.4 19.081 16.495 18.913 18 19.839 18 19.67 16.527 20.87 17.4 21.334 16.6 19.955 16 21.334 15.4 20.87 14.6"/><polygon class="cls-1" points="25.523 14.6 24.313 15.495 24.482 14 23.555 14 23.724 15.484 22.513 14.6 22.05 15.4 23.429 16 22.05 16.6 22.513 17.4 23.734 16.495 23.566 18 24.492 18 24.323 16.527 25.523 17.4 25.987 16.6 24.608 16 25.987 15.4 25.523 14.6"/></svg>