<svg id="Icons" xmlns="http://www.w3.org/2000/svg" viewBox="0 0 32 32"><defs><style>.cls-1{fill:#5514b4;}</style></defs><path class="cls-1" d="M27,7H25V4.5a.5.5,0,0,0-1,0V7H8V4.5a.5.5,0,0,0-1,0V7H5A1.003,1.003,0,0,0,4,8V27a1.003,1.003,0,0,0,1,1H27a1.003,1.003,0,0,0,1-1V8A1.003,1.003,0,0,0,27,7ZM19.02155,23.21954H12.99963v-1.209h.28186a.85862.85862,0,0,0,.62769-.28186,1.95109,1.95109,0,0,0,.429-.69269,2.23791,2.23791,0,0,0,.15185-.77484,1.45494,1.45494,0,0,0-.05823-.38739h-1.35V18.84045h.91528a5.23061,5.23061,0,0,1-.2522-.72186,2.70832,2.70832,0,0,1-.09936-.71033,2.36331,2.36331,0,0,1,.32867-1.25634,2.2612,2.2612,0,0,1,.9267-.845,3.03725,3.03725,0,0,1,1.39777-.30529,2.97548,2.97548,0,0,1,1.43218.34063,3.51822,3.51822,0,0,1,1.03278.8097l-.83313.86895a2.57076,2.57076,0,0,0-.66974-.546,1.89235,1.89235,0,0,0-.97449-.24078,1.37627,1.37627,0,0,0-.95062.3349,1.11588,1.11588,0,0,0-.37549.87463,2.51243,2.51243,0,0,0,.07642.58094,4.31524,4.31524,0,0,0,.26373.74566l.03534.07025h2.81751v1.03327h-2.465a2.35218,2.35218,0,0,1,.03534.39886,1.95234,1.95234,0,0,1-.27612.99219,2.07,2.07,0,0,1-.72229.74573h4.29645ZM27,12H5V8H7v.5a.5.5,0,0,0,1,0V8H24v.5a.5.5,0,0,0,1,0V8h2Z"/></svg>