<svg id="Icons" xmlns="http://www.w3.org/2000/svg" viewBox="0 0 32 32"><defs><style>.cls-1{fill:#5514b4;}</style></defs><path class="cls-1" d="M23.05377,13.98584h-12.419V10.3584a5.36615,5.36615,0,1,1,10.73144.09619.46075.46075,0,0,0,.5.45166.54277.54277,0,0,0,.5-.54785,6.36572,6.36572,0,1,0-12.73144,0v3.62744H8.94128v-.002a1.93444,1.93444,0,0,0-1.93444,1.93444h.00225v9.13831H7.00836A1.93446,1.93446,0,0,0,8.94281,26.991l.02808-.00147H23.05377a1.93446,1.93446,0,0,0,1.93445-1.93445V15.91827A1.93274,1.93274,0,0,0,23.05377,13.98584Zm.93445,11.06927a.93551.93551,0,0,1-.93445.93445H8.97089l-.04743.00128a.93328.93328,0,0,1-.91437-.93426V15.91827l-.00012-.0628a.93587.93587,0,0,1,.87055-.86963H23.05377a.93449.93449,0,0,1,.93445.93243Z"/></svg>