<svg id="Icons" xmlns="http://www.w3.org/2000/svg" viewBox="0 0 32 32"><defs><style>.cls-1{fill:#5514b4;}</style></defs><circle class="cls-1" cx="11" cy="27" r="1"/><path class="cls-1" d="M13,4.5a.49971.49971,0,0,0-.5-.5h-3a.5.5,0,0,0,0,1h3A.49971.49971,0,0,0,13,4.5Z"/><circle class="cls-1" cx="22" cy="26" r="1"/><path class="cls-1" d="M23.5,5h-3a.5.5,0,0,0,0,1h3a.5.5,0,0,0,0-1Z"/><path class="cls-1" d="M26.999,3H18.72009A1.99755,1.99755,0,0,0,16.999,2H5.001A2.00687,2.00687,0,0,0,3,4.001V27.999A2.00687,2.00687,0,0,0,5.001,30H16.999a1.99755,1.99755,0,0,0,1.72107-1H26.999A2.00684,2.00684,0,0,0,29,26.999V5.001A2.00684,2.00684,0,0,0,26.999,3Zm-10,26H5.001A1.00212,1.00212,0,0,1,4,27.999V4.001A1.00212,1.00212,0,0,1,5.001,3H16.999A1.00212,1.00212,0,0,1,18,4.001v10.9804H12.46356a.5.5,0,0,0,0,1H18V27.999A1.00212,1.00212,0,0,1,16.999,29ZM28,26.999A1.00212,1.00212,0,0,1,26.999,28H18.99988L19,27.999V15.98138h5.25653l-3.14648,3.14649a.49995.49995,0,1,0,.707.707l4.35351-4.35352-4.35351-4.35351a.49995.49995,0,0,0-.707.707l3.14648,3.14648H19V4.001L18.99988,4H26.999A1.00212,1.00212,0,0,1,28,5.001Z"/></svg>