<svg id="Icons" xmlns="http://www.w3.org/2000/svg" viewBox="0 0 32 32"><defs><style>.cls-1{fill:#5514b4;}</style></defs><path class="cls-1" d="M24.99841,13.01019l-5.50128-.00073a12.46946,12.46946,0,0,0,1.09424-4.72223c0-2.23443-1.34064-4.27777-3.08606-4.27777a3.48838,3.48838,0,0,0-2.50531,1L14.5752,10.471,11.536,14.00946H6a2,2,0,0,0-2,2v8a2,2,0,0,0,2,2h5.57928l10.714,1.87286a2.93552,2.93552,0,0,0,3.337-2.12072c.40753-1.5846,1.48206-5.86365,2.27557-9.03A2.99426,2.99426,0,0,0,24.99841,13.01019ZM5,24.00946v-8a1.00115,1.00115,0,0,1,1-1h5v10H6A1.00115,1.00115,0,0,1,5,24.00946Z"/></svg>