<svg id="Icons" xmlns="http://www.w3.org/2000/svg" viewBox="0 0 32 32"><defs><style>.cls-1{fill:#5514b4;}</style></defs><path class="cls-1" d="M20.66675,8.02808a.49995.49995,0,1,0-.707.707,10.1414,10.1414,0,0,1,0,14.36816.49995.49995,0,1,0,.707.707,11.141,11.141,0,0,0,0-15.78222Z"/><path class="cls-1" d="M16.63647,12.031a.49983.49983,0,0,0,0,.707,4.70033,4.70033,0,0,1-.00732,6.54.49971.49971,0,1,0,.72168.6914,5.7053,5.7053,0,0,0-.00732-7.93847A.49981.49981,0,0,0,16.63647,12.031Z"/><path class="cls-1" d="M13.99652,9.18353l-5.6123,2.80078H4.99164A1.99678,1.99678,0,0,0,2.997,13.97845v4.02637a1.99719,1.99719,0,0,0,1.99463,1.99463H8.38422l5.6123,2.79395a.70251.70251,0,0,0,.311.07324.69584.69584,0,0,0,.69482-.6958V9.80609a.69561.69561,0,0,0-1.00586-.62256Z"/></svg>