<svg id="Icons" xmlns="http://www.w3.org/2000/svg" viewBox="0 0 32 32"><defs><style>.cls-1{fill:#5514b4;}</style></defs><path class="cls-1" d="M18.89526,17.09424a6.01173,6.01173,0,1,0-8.79052,0A9.54867,9.54867,0,0,0,4,25.832V27a1.001,1.001,0,0,0,1,1H24a1.001,1.001,0,0,0,1-1V25.832A9.54867,9.54867,0,0,0,18.89526,17.09424Zm-9.407-4.092A5.01172,5.01172,0,1,1,14.5,18.01392,5.01741,5.01741,0,0,1,9.48828,13.0022ZM24,27H5V25.832a8.6787,8.6787,0,0,1,5.79883-7.94971.47785.47785,0,0,0,.10669-.06951,5.979,5.979,0,0,0,7.189,0,.47785.47785,0,0,0,.10669.06951A8.6787,8.6787,0,0,1,24,25.832Z"/><path class="cls-1" d="M24.02051,3.98553c-2.35742,0-4.00391,1.43555-4.00391,3.49122a.5.5,0,0,0,1,0c0-1.72071,1.50879-2.49122,3.00391-2.49122,1.37988,0,2.99023.65577,2.99023,2.50391,0,1.09229-.69531,1.71143-1.5,2.42822a4.56281,4.56281,0,0,0-1.99219,3.57764.5.5,0,1,0,1,0c0-1.354.76856-2.03809,1.65821-2.83105a4.1629,4.1629,0,0,0,1.834-3.17481C28.01074,5.42645,26.37012,3.98553,24.02051,3.98553Z"/><circle class="cls-1" cx="24.01367" cy="16.97888" r="1"/></svg>