<svg id="Icons" xmlns="http://www.w3.org/2000/svg" viewBox="0 0 32 32"><defs><style>.cls-1{fill:#5514b4;}</style></defs><path class="cls-1" d="M26.50293,19.00964a2.4625,2.4625,0,0,0-.74945.12763L24.81622,18.2A2.48221,2.48221,0,0,0,21.855,14.29669l-3.43353-2.09247a2.46305,2.46305,0,0,0,.10126-.66467,2.49631,2.49631,0,0,0-4.99262,0,2.46358,2.46358,0,0,0,.09876.65662l-3.46863,2.11377a2.46452,2.46452,0,0,0-1.16449-.30176,2.48485,2.48485,0,0,0-1.8537,4.15234l-.95789.95764a2.46274,2.46274,0,0,0-.68792-.10852,2.527,2.527,0,1,0,1.60778.60279l.848-.84778a2.44353,2.44353,0,0,0,2.041.02527l.85883.85882a2.604,2.604,0,1,0,.90252-.51153l-.93737-.93738a2.45581,2.45581,0,0,0,.14868-3.21057l3.11877-1.90064a2.46408,2.46408,0,0,0,3.87873.00647l3.07745,1.87543a2.449,2.449,0,0,0,.10071,3.19l-.95746.95771a2.46071,2.46071,0,0,0-.68836-.10859,2.52691,2.52691,0,1,0,1.608.603l.84777-.848a2.44345,2.44345,0,0,0,2.04084.02533l.85888.85888a2.48459,2.48459,0,1,0,1.65192-.63922ZM5.49628,23.00226A1.49631,1.49631,0,1,1,6.99261,21.506,1.4963,1.4963,0,0,1,5.49628,23.00226ZM11.55817,20.355l.00824.00824.08569-.08569a1.64628,1.64628,0,1,1-.09393.07745ZM8.99579,18.00079a1.49631,1.49631,0,1,1,1.49634-1.49627A1.49629,1.49629,0,0,1,8.99579,18.00079Zm7.0307-4.9649a1.49631,1.49631,0,1,1,1.49628-1.49634A1.49632,1.49632,0,0,1,16.02649,13.03589Zm3.469,9.96637A1.49631,1.49631,0,1,1,20.99182,21.506,1.49626,1.49626,0,0,1,19.49554,23.00226Zm3.49952-5.00147a1.49631,1.49631,0,1,1,1.49627-1.49627A1.49629,1.49629,0,0,1,22.99506,18.00079Zm3.50787,5.00147a1.49034,1.49034,0,0,1-.94562-2.6471l.00812.00812.08459-.08459a1.49557,1.49557,0,1,1,.85291,2.72357Z"/></svg>