<svg id="Icons" xmlns="http://www.w3.org/2000/svg" viewBox="0 0 32 32"><defs><style>.cls-1{fill:#5514b4;}</style></defs><path class="cls-1" d="M26.71527,19.40021A10.8829,10.8829,0,0,0,19.97479,6.74969a3.98151,3.98151,0,0,0-7.94946-.001,10.89911,10.89911,0,0,0-6.743,12.65283,3.98918,3.98918,0,1,0,4.37024,6.572,10.95453,10.95453,0,0,0,12.695,0,3.988,3.988,0,1,0,4.36774-6.57336ZM10.32306,25.2251A3.991,3.991,0,0,0,6.23553,19.077,9.891,9.891,0,0,1,12.08087,7.80249a4.0005,4.0005,0,0,0,7.83832-.00079,9.88159,9.88159,0,0,1,5.84357,11.27514,3.99671,3.99671,0,0,0-4.08625,6.14746,9.96364,9.96364,0,0,1-11.35345.0008Z"/></svg>