<svg id="Icons" xmlns="http://www.w3.org/2000/svg" viewBox="0 0 32 32"><defs><style>.cls-1{fill:#5514b4;}</style></defs><path class="cls-1" d="M10.02368,12.50425a.49971.49971,0,0,0,.5.5l10.98737-.003a.5.5,0,0,0,0-1l-10.98737.003A.49972.49972,0,0,0,10.02368,12.50425Z"/><path class="cls-1" d="M21.51105,14.00468l-10.98737.003a.5.5,0,0,0,0,1l10.98737-.003a.5.5,0,1,0,0-1Z"/><path class="cls-1" d="M21.51105,16.00816l-10.98737.003a.5.5,0,1,0,0,1l10.98737-.003a.5.5,0,0,0,0-1Z"/><path class="cls-1" d="M21.51105,18.01158l-10.98737.00305a.5.5,0,0,0,0,1l10.98737-.00305a.5.5,0,0,0,0-1Z"/><path class="cls-1" d="M21.51105,19.99119l-10.98737.00305a.5.5,0,0,0,0,1l10.98737-.00305a.5.5,0,0,0,0-1Z"/><path class="cls-1" d="M20.707,3H8A1.003,1.003,0,0,0,7,4V28a1.003,1.003,0,0,0,1,1H24a1.003,1.003,0,0,0,1-1V7.30015ZM24,28H8V4H20.00708V8.00126a1.003,1.003,0,0,0,1,1H24ZM24,8.00126H21.00708V4.71739L24,7.71031Z"/></svg>