<svg id="Icons" xmlns="http://www.w3.org/2000/svg" viewBox="0 0 32 32"><defs><style>.cls-1{fill:#5514b4;}</style></defs><path class="cls-1" d="M28,23V8a2,2,0,0,0-2-2H6A2,2,0,0,0,4,8V23H2v2a1,1,0,0,0,1,1H29a1,1,0,0,0,1-1V23ZM5,8A1.00115,1.00115,0,0,1,6,7H26a1.00115,1.00115,0,0,1,1,1V23H5ZM29,25H3V24H29Z"/><path class="cls-1" d="M18.78528,14.56911a3.50006,3.50006,0,1,0-5.59717-.00019,5.511,5.511,0,0,0-3.70154,4.98157v.43945a.99932.99932,0,0,0,1,.99658h11a.99932.99932,0,0,0,1-.99658v-.43945A5.51089,5.51089,0,0,0,18.78528,14.56911ZM15.98676,9.98652a2.5,2.5,0,1,1-2.5,2.5A2.50283,2.50283,0,0,1,15.98676,9.98652Zm5.49981,10-11,.00342v-.43945a4.61587,4.61587,0,0,1,3.1875-4.10645l.2862-.11273a3.46138,3.46138,0,0,0,4.05285.00006l.28595.11267a4.61586,4.61586,0,0,1,3.1875,4.10645Z"/></svg>