<svg id="Icons" xmlns="http://www.w3.org/2000/svg" viewBox="0 0 32 32"><defs><style>.cls-1{fill:#5514b4;}</style></defs><path class="cls-1" d="M28.51489,2.0083H3.53455a1.50164,1.50164,0,0,0-1.5,1.5V8.4917a1.50164,1.50164,0,0,0,1.5,1.5H28.51489a1.50164,1.50164,0,0,0,1.5-1.5V3.5083A1.50164,1.50164,0,0,0,28.51489,2.0083Zm.5,6.4834a.50065.50065,0,0,1-.5.5H3.53455a.50065.50065,0,0,1-.5-.5V3.5083a.50065.50065,0,0,1,.5-.5H28.51489a.50065.50065,0,0,1,.5.5Z"/><path class="cls-1" d="M28.51489,21.9917H3.53455a1.50164,1.50164,0,0,0-1.5,1.5v5.01465a1.50164,1.50164,0,0,0,1.5,1.5H28.51489a1.50164,1.50164,0,0,0,1.5-1.5V23.4917A1.50164,1.50164,0,0,0,28.51489,21.9917Zm.5,6.51465a.50065.50065,0,0,1-.5.5H3.53455a.50065.50065,0,0,1-.5-.5V23.4917a.50065.50065,0,0,1,.5-.5H28.51489a.50065.50065,0,0,1,.5.5Z"/><path class="cls-1" d="M28.51489,11.99072H3.53455a1.50164,1.50164,0,0,0-1.5,1.5v5.01709a1.50164,1.50164,0,0,0,1.5,1.5H28.51489a1.50164,1.50164,0,0,0,1.5-1.5V13.49072A1.50164,1.50164,0,0,0,28.51489,11.99072Zm.5,6.51709a.50065.50065,0,0,1-.5.5H3.53455a.50065.50065,0,0,1-.5-.5V13.49072a.50065.50065,0,0,1,.5-.5H28.51489a.50065.50065,0,0,1,.5.5Z"/></svg>