<svg id="Icons" xmlns="http://www.w3.org/2000/svg" viewBox="0 0 32 32"><defs><style>.cls-1{fill:#5514b4;}</style></defs><path class="cls-1" d="M24.41644,8.42218l-5.853-5.8479A2.0025,2.0025,0,0,0,17.15967,2H8.9873A1.929,1.929,0,0,0,7,4.00482V27.9259A2.09706,2.09706,0,0,0,9.11932,30H22.895A2.08471,2.08471,0,0,0,25,27.9259V9.8479A1.98581,1.98581,0,0,0,24.41644,8.42218ZM24,27.9259A1.09116,1.09116,0,0,1,22.895,29H9.11932A1.09868,1.09868,0,0,1,8,27.9259V4.00482A.93351.93351,0,0,1,8.9873,3h8.17237a.992.992,0,0,1,.697.28174l5.85876,5.85351A.98638.98638,0,0,1,24,9.8479Z"/><path class="cls-1" d="M19.455,12H12.545A1.49912,1.49912,0,0,0,11,13.44849v11.103A1.49912,1.49912,0,0,0,12.545,26H19.455A1.49908,1.49908,0,0,0,21,24.55151v-11.103A1.49908,1.49908,0,0,0,19.455,12ZM12.545,25A.51078.51078,0,0,1,12,24.55151v-11.103A.51078.51078,0,0,1,12.545,13H18v3.293l-5,5V25ZM20,16.75v7.80151A.51074.51074,0,0,1,19.455,25H14V21.707l5-5V13h.455a.51074.51074,0,0,1,.545.44849Z"/></svg>