<svg id="Icons" xmlns="http://www.w3.org/2000/svg" viewBox="0 0 32 32"><defs><style>.cls-1{fill:#5514b4;}</style></defs><path class="cls-1" d="M11.1888,21.0446a6.194,6.194,0,0,1-2.10645-.36426,4.93178,4.93178,0,0,1-1.74316-1.0498l.98046-1.17627a4.67817,4.67817,0,0,0,1.28028.78418,4.06569,4.06569,0,0,0,1.58887.3081,2.54212,2.54212,0,0,0,1.46386-.35693,1.15355,1.15355,0,0,0,.20215-1.74316,2.8286,2.8286,0,0,0-1.28711-.60206l-1.4707-.40576a3.58622,3.58622,0,0,1-1.84082-1.022,2.41664,2.41664,0,0,1-.56738-1.61035,2.4423,2.4423,0,0,1,.46972-1.49072A3.10332,3.10332,0,0,1,9.432,11.32146a4.46719,4.46719,0,0,1,1.82715-.35694,4.95785,4.95785,0,0,1,1.97461.38477,4.59645,4.59645,0,0,1,1.45508.94531l-.99317,1.11963a3.40494,3.40494,0,0,0-2.42285-.95166,2.16783,2.16783,0,0,0-1.39941.36377,1.10224,1.10224,0,0,0-.43457.86816,1.08018,1.08018,0,0,0,.31543.78418,2.64886,2.64886,0,0,0,1.14062.55957l1.48438.40625a3.804,3.804,0,0,1,1.97363,1.07813,2.50465,2.50465,0,0,1,.56054,1.63769,2.43345,2.43345,0,0,1-.32226,1.26026,2.77163,2.77163,0,0,1-.85352.90283,4.0458,4.0458,0,0,1-1.19726.53906A5.10617,5.10617,0,0,1,11.1888,21.0446Z"/><path class="cls-1" d="M15.72493,20.90446v-9.7998h3.44433a6.431,6.431,0,0,1,2.94629.623,4.46409,4.46409,0,0,1,1.876,1.72851,4.92534,4.92534,0,0,1,.65137,2.54834,4.9223,4.9223,0,0,1-.65137,2.54785,4.46215,4.46215,0,0,1-1.876,1.729,6.43108,6.43108,0,0,1-2.94629.623Zm3.44433-8.31592H17.43294v6.81788h1.73632a3.82232,3.82232,0,0,0,2.75782-.917,3.28831,3.28831,0,0,0,.95215-2.48486,3.31662,3.31662,0,0,0-.95215-2.48486A3.787,3.787,0,0,0,19.16926,12.58854Z"/></svg>