<svg id="Icons" xmlns="http://www.w3.org/2000/svg" viewBox="0 0 32 32"><defs><style>.cls-1{fill:#5514b4;}</style></defs><path class="cls-1" d="M16,2A14,14,0,1,0,30,16,14,14,0,0,0,16,2Zm0,27A13,13,0,1,1,29,16,13.01474,13.01474,0,0,1,16,29Z"/><path class="cls-1" d="M20.83887,15.03955,13.66113,10.896A1.107,1.107,0,0,0,12,11.85449v8.2876a1.10534,1.10534,0,0,0,1.66113.95947L20.83887,16.957a1.10688,1.10688,0,0,0,0-1.91748Zm-.5,1.05176-7.17774,4.14453a.10437.10437,0,0,1-.10742-.00049A.10314.10314,0,0,1,13,20.14209v-8.2876a.10229.10229,0,0,1,.05371-.09277.10284.10284,0,0,1,.10742,0l7.17774,4.14307a.10421.10421,0,0,1,.05371.09375A.10285.10285,0,0,1,20.33887,16.09131Z"/></svg>