<svg id="Icons" xmlns="http://www.w3.org/2000/svg" viewBox="0 0 32 32"><defs><style>.cls-1{fill:#5514b4;}</style></defs><path class="cls-1" d="M12.9906,7a5.95114,5.95114,0,0,1,5.11066,2.87872l.42672.699.76944-.28064a4.98266,4.98266,0,0,1,6.57084,5.8435l-.19767.838.79926.32A3.98886,3.98886,0,0,1,25,25H8a4.99674,4.99674,0,0,1-1.55789-9.74548l.83179-.27558L7.11,14.11816A5.97694,5.97694,0,0,1,12.9906,7m0-1a6.97685,6.97685,0,0,0-6.863,8.30524A5.99675,5.99675,0,0,0,8,26H25a4.98884,4.98884,0,0,0,1.84155-9.62976,5.98522,5.98522,0,0,0-7.88678-7.01257A6.97914,6.97914,0,0,0,12.9906,6Z"/></svg>