<svg id="Icons" xmlns="http://www.w3.org/2000/svg" viewBox="0 0 32 32"><defs><style>.cls-1{fill:#5514b4;}</style></defs><path class="cls-1" d="M14.18457,13.99072a.95943.95943,0,0,0,.96191-.95459V11.46729A4.36446,4.36446,0,0,0,16.99707,8.041c0-2.77979-3.12988-5.041-6.97656-5.041S3.044,5.26123,3.044,8.041s3.12988,5.0415,6.97656,5.0415a9.57856,9.57856,0,0,0,1.78515-.16748l2.02051,1.00684A.95527.95527,0,0,0,14.18457,13.99072Z"/><path class="cls-1" d="M28.87012,12.18164a.50071.50071,0,0,0-.707-.00244l-1.79163,1.77911a5.48343,5.48343,0,0,0-10.35388,2.52314.5.5,0,0,0,1,0,4.48439,4.48439,0,0,1,8.60278-1.77735l-.7854.78a3.49529,3.49529,0,0,0-6.84082,1.02271.5.5,0,0,0,1,0,2.49924,2.49924,0,0,1,4.99243-.18036l-3.0747,3.05328a2.01767,2.01767,0,0,0-1.91773-1.41345.5.5,0,0,0,0,1,1.02234,1.02234,0,0,1,1.02148,1.02148,1.00616,1.00616,0,0,1-.07128.35279l-.60267.59838a1.00458,1.00458,0,0,1-.34753.07032.49971.49971,0,0,0-.5.5.48994.48994,0,0,0,.05444.21722L16.717,23.54523a.48893.48893,0,0,0-.221-.057.49972.49972,0,0,0-.5.5c0,.0849.01978.16437.02515.248L13.1416,27.0957a.5003.5003,0,0,0,.70508.71l2.42017-2.40332A3.99487,3.99487,0,0,0,24.001,23.98828a3.7689,3.7689,0,0,0-.02246-.41211,3.24137,3.24137,0,0,1,1.07031-2.90674,5.46154,5.46154,0,0,0,1.72534-5.701l2.094-2.07928A.5004.5004,0,0,0,28.87012,12.18164ZM24.39258,19.9165A4.23651,4.23651,0,0,0,22.94434,23.106a4.178,4.178,0,0,0,.043.59912,2.72151,2.72151,0,0,1,.01368.2832,3.00151,3.00151,0,0,1-5.93787.62341l2.8584-2.83837a2.022,2.022,0,0,0,.8512-.84522l1.35461-1.34521a6.65523,6.65523,0,0,0-1.16736,3.754c0,.20508.00977.40723.02734.60694V24.001a.9873.9873,0,0,1-1.9746,0,.5.5,0,0,0-1,0,1.9873,1.9873,0,0,0,3.9746,0l-.002-.06055.00391-.022L21.9834,23.855q-.02344-.25562-.02344-.51807A5.66122,5.66122,0,0,1,23.833,19.13525l.09375-.09912a3.50211,3.50211,0,0,0,1.05334-2.28607l.94348-.937a4.435,4.435,0,0,1,.06763.66834A4.49414,4.49414,0,0,1,24.39258,19.9165Z"/></svg>