<svg id="Icons" xmlns="http://www.w3.org/2000/svg" viewBox="0 0 32 32"><defs><style>.cls-1{fill:#5514b4;}</style></defs><path class="cls-1" d="M15.70117,21.48962h-.61426v2.72754h.61426a1.5315,1.5315,0,0,0,1.10645-.36865,1.48663,1.48663,0,0,0,0-1.9873A1.524,1.524,0,0,0,15.70117,21.48962Z"/><path class="cls-1" d="M11.86816,21.46521h-.90332v1.31445h.90332a.65842.65842,0,0,0,.50977-.18115.7656.7656,0,0,0,0-.95215A.65846.65846,0,0,0,11.86816,21.46521Z"/><path class="cls-1" d="M20.707,3H8A1.003,1.003,0,0,0,7,4V28a1.003,1.003,0,0,0,1,1H24a1.003,1.003,0,0,0,1-1V7.30017ZM13.33594,22.85925a1.24257,1.24257,0,0,1-.52149.501,1.7908,1.7908,0,0,1-.84179.18115H10.96484V25.0033h-.94531V20.70349h1.95313a1.7908,1.7908,0,0,1,.84179.18115,1.24441,1.24441,0,0,1,.52149.50049,1.6093,1.6093,0,0,1,0,1.47412Zm4.53125,1.11231a1.99207,1.99207,0,0,1-.8418.7583,2.95046,2.95046,0,0,1-1.32422.27344H14.1416V20.70349h1.55957a2.95046,2.95046,0,0,1,1.32422.27344,1.99207,1.99207,0,0,1,.8418.7583,2.2937,2.2937,0,0,1,0,2.23633Zm4.13574-2.48194H19.79785V22.5033h1.6836v.78613h-1.6836V25.0033h-.94531V20.70349h3.15039ZM24,8.00128H21.00708V4.71741L24,7.71033Z"/></svg>