<svg id="Icons" xmlns="http://www.w3.org/2000/svg" viewBox="0 0 32 32"><defs><style>.cls-1{fill:#5514b4;}</style></defs><path class="cls-1" d="M25.8678,16.13281a5.00013,5.00013,0,1,0-7.74109-.00671,8.1279,8.1279,0,0,0-2.12341,1.52246,8.05424,8.05424,0,0,0-2.1355-1.51575,5.00013,5.00013,0,1,0-7.7356,0A7.0123,7.0123,0,0,0,2,22.29932v.874A.82751.82751,0,0,0,2.82617,24H29.17383A.82751.82751,0,0,0,30,23.17334v-.874A7.0123,7.0123,0,0,0,25.8678,16.13281ZM22,9a4,4,0,1,1-4,4A4.0045,4.0045,0,0,1,22,9ZM10,9a4,4,0,1,1-4,4A4.0045,4.0045,0,0,1,10,9Zm4.82617,14H3v-.70068a6.03008,6.03008,0,0,1,3.88263-5.41877,4.90025,4.90025,0,0,0,6.23474,0A6.03008,6.03008,0,0,1,17,22.29932V23ZM29,23H18v-.70068a6.46306,6.46306,0,0,0-1.33838-3.89869,7.199,7.199,0,0,1,2.2215-1.51971,4.90019,4.90019,0,0,0,6.23425-.00037A6.03008,6.03008,0,0,1,29,22.29932Z"/></svg>