<svg id="Icons" xmlns="http://www.w3.org/2000/svg" viewBox="0 0 32 32"><defs><style>.cls-1{fill:#5514b4;}</style></defs><path class="cls-1" d="M29.5,19.01069a3.2443,3.2443,0,0,0-1.5.33642V15.01069H13.74023l-1.60546-2H3v.5A8.01823,8.01823,0,0,0,7.85736,20.8498a2.28626,2.28626,0,0,1-.85931.16089,2.55686,2.55686,0,0,1-1.917-.87354A3.52387,3.52387,0,0,0,2.5,19.01069a.5.5,0,0,0,0,1,2.55683,2.55683,0,0,1,1.917.87353,3.51907,3.51907,0,0,0,5.16113,0,2.53809,2.53809,0,0,1,3.832,0,3.52182,3.52182,0,0,0,5.16308.00049,2.54465,2.54465,0,0,1,3.83887,0,3.528,3.528,0,0,0,5.168,0,2.562,2.562,0,0,1,1.91992-.874.5.5,0,0,0,0-1Zm-23-3a.5.5,0,1,1,.5-.5A.5.5,0,0,1,6.5,16.01069Zm2,0a.5.5,0,1,1,.5-.5A.5.5,0,0,1,8.5,16.01069Zm2,0a.5.5,0,1,1,.5-.5A.5.5,0,0,1,10.5,16.01069Z"/><circle class="cls-1" cx="24.5" cy="13.51069" r="0.5"/><circle class="cls-1" cx="22.5" cy="13.51069" r="0.5"/><path class="cls-1" d="M27,16.01069H20V12.038a1.0286,1.0286,0,0,1,1.02734-1.02734h4.94532A1.0286,1.0286,0,0,1,27,12.038Zm-6-1h5V12.038l-4.97266-.02734A.02794.02794,0,0,0,21,12.038Z"/></svg>