<svg id="Icons" xmlns="http://www.w3.org/2000/svg" viewBox="0 0 32 32"><defs><style>.cls-1{fill:#5514b4;}</style></defs><path class="cls-1" d="M18.04492,13.98535a1.91487,1.91487,0,0,0-1.627.90186l-.42285.67285-.42285-.67285a1.91487,1.91487,0,0,0-1.627-.90186,2.05921,2.05921,0,0,0-1.92187,2.29541c0,3.05029,3.0625,5.05078,3.95508,5.56885.88964-.58154,3.98925-2.80713,3.98925-5.56885A2.06,2.06,0,0,0,18.04492,13.98535Z"/><path class="cls-1" d="M27.64044,13.23688,16.62994,4.22833a.99991.99991,0,0,0-1.26709,0l-11.00146,9.008a1,1,0,0,0-.36017.76849L4,26.99988A1,1,0,0,0,5,28H26.9989a1,1,0,0,0,1-.99994L28,14.00616A.99968.99968,0,0,0,27.64044,13.23688ZM16.24707,22.86182l-.2334.13623-.24219-.1211c-.19336-.09716-4.748-2.42187-4.748-6.59619a3.00825,3.00825,0,0,1,2.92187-3.29541,2.90269,2.90269,0,0,1,2.04981.84082,2.90268,2.90268,0,0,1,2.0498-.84082,3.009,3.009,0,0,1,2.92285,3.29541C20.96777,20.06494,16.43945,22.749,16.24707,22.86182Z"/></svg>