<svg id="Icons" xmlns="http://www.w3.org/2000/svg" viewBox="0 0 32 32"><defs><style>.cls-1{fill:#5514b4;}</style></defs><path class="cls-1" d="M6.65318,11.12274h1.708v4.11573h5.10937V11.12274h1.708v9.79981h-1.708v-4.2002H8.36119v4.2002h-1.708Z"/><path class="cls-1" d="M16.46666,20.92255V11.12274H19.911a6.431,6.431,0,0,1,2.94629.623,4.46423,4.46423,0,0,1,1.876,1.72852,4.92534,4.92534,0,0,1,.65137,2.54834,4.92235,4.92235,0,0,1-.65137,2.54785,4.46225,4.46225,0,0,1-1.876,1.729,6.431,6.431,0,0,1-2.94629.62305ZM19.911,12.60663H18.17466V19.4245H19.911a3.82232,3.82232,0,0,0,2.75782-.917,3.28832,3.28832,0,0,0,.95214-2.48486,3.31663,3.31663,0,0,0-.95214-2.48487A3.78706,3.78706,0,0,0,19.911,12.60663Z"/></svg>