<svg id="Icons" xmlns="http://www.w3.org/2000/svg" viewBox="0 0 32 32"><defs><style>.cls-1{fill:#5514b4;}</style></defs><path class="cls-1" d="M16.0144,18a2,2,0,1,0-2-2A2,2,0,0,0,16.0144,18Z"/><path class="cls-1" d="M29.0144,16s-5.49322-5.64191-12.38562-5.96887a6.07825,6.07825,0,0,0-1.22876,0C8.50763,10.35809,3.0144,16,3.0144,16S8.50763,21.64191,15.4,21.96887a6.07825,6.07825,0,0,0,1.22876,0C23.52118,21.64191,29.0144,16,29.0144,16Zm-8,0a5,5,0,1,1-5-5A5.00565,5.00565,0,0,1,21.0144,16ZM4.4851,16a22.20556,22.20556,0,0,1,7.34424-4.295,5.98935,5.98935,0,0,0,.00006,8.59A22.20345,22.20345,0,0,1,4.4851,16Zm15.71436,4.295a5.98948,5.98948,0,0,0,.00012-8.5899A22.20481,22.20481,0,0,1,27.5437,16,22.20435,22.20435,0,0,1,20.19946,20.295Z"/></svg>