<svg id="Icons" xmlns="http://www.w3.org/2000/svg" viewBox="0 0 32 32"><defs><style>.cls-1{fill:#5514b4;}</style></defs><path class="cls-1" d="M26.84155,16.37024a5.98522,5.98522,0,0,0-7.88678-7.01257A6.98277,6.98277,0,0,0,6.12762,14.30524,5.99675,5.99675,0,0,0,8,26H25a4.98884,4.98884,0,0,0,1.84155-9.62976Zm-7.02466.473a.49982.49982,0,0,1-.707-.002L16.5,14.2171v8.28534a.5.5,0,0,1-1,0V14.20288l-2.67139,2.64136a.5.5,0,0,1-.70312-.71094l3.52057-3.48108.00079-.00079.35608-.35211.35.352.00116.00109,3.46472,3.48383A.49981.49981,0,0,1,19.81689,16.84326Z"/></svg>