<svg id="Icons" xmlns="http://www.w3.org/2000/svg" viewBox="0 0 32 32"><defs><style>.cls-1{fill:#5514b4;}</style></defs><path class="cls-1" d="M26.00659,8H5.99341A1.99338,1.99338,0,0,0,4,9.99341V22.00659A1.99338,1.99338,0,0,0,5.99341,24H26.00659A1.99338,1.99338,0,0,0,28,22.00659V9.99341A1.99338,1.99338,0,0,0,26.00659,8ZM16.52344,21.00488H7.50879a.5.5,0,0,1,0-1h9.01465a.5.5,0,0,1,0,1ZM25,18.12885A.87113.87113,0,0,1,24.12885,19h-3.2577A.87113.87113,0,0,1,20,18.12885v-2.2577A.87113.87113,0,0,1,20.87115,15h3.2577A.87113.87113,0,0,1,25,15.87115ZM27,13H5V11H27Z"/></svg>