<svg id="Icons" xmlns="http://www.w3.org/2000/svg" viewBox="0 0 32 32"><defs><style>.cls-1{fill:#5514b4;}</style></defs><path class="cls-1" d="M9,9a4,4,0,1,0,4,4A4,4,0,0,0,9,9Zm2.50439,2.356-1.998.87787V10.04657A3.00155,3.00155,0,0,1,11.50439,11.356Z"/><path class="cls-1" d="M14.5,11h8a.5.5,0,0,0,0-1h-8a.5.5,0,0,0,0,1Z"/><path class="cls-1" d="M14.5,13h8a.5.5,0,0,0,0-1h-8a.5.5,0,0,0,0,1Z"/><path class="cls-1" d="M14.5,15h8a.5.5,0,0,0,0-1h-8a.5.5,0,0,0,0,1Z"/><path class="cls-1" d="M18.49512,16H14.5a.5.5,0,0,0,0,1h3.99512a.5.5,0,0,0,0-1Z"/><path class="cls-1" d="M29.35638,23.44519A1.98251,1.98251,0,0,0,30,21.999V7.001A2.00687,2.00687,0,0,0,27.999,5H4.001A2.00684,2.00684,0,0,0,2,7.001V21.999A2.00684,2.00684,0,0,0,4.001,24H18.23114a4.84873,4.84873,0,0,0-.74457,2.55054V26.99a.99932.99932,0,0,0,1,.99658h11a.99932.99932,0,0,0,1-.99658v-.43945A4.9269,4.9269,0,0,0,29.35638,23.44519ZM4.001,23A1.00212,1.00212,0,0,1,3,21.999V7.001A1.00212,1.00212,0,0,1,4.001,6H27.999A1.00212,1.00212,0,0,1,29,7.001V21.999a.99207.99207,0,0,1-.33167.73548,6.733,6.733,0,0,0-1.88305-1.16535,3.5,3.5,0,1,0-5.59717-.00012A6.62545,6.62545,0,0,0,19.00989,23Zm17.48578-3.51343a2.5,2.5,0,1,1,2.5,2.5A2.50279,2.50279,0,0,1,21.48676,19.48657Z"/></svg>