<svg id="Icons" xmlns="http://www.w3.org/2000/svg" viewBox="0 0 32 32"><defs><style>.cls-1{fill:#5514b4;}</style></defs><path class="cls-1" d="M13.2168,15.45215a.49442.49442,0,0,0,.11914-.3252.4394.4394,0,0,0-.12207-.32275.56437.56437,0,0,0-.40821-.12256H11.915v.91357h.89062A.513.513,0,0,0,13.2168,15.45215Z"/><polygon class="cls-1" points="7.576 16.429 8.724 16.429 8.146 14.927 7.576 16.429"/><path class="cls-1" d="M12.87988,16.27441H11.915v1.022h.96484a.66022.66022,0,0,0,.459-.14258.49647.49647,0,0,0,0-.7251A.62784.62784,0,0,0,12.87988,16.27441Z"/><path class="cls-1" d="M26.91125,12H5.08875A1.09,1.09,0,0,0,4,13.08875v5.82244A1.09,1.09,0,0,0,5.08875,20h21.8225A1.09,1.09,0,0,0,28,18.91119V13.08875A1.09,1.09,0,0,0,26.91125,12ZM9.31738,17.9873l-.34277-.89062H7.31934l-.34278.89062H6.07422l1.60449-3.99658h.959L10.248,17.9873Zm4.89844-.57959a1.16127,1.16127,0,0,1-.47656.42237,1.63562,1.63562,0,0,1-.74512.15722H11.04688V13.99072h1.90136a1.59284,1.59284,0,0,1,.7168.14258,1.013,1.013,0,0,1,.42187.37109.92059.92059,0,0,1,.13965.49122.78078.78078,0,0,1-.20215.52832,1.17721,1.17721,0,0,1-.5625.33935,1.24632,1.24632,0,0,1,.68555.35693.86859.86859,0,0,1,.2334.59668A1.09341,1.09341,0,0,1,14.21582,17.40771Zm3.833.45118a2.20326,2.20326,0,0,1-.92188.18554,2.1504,2.1504,0,0,1-.81054-.15136,1.9909,1.9909,0,0,1-.65918-.42823,1.96986,1.96986,0,0,1-.44043-.6538,2.24045,2.24045,0,0,1,0-1.644,1.97,1.97,0,0,1,.44043-.65381,2.00615,2.00615,0,0,1,.65625-.42822,2.1375,2.1375,0,0,1,.80761-.15137,2.08853,2.08853,0,0,1,.90528.18848,2.17326,2.17326,0,0,1,.72754.58252l-.56543.51367a1.54855,1.54855,0,0,0-.48243-.41113,1.25629,1.25629,0,0,0-.585-.13135,1.0792,1.0792,0,0,0-.58789.16553,1.17245,1.17245,0,0,0-.417.4624,1.599,1.599,0,0,0,0,1.37061,1.16481,1.16481,0,0,0,.41992.4624,1.09386,1.09386,0,0,0,.59082.16553,1.3853,1.3853,0,0,0,.6084-.12842,1.48157,1.48157,0,0,0,.49317-.40821l.56543.51368A2.15684,2.15684,0,0,1,18.04883,17.85889ZM23,18.00342H20v-1h3Z"/></svg>