<svg id="Icons" xmlns="http://www.w3.org/2000/svg" viewBox="0 0 32 32"><defs><style>.cls-1{fill:#5514b4;}</style></defs><path class="cls-1" d="M15.98706,4.54486,6.99585,6.6684v7.87841c0,8.04883,8.147,12.5,9,12.5s9-4.45117,9-12.49951l.00537-7.89062ZM16,22.99335a1,1,0,1,1,1-1A1,1,0,0,1,16,22.99335Zm2.16309-7.31464c-.88965.793-1.65821,1.47705-1.65821,2.83106a.5.5,0,1,1-1,0,4.56281,4.56281,0,0,1,1.99219-3.57764c.80469-.7168,1.5-1.33594,1.5-2.42822C18.99707,10.65576,17.38672,10,16.00684,10c-1.49512,0-3.00391.77051-3.00391,2.49121a.5.5,0,1,1-1,0C12.00293,10.43555,13.64941,9,16.00684,9c2.34961,0,3.99023,1.44092,3.99023,3.50391A4.16288,4.16288,0,0,1,18.16309,15.67871Z"/></svg>