<svg id="Icons" xmlns="http://www.w3.org/2000/svg" viewBox="0 0 32 32"><defs><style>.cls-1{fill:#5514b4;}</style></defs><path class="cls-1" d="M9.47284,12.00134H24.51562a.50078.50078,0,0,0,0-1H9.47284a.50078.50078,0,0,0,0,1Z"/><path class="cls-1" d="M9.47229,14.98352h15.026a.50081.50081,0,0,0,0-1H9.47229a.50081.50081,0,0,0,0,1Z"/><path class="cls-1" d="M24.51617,17.00977H9.49011a.50081.50081,0,0,0,0,1H24.51617a.50081.50081,0,0,0,0-1Z"/><circle class="cls-1" cx="7.5" cy="11.5" r="0.5"/><circle class="cls-1" cx="7.5" cy="17.5" r="0.5"/><path class="cls-1" d="M24.51617,20.02338H9.49011a.50081.50081,0,0,0,0,1H24.51617a.50081.50081,0,0,0,0-1Z"/><circle class="cls-1" cx="7.5" cy="20.51361" r="0.5"/><circle class="cls-1" cx="7.5" cy="14.47906" r="0.5"/></svg>