<svg id="Icons" xmlns="http://www.w3.org/2000/svg" viewBox="0 0 32 32"><defs><style>.cls-1{fill:#5514b4;}</style></defs><path class="cls-1" d="M27.50916,16a4.48092,4.48092,0,0,1,2.37866-3.94568l-3.58405-6.2077A4.45776,4.45776,0,0,1,24,6.5,4.5,4.5,0,0,1,19.5,2h-7A4.5,4.5,0,0,1,8,6.5a4.45776,4.45776,0,0,1-2.30377-.65338L2.11438,12.05054a4.462,4.462,0,0,1,0,7.89892l3.58185,6.20392A4.47536,4.47536,0,0,1,12.5,30h7a4.47536,4.47536,0,0,1,6.80377-3.84662l3.58405-6.2077A4.48092,4.48092,0,0,1,27.50916,16ZM19.5,22.06213A7,7,0,1,1,22.06219,12.5,7,7,0,0,1,19.5,22.06213Z"/></svg>