<svg id="Icons" xmlns="http://www.w3.org/2000/svg" viewBox="0 0 32 32"><defs><style>.cls-1{fill:#5514b4;}</style></defs><path class="cls-1" d="M9.50342,5H6.49658A1.49657,1.49657,0,0,0,5,6.49652v3.007A1.49657,1.49657,0,0,0,6.49658,11H9.50342A1.49657,1.49657,0,0,0,11,9.50348v-3.007A1.49657,1.49657,0,0,0,9.50342,5ZM8.26563,8.99121H7.8291V7.45361l-.48828.417V7.42822l.51367-.41992h.41114Z"/><path class="cls-1" d="M17.50342,5H14.49658A1.49657,1.49657,0,0,0,13,6.49652v3.007A1.49657,1.49657,0,0,0,14.49658,11h3.00684A1.49657,1.49657,0,0,0,19,9.50348v-3.007A1.49657,1.49657,0,0,0,17.50342,5Zm-.74927,3.99121H15.35474V8.6377l.7041-.65235a1.10594,1.10594,0,0,0,.19433-.2168.33886.33886,0,0,0,.04981-.17382.22817.22817,0,0,0-.07715-.17676A.3104.3104,0,0,0,16.01,7.34766a.506.506,0,0,0-.26758.07177.71878.71878,0,0,0-.19531.17237L15.303,7.32764a1.17076,1.17076,0,0,1,.18262-.16846.93153.93153,0,0,1,.24121-.12939.89684.89684,0,0,1,.30859-.0503.81688.81688,0,0,1,.36719.07764.62156.62156,0,0,1,.24512.21142.53166.53166,0,0,1,.08886.30323.64424.64424,0,0,1-.07715.30859,1.23762,1.23762,0,0,1-.27929.32324l-.47364.4253h.84766Z"/><path class="cls-1" d="M25.50342,5H22.49658A1.49657,1.49657,0,0,0,21,6.49652v3.007A1.49657,1.49657,0,0,0,22.49658,11h3.00684A1.49657,1.49657,0,0,0,27,9.50348v-3.007A1.49657,1.49657,0,0,0,25.50342,5Zm-.84363,3.731a.68262.68262,0,0,1-.26855.21142.91626.91626,0,0,1-.38575.07764.95894.95894,0,0,1-.76953-.36523l.28125-.25a.76743.76743,0,0,0,.21387.18408.54762.54762,0,0,0,.26367.06054.36956.36956,0,0,0,.22949-.06933.22868.22868,0,0,0,.0918-.19531.21261.21261,0,0,0-.085-.18116.3756.3756,0,0,0-.23047-.063h-.25879V7.79h.25879a.30632.30632,0,0,0,.17773-.05322.18227.18227,0,0,0,.07715-.16211.19467.19467,0,0,0-.08593-.17676.37433.37433,0,0,0-.21-.05615.4633.4633,0,0,0-.23339.05908.68822.68822,0,0,0-.18555.15088L23.29651,7.29a1.07655,1.07655,0,0,1,.29-.21826.94678.94678,0,0,1,.75976-.02442.61277.61277,0,0,1,.24414.18506.43986.43986,0,0,1,.09082.27588.40949.40949,0,0,1-.09765.26465.54565.54565,0,0,1-.2959.17236.60616.60616,0,0,1,.35449.17823.44019.44019,0,0,1,.11621.30175A.49661.49661,0,0,1,24.65979,8.731Z"/><path class="cls-1" d="M9.50342,13H6.49658A1.49653,1.49653,0,0,0,5,14.49652v3.007A1.49657,1.49657,0,0,0,6.49658,19H9.50342A1.49657,1.49657,0,0,0,11,17.50348v-3.007A1.49653,1.49653,0,0,0,9.50342,13Zm-.7749,3.606H8.47559v.38525H8.044V16.606H7.085v-.28711L8.0332,15.0083h.44239v1.27295h.25293Z"/><polygon class="cls-1" points="8.044 16.281 8.044 15.529 7.498 16.281 8.044 16.281"/><path class="cls-1" d="M17.50342,13H14.49658A1.49653,1.49653,0,0,0,13,14.49652v3.007A1.49657,1.49657,0,0,0,14.49658,19h3.00684A1.49657,1.49657,0,0,0,19,17.50348v-3.007A1.49653,1.49653,0,0,0,17.50342,13Zm-.81824,3.71643a.65729.65729,0,0,1-.27246.24414.88533.88533,0,0,1-.39844.08643.96849.96849,0,0,1-.39941-.085,1.16313,1.16313,0,0,1-.38184-.3003l.27832-.25293a1.13922,1.13922,0,0,0,.23438.20557.45956.45956,0,0,0,.249.07324.35905.35905,0,0,0,.251-.09326.32646.32646,0,0,0,.10254-.25439.34546.34546,0,0,0-.08692-.23975.31341.31341,0,0,0-.24707-.09619.436.436,0,0,0-.1709.03418.32574.32574,0,0,0-.13671.10937l-.333-.09472.11523-1.01758h1.14063v.3623H15.819l-.06348.47412a.46764.46764,0,0,1,.17871-.14941.51375.51375,0,0,1,.21778-.0459.61131.61131,0,0,1,.31933.08594.6352.6352,0,0,1,.22852.2373.699.699,0,0,1,.085.34912A.67536.67536,0,0,1,16.68518,16.71643Z"/><path class="cls-1" d="M24.03186,16.02881a.31041.31041,0,0,0-.22266.08594.31387.31387,0,0,0-.09082.23877.30084.30084,0,0,0,.09082.22949.31085.31085,0,0,0,.22266.08642.32726.32726,0,0,0,.22949-.08642.29341.29341,0,0,0,.09473-.22949.30583.30583,0,0,0-.09473-.23877A.32682.32682,0,0,0,24.03186,16.02881Z"/><path class="cls-1" d="M25.50342,13H22.49658A1.49653,1.49653,0,0,0,21,14.49652v3.007A1.49657,1.49657,0,0,0,22.49658,19h3.00684A1.49657,1.49657,0,0,0,27,17.50348v-3.007A1.49653,1.49653,0,0,0,25.50342,13Zm-.81629,3.67529a.701.701,0,0,1-.26855.25293.81407.81407,0,0,1-.38965.0918.70747.70747,0,0,1-.40625-.11768.777.777,0,0,1-.27148-.33056,1.16971,1.16971,0,0,1-.09864-.49414,1.29827,1.29827,0,0,1,.12012-.57471.94254.94254,0,0,1,.32422-.38525.81987.81987,0,0,1,.4668-.13819.92476.92476,0,0,1,.32519.0503.86776.86776,0,0,1,.25.15087l-.21582.29053a.55768.55768,0,0,0-.18066-.10937.57715.57715,0,0,0-.1875-.03174.47735.47735,0,0,0-.168.0332.42026.42026,0,0,0-.16211.11524.60769.60769,0,0,0-.12207.22656,1.279,1.279,0,0,0-.05078.36963.5674.5674,0,0,1,.22754-.292.60824.60824,0,0,1,.3164-.0874.56988.56988,0,0,1,.29981.08057.58468.58468,0,0,1,.21094.21973.64106.64106,0,0,1,.07812.31738A.6907.6907,0,0,1,24.68713,16.67529Z"/><path class="cls-1" d="M9.50342,21H6.49658A1.49653,1.49653,0,0,0,5,22.49652v3.007A1.49657,1.49657,0,0,0,6.49658,27H9.50342A1.49657,1.49657,0,0,0,11,25.50348v-3.007A1.49653,1.49653,0,0,0,9.50342,21Zm-.788,2.34766-.81054,1.64355H7.4137l.85937-1.6206H7.276V23.0083H8.71545Z"/><path class="cls-1" d="M15.97119,24.10889a.39945.39945,0,0,0-.25781.07617.24884.24884,0,0,0-.09473.20556.26247.26247,0,0,0,.09473.21387.46129.46129,0,0,0,.5166,0,.26247.26247,0,0,0,.09473-.21387.24884.24884,0,0,0-.09473-.20556A.40051.40051,0,0,0,15.97119,24.10889Z"/><path class="cls-1" d="M15.97119,23.793a.34692.34692,0,0,0,.22559-.06592.21747.21747,0,0,0,.082-.17822.2018.2018,0,0,0-.082-.1709.43778.43778,0,0,0-.44922,0,.20012.20012,0,0,0-.083.1709.21553.21553,0,0,0,.083.17822A.35032.35032,0,0,0,15.97119,23.793Z"/><path class="cls-1" d="M17.50342,21H14.49658A1.49653,1.49653,0,0,0,13,22.49652v3.007A1.49657,1.49657,0,0,0,14.49658,27h3.00684A1.49657,1.49657,0,0,0,19,25.50348v-3.007A1.49653,1.49653,0,0,0,17.50342,21Zm-.84766,3.73535a.65761.65761,0,0,1-.27734.21,1.14455,1.14455,0,0,1-.81348,0,.65674.65674,0,0,1-.27734-.20849.50558.50558,0,0,1-.10059-.31446.47061.47061,0,0,1,.11035-.312.59887.59887,0,0,1,.332-.18213.43214.43214,0,0,1-.26367-.147.41683.41683,0,0,1-.08691-.26709.454.454,0,0,1,.09082-.2832.59255.59255,0,0,1,.24707-.18506.98194.98194,0,0,1,.71,0,.59255.59255,0,0,1,.24707.18506.454.454,0,0,1,.09082.2832.41683.41683,0,0,1-.08691.26709.435.435,0,0,1-.26368.147.59248.59248,0,0,1,.33106.18213.4664.4664,0,0,1,.11133.312A.51346.51346,0,0,1,16.65576,24.73535Z"/><path class="cls-1" d="M25.50342,21H22.49658A1.49653,1.49653,0,0,0,21,22.49652v3.007A1.49657,1.49657,0,0,0,22.49658,27h3.00684A1.49657,1.49657,0,0,0,27,25.50348v-3.007A1.49653,1.49653,0,0,0,25.50342,21Zm-.78382,3.39209a1.09371,1.09371,0,0,1-.1914.34766.85064.85064,0,0,1-.28711.22851.81233.81233,0,0,1-.36035.08057A.95039.95039,0,0,1,23.55554,25a.89942.89942,0,0,1-.25-.144l.207-.29a.60494.60494,0,0,0,.18555.10205.621.621,0,0,0,.19043.03027.44421.44421,0,0,0,.16406-.03467.43261.43261,0,0,0,.16114-.11767.64647.64647,0,0,0,.123-.227,1.17031,1.17031,0,0,0,.05176-.36231.56126.56126,0,0,1-.22656.28907.60374.60374,0,0,1-.31641.0874.56822.56822,0,0,1-.51074-.30176.64331.64331,0,0,1-.07813-.31592.67808.67808,0,0,1,.09766-.36328.69743.69743,0,0,1,.26855-.25146.80872.80872,0,0,1,.38965-.09229.71486.71486,0,0,1,.40821.11816.77718.77718,0,0,1,.27148.32862,1.18348,1.18348,0,0,1,.0957.49609A1.34712,1.34712,0,0,1,24.7196,24.39209Z"/><path class="cls-1" d="M24.00964,23.35889a.32726.32726,0,0,0-.22949.08642.29516.29516,0,0,0-.09473.23.30509.30509,0,0,0,.09473.23682A.32417.32417,0,0,0,24.00964,24a.3078.3078,0,0,0,.22461-.08789.3193.3193,0,0,0,.08887-.23682.30049.30049,0,0,0-.31348-.3164Z"/></svg>