<svg id="Icons" xmlns="http://www.w3.org/2000/svg" viewBox="0 0 32 32"><defs><style>.cls-1{fill:#5514b4;}</style></defs><path class="cls-1" d="M16.3457,21.04932a.81472.81472,0,0,1-.81543-.81494V13.23l-2.874,2.87451a1.45313,1.45313,0,0,1-1.02051.42237h-8.126a.5.5,0,1,1,0-1h8.126a.44634.44634,0,0,0,.31348-.1294l3.18945-3.18994a.81508.81508,0,0,1,1.3916.57617v7.00342l3.87207-3.87158a1.43277,1.43277,0,0,1,1.01954-.42237h7.05761a.5.5,0,0,1,0,1H21.42188a.43955.43955,0,0,0-.3125.1294l-4.18848,4.188A.81146.81146,0,0,1,16.3457,21.04932Z"/></svg>