<svg id="Icons" xmlns="http://www.w3.org/2000/svg" viewBox="0 0 32 32"><defs><style>.cls-1{fill:#5514b4;}</style></defs><path class="cls-1" d="M19.5708,18.00739h6a.5.5,0,0,0,0-1h-6a.5.5,0,0,0,0,1Z"/><path class="cls-1" d="M19.5708,19.99646h6a.5.5,0,0,0,0-1h-6a.5.5,0,0,0,0,1Z"/><path class="cls-1" d="M19.5708,21.98547h6a.5.5,0,0,0,0-1h-6a.5.5,0,0,0,0,1Z"/><path class="cls-1" d="M19.5708,23.991h6a.5.5,0,0,0,0-1h-6a.5.5,0,0,0,0,1Z"/><path class="cls-1" d="M6.50769,18.00739h6a.5.5,0,0,0,0-1h-6a.5.5,0,0,0,0,1Z"/><path class="cls-1" d="M6.50769,19.99646h6a.5.5,0,0,0,0-1h-6a.5.5,0,0,0,0,1Z"/><path class="cls-1" d="M6.50769,21.98547h6a.5.5,0,1,0,0-1h-6a.5.5,0,0,0,0,1Z"/><path class="cls-1" d="M6.50769,14.01282h6a.5.5,0,0,0,0-1h-6a.5.5,0,0,0,0,1Z"/><path class="cls-1" d="M6.50769,16.00189h6a.5.5,0,0,0,0-1h-6a.5.5,0,0,0,0,1Z"/><path class="cls-1" d="M6.50769,23.991h6a.5.5,0,0,0,0-1h-6a.5.5,0,0,0,0,1Z"/><path class="cls-1" d="M3.99835,26.90082a1.11446,1.11446,0,0,0,1.11328,1.11377h8.79785a1.114,1.114,0,0,0,1.11329-1.1128L15.0257,8.98785,4.00128,3.95361ZM5.00128,5.54443,14.0257,9.61676l-.00293,17.285a.11327.11327,0,0,1-.11329.1128H5.11163a.11378.11378,0,0,1-.11328-.11377Z"/><path class="cls-1" d="M17.00128,9.99036l-.00293,16.91046a1.11446,1.11446,0,0,0,1.11328,1.11377h8.79785a1.114,1.114,0,0,0,1.11329-1.1128L28.0257,14.981ZM27.02277,26.90179a.11327.11327,0,0,1-.11329.1128H18.11163a.11378.11378,0,0,1-.11328-.11377l.00293-15.31964,9.02442,4.02874Z"/></svg>