<svg id="Icons" xmlns="http://www.w3.org/2000/svg" viewBox="0 0 32 32"><defs><style>.cls-1{fill:#5514b4;}</style></defs><path class="cls-1" d="M16,8a2,2,0,1,0-2-2A2.002,2.002,0,0,0,16,8Zm0-3a1,1,0,1,1-1,1A1.0013,1.0013,0,0,1,16,5Z"/><path class="cls-1" d="M19.01807,9h-6.044A1.97655,1.97655,0,0,0,11,10.97412V18.5a.5.5,0,0,0,1,0V10.97412A.97525.97525,0,0,1,12.97412,10h6.044A.983.983,0,0,1,20,10.98193V18.5a.5.5,0,0,0,1,0V10.98193A1.98426,1.98426,0,0,0,19.01807,9Z"/><path class="cls-1" d="M13.5,11a.49971.49971,0,0,0-.5.5v16a.5.5,0,0,0,1,0v-16A.49971.49971,0,0,0,13.5,11Z"/><path class="cls-1" d="M18.5,11a.49971.49971,0,0,0-.5.5v16a.5.5,0,0,0,1,0v-16A.49971.49971,0,0,0,18.5,11Z"/></svg>