<svg id="Icons" xmlns="http://www.w3.org/2000/svg" viewBox="0 0 32 32"><defs><style>.cls-1{fill:#5514b4;}</style></defs><path class="cls-1" d="M16,2A14,14,0,1,0,30,16,14,14,0,0,0,16,2Zm-.01965,23.00165a1.00278,1.00278,0,1,1,1.00281-1.00275A.94738.94738,0,0,1,15.98033,25.00165ZM20.04918,20.332a.49947.49947,0,0,1-.707.01465,4.70032,4.70032,0,0,0-6.54-.00732.5.5,0,1,1-.707-.707,5.70532,5.70532,0,0,1,7.93848-.00732A.50082.50082,0,0,1,20.04918,20.332Zm3.82519-3.31592a.4998.4998,0,0,1-.707,0,10.1414,10.1414,0,0,0-14.36816,0,.49995.49995,0,1,1-.707-.707,11.141,11.141,0,0,1,15.78223,0A.49982.49982,0,0,1,23.87437,17.01611Zm3.65039-3.21875a.49834.49834,0,0,1-.35351-.14648,15.69407,15.69407,0,0,0-22.29,0,.49995.49995,0,0,1-.707-.707,16.69367,16.69367,0,0,1,23.7041,0,.5.5,0,0,1-.35352.85351Z"/></svg>