<svg id="Icons" xmlns="http://www.w3.org/2000/svg" viewBox="0 0 32 32"><defs><style>.cls-1{fill:#5514b4;}</style></defs><path class="cls-1" d="M27.98553,12H26V6H2V19H8.97894v5.00659A1.99342,1.99342,0,0,0,10.97235,26H27.98553a1.99345,1.99345,0,0,0,1.99341-1.99341V13.99341A1.99342,1.99342,0,0,0,27.98553,12ZM16,7h9v5H24V10.293L21.707,8H16Zm0,2h5.293L23,10.707V12H16ZM13,7h2v5H13ZM8.97894,18H3V7h9V8H6.293L4,10.293V14.707L6.293,17h2.686Zm0-4.00659V16H6.707L5,14.293V10.707L6.707,9H12v3H10.97235A1.99338,1.99338,0,0,0,8.97894,13.99341Zm20,10.01318A.99455.99455,0,0,1,27.98553,25H10.97235a.99451.99451,0,0,1-.99341-.99341V16.97644l19,.02014Zm0-9.01-19-.02014v-.983A.99451.99451,0,0,1,10.97235,13H27.98553a.99455.99455,0,0,1,.99341.99341Z"/><path class="cls-1" d="M12.49512,22.999h14.875a.5.5,0,0,0,0-1h-14.875a.5.5,0,0,0,0,1Z"/><path class="cls-1" d="M23.87366,18.00061h2.25763a.87115.87115,0,0,1,.87115.87115v1.25494a.87115.87115,0,0,1-.87115.87115H23.8736a.87115.87115,0,0,1-.87115-.87115V18.87183A.87122.87122,0,0,1,23.87366,18.00061Z"/></svg>