<svg id="Icons" xmlns="http://www.w3.org/2000/svg" viewBox="0 0 32 32"><defs><style>.cls-1{fill:#5514b4;}</style></defs><path class="cls-1" d="M28,23V8a2,2,0,0,0-2-2H6A2,2,0,0,0,4,8V23H2v2a1,1,0,0,0,1,1H29a1,1,0,0,0,1-1V23ZM5,8A1.00115,1.00115,0,0,1,6,7H26a1.00115,1.00115,0,0,1,1,1V23H5ZM29,25H3V24H29Z"/><path class="cls-1" d="M21.10938,15.57324l-4.18848,4.188a.81453.81453,0,0,1-1.39063-.57617v-7.0044l-2.874,2.87452a1.45318,1.45318,0,0,1-1.02051.42236H6V22H26V15.44385H21.42188A.43959.43959,0,0,0,21.10938,15.57324Z"/><path class="cls-1" d="M6,14.47754h5.63574a.44629.44629,0,0,0,.31348-.1294l3.18945-3.18994a.81509.81509,0,0,1,1.3916.57618v7.00341l3.87207-3.87158a1.43276,1.43276,0,0,1,1.01954-.42236H26V8H6Z"/></svg>