<svg id="Icons" xmlns="http://www.w3.org/2000/svg" viewBox="0 0 32 32"><defs><style>.cls-1{fill:#5514b4;}</style></defs><path class="cls-1" d="M27,14a1.99811,1.99811,0,0,0-1.92871,1.499H24V14.08881a1.09,1.09,0,0,0-1.08875-1.08875h-4.8225A1.09,1.09,0,0,0,17,14.08881V15.499H15.52679l-.21875-.21875L12.719,12.69122l-.70709-.70709-.70709.70709L8.71576,15.28027,8.497,15.499H6.92871a1.99993,1.99993,0,1,0,.00055,1h1.591l.1955.1955,2.58905,2.58905.70709.70709.70709-.70709L15.308,16.69452l.1955-.1955H17v1.42566a1.09,1.09,0,0,0,1.08875,1.08875h4.8225A1.09,1.09,0,0,0,24,17.92468V16.499h1.07074A1.99674,1.99674,0,1,0,27,14ZM5,17a1,1,0,1,1,1-1A1,1,0,0,1,5,17Zm7.0119,1.57642-2.58905-2.589,2.58905-2.58905,2.589,2.58905ZM23,17.92468a.08875.08875,0,0,1-.08875.08875h-4.8225A.08875.08875,0,0,1,18,17.92468V14.08881a.08874.08874,0,0,1,.08875-.08875h4.8225A.08874.08874,0,0,1,23,14.08881ZM27,17a1,1,0,1,1,1-1A1,1,0,0,1,27,17Z"/></svg>