<svg id="Icons" xmlns="http://www.w3.org/2000/svg" viewBox="0 0 32 32"><defs><style>.cls-1{fill:#5514b4;}</style></defs><path class="cls-1" d="M27.2988,15.40405l-4.39545.61774a3.3925,3.3925,0,1,0-.55853.05048,3.54494,3.54494,0,0,0,.39911-.02808L10.95206,17.70148a1.52467,1.52467,0,0,0,1.29608-1.723l-.54883-3.9087A1.5294,1.5294,0,0,0,9.97568,10.771l-3.9082.54931A1.52586,1.52586,0,0,0,4.76865,13.044l.54883,3.90869a1.52135,1.52135,0,0,0,1.71905,1.29913l-2.51043.35284a.5.5,0,1,0,.13922.99024L27.438,16.39429a.5.5,0,1,0-.13916-.99024Z"/><polygon class="cls-1" points="13.015 22.015 18.998 22.015 16.006 18.001 13.015 22.015"/></svg>