<svg id="Icons" xmlns="http://www.w3.org/2000/svg" viewBox="0 0 32 32"><defs><style>.cls-1{fill:#5514b4;}</style></defs><path class="cls-1" d="M28,23V8a2,2,0,0,0-2-2H6A2,2,0,0,0,4,8V23H2v2a1,1,0,0,0,1,1H29a1,1,0,0,0,1-1V23ZM5,8A1.00115,1.00115,0,0,1,6,7H26a1.00115,1.00115,0,0,1,1,1V23H5ZM29,25H3V24H29Z"/><path class="cls-1" d="M21.75659,15.571a2.45728,2.45728,0,0,0,.26868-1.10217,2.48368,2.48368,0,0,0-4.96735,0,2.45735,2.45735,0,0,0,.27167,1.10761,4.51786,4.51786,0,0,0-1.019.64563,3.89431,3.89431,0,0,0-.28369.29889,4.37684,4.37684,0,0,0-1.31019-.93976,2.457,2.457,0,0,0,.26868-1.10212,2.48364,2.48364,0,1,0-4.96728,0,2.45726,2.45726,0,0,0,.26861,1.102,3.70758,3.70758,0,0,0-2.28277,3.29676v.28662a.82626.82626,0,0,0,.82617.82373h7.34277c.018,0,.033-.0091.05072-.01025h6.98932a.82626.82626,0,0,0,.82617-.82374v-.28662A3.70778,3.70778,0,0,0,21.75659,15.571Zm-2.215-2.58581a1.48364,1.48364,0,1,1-1.48371,1.48364A1.48532,1.48532,0,0,1,19.54163,12.98517Zm-7.03992.01025a1.48365,1.48365,0,1,1-1.48364,1.48364A1.48528,1.48528,0,0,1,12.50171,12.99542Zm-3.4978,5.88239a2.82142,2.82142,0,0,1,1.92157-2.49408,2.435,2.435,0,0,0,3.15228.00012,2.82073,2.82073,0,0,1,1.92126,2.494v.1001h-.43359v.01025H9.00391Zm14.03515.1001h-6.04v-.1001a3.31906,3.31906,0,0,0-.38049-1.53546,2.90877,2.90877,0,0,1,.34631-.36444,3.61629,3.61629,0,0,1,1.00177-.6034,2.43514,2.43514,0,0,0,3.15113-.00091,2.82118,2.82118,0,0,1,1.92132,2.494Z"/></svg>