<svg id="Icons" xmlns="http://www.w3.org/2000/svg" viewBox="0 0 32 32"><defs><style>.cls-1{fill:#5514b4;}</style></defs><path class="cls-1" d="M26.84155,15.37024a5.98522,5.98522,0,0,0-7.88678-7.01257A6.98277,6.98277,0,0,0,6.12762,13.30524,5.99675,5.99675,0,0,0,8,25H25a4.98884,4.98884,0,0,0,1.84155-9.62976ZM22,19.00745a1,1,0,0,1-1,1H10.99463v-.00989a.99469.99469,0,0,1-.95111-.99011v-.02069h.95111V14.01105a2,2,0,0,1,2-2H18.978a2,2,0,0,1,2,2v4.97571H22Z"/><path class="cls-1" d="M18.978,13.011H12.99463a1.00115,1.00115,0,0,0-1,1v4.97571H19.978V14.01105A1.00115,1.00115,0,0,0,18.978,13.011Z"/></svg>