<svg id="Icons" xmlns="http://www.w3.org/2000/svg" viewBox="0 0 32 32"><defs><style>.cls-1{fill:#5514b4;}</style></defs><rect class="cls-1" x="6" y="8.00001" width="20" height="11.97986"/><path class="cls-1" d="M6.00494,22H26.00085A1.99915,1.99915,0,0,0,28,20.00087V8a2,2,0,0,0-2-2H6A2,2,0,0,0,4,8V19.99507A2.00494,2.00494,0,0,0,6.00494,22ZM5,8A1.00115,1.00115,0,0,1,6,7H26a1.00115,1.00115,0,0,1,1,1V20.00087A1.00031,1.00031,0,0,1,26.00085,21H6.00494A1.00607,1.00607,0,0,1,5,19.99507Z"/><path class="cls-1" d="M3,23v2a1,1,0,0,0,1,1H28a1,1,0,0,0,1-1V23Zm25,2H4V24H28Z"/></svg>