<svg id="Icons" xmlns="http://www.w3.org/2000/svg" viewBox="0 0 32 32"><defs><style>.cls-1{fill:#5514b4;}</style></defs><path class="cls-1" d="M18.05988,17.92566l-.41755.627-.71783-.22827a5.32221,5.32221,0,0,1-3.35175-3.26825l-.22912-.718L13.9707,13.92l.57019-.38006L13.84845,12.03H12.043A8.31492,8.31492,0,0,0,14.311,17.65991a8.30532,8.30532,0,0,0,5.63581,2.27667l.00207-1.88861-1.509-.69287Z"/><path class="cls-1" d="M26.84155,15.37024a5.98522,5.98522,0,0,0-7.88678-7.01257A6.98277,6.98277,0,0,0,6.12762,13.30524,5.99675,5.99675,0,0,0,8,25H25a4.98884,4.98884,0,0,0,1.84155-9.62976Zm-5.89538,5.16424a.41515.41515,0,0,1-.41.4151l-.02649.00007c-5.77362,0-9.49108-3.72632-9.47967-9.50971a.41508.41508,0,0,1,.41559-.40991h2.78174a.41355.41355,0,0,1,.39233.28278l1.06525,2.32293a.41351.41351,0,0,1-.16877.45581l-.99072.66053a4.35931,4.35931,0,0,0,2.70209,2.61926l.66046-.9917a.41312.41312,0,0,1,.45612-.16889l2.32257,1.06647a.41341.41341,0,0,1,.28253.3927Z"/></svg>