<svg id="Icons" xmlns="http://www.w3.org/2000/svg" viewBox="0 0 32 32"><defs><style>.cls-1{fill:#5514b4;}</style></defs><path class="cls-1" d="M24.59937,8.12006l3.26684-3.26654a.49995.49995,0,1,0-.707-.707L23.667,7.63818A18.137,18.137,0,0,0,16,6C8.26807,6,2,10.47717,2,16c0,3.20935,2.125,6.05811,5.41565,7.88794L4.18359,27.11963a.49995.49995,0,1,0,.707.707l3.45826-3.45795A18.14237,18.14237,0,0,0,16,26a19.22614,19.22614,0,0,0,4.0116-.42175l4.61352,2.34784A.998.998,0,0,0,26,26.999v-4.007A8.78851,8.78851,0,0,0,30,16C30,12.79541,27.88147,9.95013,24.59937,8.12006ZM3,16c0-4.96265,5.83179-9,13-9a17.33327,17.33327,0,0,1,6.91345,1.39178L8.14783,23.15582C5.02686,21.51044,3,18.91925,3,16Zm22.41064,6.1842L25,22.48383v4.511L20.46509,24.687l-.31568-.1607-.34643.074A18.25914,18.25914,0,0,1,16,25a17.33771,17.33771,0,0,1-6.89722-1.385L23.86731,8.852C26.97961,10.4978,29,13.08545,29,16A7.78683,7.78683,0,0,1,25.41064,22.1842Z"/></svg>