<svg id="Icons" xmlns="http://www.w3.org/2000/svg" viewBox="0 0 32 32"><defs><style>.cls-1{fill:#5514b4;}</style></defs><path class="cls-1" d="M27,19.60162a1.99817,1.99817,0,0,0-1.92865,1.499H24V19.69043a1.09,1.09,0,0,0-1.08875-1.08881h-4.8225A1.09,1.09,0,0,0,17,19.69043v1.41016H15.52673L15.308,20.8819,12.719,18.29285l-.70709-.7071-.70709.7071L8.71576,20.8819l-.21869.21869H6.92865a1.99975,1.99975,0,1,0,.00067,1H8.5202l.19556.19555,2.58905,2.58905.70709.7071.70709-.7071L15.308,22.29614l.19556-.19555H17v1.42584a1.09,1.09,0,0,0,1.08875,1.08874h4.8225A1.09,1.09,0,0,0,24,23.52643V22.10059h1.07068A1.99676,1.99676,0,1,0,27,19.60162Z"/><path class="cls-1" d="M11.98535,14.47168a.49842.49842,0,0,0,.35352-.14648L17.59906,9.065l1.77008,1.77094a.49983.49983,0,0,0,.707,0l1.41406-1.41553a.4998.4998,0,0,0,0-.707l-.46289-.47119C19.50879,6.688,17.42969,4.564,15.24414,5.81738a.49925.49925,0,0,0-.10449.78711l1.7525,1.75336-5.26031,5.26031a.5.5,0,0,0,.35351.85352Z"/></svg>