<svg id="Icons" xmlns="http://www.w3.org/2000/svg" viewBox="0 0 32 32"><defs><style>.cls-1{fill:#5514b4;}</style></defs><path class="cls-1" d="M16,2A14,14,0,1,0,30,16,14,14,0,0,0,16,2ZM13.92068,19.51807a3.17479,3.17479,0,0,1-1.28125,1.16211,4.05221,4.05221,0,0,1-1.86133.41308,4.42581,4.42581,0,0,1-1.85547-.39892A5.06929,5.06929,0,0,1,7.22146,19.3291l1.13477-1.00781a4.31661,4.31661,0,0,0,1.1123.98682,2.422,2.422,0,0,0,1.25293.34326,2.01306,2.01306,0,0,0,1.42188-.51123,1.80561,1.80561,0,0,0,.55273-1.39307,1.93924,1.93924,0,0,0-.51074-1.36475,1.80529,1.80529,0,0,0-1.39356-.55322,2.20609,2.20609,0,0,0-.9873.22412,1.81843,1.81843,0,0,0-.73437.65772l-1.31641-.3916L8.3699,11.293h5.32031v1.456H9.62967l-.36426,2.772a2.31371,2.31371,0,0,1,.90332-.77686,2.67118,2.67118,0,0,1,1.1416-.24512,2.88191,2.88191,0,0,1,1.56055.43409A3.2132,3.2132,0,0,1,13.97732,16.102a3.33736,3.33736,0,0,1,.41211,1.65918A3.24169,3.24169,0,0,1,13.92068,19.51807Zm10.81445,1.43506H23.08377V19.105a3.47791,3.47791,0,0,1-1.31641,1.477,3.61377,3.61377,0,0,1-1.918.51123,4.18366,4.18366,0,0,1-2.22558-.61621,4.43772,4.43772,0,0,1-1.61036-1.74316,5.61175,5.61175,0,0,1-.60253-2.68067,5.391,5.391,0,0,1,.37793-2.0581,4.8114,4.8114,0,0,1,1.05078-1.59619,4.557,4.557,0,0,1,1.582-1.02881,5.32116,5.32116,0,0,1,1.96-.35694,5.21,5.21,0,0,1,2.21191.44776,5.53988,5.53988,0,0,1,1.80567,1.40039l-1.17578,1.064a4.34085,4.34085,0,0,0-1.28809-1.05713,3.37442,3.37442,0,0,0-1.55371-.34326,3.17747,3.17747,0,0,0-1.63867.42725,3.01776,3.01776,0,0,0-1.14746,1.21777,3.9625,3.9625,0,0,0-.41993,1.8833,4.16464,4.16464,0,0,0,.40625,1.92481,2.84048,2.84048,0,0,0,1.10547,1.19726,3.09709,3.09709,0,0,0,1.582.40576,2.88672,2.88672,0,0,0,1.42774-.34277,2.81977,2.81977,0,0,0,.97363-.86133,1.81934,1.81934,0,0,0,.35645-1.03564H20.451V15.88525h4.28418Z"/></svg>