<svg id="Icons" xmlns="http://www.w3.org/2000/svg" viewBox="0 0 32 32"><defs><style>.cls-1{fill:#5514b4;}</style></defs><path class="cls-1" d="M21.5,4A6.48928,6.48928,0,0,0,16,7.04706l-.00409-.00568-.05334-.08465c-.00824-.01319-.02155-.02027-.03083-.03241A6.48019,6.48019,0,0,0,10.5,4C6,4,4,7.91016,4,11.5,4,22,16,28,16,28s12-7,12-16.5C28,7.91016,26,4,21.5,4ZM15.96625,26.8432C13.79028,25.60791,5,20.08405,5,11.5,5,9.08582,6.15839,5,10.5,5a5.47363,5.47363,0,0,1,4.65179,2.57709l.16932.26874L16,8.9248l.00049-.00073,1.257,1.99506-3.22412,2.65039,2.61425,2.541-2.478,2.08838a.5.5,0,0,0,.64453.76465l3.32275-2.80029L15.53241,13.632l3.0415-2.5L16.591,7.9856l.25544-.40595A5.47359,5.47359,0,0,1,21.5,5C25.84161,5,27,9.08582,27,11.5,27,19.27264,18.12964,25.45215,15.96625,26.8432Z"/></svg>