<svg id="Icons" xmlns="http://www.w3.org/2000/svg" viewBox="0 0 32 32"><defs><style>.cls-1{fill:#5514b4;}</style></defs><path class="cls-1" d="M28.03711,5.99316H5.95264A1.955,1.955,0,0,0,4,7.94629V19.04736A1.95489,1.95489,0,0,0,5.95264,21H8.00146v2.06006a1.95509,1.95509,0,0,0,1.95313,1.95312H24.043a1.95508,1.95508,0,0,0,1.95312-1.95312V21h2.041a1.955,1.955,0,0,0,1.95312-1.95264V7.94629A1.95509,1.95509,0,0,0,28.03711,5.99316Zm-15.07257,6.5044a.5.5,0,0,1-1,0V6.963h1Zm3.00079,0a.5.5,0,0,1-1,0V6.963h1Zm2.99744,0a.5.5,0,0,1-1,0V6.963h1Zm3.00793,0a.5.5,0,0,1-1,0V6.963h1Z"/></svg>