<svg id="Icons" xmlns="http://www.w3.org/2000/svg" viewBox="0 0 32 32"><defs><style>.cls-1{fill:#5514b4;}</style></defs><path class="cls-1" d="M14.13019,11.39418a2.435,2.435,0,0,1-3.15228-.00012,2.82142,2.82142,0,0,0-1.92157,2.49408v.11035h6.99511v-.11035A2.82073,2.82073,0,0,0,14.13019,11.39418Z"/><circle class="cls-1" cx="12.55414" cy="9.4894" r="1.48364"/><path class="cls-1" d="M25.999,4H6.001A2.00683,2.00683,0,0,0,4,6.001V16.999A2.00684,2.00684,0,0,0,6.001,19H15.5166V27.0331H8.90851a1.49979,1.49979,0,1,0-.00122,1H23.09271a1.50024,1.50024,0,1,0-.00122-1H16.5166V19H25.999A2.00687,2.00687,0,0,0,28,16.999V6.001A2.00687,2.00687,0,0,0,25.999,4ZM7.5,28.03115a.5.5,0,1,1,.5-.5A.50034.50034,0,0,1,7.5,28.03115Zm17-1a.5.5,0,1,1-.5.5A.50034.50034,0,0,1,24.5,27.03115Zm-.40851-12.85639a.82626.82626,0,0,1-.82617.82373H8.88251a.82626.82626,0,0,1-.82617-.82373v-.28662a3.70757,3.70757,0,0,1,2.28277-3.29675,2.45729,2.45729,0,0,1-.26861-1.102,2.48364,2.48364,0,1,1,4.96728,0,2.45693,2.45693,0,0,1-.26868,1.10211,4.37444,4.37444,0,0,1,1.31488.94507,3.90764,3.90764,0,0,1,.279-.294,4.51821,4.51821,0,0,1,1.019-.64563,2.45734,2.45734,0,0,1-.27167-1.1076,2.48368,2.48368,0,0,1,4.96735,0,2.45728,2.45728,0,0,1-.26868,1.10217,3.70778,3.70778,0,0,1,2.28247,3.29657Z"/><path class="cls-1" d="M19.59406,10.973A1.48365,1.48365,0,1,0,18.11035,9.4894,1.48536,1.48536,0,0,0,19.59406,10.973Z"/><path class="cls-1" d="M21.17017,11.39418a2.43512,2.43512,0,0,1-3.15113.00092,3.6165,3.6165,0,0,0-1.00177.60339,2.90591,2.90591,0,0,0-.3432.36121,3.31812,3.31812,0,0,1,.37738,1.52844v.11035h6.04v-.11035A2.82119,2.82119,0,0,0,21.17017,11.39418Z"/></svg>