<svg id="Icons" xmlns="http://www.w3.org/2000/svg" viewBox="0 0 32 32"><defs><style>.cls-1{fill:#5514b4;}</style></defs><path class="cls-1" d="M27.65906,14.29767,21.65564,8.28912a1.00024,1.00024,0,0,0-1.26715,0L14.38,14.29718a.99973.99973,0,0,0-.36016.76843l-.00122,7.99512a1,1,0,0,0,1,1.00006h4a1,1,0,0,0,1-1v-3a1,1,0,1,1,2,0v3a1,1,0,0,0,1,1h3.9989a1,1,0,0,0,1-.99994l.0011-7.99383A1.00014,1.00014,0,0,0,27.65906,14.29767Z"/><path class="cls-1" d="M7.50427,7.01123a4.52547,4.52547,0,0,0-.4718,9.02747l-.0155,7.442a.50013.50013,0,0,0,.499.50147h.001a.50035.50035,0,0,0,.5-.49854L8.03253,16.033a4.52565,4.52565,0,0,0-.52826-9.02179Zm0,8.0752a3.5376,3.5376,0,1,1,3.53809-3.5376A3.54145,3.54145,0,0,1,7.50427,15.08643Z"/></svg>