<svg id="Icons" xmlns="http://www.w3.org/2000/svg" viewBox="0 0 32 32"><defs><style>.cls-1{fill:#5514b4;}</style></defs><path class="cls-1" d="M20.707,3H8A1.003,1.003,0,0,0,7,4V28a1.003,1.003,0,0,0,1,1H24a1.003,1.003,0,0,0,1-1V7.30015Zm.804,17.99121-10.98737.00305a.5.5,0,0,1,0-1l10.98737-.00305a.5.5,0,0,1,0,1Zm0-1.97961-10.98737.00305a.5.5,0,0,1,0-1l10.98737-.00305a.5.5,0,0,1,0,1Zm0-2.00342-10.98737.003a.5.5,0,1,1,0-1l10.98737-.003a.5.5,0,0,1,0,1Zm0-2.00348-10.98737.003a.5.5,0,0,1,0-1l10.98737-.003a.5.5,0,1,1,0,1Zm0-2.00348-10.98737.003a.5.5,0,0,1,0-1l10.98737-.003a.5.5,0,0,1,0,1ZM24,8.00126H21.00708V4.71739L24,7.71031Z"/></svg>