<svg id="Icons" xmlns="http://www.w3.org/2000/svg" viewBox="0 0 32 32"><defs><style>.cls-1{fill:#5514b4;}</style></defs><path class="cls-1" d="M27.31592,20.77228,21.7,18.19354a.99982.99982,0,0,0-1.103.40839L19,21a10.97457,10.97457,0,0,1-4.74133-2.54041L27.86621,4.85352a.49995.49995,0,1,0-.707-.707L13.5509,17.75336A10.97485,10.97485,0,0,1,11,13l2.39569-1.59711a1.00009,1.00009,0,0,0,.40814-1.10223L11.22791,4.68378A.99993.99993,0,0,0,10.27924,4H5.0191a1.0037,1.0037,0,0,0-1.00488.99121c-.01337,6.8,2.11939,12.41,5.90473,16.39368L4.18359,27.11963a.49995.49995,0,1,0,.707.707l5.73693-5.73633c3.96942,3.76715,9.54859,5.89551,16.30884,5.89551l.064-.00006a1.00364,1.00364,0,0,0,.99121-1.00366l.00751-5.26014A.99992.99992,0,0,0,27.31592,20.77228ZM5.0191,5h5.26014l.01715.05139.02258.0492,2.51172,5.47711L10.44531,12.168l-.58636.39087.1709.68371A11.97239,11.97239,0,0,0,12.84,18.46417l-2.21332,2.21308C6.95038,16.798,5.00171,11.39618,5.0191,5ZM26.99854,26.98578l-.06214.00006c-6.366,0-11.73767-1.94586-15.6015-5.60278l2.21283-2.21259a11.97382,11.97382,0,0,0,5.20972,2.79968l.68408.171.39081-.58685,1.59015-2.3877L26.89862,21.681l.04919.02234.05134.01715Z"/></svg>