<svg xmlns="http://www.w3.org/2000/svg" width="522" height="522"><style>@media (prefers-color-scheme:dark){path{fill:#fff}}</style><path fill="#5514b4" d="M273.78 172.29h129.87v38.07H360.1v139.26h-42.77V210.36h-43.55zM261 489.93c-126.22 0-228.71-102.49-228.71-228.71C32.29 135 134.78 32.51 261 32.51c126.22 0 228.72 102.49 228.72 228.71 0 126.22-102.49 228.71-228.72 228.71m0 32.07c143.95 0 260.79-116.83 260.79-260.79C521.79 117.25 404.96.43 261 .43 117.05.43.21 117.26.21 261.22.21 405.18 117.05 522 261 522m-44.07-226.62c0-11.21-7.04-18.78-19.04-18.78H169.2v37.03h28.69c12 .01 19.04-7.56 19.04-18.25m-5.21-71.19c0-9.39-6-15.91-16.17-15.91h-26.34v32.34h26.34c10.17-.01 16.17-6.52 16.17-16.43m48.5 73.28c0 33.64-23.73 52.16-57.63 52.16h-75.58V172.29h70.63c34.16 0 57.37 17.47 57.37 49.55 0 14.6-6.52 27.64-16.95 35.47 11.99 7.04 22.16 20.6 22.16 40.16"/></svg>